<?xml version="1.0" encoding="UTF-8" standalone="no"?>
<svg
   width="1280"
   height="720"
   overflow="hidden"
   version="1.1"
   id="svg15"
   sodipodi:docname="UPSSITECHplein.svg"
   inkscape:version="1.3 (0e150ed6c4, 2023-07-21)"
   xmlns:inkscape="http://www.inkscape.org/namespaces/inkscape"
   xmlns:sodipodi="http://sodipodi.sourceforge.net/DTD/sodipodi-0.dtd"
   xmlns="http://www.w3.org/2000/svg"
   xmlns:svg="http://www.w3.org/2000/svg">
  <sodipodi:namedview
     id="namedview15"
     pagecolor="#ffffff"
     bordercolor="#666666"
     borderopacity="1.0"
     inkscape:showpageshadow="2"
     inkscape:pageopacity="0.0"
     inkscape:pagecheckerboard="0"
     inkscape:deskcolor="#d1d1d1"
     inkscape:zoom="0.9496836"
     inkscape:cx="639.68673"
     inkscape:cy="362.75239"
     inkscape:window-width="2740"
     inkscape:window-height="1401"
     inkscape:window-x="420"
     inkscape:window-y="14"
     inkscape:window-maximized="0"
     inkscape:current-layer="g15" />
  <defs
     id="defs1">
    <clipPath
       id="clip0">
      <rect
         x="0"
         y="0"
         width="1280"
         height="720"
         id="rect1" />
    </clipPath>
  </defs>
  <g
     clip-path="url(#clip0)"
     id="g15">
    <rect
       x="0"
       y="0"
       width="1280"
       height="720"
       fill="#FFFFFF"
       id="rect2" />
    <path
       d="M1253.51 289.888C1015.63 503.252 730.627 571.126 613.001 442.429"
       stroke="#000000"
       stroke-width="12.6667"
       stroke-miterlimit="8"
       fill="none"
       fill-rule="evenodd"
       id="path2" />
    <text
       font-family="Calibri Light,Calibri Light_MSFontService,sans-serif"
       font-weight="300"
       font-size="253"
       transform="translate(59.0548 449)"
       id="text8">U<tspan
   font-size="253"
   x="132.363"
   y="-1"
   id="tspan2">P</tspan><tspan
   font-size="253"
   x="246.484"
   y="-1"
   id="tspan3">S</tspan><tspan
   font-size="253"
   x="347.956"
   y="-1"
   id="tspan4">S</tspan><tspan
   font-size="253"
   x="528.018"
   y="0"
   id="tspan5">T</tspan><tspan
   font-size="253"
   x="630.702"
   y="0"
   id="tspan6">E</tspan><tspan
   font-size="253"
   x="732.679"
   y="0"
   id="tspan7">C</tspan><tspan
   font-size="253"
   x="860.949"
   y="-1"
   id="tspan8">H</tspan></text>
    <path
       d="M70.975 266.024C158.968 175.388 312.114 181.341 413.036 279.32"
       stroke="#000000"
       stroke-width="12.6667"
       stroke-miterlimit="8"
       fill="none"
       fill-rule="evenodd"
       id="path8" />
    <path
       d="m 26.132812,-2.0800781 q 0,0.5273437 -0.05859,0.9375 -0.05859,0.38085935 -0.205078,0.64453122 Q 25.722656,-0.234375 25.517578,-0.1171875 25.341797,0 25.107422,0 H 6.9140625 Q 6.2402344,0 5.625,-0.43945313 5.0390625,-0.90820313 5.0390625,-2.0507813 V -35.859375 q 0,-1.142578 0.5859375,-1.582031 0.6152344,-0.46875 1.2890625,-0.46875 H 24.902344 q 0.234375,0 0.410156,0.117187 0.205078,0.117188 0.322266,0.38086 0.117187,0.263672 0.175781,0.673828 0.08789,0.380859 0.08789,0.966797 0,0.527343 -0.08789,0.9375 -0.05859,0.380859 -0.175781,0.644531 -0.117188,0.234375 -0.322266,0.351562 -0.175781,0.117188 -0.410156,0.117188 H 10.078125 v 11.894531 h 12.714844 q 0.234375,0 0.410156,0.146485 0.205078,0.117187 0.322266,0.351562 0.146484,0.234375 0.205078,0.644531 0.05859,0.410157 0.05859,0.966797 0,0.527344 -0.05859,0.908203 -0.05859,0.38086 -0.205078,0.615235 -0.117188,0.234375 -0.322266,0.351562 -0.175781,0.08789 -0.410156,0.08789 H 10.078125 v 13.5644529 h 15.029297 q 0.234375,0 0.410156,0.1171875 0.205078,0.1171875 0.351563,0.3808593 0.146484,0.234375 0.205078,0.6445313 0.05859,0.3808594 0.05859,0.9667969 z m 32.8125,-3.28125 q 0,0.46875 -0.0293,0.8203125 -0.0293,0.3515625 -0.117188,0.6152343 -0.05859,0.2636719 -0.175781,0.46875 -0.117188,0.2050782 -0.410156,0.4980469 -0.292969,0.2929688 -1.230469,0.9082031 -0.9375,0.5859376 -2.34375,1.17187505 -1.376953,0.55664062 -3.19336,0.9375 Q 49.658203,0.46875 47.519531,0.46875 q -3.691406,0 -6.679687,-1.23046875 -2.958985,-1.23046875 -5.06836,-3.63281245 -2.080078,-2.4023438 -3.222656,-5.9179688 -1.113281,-3.544922 -1.113281,-8.144531 0,-4.716797 1.201172,-8.408203 1.230468,-3.691407 3.427734,-6.240235 2.197266,-2.578125 5.244141,-3.925781 3.076172,-1.347656 6.796875,-1.347656 1.640625,0 3.193359,0.322265 1.552734,0.292969 2.871094,0.761719 1.318359,0.46875 2.34375,1.083985 1.02539,0.615234 1.40625,1.02539 0.410156,0.38086 0.527344,0.585938 0.117187,0.205078 0.175781,0.498047 0.08789,0.263671 0.117187,0.644531 0.05859,0.380859 0.05859,0.908203 0,0.585937 -0.05859,0.996094 -0.05859,0.410156 -0.175781,0.703125 -0.117187,0.263672 -0.292969,0.410156 -0.146484,0.117187 -0.380859,0.117187 -0.410156,0 -1.142578,-0.55664 -0.732422,-0.585938 -1.904297,-1.259766 -1.142578,-0.703125 -2.8125,-1.259765 -1.640625,-0.585938 -3.955078,-0.585938 -2.519531,0 -4.59961,1.025391 -2.050781,0.996093 -3.515625,2.958984 -1.464843,1.962891 -2.285156,4.804688 -0.791015,2.8125 -0.791015,6.445312 0,3.603516 0.761718,6.386719 0.791016,2.753906 2.226563,4.628906 1.464844,1.8457031 3.574219,2.8125 2.109375,0.9375 4.77539,0.9375 2.25586,0 3.925781,-0.5566406 1.699219,-0.5566406 2.871094,-1.2304688 1.201172,-0.703125 1.962891,-1.2597656 0.761719,-0.5566406 1.201172,-0.5566406 0.205078,0 0.351562,0.087891 0.146485,0.087891 0.234375,0.3515625 0.08789,0.234375 0.117188,0.6738281 0.05859,0.4394532 0.05859,1.1132813 z M 96.855469,-19.394531 q 0,4.599609 -1.083985,8.291015 -1.083984,3.6914066 -3.251953,6.2988285 -2.138672,2.578125 -5.390625,3.984375 -3.251953,1.37695312 -7.58789,1.37695312 -4.277344,0 -7.41211,-1.25976562 -3.105469,-1.2890625 -5.15625,-3.7207031 -2.021484,-2.4316406 -3.017578,-6.0351559 -0.996094,-3.603516 -0.996094,-8.291016 0,-4.482422 1.083985,-8.144531 1.083984,-3.66211 3.251953,-6.210938 2.167969,-2.578125 5.419922,-3.955078 3.251953,-1.40625 7.58789,-1.40625 4.189453,0 7.294922,1.259766 3.105469,1.259765 5.15625,3.691406 2.080078,2.402344 3.076172,5.976563 1.025391,3.544921 1.025391,8.144531 z m -5.302735,0.351562 q 0,-3.222656 -0.585937,-5.976562 -0.556641,-2.783203 -1.904297,-4.804688 -1.318359,-2.050781 -3.544922,-3.193359 -2.226562,-1.142578 -5.507812,-1.142578 -3.28125,0 -5.507813,1.230469 -2.226562,1.230468 -3.632812,3.28125 -1.376954,2.050781 -1.992188,4.804687 -0.585937,2.724609 -0.585937,5.742188 0,3.339843 0.55664,6.152343 0.556641,2.8125 1.875,4.8632815 1.31836,2.0214844 3.515625,3.1640625 2.226563,1.1132812 5.566406,1.1132812 3.310547,0 5.566407,-1.2304687 2.255859,-1.2304687 3.632812,-3.3105469 1.376953,-2.1093746 1.962891,-4.8632816 0.585937,-2.753906 0.585937,-5.830078 z m 32.929686,16.8457034 q 0,0.5859375 -0.0586,0.9960937 -0.0586,0.3808594 -0.20508,0.67382815 -0.11719,0.26367187 -0.32227,0.41015625 Q 123.7207,0 123.45703,0 h -16.75781 q -0.67383,0 -1.28906,-0.43945313 -0.58594,-0.46875 -0.58594,-1.61132817 V -37.148437 q 0,-0.234375 0.11719,-0.410157 0.11718,-0.175781 0.41015,-0.263672 0.29297,-0.117187 0.79102,-0.175781 0.49805,-0.08789 1.20117,-0.08789 0.73242,0 1.20117,0.08789 0.49805,0.05859 0.79102,0.175781 0.29297,0.08789 0.41015,0.263672 0.11719,0.175782 0.11719,0.410157 v 32.7832026 h 13.59375 q 0.26367,0 0.43945,0.1464844 0.20508,0.1171875 0.32227,0.3808594 0.14648,0.234375 0.20508,0.6445312 0.0586,0.4101563 0.0586,0.9960938 z m 26.66016,0.1171875 q 0,0.5273437 -0.0586,0.9375 -0.0586,0.38085935 -0.20507,0.64453122 -0.14649,0.26367188 -0.35157,0.38085938 Q 150.35156,0 150.11719,0 h -18.19336 q -0.67383,0 -1.28906,-0.43945313 -0.58594,-0.46875 -0.58594,-1.61132817 V -35.859375 q 0,-1.142578 0.58594,-1.582031 0.61523,-0.46875 1.28906,-0.46875 h 17.98828 q 0.23437,0 0.41016,0.117187 0.20507,0.117188 0.32226,0.38086 0.11719,0.263672 0.17578,0.673828 0.0879,0.380859 0.0879,0.966797 0,0.527343 -0.0879,0.9375 -0.0586,0.380859 -0.17578,0.644531 -0.11719,0.234375 -0.32226,0.351562 -0.17579,0.117188 -0.41016,0.117188 h -14.82422 v 11.894531 h 12.71484 q 0.23438,0 0.41016,0.146485 0.20508,0.117187 0.32227,0.351562 0.14648,0.234375 0.20507,0.644531 0.0586,0.410157 0.0586,0.966797 0,0.527344 -0.0586,0.908203 -0.0586,0.38086 -0.20507,0.615235 -0.11719,0.234375 -0.32227,0.351562 -0.17578,0.08789 -0.41016,0.08789 h -12.71484 v 13.5644529 h 15.0293 q 0.23437,0 0.41015,0.1171875 0.20508,0.1171875 0.35157,0.3808593 0.14648,0.234375 0.20507,0.6445313 0.0586,0.3808594 0.0586,0.9667969 z m 50.91797,-17.4316409 q 0,4.921875 -1.25977,8.613281 -1.25976,3.6621099 -3.69141,6.0937505 -2.40234,2.4023437 -5.91796,3.6035156 Q 187.67578,0 182.8125,0 h -8.02734 q -0.67383,0 -1.28907,-0.43945313 -0.58593,-0.46875 -0.58593,-1.61132817 V -35.859375 q 0,-1.142578 0.58593,-1.582031 0.61524,-0.46875 1.28907,-0.46875 h 8.58398 q 4.92188,0 8.32031,1.289062 3.39844,1.259766 5.6836,3.66211 2.31445,2.373047 3.48632,5.771484 1.20118,3.398438 1.20118,7.675781 z m -5.30274,0.205078 q 0,-3.076171 -0.76172,-5.71289 -0.76172,-2.666016 -2.40234,-4.59961 -1.61133,-1.933593 -4.10156,-3.017578 -2.49024,-1.083984 -6.41602,-1.083984 h -5.12695 V -4.21875 h 5.18555 q 3.63281,0 6.12304,-0.9082031 2.49024,-0.9082031 4.16016,-2.7832031 1.66992,-1.8750001 2.49023,-4.6874998 0.84961,-2.841797 0.84961,-6.708985 z m 18.98438,-19.30664 q 0,0.908203 -0.0879,1.669922 -0.0879,0.732422 -0.29297,1.435547 -0.20508,0.673828 -0.55664,1.347656 -0.32227,0.644531 -0.82032,1.347656 l -4.01367,6.035156 q -0.14648,0.205078 -0.35156,0.38086 -0.17578,0.175781 -0.46875,0.292968 -0.26367,0.08789 -0.64453,0.146485 -0.35156,0.0293 -0.9082,0.0293 -0.49805,0 -0.84961,-0.0293 -0.32227,-0.05859 -0.46875,-0.146485 -0.14649,-0.117187 -0.17578,-0.292968 0,-0.175782 0.11718,-0.439453 l 3.89649,-8.056641 v -3.720703 q 0,-0.761719 0.14648,-1.230469 0.17578,-0.46875 0.52735,-0.732422 0.35156,-0.263672 0.8789,-0.351562 0.52735,-0.08789 1.28906,-0.08789 0.73243,0 1.25977,0.08789 0.52734,0.08789 0.84961,0.351562 0.35156,0.263672 0.49805,0.732422 0.17578,0.46875 0.17578,1.230469 z m 14.17968,37.85156225 q 0,0.234375 -0.11718,0.41015625 -0.11719,0.17578125 -0.41016,0.29296875 -0.29297,0.08789063 -0.79101,0.14648437 -0.46875,0.08789063 -1.20118,0.08789063 -0.70312,0 -1.20117,-0.08789063 -0.49805,-0.05859374 -0.79101,-0.14648437 Q 225.11719,-0.17578125 225,-0.3515625 224.88281,-0.52734375 224.88281,-0.76171875 V -37.148437 q 0,-0.234375 0.11719,-0.410157 0.14648,-0.175781 0.43945,-0.263672 0.32227,-0.117187 0.79102,-0.175781 0.49805,-0.08789 1.17187,-0.08789 0.73243,0 1.20118,0.08789 0.49804,0.05859 0.79101,0.175781 0.29297,0.08789 0.41016,0.263672 0.11718,0.175782 0.11718,0.410157 z m 38.73047,-1.31835935 q 0,0.5859375 -0.20507,0.9960937 -0.17579,0.41015628 -0.49805,0.67382815 -0.29297,0.26367188 -0.67383,0.38085937 -0.38086,0.1171875 -0.76172,0.1171875 h -1.61133 q -0.76172,0 -1.34765,-0.14648437 -0.55664,-0.17578125 -1.08399,-0.5859375 -0.49804,-0.43945315 -1.02539,-1.17187495 -0.49804,-0.7324219 -1.11328,-1.8750001 L 248.37891,-25.253906 q -0.9375,-1.669922 -1.9043,-3.486328 -0.9375,-1.845703 -1.75781,-3.574219 h -0.0586 q 0.0586,2.109375 0.0879,4.306641 0.0293,2.197265 0.0293,4.365234 v 22.88085925 q 0,0.20507813 -0.11719,0.41015625 -0.11718,0.17578125 -0.41015,0.29296875 -0.26368,0.08789063 -0.73243,0.14648437 -0.43945,0.08789063 -1.14257,0.08789063 -0.70313,0 -1.17188,-0.08789063 -0.43945,-0.05859374 -0.70312,-0.14648437 -0.26368,-0.1171875 -0.38086,-0.29296875 Q 240,-0.55664062 240,-0.76171875 V -35.742187 q 0,-1.171875 0.64453,-1.669922 0.64453,-0.498047 1.40625,-0.498047 h 2.40234 q 0.84961,0 1.40625,0.146484 0.58594,0.146485 1.0254,0.498047 0.46875,0.322266 0.8789,0.9375 0.43945,0.585938 0.9375,1.494141 l 9.19922,16.640625 q 0.84961,1.523437 1.64063,2.988281 0.79101,1.435547 1.52343,2.841797 0.73242,1.40625 1.43555,2.7832029 0.73242,1.3476562 1.43555,2.7246094 h 0.0293 q -0.0586,-2.3144532 -0.0879,-4.8046873 0,-2.519532 0,-4.833985 v -20.566406 q 0,-0.205078 0.11719,-0.380859 0.11719,-0.175781 0.38086,-0.292969 0.29297,-0.146484 0.73242,-0.205078 0.46875,-0.05859 1.20117,-0.05859 0.64453,0 1.11328,0.05859 0.46875,0.05859 0.73243,0.205078 0.26367,0.117188 0.38086,0.292969 0.11718,0.175781 0.11718,0.380859 z m 38.55469,-30.6738279 q 0,0.55664 -0.0586,0.996094 -0.0586,0.410156 -0.17578,0.703125 -0.11719,0.263671 -0.29297,0.380859 -0.17578,0.117187 -0.38086,0.117187 -0.35156,0 -1.17188,-0.55664 -0.82031,-0.556641 -2.19726,-1.230469 -1.37696,-0.673828 -3.31055,-1.230469 -1.9043,-0.55664 -4.54102,-0.55664 -3.13476,0 -5.625,1.142578 -2.49023,1.142578 -4.21875,3.164062 -1.72851,2.021485 -2.66601,4.804688 -0.9082,2.783203 -0.9082,6.035156 0,3.632812 0.99609,6.445312 1.02539,2.8125005 2.8125,4.7460943 1.78711,1.9335937 4.24805,2.9296875 2.49023,0.9960937 5.44922,0.9960937 1.75781,0 3.54492,-0.4101562 1.8164,-0.4394532 3.36914,-1.2890625 V -16.611328 h -8.78906 q -0.49805,0 -0.76172,-0.498047 -0.23438,-0.498047 -0.23438,-1.552734 0,-0.556641 0.0586,-0.9375 0.0586,-0.410157 0.17578,-0.644532 0.14648,-0.263671 0.32226,-0.380859 0.17578,-0.117187 0.43946,-0.117187 h 12.04101 q 0.32227,0 0.64453,0.117187 0.32227,0.117188 0.58594,0.351563 0.26367,0.234375 0.41016,0.644531 0.14648,0.410156 0.14648,0.9375 v 14.4433591 q 0,0.7617188 -0.26367,1.3183594 -0.26367,0.5566406 -1.11328,0.9960938 -0.84961,0.4101562 -2.19727,0.9082031 -1.34765,0.49804685 -2.7832,0.84960935 -1.43555,0.3515625 -2.90039,0.52734375 -1.46485,0.17578125 -2.90039,0.17578125 -4.39453,0 -7.85157,-1.34765625 -3.45703,-1.3769531 -5.85937,-3.8964844 -2.37305,-2.5195312 -3.63281,-6.0351561 -1.25977,-3.515625 -1.25977,-7.851563 0,-4.511718 1.34766,-8.173828 1.37695,-3.662109 3.83789,-6.240234 2.49023,-2.578125 5.94726,-3.984375 3.48633,-1.435547 7.70508,-1.435547 2.16797,0 4.07227,0.380859 1.90429,0.38086 3.36914,0.908204 1.49414,0.498046 2.49023,1.113281 1.02539,0.585937 1.40625,0.966797 0.38086,0.380859 0.52735,0.878906 0.14648,0.498047 0.14648,1.435547 z m 30.46875,30.6738279 q 0,0.5273437 -0.0586,0.9375 -0.0586,0.38085935 -0.20508,0.64453122 -0.14649,0.26367188 -0.35156,0.38085938 Q 336.88477,0 336.65039,0 h -18.19336 q -0.67383,0 -1.28906,-0.43945313 -0.58594,-0.46875 -0.58594,-1.61132817 V -35.859375 q 0,-1.142578 0.58594,-1.582031 0.61523,-0.46875 1.28906,-0.46875 h 17.98828 q 0.23438,0 0.41016,0.117187 0.20508,0.117188 0.32226,0.38086 0.11719,0.263672 0.17579,0.673828 0.0879,0.380859 0.0879,0.966797 0,0.527343 -0.0879,0.9375 -0.0586,0.380859 -0.17579,0.644531 -0.11718,0.234375 -0.32226,0.351562 -0.17578,0.117188 -0.41016,0.117188 h -14.82422 v 11.894531 h 12.71485 q 0.23437,0 0.41015,0.146485 0.20508,0.117187 0.32227,0.351562 0.14648,0.234375 0.20508,0.644531 0.0586,0.410157 0.0586,0.966797 0,0.527344 -0.0586,0.908203 -0.0586,0.38086 -0.20508,0.615235 -0.11719,0.234375 -0.32227,0.351562 -0.17578,0.08789 -0.41015,0.08789 h -12.71485 v 13.5644529 h 15.0293 q 0.23438,0 0.41016,0.1171875 0.20507,0.1171875 0.35156,0.3808593 0.14648,0.234375 0.20508,0.6445313 0.0586,0.3808594 0.0586,0.9667969 z m 36.85547,0 q 0,0.5859375 -0.20508,0.9960937 -0.17578,0.41015628 -0.49805,0.67382815 -0.29296,0.26367188 -0.67382,0.38085937 -0.38086,0.1171875 -0.76172,0.1171875 h -1.61133 q -0.76172,0 -1.34766,-0.14648437 -0.55664,-0.17578125 -1.08398,-0.5859375 -0.49805,-0.43945315 -1.02539,-1.17187495 -0.49805,-0.7324219 -1.11328,-1.8750001 L 354.25781,-25.253906 q -0.9375,-1.669922 -1.90429,-3.486328 -0.9375,-1.845703 -1.75782,-3.574219 h -0.0586 q 0.0586,2.109375 0.0879,4.306641 0.0293,2.197265 0.0293,4.365234 v 22.88085925 q 0,0.20507813 -0.11719,0.41015625 -0.11719,0.17578125 -0.41016,0.29296875 -0.26367,0.08789063 -0.73242,0.14648437 -0.43945,0.08789063 -1.14258,0.08789063 -0.70312,0 -1.17187,-0.08789063 -0.43946,-0.05859374 -0.70313,-0.14648437 -0.26367,-0.1171875 -0.38086,-0.29296875 -0.11718,-0.20507812 -0.11718,-0.41015625 V -35.742187 q 0,-1.171875 0.64453,-1.669922 0.64453,-0.498047 1.40625,-0.498047 h 2.40234 q 0.84961,0 1.40625,0.146484 0.58594,0.146485 1.02539,0.498047 0.46875,0.322266 0.87891,0.9375 0.43945,0.585938 0.9375,1.494141 l 9.19922,16.640625 q 0.84961,1.523437 1.64062,2.988281 0.79102,1.435547 1.52344,2.841797 0.73242,1.40625 1.43555,2.7832029 0.73242,1.3476562 1.43554,2.7246094 h 0.0293 q -0.0586,-2.3144532 -0.0879,-4.8046873 0,-2.519532 0,-4.833985 v -20.566406 q 0,-0.205078 0.11719,-0.380859 0.11718,-0.175781 0.38086,-0.292969 0.29296,-0.146484 0.73242,-0.205078 0.46875,-0.05859 1.20117,-0.05859 0.64453,0 1.11328,0.05859 0.46875,0.05859 0.73242,0.205078 0.26367,0.117188 0.38086,0.292969 0.11719,0.175781 0.11719,0.380859 z m 15.11719,1.31835935 q 0,0.234375 -0.11719,0.41015625 -0.11719,0.17578125 -0.41016,0.29296875 -0.29297,0.08789063 -0.79101,0.14648437 -0.46875,0.08789063 -1.20117,0.08789063 -0.70313,0 -1.20118,-0.08789063 -0.49804,-0.05859374 -0.79101,-0.14648437 -0.29297,-0.1171875 -0.41016,-0.29296875 -0.11719,-0.17578125 -0.11719,-0.41015625 V -37.148437 q 0,-0.234375 0.11719,-0.410157 0.14649,-0.175781 0.43946,-0.263672 0.32226,-0.117187 0.79101,-0.175781 0.49805,-0.08789 1.17188,-0.08789 0.73242,0 1.20117,0.08789 0.49804,0.05859 0.79101,0.175781 0.29297,0.08789 0.41016,0.263672 0.11719,0.175782 0.11719,0.410157 z m 31.17187,-1.31835935 q 0,0.5273437 -0.0586,0.9375 -0.0586,0.38085935 -0.20508,0.64453122 -0.14648,0.26367188 -0.35156,0.38085938 Q 420.0293,0 419.79492,0 h -18.19336 q -0.67383,0 -1.28906,-0.43945313 -0.58594,-0.46875 -0.58594,-1.61132817 V -35.859375 q 0,-1.142578 0.58594,-1.582031 0.61523,-0.46875 1.28906,-0.46875 h 17.98828 q 0.23438,0 0.41016,0.117187 0.20508,0.117188 0.32227,0.38086 0.11718,0.263672 0.17578,0.673828 0.0879,0.380859 0.0879,0.966797 0,0.527343 -0.0879,0.9375 -0.0586,0.380859 -0.17578,0.644531 -0.11719,0.234375 -0.32227,0.351562 -0.17578,0.117188 -0.41016,0.117188 h -14.82422 v 11.894531 h 12.71485 q 0.23437,0 0.41015,0.146485 0.20508,0.117187 0.32227,0.351562 0.14648,0.234375 0.20508,0.644531 0.0586,0.410157 0.0586,0.966797 0,0.527344 -0.0586,0.908203 -0.0586,0.38086 -0.20508,0.615235 -0.11719,0.234375 -0.32227,0.351562 -0.17578,0.08789 -0.41015,0.08789 h -12.71485 v 13.5644529 h 15.0293 q 0.23438,0 0.41016,0.1171875 0.20508,0.1171875 0.35156,0.3808593 0.14648,0.234375 0.20508,0.6445313 0.0586,0.3808594 0.0586,0.9667969 z M 457.5293,-14.003906 q 0,3.457031 -1.02539,6.1816404 -0.9961,2.6953125 -2.8711,4.5703125 -1.875,1.875 -4.57031,2.84179685 -2.69531,0.96679687 -6.12305,0.96679687 -3.13476,0 -5.71289,-0.90820312 -2.57812,-0.9082031 -4.42383,-2.6660156 -1.8457,-1.7871094 -2.84179,-4.453125 -0.9961,-2.6660159 -0.9961,-6.1523439 v -23.52539 q 0,-0.234375 0.11719,-0.410157 0.11719,-0.175781 0.41016,-0.263672 0.29297,-0.117187 0.76172,-0.175781 0.46875,-0.08789 1.23046,-0.08789 0.70313,0 1.20118,0.08789 0.49804,0.05859 0.76172,0.175781 0.29296,0.08789 0.41015,0.263672 0.11719,0.175782 0.11719,0.410157 v 22.910156 q 0,2.636718 0.64453,4.5996091 0.64453,1.9628907 1.8457,3.28125 1.23047,1.2890625 2.92969,1.9628907 1.72852,0.6445312 3.86719,0.6445312 2.19726,0 3.89648,-0.6445312 1.72852,-0.6445313 2.90039,-1.9335938 1.20118,-1.2890625 1.81641,-3.1933594 0.64453,-1.9042966 0.64453,-4.4531246 v -23.173828 q 0,-0.234375 0.11719,-0.410157 0.11719,-0.175781 0.41015,-0.263672 0.29297,-0.117187 0.76172,-0.175781 0.49805,-0.08789 1.23047,-0.08789 0.70313,0 1.17188,0.08789 0.49804,0.05859 0.76172,0.175781 0.29296,0.08789 0.41015,0.263672 0.14649,0.175782 0.14649,0.410157 z m 35.27343,13.24218725 q 0,0.234375 -0.0879,0.41015625 -0.0879,0.17578125 -0.38086,0.29296875 -0.29296,0.1171875 -0.82031,0.17578125 -0.52734,0.0585938 -1.40625,0.0585938 -0.76172,0 -1.25976,-0.0585938 -0.46875,-0.05859375 -0.76172,-0.17578125 -0.29297,-0.14648438 -0.46875,-0.38085938 -0.14649,-0.23437499 -0.26367,-0.58593747 l -3.48633,-8.9355469 q -0.61524,-1.5234375 -1.28907,-2.7832035 -0.64453,-1.289062 -1.55273,-2.197265 -0.9082,-0.9375 -2.13867,-1.435547 -1.23047,-0.527344 -2.95899,-0.527344 h -3.36914 v 16.14257825 q 0,0.234375 -0.14648,0.41015625 -0.11719,0.17578125 -0.41016,0.29296875 -0.26367,0.08789063 -0.76172,0.14648437 -0.46875,0.08789063 -1.20117,0.08789063 -0.73242,0 -1.23047,-0.08789063 -0.46875,-0.05859374 -0.76172,-0.14648437 -0.29296,-0.1171875 -0.41015,-0.29296875 -0.11719,-0.17578125 -0.11719,-0.41015625 V -35.859375 q 0,-1.142578 0.58594,-1.582031 0.61523,-0.46875 1.28906,-0.46875 h 8.05664 q 1.43555,0 2.37305,0.08789 0.9668,0.05859 1.72851,0.146485 2.19727,0.380859 3.86719,1.201172 1.69922,0.820312 2.8418,2.080078 1.14258,1.259765 1.69922,2.90039 0.58593,1.611329 0.58593,3.574219 0,1.904297 -0.52734,3.427735 -0.49805,1.49414 -1.46484,2.666015 -0.9668,1.142578 -2.31446,1.992188 -1.34765,0.849609 -3.01757,1.435547 0.9375,0.410156 1.69921,1.054687 0.76172,0.615234 1.40625,1.494141 0.67383,0.878906 1.25977,2.021484 0.58594,1.142578 1.17188,2.578125 l 3.39843,8.3496094 q 0.41016,1.0546875 0.52735,1.4941406 0.11718,0.41015625 0.11718,0.64453125 z M 485.21484,-27.392578 q 0,-2.226563 -0.99609,-3.75 -0.99609,-1.552734 -3.33984,-2.226563 -0.73243,-0.205078 -1.66993,-0.292968 -0.9082,-0.08789 -2.40234,-0.08789 h -4.24805 v 12.773438 h 4.92188 q 1.99219,0 3.42773,-0.46875 1.46485,-0.498047 2.43164,-1.347657 0.9668,-0.878906 1.40625,-2.050781 0.46875,-1.171875 0.46875,-2.548828 z m 34.45313,16.757812 q 0,2.666016 -0.9961,4.7460941 -0.96679,2.0800781 -2.7246,3.5449219 -1.72852,1.43554687 -4.10157,2.16796875 -2.34375,0.73242187 -5.06836,0.73242187 -1.90429,0 -3.54492,-0.32226562 -1.61133,-0.32226562 -2.90039,-0.79101562 -1.25976,-0.46874998 -2.13867,-0.96679688 -0.84961,-0.4980469 -1.20117,-0.8496094 -0.32227,-0.3515625 -0.49805,-0.8789062 -0.14648,-0.5566407 -0.14648,-1.4648438 0,-0.6445312 0.0586,-1.0546875 0.0586,-0.4394531 0.17578,-0.703125 0.11719,-0.2636718 0.29297,-0.3515625 0.17578,-0.1171875 0.41016,-0.1171875 0.41015,0 1.14257,0.4980469 0.76172,0.4980469 1.9336,1.0839844 1.17187,0.5859375 2.8125,1.1132812 1.66992,0.4980469 3.83789,0.4980469 1.64062,0 2.98828,-0.4394531 1.37695,-0.4394531 2.34375,-1.2304688 0.99609,-0.8203125 1.52344,-1.9921875 0.52734,-1.171875 0.52734,-2.6660156 0,-1.611328 -0.73242,-2.753906 -0.73242,-1.142578 -1.93359,-1.992188 -1.20118,-0.878906 -2.75391,-1.582031 -1.52344,-0.732422 -3.13477,-1.464844 -1.61132,-0.761718 -3.13476,-1.669922 -1.52344,-0.908203 -2.72461,-2.138671 -1.20117,-1.230469 -1.96289,-2.871094 -0.73242,-1.669922 -0.73242,-3.984375 0,-2.373047 0.84961,-4.21875 0.8789,-1.875 2.40234,-3.134766 1.55273,-1.259765 3.66211,-1.904297 2.13867,-0.673828 4.59961,-0.673828 1.25976,0 2.51953,0.234375 1.28906,0.205078 2.40234,0.585938 1.14258,0.351562 2.02149,0.820312 0.8789,0.439453 1.14258,0.732422 0.29296,0.263672 0.38085,0.439453 0.0879,0.146485 0.14649,0.410156 0.0586,0.234375 0.0879,0.585938 0.0293,0.351562 0.0293,0.908203 0,0.527344 -0.0586,0.9375 -0.0293,0.410156 -0.11718,0.703125 -0.0879,0.263672 -0.26368,0.410156 -0.14648,0.117188 -0.35156,0.117188 -0.32226,0 -1.02539,-0.410156 -0.67383,-0.410157 -1.66992,-0.908204 -0.9961,-0.527343 -2.37305,-0.9375 -1.34765,-0.439453 -3.04687,-0.439453 -1.58203,0 -2.75391,0.439453 -1.17187,0.410157 -1.93359,1.113282 -0.76172,0.703125 -1.14258,1.669922 -0.38086,0.966796 -0.38086,2.050781 0,1.582031 0.73242,2.724609 0.73242,1.142578 1.93359,2.021485 1.23047,0.878906 2.78321,1.611328 1.55273,0.732422 3.16406,1.49414 1.61133,0.732422 3.16406,1.640625 1.55274,0.878907 2.75391,2.109375 1.23047,1.201172 1.96289,2.871094 0.76172,1.640625 0.76172,3.896484 z"
       id="text9"
       style="font-size:60px;font-family:Calibri, Calibri_MSFontService, sans-serif"
       transform="translate(78.5165 509)"
       aria-label="ECOLE D’INGENIEURS" />
    <path
       d="M573.5 252C573.5 246.201 578.201 241.5 584 241.5 589.799 241.5 594.5 246.201 594.5 252 594.5 257.799 589.799 262.5 584 262.5 578.201 262.5 573.5 257.799 573.5 252Z"
       stroke="#000000"
       stroke-width="1.33333"
       stroke-miterlimit="8"
       fill-rule="evenodd"
       id="path9" />
    <path
       d="M603.5 238C603.5 233.306 607.306 229.5 612 229.5 616.694 229.5 620.5 233.306 620.5 238 620.5 242.694 616.694 246.5 612 246.5 607.306 246.5 603.5 242.694 603.5 238Z"
       stroke="#000000"
       stroke-width="1.33333"
       stroke-miterlimit="8"
       fill-rule="evenodd"
       id="path10" />
    <path
       d="M628.5 218C628.5 213.858 631.858 210.5 636 210.5 640.142 210.5 643.5 213.858 643.5 218 643.5 222.142 640.142 225.5 636 225.5 631.858 225.5 628.5 222.142 628.5 218Z"
       stroke="#000000"
       stroke-width="1.33333"
       stroke-miterlimit="8"
       fill-rule="evenodd"
       id="path11" />
    <path
       d="M648.5 197.5C648.5 194.186 651.186 191.5 654.5 191.5 657.814 191.5 660.5 194.186 660.5 197.5 660.5 200.814 657.814 203.5 654.5 203.5 651.186 203.5 648.5 200.814 648.5 197.5Z"
       stroke="#000000"
       stroke-width="1.33333"
       stroke-miterlimit="8"
       fill-rule="evenodd"
       id="path12" />
    <path
       d="M660.5 176C660.5 172.962 662.963 170.5 666 170.5 669.038 170.5 671.5 172.962 671.5 176 671.5 179.038 669.038 181.5 666 181.5 662.963 181.5 660.5 179.038 660.5 176Z"
       stroke="#000000"
       stroke-width="1.33333"
       stroke-miterlimit="8"
       fill-rule="evenodd"
       id="path13" />
    <path
       d="M549.53 285.5C547.353 285.5 543.782 285.588 541.692 286.029 539.602 286.469 538.253 287.13 536.99 288.143 535.727 289.156 534.813 290.257 534.116 292.107 533.42 293.957 533.158 295.279 532.81 299.243 532.462 303.207 532.244 309.99 532.026 315.893 531.809 321.795 531.46 329.812 531.504 334.657 531.547 339.502 531.852 341.793 532.287 344.964 532.723 348.135 533.376 350.91 534.116 353.685 534.856 356.46 536.337 357.914 536.729 361.614 537.121 365.314 536.38 370.555 536.467 375.885 536.555 381.215 536.99 387.778 537.251 393.592 537.512 399.406 537.469 405.661 538.035 410.771 538.601 415.88 539.69 420.064 540.647 424.249 541.605 428.434 543.391 432.97 543.782 435.878 544.174 438.785 542.781 439.754 542.999 441.692 543.216 443.63 544.218 446.405 545.089 447.506 545.959 448.607 547.179 448.211 548.224 448.299 549.269 448.387 550.967 448.827 551.359 448.035 551.751 447.242 550.88 445.127 550.575 443.542 550.27 441.956 549.748 443.013 549.53 438.52 549.312 434.028 549.138 421.694 549.269 416.585 549.399 411.475 548.224 413.898 550.314 407.863 552.404 401.829 559.936 390.465 561.809 380.378 563.681 370.291 561.286 357.165 561.547 347.342 561.809 337.52 562.288 322.676 563.376 321.443 564.465 320.209 567.121 334.613 568.079 339.943 569.036 345.272 569.211 349.941 569.124 353.421 569.037 356.901 567.208 359.455 567.556 360.821 567.904 362.186 569.82 361.658 571.214 361.614 572.607 361.57 574.871 361.085 575.916 360.557 576.961 360.028 577.614 362.098 577.484 358.442 577.353 354.786 576.743 347.915 575.132 338.621 573.521 329.327 569.385 310.695 567.817 302.679 566.25 294.662 566.598 293.12 565.727 290.521 564.856 287.923 564.421 287.835 562.592 287.086 560.764 286.337 556.714 286.161 554.755 286.029 552.795 285.896 551.707 285.5 549.53 285.5Z"
       stroke="#000000"
       stroke-width="1.33333"
       stroke-miterlimit="8"
       fill-rule="evenodd"
       id="path14" />
    <path
       d="M539.5 264.5C539.5 257.873 544.201 252.5 550 252.5 555.799 252.5 560.5 257.873 560.5 264.5 560.5 271.127 555.799 276.5 550 276.5 544.201 276.5 539.5 271.127 539.5 264.5Z"
       stroke="#000000"
       stroke-width="1.33333"
       stroke-miterlimit="8"
       fill-rule="evenodd"
       id="path15" />
  </g>
</svg>
