<?xml version="1.0" encoding="UTF-8" standalone="no"?>
<svg
   width="1280"
   height="720"
   overflow="hidden"
   version="1.1"
   id="svg15"
   sodipodi:docname="UPSSITECHplein_sans EI.svg"
   inkscape:version="1.3 (0e150ed6c4, 2023-07-21)"
   xmlns:inkscape="http://www.inkscape.org/namespaces/inkscape"
   xmlns:sodipodi="http://sodipodi.sourceforge.net/DTD/sodipodi-0.dtd"
   xmlns="http://www.w3.org/2000/svg"
   xmlns:svg="http://www.w3.org/2000/svg">
  <sodipodi:namedview
     id="namedview15"
     pagecolor="#ffffff"
     bordercolor="#666666"
     borderopacity="1.0"
     inkscape:showpageshadow="2"
     inkscape:pageopacity="0.0"
     inkscape:pagecheckerboard="0"
     inkscape:deskcolor="#d1d1d1"
     inkscape:zoom="0.9496836"
     inkscape:cx="639.68673"
     inkscape:cy="362.75239"
     inkscape:window-width="2740"
     inkscape:window-height="1401"
     inkscape:window-x="420"
     inkscape:window-y="14"
     inkscape:window-maximized="0"
     inkscape:current-layer="g15" />
  <defs
     id="defs1">
    <clipPath
       id="clip0">
      <rect
         x="0"
         y="0"
         width="1280"
         height="720"
         id="rect1" />
    </clipPath>
  </defs>
  <g
     clip-path="url(#clip0)"
     id="g15">
    <rect
       x="0"
       y="0"
       width="1280"
       height="720"
       fill="#FFFFFF"
       id="rect2" />
    <path
       d="M1253.51 289.888C1015.63 503.252 730.627 571.126 613.001 442.429"
       stroke="#000000"
       stroke-width="12.6667"
       stroke-miterlimit="8"
       fill="none"
       fill-rule="evenodd"
       id="path2" />
    <text
       font-family="Calibri Light,Calibri Light_MSFontService,sans-serif"
       font-weight="300"
       font-size="253"
       transform="translate(59.0548 449)"
       id="text8">U<tspan
   font-size="253"
   x="132.363"
   y="-1"
   id="tspan2">P</tspan><tspan
   font-size="253"
   x="246.484"
   y="-1"
   id="tspan3">S</tspan><tspan
   font-size="253"
   x="347.956"
   y="-1"
   id="tspan4">S</tspan><tspan
   font-size="253"
   x="528.018"
   y="0"
   id="tspan5">T</tspan><tspan
   font-size="253"
   x="630.702"
   y="0"
   id="tspan6">E</tspan><tspan
   font-size="253"
   x="732.679"
   y="0"
   id="tspan7">C</tspan><tspan
   font-size="253"
   x="860.949"
   y="-1"
   id="tspan8">H</tspan></text>
    <path
       d="M70.975 266.024C158.968 175.388 312.114 181.341 413.036 279.32"
       stroke="#000000"
       stroke-width="12.6667"
       stroke-miterlimit="8"
       fill="none"
       fill-rule="evenodd"
       id="path8" />
    <path
       d="M573.5 252C573.5 246.201 578.201 241.5 584 241.5 589.799 241.5 594.5 246.201 594.5 252 594.5 257.799 589.799 262.5 584 262.5 578.201 262.5 573.5 257.799 573.5 252Z"
       stroke="#000000"
       stroke-width="1.33333"
       stroke-miterlimit="8"
       fill-rule="evenodd"
       id="path9" />
    <path
       d="M603.5 238C603.5 233.306 607.306 229.5 612 229.5 616.694 229.5 620.5 233.306 620.5 238 620.5 242.694 616.694 246.5 612 246.5 607.306 246.5 603.5 242.694 603.5 238Z"
       stroke="#000000"
       stroke-width="1.33333"
       stroke-miterlimit="8"
       fill-rule="evenodd"
       id="path10" />
    <path
       d="M628.5 218C628.5 213.858 631.858 210.5 636 210.5 640.142 210.5 643.5 213.858 643.5 218 643.5 222.142 640.142 225.5 636 225.5 631.858 225.5 628.5 222.142 628.5 218Z"
       stroke="#000000"
       stroke-width="1.33333"
       stroke-miterlimit="8"
       fill-rule="evenodd"
       id="path11" />
    <path
       d="M648.5 197.5C648.5 194.186 651.186 191.5 654.5 191.5 657.814 191.5 660.5 194.186 660.5 197.5 660.5 200.814 657.814 203.5 654.5 203.5 651.186 203.5 648.5 200.814 648.5 197.5Z"
       stroke="#000000"
       stroke-width="1.33333"
       stroke-miterlimit="8"
       fill-rule="evenodd"
       id="path12" />
    <path
       d="M660.5 176C660.5 172.962 662.963 170.5 666 170.5 669.038 170.5 671.5 172.962 671.5 176 671.5 179.038 669.038 181.5 666 181.5 662.963 181.5 660.5 179.038 660.5 176Z"
       stroke="#000000"
       stroke-width="1.33333"
       stroke-miterlimit="8"
       fill-rule="evenodd"
       id="path13" />
    <path
       d="M549.53 285.5C547.353 285.5 543.782 285.588 541.692 286.029 539.602 286.469 538.253 287.13 536.99 288.143 535.727 289.156 534.813 290.257 534.116 292.107 533.42 293.957 533.158 295.279 532.81 299.243 532.462 303.207 532.244 309.99 532.026 315.893 531.809 321.795 531.46 329.812 531.504 334.657 531.547 339.502 531.852 341.793 532.287 344.964 532.723 348.135 533.376 350.91 534.116 353.685 534.856 356.46 536.337 357.914 536.729 361.614 537.121 365.314 536.38 370.555 536.467 375.885 536.555 381.215 536.99 387.778 537.251 393.592 537.512 399.406 537.469 405.661 538.035 410.771 538.601 415.88 539.69 420.064 540.647 424.249 541.605 428.434 543.391 432.97 543.782 435.878 544.174 438.785 542.781 439.754 542.999 441.692 543.216 443.63 544.218 446.405 545.089 447.506 545.959 448.607 547.179 448.211 548.224 448.299 549.269 448.387 550.967 448.827 551.359 448.035 551.751 447.242 550.88 445.127 550.575 443.542 550.27 441.956 549.748 443.013 549.53 438.52 549.312 434.028 549.138 421.694 549.269 416.585 549.399 411.475 548.224 413.898 550.314 407.863 552.404 401.829 559.936 390.465 561.809 380.378 563.681 370.291 561.286 357.165 561.547 347.342 561.809 337.52 562.288 322.676 563.376 321.443 564.465 320.209 567.121 334.613 568.079 339.943 569.036 345.272 569.211 349.941 569.124 353.421 569.037 356.901 567.208 359.455 567.556 360.821 567.904 362.186 569.82 361.658 571.214 361.614 572.607 361.57 574.871 361.085 575.916 360.557 576.961 360.028 577.614 362.098 577.484 358.442 577.353 354.786 576.743 347.915 575.132 338.621 573.521 329.327 569.385 310.695 567.817 302.679 566.25 294.662 566.598 293.12 565.727 290.521 564.856 287.923 564.421 287.835 562.592 287.086 560.764 286.337 556.714 286.161 554.755 286.029 552.795 285.896 551.707 285.5 549.53 285.5Z"
       stroke="#000000"
       stroke-width="1.33333"
       stroke-miterlimit="8"
       fill-rule="evenodd"
       id="path14" />
    <path
       d="M539.5 264.5C539.5 257.873 544.201 252.5 550 252.5 555.799 252.5 560.5 257.873 560.5 264.5 560.5 271.127 555.799 276.5 550 276.5 544.201 276.5 539.5 271.127 539.5 264.5Z"
       stroke="#000000"
       stroke-width="1.33333"
       stroke-miterlimit="8"
       fill-rule="evenodd"
       id="path15" />
  </g>
</svg>
