  0
SECTION
  2
HEADER
  9
$ACADVER
  1
AC1014
  9
$HANDSEED
  5
FFFF
  9
$MEASUREMENT
 70
     1
  0
ENDSEC
  0
SECTION
  2
TABLES
  0
TABLE
  2
VPORT
  5
8
330
0
100
AcDbSymbolTable
 70
     4
  0
VPORT
  5
2E
330
8
100
AcDbSymbolTableRecord
100
AcDbViewportTableRecord
  2
*ACTIVE
 70
     0
 10
0.0
 20
0.0
 11
1.0
 21
1.0
 12
210.0
 22
148.5
 13
0.0
 23
0.0
 14
10.0
 24
10.0
 15
10.0
 25
10.0
 16
0.0
 26
0.0
 36
1.0
 17
0.0
 27
0.0
 37
0.0
 40
341.0
 41
1.24
 42
50.0
 43
0.0
 44
0.0
 50
0.0
 51
0.0
 71
     0
 72
   100
 73
     1
 74
     3
 75
     0
 76
     0
 77
     0
 78
     0
  0
ENDTAB
  0
TABLE
  2
LTYPE
  5
5
330
0
100
AcDbSymbolTable
 70
     1
  0
LTYPE
  5
14
330
5
100
AcDbSymbolTableRecord
100
AcDbLinetypeTableRecord
  2
BYBLOCK
 70
     0
  3

 72
    65
 73
     0
 40
0.0
  0
LTYPE
  5
15
330
5
100
AcDbSymbolTableRecord
100
AcDbLinetypeTableRecord
  2
BYLAYER
 70
     0
  3

 72
    65
 73
     0
 40
0.0
  0
LTYPE
  5
16
330
5
100
AcDbSymbolTableRecord
100
AcDbLinetypeTableRecord
  2
CONTINUOUS
 70
     0
  3
Solid line
 72
    65
 73
     0
 40
0.0
  0
ENDTAB
  0
TABLE
  2
LAYER
  5
2
100
AcDbSymbolTable
 70
1
  0
LAYER
  5
50
100
AcDbSymbolTableRecord
100
AcDbLayerTableRecord
  2
0
 70
0
  6
CONTINUOUS
  0
ENDTAB
  0
TABLE
  2
STYLE
  5
3
330
0
100
AcDbSymbolTable
 70
     1
  0
STYLE
  5
11
330
3
100
AcDbSymbolTableRecord
100
AcDbTextStyleTableRecord
  2
STANDARD
 70
     0
 40
0.0
 41
1.0
 50
0.0
 71
     0
 42
2.5
  3
txt
  4

  0
ENDTAB
  0
TABLE
  2
VIEW
  5
6
330
0
100
AcDbSymbolTable
 70
     0
  0
ENDTAB
  0
TABLE
  2
UCS
  5
7
330
0
100
AcDbSymbolTable
 70
     0
  0
ENDTAB
  0
TABLE
  2
APPID
  5
9
330
0
100
AcDbSymbolTable
 70
     2
  0
APPID
  5
12
330
9
100
AcDbSymbolTableRecord
100
AcDbRegAppTableRecord
  2
ACAD
 70
     0
  0
ENDTAB
  0
TABLE
  2
DIMSTYLE
  5
A
330
0
100
AcDbSymbolTable
 70
     1
  0
DIMSTYLE
105
27
330
A
100
AcDbSymbolTableRecord
100
AcDbDimStyleTableRecord
  2
ISO-25
 70
     0
  3

  4

  5

  6

  7

 40
1.0
 41
2.5
 42
0.625
 43
3.75
 44
1.25
 45
0.0
 46
0.0
 47
0.0
 48
0.0
140
2.5
141
2.5
142
0.0
143
0.03937007874016
144
1.0
145
0.0
146
1.0
147
0.625
 71
     0
 72
     0
 73
     0
 74
     0
 75
     0
 76
     0
 77
     1
 78
     8
170
     0
171
     3
172
     1
173
     0
174
     0
175
     0
176
     0
177
     0
178
     0
270
     2
271
     2
272
     2
273
     2
274
     3
340
11
275
     0
280
     0
281
     0
282
     0
283
     0
284
     8
285
     0
286
     0
287
     3
288
     0
  0
ENDTAB
  0
TABLE
  2
BLOCK_RECORD
  5
1
330
0
100
AcDbSymbolTable
 70
     1
  0
BLOCK_RECORD
  5
1F
330
1
100
AcDbSymbolTableRecord
100
AcDbBlockTableRecord
  2
*MODEL_SPACE
  0
BLOCK_RECORD
  5
1B
330
1
100
AcDbSymbolTableRecord
100
AcDbBlockTableRecord
  2
*PAPER_SPACE
  0
ENDTAB
  0
ENDSEC
  0
SECTION
  2
BLOCKS
  0
BLOCK
  5
20
330
1F
100
AcDbEntity
  8
0
100
AcDbBlockBegin
  2
*MODEL_SPACE
 70
     0
 10
0.0
 20
0.0
 30
0.0
  3
*MODEL_SPACE
  1

  0
ENDBLK
  5
21
330
1F
100
AcDbEntity
  8
0
100
AcDbBlockEnd
  0
BLOCK
  5
1C
330
1B
100
AcDbEntity
 67
     1
  8
0
100
AcDbBlockBegin
  2
*PAPER_SPACE
  1

  0
ENDBLK
  5
1D
330
1B
100
AcDbEntity
 67
     1
  8
0
100
AcDbBlockEnd
  0
ENDSEC
  0
SECTION
  2
ENTITIES
  0
LWPOLYLINE
  5
100
100
AcDbEntity
  8
0
 62
7
100
AcDbPolyline
 90
41
 70
1
 10
80.223000
 20
88.033200
 30
0.0
 10
80.257500
 20
88.040250
 30
0.0
 10
80.334750
 20
88.069125
 30
0.0
 10
80.432250
 20
88.117575
 30
0.0
 10
80.559750
 20
88.185450
 30
0.0
 10
80.628000
 20
88.229025
 30
0.0
 10
80.688750
 20
88.281075
 30
0.0
 10
80.785500
 20
88.404525
 30
0.0
 10
80.848500
 20
88.543125
 30
0.0
 10
80.877000
 20
88.685100
 30
0.0
 10
80.881500
 20
88.874025
 30
0.0
 10
80.862750
 20
89.037000
 30
0.0
 10
80.821500
 20
89.173725
 30
0.0
 10
80.792250
 20
89.232075
 30
0.0
 10
80.757000
 20
89.283675
 30
0.0
 10
80.715750
 20
89.328675
 30
0.0
 10
80.669250
 20
89.367000
 30
0.0
 10
80.616750
 20
89.398800
 30
0.0
 10
80.558250
 20
89.424225
 30
0.0
 10
80.427750
 20
89.456325
 30
0.0
 10
80.280750
 20
89.464275
 30
0.0
 10
80.124000
 20
89.448750
 30
0.0
 10
79.967250
 20
89.409900
 30
0.0
 10
79.821750
 20
89.347425
 30
0.0
 10
79.698750
 20
89.261175
 30
0.0
 10
79.648500
 20
89.209050
 30
0.0
 10
79.606500
 20
89.150925
 30
0.0
 10
79.572750
 20
89.086875
 30
0.0
 10
79.549500
 20
89.016900
 30
0.0
 10
79.530000
 20
88.859550
 30
0.0
 10
79.548000
 20
88.679325
 30
0.0
 10
79.573500
 20
88.542075
 30
0.0
 10
79.629750
 20
88.407450
 30
0.0
 10
79.716750
 20
88.287150
 30
0.0
 10
79.772250
 20
88.236075
 30
0.0
 10
79.834500
 20
88.193025
 30
0.0
 10
79.956000
 20
88.122525
 30
0.0
 10
80.049000
 20
88.072125
 30
0.0
 10
80.124000
 20
88.041675
 30
0.0
 10
80.157750
 20
88.033875
 30
0.0
 10
80.190000
 20
88.031025
 30
0.0
  0
LWPOLYLINE
  5
101
100
AcDbEntity
  8
0
 62
7
100
AcDbPolyline
 90
170
 70
1
 10
-5.357918
 20
73.107075
 30
0.0
 10
-5.190442
 20
73.147200
 30
0.0
 10
-5.014575
 20
73.217475
 30
0.0
 10
-4.822725
 20
73.319550
 30
0.0
 10
-4.607768
 20
73.455150
 30
0.0
 10
-4.364167
 20
73.625475
 30
0.0
 10
-4.088175
 20
73.831200
 30
0.0
 10
-3.777743
 20
74.072550
 30
0.0
 10
-3.431925
 20
74.349600
 30
0.0
 10
-3.050318
 20
74.662275
 30
0.0
 10
-2.844593
 20
74.815800
 30
0.0
 10
-2.625300
 20
74.983800
 30
0.0
 10
-2.154443
 20
75.357300
 30
0.0
 10
-1.203968
 20
76.108050
 30
0.0
 10
-0.260319
 20
76.812750
 30
0.0
 10
0.687367
 20
77.478150
 30
0.0
 10
1.650000
 20
78.111300
 30
0.0
 10
2.638492
 20
78.719100
 30
0.0
 10
3.663743
 20
79.308450
 30
0.0
 10
4.736617
 20
79.886325
 30
0.0
 10
5.868075
 20
80.459625
 30
0.0
 10
6.619867
 20
80.821200
 30
0.0
 10
7.368750
 20
81.163800
 30
0.0
 10
8.114625
 20
81.487575
 30
0.0
 10
8.857725
 20
81.792525
 30
0.0
 10
9.598050
 20
82.078575
 30
0.0
 10
10.335675
 20
82.345725
 30
0.0
 10
11.070675
 20
82.594125
 30
0.0
 10
11.803125
 20
82.823625
 30
0.0
 10
12.533100
 20
83.034300
 30
0.0
 10
13.260675
 20
83.226150
 30
0.0
 10
13.985850
 20
83.399175
 30
0.0
 10
14.708850
 20
83.553375
 30
0.0
 10
15.429600
 20
83.688825
 30
0.0
 10
16.148175
 20
83.805450
 30
0.0
 10
16.864800
 20
83.903250
 30
0.0
 10
17.579400
 20
83.982300
 30
0.0
 10
18.292050
 20
84.042600
 30
0.0
 10
19.002900
 20
84.084150
 30
0.0
 10
19.711950
 20
84.106875
 30
0.0
 10
20.419350
 20
84.110850
 30
0.0
 10
21.125100
 20
84.096075
 30
0.0
 10
21.829275
 20
84.062625
 30
0.0
 10
22.532025
 20
84.010350
 30
0.0
 10
23.233275
 20
83.939400
 30
0.0
 10
23.933250
 20
83.849700
 30
0.0
 10
24.631950
 20
83.741325
 30
0.0
 10
25.329450
 20
83.614275
 30
0.0
 10
26.025825
 20
83.468475
 30
0.0
 10
26.721150
 20
83.303925
 30
0.0
 10
27.415500
 20
83.120775
 30
0.0
 10
28.108875
 20
82.918950
 30
0.0
 10
28.801500
 20
82.698375
 30
0.0
 10
29.547600
 20
82.437300
 30
0.0
 10
30.321225
 20
82.141575
 30
0.0
 10
31.107975
 20
81.817800
 30
0.0
 10
31.893375
 20
81.472350
 30
0.0
 10
32.663250
 20
81.111975
 30
0.0
 10
33.403050
 20
80.742975
 30
0.0
 10
34.098450
 20
80.372025
 30
0.0
 10
34.735125
 20
80.005575
 30
0.0
 10
35.781450
 20
79.381800
 30
0.0
 10
36.193950
 20
79.140300
 30
0.0
 10
36.613950
 20
78.899100
 30
0.0
 10
36.885450
 20
78.673650
 30
0.0
 10
37.162500
 20
78.475800
 30
0.0
 10
37.444575
 20
78.306150
 30
0.0
 10
37.730250
 20
78.165975
 30
0.0
 10
38.016900
 20
78.057525
 30
0.0
 10
38.299875
 20
77.984325
 30
0.0
 10
38.572725
 20
77.951325
 30
0.0
 10
38.826900
 20
77.964225
 30
0.0
 10
39.053475
 20
78.027375
 30
0.0
 10
39.153600
 20
78.078450
 30
0.0
 10
39.243750
 20
78.142350
 30
0.0
 10
39.323025
 20
78.218475
 30
0.0
 10
39.390825
 20
78.305700
 30
0.0
 10
39.490350
 20
78.507750
 30
0.0
 10
39.541200
 20
78.732750
 30
0.0
 10
39.544425
 20
78.962700
 30
0.0
 10
39.503025
 20
79.180275
 30
0.0
 10
39.421050
 20
79.372800
 30
0.0
 10
39.303225
 20
79.535325
 30
0.0
 10
39.154050
 20
79.671375
 30
0.0
 10
38.977875
 20
79.790100
 30
0.0
 10
38.778450
 20
79.903125
 30
0.0
 10
38.558400
 20
80.022075
 30
0.0
 10
38.319525
 20
80.154900
 30
0.0
 10
38.062200
 20
80.305350
 30
0.0
 10
37.786050
 20
80.473725
 30
0.0
 10
37.172625
 20
80.853975
 30
0.0
 10
36.833100
 20
81.059100
 30
0.0
 10
36.470475
 20
81.270150
 30
0.0
 10
36.084525
 20
81.485475
 30
0.0
 10
35.674875
 20
81.703950
 30
0.0
 10
35.241675
 20
81.924825
 30
0.0
 10
34.784925
 20
82.148025
 30
0.0
 10
34.073175
 20
82.567650
 30
0.0
 10
33.326175
 20
82.989375
 30
0.0
 10
32.589675
 20
83.385525
 30
0.0
 10
32.239725
 20
83.565375
 30
0.0
 10
31.909650
 20
83.728500
 30
0.0
 10
31.147125
 20
84.083025
 30
0.0
 10
30.380325
 20
84.412725
 30
0.0
 10
29.609250
 20
84.717750
 30
0.0
 10
28.834050
 20
84.998025
 30
0.0
 10
28.054725
 20
85.253550
 30
0.0
 10
27.271275
 20
85.484400
 30
0.0
 10
26.483925
 20
85.690500
 30
0.0
 10
25.692600
 20
85.871850
 30
0.0
 10
24.897450
 20
86.028450
 30
0.0
 10
24.098475
 20
86.160375
 30
0.0
 10
23.295825
 20
86.267550
 30
0.0
 10
22.489425
 20
86.349975
 30
0.0
 10
21.679500
 20
86.407725
 30
0.0
 10
20.865975
 20
86.440800
 30
0.0
 10
20.049000
 20
86.449050
 30
0.0
 10
19.228650
 20
86.432700
 30
0.0
 10
18.404850
 20
86.391600
 30
0.0
 10
17.577825
 20
86.325750
 30
0.0
 10
16.747650
 20
86.235300
 30
0.0
 10
15.914250
 20
86.120100
 30
0.0
 10
15.077700
 20
85.980150
 30
0.0
 10
14.238225
 20
85.815525
 30
0.0
 10
13.395675
 20
85.626225
 30
0.0
 10
12.550275
 20
85.412250
 30
0.0
 10
11.702100
 20
85.173600
 30
0.0
 10
10.851075
 20
84.910200
 30
0.0
 10
9.997350
 20
84.622125
 30
0.0
 10
9.141000
 20
84.309450
 30
0.0
 10
8.282025
 20
83.972025
 30
0.0
 10
7.420568
 20
83.609925
 30
0.0
 10
6.556643
 20
83.223150
 30
0.0
 10
5.690392
 20
82.811700
 30
0.0
 10
5.160818
 20
82.546350
 30
0.0
 10
4.614292
 20
82.260150
 30
0.0
 10
4.054792
 20
81.955650
 30
0.0
 10
3.486067
 20
81.635550
 30
0.0
 10
2.336543
 20
80.959125
 30
0.0
 10
1.196550
 20
80.252100
 30
0.0
 10
0.097046
 20
79.535625
 30
0.0
 10
-0.427872
 20
79.180575
 30
0.0
 10
-0.931192
 20
78.831150
 30
0.0
 10
-1.408867
 20
78.489975
 30
0.0
 10
-1.857217
 20
78.159750
 30
0.0
 10
-2.272267
 20
77.843100
 30
0.0
 10
-2.650117
 20
77.542650
 30
0.0
 10
-3.021892
 20
77.256225
 30
0.0
 10
-3.355568
 20
77.003850
 30
0.0
 10
-3.660293
 20
76.777650
 30
0.0
 10
-3.947617
 20
76.567050
 30
0.0
 10
-4.513867
 20
76.147800
 30
0.0
 10
-5.097442
 20
75.679650
 30
0.0
 10
-5.384025
 20
75.422025
 30
0.0
 10
-5.652443
 20
75.152475
 30
0.0
 10
-5.889968
 20
74.876625
 30
0.0
 10
-6.084975
 20
74.601300
 30
0.0
 10
-6.229042
 20
74.334000
 30
0.0
 10
-6.317467
 20
74.081775
 30
0.0
 10
-6.349425
 20
73.851375
 30
0.0
 10
-6.344767
 20
73.746150
 30
0.0
 10
-6.327292
 20
73.648275
 30
0.0
 10
-6.297592
 20
73.558200
 30
0.0
 10
-6.256875
 20
73.476225
 30
0.0
 10
-6.206243
 20
73.402575
 30
0.0
 10
-6.147000
 20
73.337250
 30
0.0
 10
-6.008400
 20
73.231125
 30
0.0
 10
-5.852243
 20
73.156650
 30
0.0
 10
-5.688300
 20
73.111875
 30
0.0
 10
-5.522918
 20
73.095525
 30
0.0
  0
LWPOLYLINE
  5
102
100
AcDbEntity
  8
0
 62
7
100
AcDbPolyline
 90
37
 70
1
 10
78.345750
 20
84.526650
 30
0.0
 10
78.472500
 20
84.578100
 30
0.0
 10
78.600000
 20
84.656250
 30
0.0
 10
78.729000
 20
84.761400
 30
0.0
 10
78.846000
 20
84.898500
 30
0.0
 10
78.935250
 20
85.066050
 30
0.0
 10
78.995250
 20
85.253700
 30
0.0
 10
79.026000
 20
85.451025
 30
0.0
 10
79.026000
 20
85.647675
 30
0.0
 10
78.994500
 20
85.833300
 30
0.0
 10
78.930750
 20
85.997475
 30
0.0
 10
78.887250
 20
86.068275
 30
0.0
 10
78.834750
 20
86.129850
 30
0.0
 10
78.780750
 20
86.175525
 30
0.0
 10
78.716250
 20
86.215125
 30
0.0
 10
78.562500
 20
86.276025
 30
0.0
 10
78.384750
 20
86.312550
 30
0.0
 10
78.196500
 20
86.324775
 30
0.0
 10
78.007500
 20
86.312550
 30
0.0
 10
77.830500
 20
86.276025
 30
0.0
 10
77.676750
 20
86.215125
 30
0.0
 10
77.612250
 20
86.175525
 30
0.0
 10
77.558250
 20
86.129850
 30
0.0
 10
77.504250
 20
86.064450
 30
0.0
 10
77.458500
 20
85.986075
 30
0.0
 10
77.393250
 20
85.798125
 30
0.0
 10
77.361000
 20
85.582575
 30
0.0
 10
77.359500
 20
85.355775
 30
0.0
 10
77.388750
 20
85.134150
 30
0.0
 10
77.448000
 20
84.934200
 30
0.0
 10
77.535750
 20
84.772275
 30
0.0
 10
77.589750
 20
84.710700
 30
0.0
 10
77.650500
 20
84.664800
 30
0.0
 10
77.804250
 20
84.585075
 30
0.0
 10
77.949000
 20
84.531225
 30
0.0
 10
78.086250
 20
84.503400
 30
0.0
 10
78.217500
 20
84.501825
 30
0.0
  0
LWPOLYLINE
  5
103
100
AcDbEntity
  8
0
 62
7
100
AcDbPolyline
 90
40
 70
1
 10
75.882750
 20
81.503700
 30
0.0
 10
76.028250
 20
81.558000
 30
0.0
 10
76.174500
 20
81.641100
 30
0.0
 10
76.322250
 20
81.753150
 30
0.0
 10
76.501500
 20
81.930375
 30
0.0
 10
76.637250
 20
82.120200
 30
0.0
 10
76.728750
 20
82.319475
 30
0.0
 10
76.776000
 20
82.525425
 30
0.0
 10
76.778250
 20
82.734975
 30
0.0
 10
76.735500
 20
82.945350
 30
0.0
 10
76.647750
 20
83.153475
 30
0.0
 10
76.513500
 20
83.356500
 30
0.0
 10
76.379250
 20
83.503875
 30
0.0
 10
76.231500
 20
83.622150
 30
0.0
 10
76.074750
 20
83.712300
 30
0.0
 10
75.911250
 20
83.775225
 30
0.0
 10
75.744750
 20
83.811825
 30
0.0
 10
75.576750
 20
83.823000
 30
0.0
 10
75.411000
 20
83.809650
 30
0.0
 10
75.251250
 20
83.772675
 30
0.0
 10
75.098250
 20
83.712975
 30
0.0
 10
74.957100
 20
83.631525
 30
0.0
 10
74.829525
 20
83.529075
 30
0.0
 10
74.718825
 20
83.406675
 30
0.0
 10
74.627925
 20
83.265225
 30
0.0
 10
74.559600
 20
83.105550
 30
0.0
 10
74.516925
 20
82.928550
 30
0.0
 10
74.502825
 20
82.735200
 30
0.0
 10
74.509650
 20
82.527675
 30
0.0
 10
74.529750
 20
82.351500
 30
0.0
 10
74.565975
 20
82.201425
 30
0.0
 10
74.621175
 20
82.072200
 30
0.0
 10
74.698125
 20
81.958650
 30
0.0
 10
74.799750
 20
81.855525
 30
0.0
 10
74.928900
 20
81.757725
 30
0.0
 10
75.088500
 20
81.659925
 30
0.0
 10
75.262500
 20
81.572175
 30
0.0
 10
75.426750
 20
81.512475
 30
0.0
 10
75.583500
 20
81.481125
 30
0.0
 10
75.735000
 20
81.478125
 30
0.0
  0
LWPOLYLINE
  5
104
100
AcDbEntity
  8
0
 62
7
100
AcDbPolyline
 90
222
 70
1
 10
99.813750
 20
41.876258
 30
0.0
 10
100.442250
 20
41.886832
 30
0.0
 10
101.754750
 20
41.923725
 30
0.0
 10
103.078500
 20
41.979157
 30
0.0
 10
103.719750
 20
42.012907
 30
0.0
 10
104.334750
 20
42.050332
 30
0.0
 10
104.913000
 20
42.091057
 30
0.0
 10
105.444750
 20
42.134707
 30
0.0
 10
105.921000
 20
42.180908
 30
0.0
 10
106.135500
 20
42.204825
 30
0.0
 10
106.332000
 20
42.229350
 30
0.0
 10
108.084000
 20
42.493583
 30
0.0
 10
109.831500
 20
42.822832
 30
0.0
 10
111.574500
 20
43.217100
 30
0.0
 10
113.313000
 20
43.676558
 30
0.0
 10
115.047000
 20
44.201183
 30
0.0
 10
116.777250
 20
44.791058
 30
0.0
 10
118.503000
 20
45.446332
 30
0.0
 10
120.225750
 20
46.167082
 30
0.0
 10
121.944750
 20
46.953300
 30
0.0
 10
123.660000
 20
47.805150
 30
0.0
 10
125.372250
 20
48.722626
 30
0.0
 10
127.081500
 20
49.705867
 30
0.0
 10
128.788500
 20
50.754892
 30
0.0
 10
130.491750
 20
51.869842
 30
0.0
 10
132.193500
 20
53.050793
 30
0.0
 10
133.892250
 20
54.297742
 30
0.0
 10
135.572250
 20
55.564335
 30
0.0
 10
135.740250
 20
50.629267
 30
0.0
 10
137.420250
 20
50.629267
 30
0.0
 10
137.588250
 20
57.220125
 30
0.0
 10
139.268250
 20
58.695900
 30
0.0
 10
139.497000
 20
58.899150
 30
0.0
 10
139.743000
 20
59.120850
 30
0.0
 10
140.004000
 20
59.359875
 30
0.0
 10
140.279250
 20
59.615100
 30
0.0
 10
140.567250
 20
59.885475
 30
0.0
 10
140.868000
 20
60.169800
 30
0.0
 10
141.500250
 20
60.775800
 30
0.0
 10
142.167750
 20
61.424175
 30
0.0
 10
142.860750
 20
62.105925
 30
0.0
 10
144.288750
 20
63.533400
 30
0.0
 10
145.713750
 20
64.986150
 30
0.0
 10
146.402250
 20
65.699400
 30
0.0
 10
147.063000
 20
66.391875
 30
0.0
 10
147.687000
 20
67.054650
 30
0.0
 10
148.266000
 20
67.678725
 30
0.0
 10
148.535250
 20
67.973325
 30
0.0
 10
148.790250
 20
68.254950
 30
0.0
 10
149.029500
 20
68.522325
 30
0.0
 10
149.251500
 20
68.774400
 30
0.0
 10
149.843250
 20
69.456900
 30
0.0
 10
150.443250
 20
70.157175
 30
0.0
 10
151.651500
 20
71.592225
 30
0.0
 10
152.848500
 20
73.042125
 30
0.0
 10
154.003500
 20
74.469600
 30
0.0
 10
154.557000
 20
75.163275
 30
0.0
 10
155.088750
 20
75.837375
 30
0.0
 10
155.595750
 20
76.487175
 30
0.0
 10
156.074250
 20
77.107950
 30
0.0
 10
156.520500
 20
77.695200
 30
0.0
 10
156.931500
 20
78.244200
 30
0.0
 10
157.302750
 20
78.750150
 30
0.0
 10
157.630500
 20
79.208550
 30
0.0
 10
157.875000
 20
79.522650
 30
0.0
 10
158.103750
 20
79.825875
 30
0.0
 10
158.316750
 20
80.118225
 30
0.0
 10
158.514000
 20
80.399625
 30
0.0
 10
158.696250
 20
80.669850
 30
0.0
 10
158.862000
 20
80.928600
 30
0.0
 10
159.012000
 20
81.175650
 30
0.0
 10
159.146250
 20
81.410625
 30
0.0
 10
159.263250
 20
81.633075
 30
0.0
 10
159.365250
 20
81.842475
 30
0.0
 10
159.450000
 20
82.038300
 30
0.0
 10
159.519750
 20
82.220025
 30
0.0
 10
159.573750
 20
82.386975
 30
0.0
 10
159.612750
 20
82.538625
 30
0.0
 10
159.636750
 20
82.674600
 30
0.0
 10
159.647250
 20
82.794675
 30
0.0
 10
159.644250
 20
82.898775
 30
0.0
 10
159.629250
 20
82.987200
 30
0.0
 10
159.603000
 20
83.060625
 30
0.0
 10
159.565500
 20
83.120100
 30
0.0
 10
159.519750
 20
83.167050
 30
0.0
 10
159.465750
 20
83.202900
 30
0.0
 10
159.405000
 20
83.229375
 30
0.0
 10
159.338250
 20
83.247900
 30
0.0
 10
159.192750
 20
83.265450
 30
0.0
 10
159.036000
 20
83.259375
 30
0.0
 10
158.871000
 20
83.224500
 30
0.0
 10
158.699250
 20
83.149200
 30
0.0
 10
158.365500
 20
82.937400
 30
0.0
 10
158.216250
 20
82.783425
 30
0.0
 10
157.883250
 20
82.400700
 30
0.0
 10
157.194750
 20
81.545925
 30
0.0
 10
156.166500
 20
80.202525
 30
0.0
 10
155.547750
 20
79.374975
 30
0.0
 10
155.087250
 20
78.762375
 30
0.0
 10
154.191750
 20
77.584575
 30
0.0
 10
153.327000
 20
76.463625
 30
0.0
 10
152.487000
 20
75.392175
 30
0.0
 10
151.663500
 20
74.363025
 30
0.0
 10
150.852000
 20
73.368825
 30
0.0
 10
150.045750
 20
72.402150
 30
0.0
 10
149.238000
 20
71.455725
 30
0.0
 10
147.593250
 20
69.594375
 30
0.0
 10
146.744250
 20
68.664750
 30
0.0
 10
145.868250
 20
67.726050
 30
0.0
 10
144.959250
 20
66.770925
 30
0.0
 10
144.011250
 20
65.792175
 30
0.0
 10
143.017500
 20
64.782300
 30
0.0
 10
141.972000
 20
63.734100
 30
0.0
 10
137.587500
 20
59.365875
 30
0.0
 10
137.420250
 20
72.974700
 30
0.0
 10
135.740250
 20
72.974700
 30
0.0
 10
135.650250
 20
63.818100
 30
0.0
 10
122.892750
 20
63.818100
 30
0.0
 10
122.803500
 20
72.974700
 30
0.0
 10
121.206750
 20
73.077075
 30
0.0
 10
121.206750
 20
50.526893
 30
0.0
 10
122.803500
 20
50.629267
 30
0.0
 10
122.892000
 20
62.138025
 30
0.0
 10
135.656250
 20
62.138025
 30
0.0
 10
135.656250
 20
57.846975
 30
0.0
 10
134.018250
 20
56.567625
 30
0.0
 10
133.158000
 20
55.903875
 30
0.0
 10
132.300000
 20
55.258493
 30
0.0
 10
131.445000
 20
54.631417
 30
0.0
 10
130.592250
 20
54.022568
 30
0.0
 10
129.741750
 20
53.431717
 30
0.0
 10
128.892000
 20
52.858792
 30
0.0
 10
128.044500
 20
52.303725
 30
0.0
 10
127.197750
 20
51.766343
 30
0.0
 10
125.507250
 20
50.744318
 30
0.0
 10
123.819000
 20
49.791593
 30
0.0
 10
122.130000
 20
48.907493
 30
0.0
 10
120.439500
 20
48.090901
 30
0.0
 10
118.743750
 20
47.340900
 30
0.0
 10
117.042750
 20
46.656683
 30
0.0
 10
115.332750
 20
46.037175
 30
0.0
 10
113.613000
 20
45.481583
 30
0.0
 10
111.880500
 20
44.988833
 30
0.0
 10
110.133750
 20
44.558107
 30
0.0
 10
108.371250
 20
44.188432
 30
0.0
 10
106.590000
 20
43.878900
 30
0.0
 10
106.321500
 20
43.840058
 30
0.0
 10
106.028250
 20
43.803758
 30
0.0
 10
105.712500
 20
43.769850
 30
0.0
 10
105.375750
 20
43.738590
 30
0.0
 10
105.020250
 20
43.709700
 30
0.0
 10
104.646750
 20
43.683383
 30
0.0
 10
103.853250
 20
43.638233
 30
0.0
 10
103.008000
 20
43.603057
 30
0.0
 10
102.125250
 20
43.577858
 30
0.0
 10
100.293750
 20
43.557608
 30
0.0
 10
98.462250
 20
43.577407
 30
0.0
 10
97.578000
 20
43.602308
 30
0.0
 10
96.732750
 20
43.637258
 30
0.0
 10
95.937750
 20
43.682175
 30
0.0
 10
95.564250
 20
43.708433
 30
0.0
 10
95.207250
 20
43.737232
 30
0.0
 10
94.870500
 20
43.768433
 30
0.0
 10
94.554000
 20
43.802183
 30
0.0
 10
94.260000
 20
43.838482
 30
0.0
 10
93.989250
 20
43.877257
 30
0.0
 10
93.114750
 20
44.021093
 30
0.0
 10
92.195250
 20
44.187435
 30
0.0
 10
91.242750
 20
44.373863
 30
0.0
 10
90.273750
 20
44.576887
 30
0.0
 10
88.299000
 20
45.029857
 30
0.0
 10
87.309000
 20
45.276848
 30
0.0
 10
86.364750
 20
45.525375
 30
0.0
 10
84.465750
 20
45.950032
 30
0.0
 10
84.354750
 20
45.961508
 30
0.0
 10
84.270000
 20
45.966915
 30
0.0
 10
84.201000
 20
45.969008
 30
0.0
 10
84.087000
 20
45.967425
 30
0.0
 10
84.057000
 20
45.965857
 30
0.0
 10
83.920500
 20
45.951532
 30
0.0
 10
83.804250
 20
45.927757
 30
0.0
 10
83.775000
 20
45.919657
 30
0.0
 10
83.699250
 20
45.893325
 30
0.0
 10
83.652000
 20
45.872258
 30
0.0
 10
83.610000
 20
45.849083
 30
0.0
 10
83.554500
 20
45.810383
 30
0.0
 10
83.537250
 20
45.795750
 30
0.0
 10
83.515500
 20
45.774307
 30
0.0
 10
83.483250
 20
45.733875
 30
0.0
 10
83.459250
 20
45.693008
 30
0.0
 10
83.447250
 20
45.664282
 30
0.0
 10
83.442000
 20
45.648007
 30
0.0
 10
83.431500
 20
45.600525
 30
0.0
 10
83.430750
 20
45.587857
 30
0.0
 10
83.429250
 20
45.550733
 30
0.0
 10
83.433000
 20
45.505508
 30
0.0
 10
83.446500
 20
45.445057
 30
0.0
 10
83.454750
 20
45.418350
 30
0.0
 10
83.495250
 20
45.327382
 30
0.0
 10
83.554500
 20
45.233857
 30
0.0
 10
83.567250
 20
45.217132
 30
0.0
 10
83.631750
 20
45.138825
 30
0.0
 10
83.668500
 20
45.099150
 30
0.0
 10
83.725500
 20
45.043582
 30
0.0
 10
83.795250
 20
44.981633
 30
0.0
 10
83.834250
 20
44.949300
 30
0.0
 10
83.958000
 20
44.857132
 30
0.0
 10
84.112500
 20
44.756707
 30
0.0
 10
86.155500
 20
44.051100
 30
0.0
 10
88.671750
 20
43.327732
 30
0.0
 10
90.377250
 20
42.899482
 30
0.0
 10
91.456500
 20
42.696832
 30
0.0
 10
92.963250
 20
42.449708
 30
0.0
 10
93.927000
 20
42.307800
 30
0.0
 10
95.361000
 20
42.118650
 30
0.0
 10
96.544500
 20
41.986207
 30
0.0
 10
97.350000
 20
41.914957
 30
0.0
 10
97.525500
 20
41.903482
 30
0.0
 10
97.720500
 20
41.893808
 30
0.0
 10
98.161500
 20
41.879708
 30
0.0
 10
98.664000
 20
41.872350
 30
0.0
 10
99.218250
 20
41.871308
 30
0.0
  0
LWPOLYLINE
  5
105
100
AcDbEntity
  8
0
 62
7
100
AcDbPolyline
 90
40
 70
1
 10
72.788850
 20
79.121700
 30
0.0
 10
72.994425
 20
79.164150
 30
0.0
 10
73.183725
 20
79.232025
 30
0.0
 10
73.355625
 20
79.323000
 30
0.0
 10
73.509000
 20
79.434675
 30
0.0
 10
73.642725
 20
79.564650
 30
0.0
 10
73.755675
 20
79.710675
 30
0.0
 10
73.846650
 20
79.870200
 30
0.0
 10
73.914525
 20
80.040975
 30
0.0
 10
73.958175
 20
80.220675
 30
0.0
 10
73.976550
 20
80.406825
 30
0.0
 10
73.968375
 20
80.597175
 30
0.0
 10
73.932600
 20
80.789250
 30
0.0
 10
73.868025
 20
80.980725
 30
0.0
 10
73.773525
 20
81.169275
 30
0.0
 10
73.648050
 20
81.352500
 30
0.0
 10
73.546875
 20
81.464250
 30
0.0
 10
73.432200
 20
81.561075
 30
0.0
 10
73.305900
 20
81.642975
 30
0.0
 10
73.170000
 20
81.710025
 30
0.0
 10
72.876825
 20
81.799425
 30
0.0
 10
72.568200
 20
81.829200
 30
0.0
 10
72.259575
 20
81.799425
 30
0.0
 10
71.966400
 20
81.710025
 30
0.0
 10
71.830425
 20
81.642975
 30
0.0
 10
71.704200
 20
81.561075
 30
0.0
 10
71.589450
 20
81.464250
 30
0.0
 10
71.488350
 20
81.352500
 30
0.0
 10
71.334825
 20
81.122625
 30
0.0
 10
71.227725
 20
80.885025
 30
0.0
 10
71.166900
 20
80.643675
 30
0.0
 10
71.152275
 20
80.402550
 30
0.0
 10
71.183625
 20
80.165625
 30
0.0
 10
71.260875
 20
79.936800
 30
0.0
 10
71.383875
 20
79.720050
 30
0.0
 10
71.552400
 20
79.519350
 30
0.0
 10
71.772675
 20
79.334850
 30
0.0
 10
72.010875
 20
79.206450
 30
0.0
 10
72.273750
 20
79.131375
 30
0.0
 10
72.568200
 20
79.107000
 30
0.0
  0
LWPOLYLINE
  5
106
100
AcDbEntity
  8
0
 62
7
100
AcDbPolyline
 90
48
 70
1
 10
69.376350
 20
76.614300
 30
0.0
 10
69.700050
 20
76.695525
 30
0.0
 10
69.978750
 20
76.828725
 30
0.0
 10
70.210725
 20
77.012175
 30
0.0
 10
70.394175
 20
77.244075
 30
0.0
 10
70.527375
 20
77.522850
 30
0.0
 10
70.608600
 20
77.846550
 30
0.0
 10
70.636050
 20
78.213450
 30
0.0
 10
70.610850
 20
78.578700
 30
0.0
 10
70.535400
 20
78.895875
 30
0.0
 10
70.409925
 20
79.164825
 30
0.0
 10
70.234650
 20
79.385400
 30
0.0
 10
70.009800
 20
79.557300
 30
0.0
 10
69.735600
 20
79.680375
 30
0.0
 10
69.412200
 20
79.754325
 30
0.0
 10
69.039900
 20
79.779075
 30
0.0
 10
68.845575
 20
79.772850
 30
0.0
 10
68.664000
 20
79.754325
 30
0.0
 10
68.495175
 20
79.723500
 30
0.0
 10
68.338950
 20
79.680150
 30
0.0
 10
68.195400
 20
79.624425
 30
0.0
 10
68.064525
 20
79.556250
 30
0.0
 10
67.946250
 20
79.475550
 30
0.0
 10
67.840500
 20
79.382400
 30
0.0
 10
67.747275
 20
79.276650
 30
0.0
 10
67.666575
 20
79.158300
 30
0.0
 10
67.598400
 20
79.027425
 30
0.0
 10
67.542675
 20
78.883875
 30
0.0
 10
67.499400
 20
78.727725
 30
0.0
 10
67.468500
 20
78.558825
 30
0.0
 10
67.449975
 20
78.377250
 30
0.0
 10
67.443825
 20
78.182925
 30
0.0
 10
67.448475
 20
77.974350
 30
0.0
 10
67.463550
 20
77.791725
 30
0.0
 10
67.490400
 20
77.630850
 30
0.0
 10
67.530750
 20
77.487300
 30
0.0
 10
67.585950
 20
77.356650
 30
0.0
 10
67.657575
 20
77.234700
 30
0.0
 10
67.747200
 20
77.117025
 30
0.0
 10
67.856250
 20
76.999200
 30
0.0
 10
67.972575
 20
76.891575
 30
0.0
 10
68.089425
 20
76.802700
 30
0.0
 10
68.210400
 20
76.731150
 30
0.0
 10
68.339250
 20
76.675650
 30
0.0
 10
68.479875
 20
76.634775
 30
0.0
 10
68.635950
 20
76.607250
 30
0.0
 10
68.811150
 20
76.591725
 30
0.0
 10
69.009375
 20
76.586850
 30
0.0
  0
LWPOLYLINE
  5
107
100
AcDbEntity
  8
0
 62
7
100
AcDbPolyline
 90
48
 70
1
 10
65.199675
 20
73.751400
 30
0.0
 10
65.410200
 20
73.781325
 30
0.0
 10
65.604225
 20
73.832100
 30
0.0
 10
65.772975
 20
73.903650
 30
0.0
 10
65.939850
 20
74.013825
 30
0.0
 10
66.087975
 20
74.153175
 30
0.0
 10
66.217050
 20
74.318025
 30
0.0
 10
66.326700
 20
74.504475
 30
0.0
 10
66.416775
 20
74.708775
 30
0.0
 10
66.486825
 20
74.927100
 30
0.0
 10
66.536625
 20
75.155625
 30
0.0
 10
66.565875
 20
75.390525
 30
0.0
 10
66.574200
 20
75.627975
 30
0.0
 10
66.561375
 20
75.864300
 30
0.0
 10
66.527100
 20
76.095600
 30
0.0
 10
66.471000
 20
76.317975
 30
0.0
 10
66.392850
 20
76.527825
 30
0.0
 10
66.292350
 20
76.721175
 30
0.0
 10
66.169125
 20
76.894275
 30
0.0
 10
66.022875
 20
77.043300
 30
0.0
 10
65.821350
 20
77.192475
 30
0.0
 10
65.610675
 20
77.303925
 30
0.0
 10
65.393925
 20
77.379150
 30
0.0
 10
65.174025
 20
77.419725
 30
0.0
 10
64.954200
 20
77.427075
 30
0.0
 10
64.737450
 20
77.402775
 30
0.0
 10
64.526850
 20
77.348325
 30
0.0
 10
64.325400
 20
77.265300
 30
0.0
 10
64.136175
 20
77.155125
 30
0.0
 10
63.962325
 20
77.019300
 30
0.0
 10
63.806775
 20
76.859400
 30
0.0
 10
63.672675
 20
76.676925
 30
0.0
 10
63.563025
 20
76.473300
 30
0.0
 10
63.480900
 20
76.250250
 30
0.0
 10
63.429450
 20
76.009050
 30
0.0
 10
63.411600
 20
75.751350
 30
0.0
 10
63.427500
 20
75.461550
 30
0.0
 10
63.473250
 20
75.175200
 30
0.0
 10
63.545925
 20
74.899200
 30
0.0
 10
63.642600
 20
74.640300
 30
0.0
 10
63.760200
 20
74.405325
 30
0.0
 10
63.895950
 20
74.201100
 30
0.0
 10
64.046700
 20
74.034450
 30
0.0
 10
64.209600
 20
73.911600
 30
0.0
 10
64.369950
 20
73.838400
 30
0.0
 10
64.557975
 20
73.785750
 30
0.0
 10
64.764750
 20
73.753650
 30
0.0
 10
64.981650
 20
73.742175
 30
0.0
  0
LWPOLYLINE
  5
108
100
AcDbEntity
  8
0
 62
7
100
AcDbPolyline
 90
273
 70
1
 10
36.746400
 20
50.257643
 30
0.0
 10
37.245300
 20
50.313000
 30
0.0
 10
37.737750
 20
50.397300
 30
0.0
 10
38.220900
 20
50.509875
 30
0.0
 10
38.691675
 20
50.649968
 30
0.0
 10
39.147000
 20
50.816700
 30
0.0
 10
39.584025
 20
51.009225
 30
0.0
 10
39.999600
 20
51.226867
 30
0.0
 10
40.390800
 20
51.468818
 30
0.0
 10
40.754550
 20
51.734243
 30
0.0
 10
41.087925
 20
52.022325
 30
0.0
 10
41.387850
 20
52.332300
 30
0.0
 10
41.738550
 20
52.765793
 30
0.0
 10
42.035400
 20
53.211067
 30
0.0
 10
42.280725
 20
53.674943
 30
0.0
 10
42.476700
 20
54.164167
 30
0.0
 10
42.625725
 20
54.685493
 30
0.0
 10
42.730050
 20
55.245517
 30
0.0
 10
42.791850
 20
55.851143
 30
0.0
 10
42.813450
 20
56.509050
 30
0.0
 10
42.809400
 20
56.866725
 30
0.0
 10
42.793875
 20
57.203100
 30
0.0
 10
42.765750
 20
57.520650
 30
0.0
 10
42.723975
 20
57.821550
 30
0.0
 10
42.667575
 20
58.108275
 30
0.0
 10
42.595350
 20
58.383075
 30
0.0
 10
42.506325
 20
58.648350
 30
0.0
 10
42.399450
 20
58.906275
 30
0.0
 10
42.273600
 20
59.159250
 30
0.0
 10
42.127800
 20
59.409675
 30
0.0
 10
41.960925
 20
59.659800
 30
0.0
 10
41.772000
 20
59.911875
 30
0.0
 10
41.559825
 20
60.168375
 30
0.0
 10
41.323500
 20
60.431625
 30
0.0
 10
41.061825
 20
60.703800
 30
0.0
 10
40.773825
 20
60.987300
 30
0.0
 10
40.347600
 20
61.380225
 30
0.0
 10
39.906300
 20
61.749375
 30
0.0
 10
39.430650
 20
62.107350
 30
0.0
 10
38.901225
 20
62.466750
 30
0.0
 10
38.610300
 20
62.650875
 30
0.0
 10
38.298600
 20
62.840025
 30
0.0
 10
37.963800
 20
63.035850
 30
0.0
 10
37.603500
 20
63.239850
 30
0.0
 10
37.215150
 20
63.453600
 30
0.0
 10
36.796350
 20
63.678675
 30
0.0
 10
36.344775
 20
63.916650
 30
0.0
 10
35.858025
 20
64.169100
 30
0.0
 10
35.451675
 20
64.386300
 30
0.0
 10
35.075475
 20
64.604250
 30
0.0
 10
34.728825
 20
64.823550
 30
0.0
 10
34.411125
 20
65.045025
 30
0.0
 10
34.121925
 20
65.269125
 30
0.0
 10
33.860700
 20
65.496675
 30
0.0
 10
33.626775
 20
65.728200
 30
0.0
 10
33.419850
 20
65.964450
 30
0.0
 10
33.239175
 20
66.206025
 30
0.0
 10
33.084375
 20
66.453600
 30
0.0
 10
32.954850
 20
66.707850
 30
0.0
 10
32.850000
 20
66.969375
 30
0.0
 10
32.769450
 20
67.238925
 30
0.0
 10
32.712525
 20
67.517025
 30
0.0
 10
32.678775
 20
67.804425
 30
0.0
 10
32.667675
 20
68.101800
 30
0.0
 10
32.685300
 20
68.486100
 30
0.0
 10
32.737650
 20
68.851950
 30
0.0
 10
32.823675
 20
69.198450
 30
0.0
 10
32.942475
 20
69.524700
 30
0.0
 10
33.092925
 20
69.829950
 30
0.0
 10
33.274050
 20
70.113150
 30
0.0
 10
33.485025
 20
70.373625
 30
0.0
 10
33.724650
 20
70.610325
 30
0.0
 10
33.992100
 20
70.822500
 30
0.0
 10
34.286325
 20
71.009250
 30
0.0
 10
34.606275
 20
71.169600
 30
0.0
 10
34.951125
 20
71.302800
 30
0.0
 10
35.319675
 20
71.407875
 30
0.0
 10
35.711175
 20
71.484075
 30
0.0
 10
36.124425
 20
71.530425
 30
0.0
 10
36.558525
 20
71.546025
 30
0.0
 10
36.982575
 20
71.517750
 30
0.0
 10
37.419525
 20
71.437050
 30
0.0
 10
37.855950
 20
71.309775
 30
0.0
 10
38.278650
 20
71.142075
 30
0.0
 10
38.674125
 20
70.940025
 30
0.0
 10
39.029175
 20
70.709550
 30
0.0
 10
39.330375
 20
70.456650
 30
0.0
 10
39.456675
 20
70.323750
 30
0.0
 10
39.565650
 20
70.185825
 30
0.0
 10
39.646500
 20
70.078275
 30
0.0
 10
39.732075
 20
69.975525
 30
0.0
 10
39.817950
 20
69.882975
 30
0.0
 10
39.899700
 20
69.805425
 30
0.0
 10
39.955725
 20
69.759525
 30
0.0
 10
40.005375
 20
69.725775
 30
0.0
 10
40.047225
 20
69.705000
 30
0.0
 10
40.070100
 20
69.698700
 30
0.0
 10
40.080900
 20
69.697875
 30
0.0
 10
40.105125
 20
69.700350
 30
0.0
 10
40.134075
 20
69.707475
 30
0.0
 10
40.204425
 20
69.734625
 30
0.0
 10
40.385475
 20
69.833025
 30
0.0
 10
40.601175
 20
69.975375
 30
0.0
 10
40.828800
 20
70.143900
 30
0.0
 10
41.045550
 20
70.320900
 30
0.0
 10
41.228550
 20
70.488600
 30
0.0
 10
41.300325
 20
70.563450
 30
0.0
 10
41.355075
 20
70.629375
 30
0.0
 10
41.390025
 20
70.684125
 30
0.0
 10
41.399175
 20
70.706550
 30
0.0
 10
41.402325
 20
70.725450
 30
0.0
 10
41.398725
 20
70.754625
 30
0.0
 10
41.388225
 20
70.789125
 30
0.0
 10
41.347875
 20
70.872375
 30
0.0
 10
41.283675
 20
70.972725
 30
0.0
 10
41.198400
 20
71.087400
 30
0.0
 10
41.094675
 20
71.213925
 30
0.0
 10
40.975050
 20
71.349525
 30
0.0
 10
40.698825
 20
71.637900
 30
0.0
 10
40.390575
 20
71.931525
 30
0.0
 10
40.071375
 20
72.209550
 30
0.0
 10
39.762300
 20
72.451050
 30
0.0
 10
39.618075
 20
72.551550
 30
0.0
 10
39.484275
 20
72.635175
 30
0.0
 10
39.183375
 20
72.792075
 30
0.0
 10
38.858625
 20
72.928200
 30
0.0
 10
38.513175
 20
73.043400
 30
0.0
 10
38.149950
 20
73.137825
 30
0.0
 10
37.772100
 20
73.211325
 30
0.0
 10
37.382550
 20
73.264050
 30
0.0
 10
36.984375
 20
73.295850
 30
0.0
 10
36.580650
 20
73.306800
 30
0.0
 10
36.174375
 20
73.296900
 30
0.0
 10
35.768625
 20
73.266150
 30
0.0
 10
35.366400
 20
73.214475
 30
0.0
 10
34.970775
 20
73.141950
 30
0.0
 10
34.584750
 20
73.048575
 30
0.0
 10
34.211325
 20
72.934275
 30
0.0
 10
33.853650
 20
72.799125
 30
0.0
 10
33.514725
 20
72.643050
 30
0.0
 10
33.217725
 20
72.479250
 30
0.0
 10
32.937600
 20
72.298125
 30
0.0
 10
32.674425
 20
72.100575
 30
0.0
 10
32.428275
 20
71.887800
 30
0.0
 10
32.199300
 20
71.660700
 30
0.0
 10
31.987500
 20
71.420400
 30
0.0
 10
31.793100
 20
71.167800
 30
0.0
 10
31.616025
 20
70.904100
 30
0.0
 10
31.456350
 20
70.630200
 30
0.0
 10
31.314300
 20
70.347150
 30
0.0
 10
31.189875
 20
70.056075
 30
0.0
 10
31.083225
 20
69.757875
 30
0.0
 10
30.994350
 20
69.453675
 30
0.0
 10
30.923325
 20
69.144525
 30
0.0
 10
30.870300
 20
68.831325
 30
0.0
 10
30.835350
 20
68.515200
 30
0.0
 10
30.818550
 20
68.197125
 30
0.0
 10
30.819975
 20
67.878225
 30
0.0
 10
30.839700
 20
67.559475
 30
0.0
 10
30.877800
 20
67.241850
 30
0.0
 10
30.934425
 20
66.926475
 30
0.0
 10
31.009575
 20
66.614325
 30
0.0
 10
31.103400
 20
66.306450
 30
0.0
 10
31.215900
 20
66.003900
 30
0.0
 10
31.347300
 20
65.707650
 30
0.0
 10
31.497525
 20
65.418750
 30
0.0
 10
31.666800
 20
65.138250
 30
0.0
 10
31.855125
 20
64.867200
 30
0.0
 10
32.062575
 20
64.606575
 30
0.0
 10
32.289300
 20
64.357425
 30
0.0
 10
32.535300
 20
64.120800
 30
0.0
 10
32.825175
 20
63.878700
 30
0.0
 10
33.099825
 20
63.682650
 30
0.0
 10
33.482250
 20
63.433500
 30
0.0
 10
34.153350
 20
63.024225
 30
0.0
 10
35.233050
 20
62.407125
 30
0.0
 10
36.172725
 20
61.902525
 30
0.0
 10
36.791175
 20
61.578150
 30
0.0
 10
37.287675
 20
61.307550
 30
0.0
 10
37.743300
 20
61.048125
 30
0.0
 10
38.160075
 20
60.798225
 30
0.0
 10
38.539725
 20
60.556200
 30
0.0
 10
38.884200
 20
60.320550
 30
0.0
 10
39.195450
 20
60.089550
 30
0.0
 10
39.475200
 20
59.861625
 30
0.0
 10
39.725475
 20
59.635125
 30
0.0
 10
39.948075
 20
59.408550
 30
0.0
 10
40.144950
 20
59.180175
 30
0.0
 10
40.317900
 20
58.948500
 30
0.0
 10
40.468800
 20
58.711800
 30
0.0
 10
40.599600
 20
58.468500
 30
0.0
 10
40.712100
 20
58.217025
 30
0.0
 10
40.808250
 20
57.955725
 30
0.0
 10
40.906875
 20
57.607350
 30
0.0
 10
40.975275
 20
57.250125
 30
0.0
 10
41.014350
 20
56.886900
 30
0.0
 10
41.025000
 20
56.520300
 30
0.0
 10
41.008050
 20
56.153243
 30
0.0
 10
40.964400
 20
55.788517
 30
0.0
 10
40.894875
 20
55.428818
 30
0.0
 10
40.800300
 20
55.076993
 30
0.0
 10
40.681500
 20
54.735817
 30
0.0
 10
40.539450
 20
54.407992
 30
0.0
 10
40.374975
 20
54.096443
 30
0.0
 10
40.188825
 20
53.803793
 30
0.0
 10
39.981975
 20
53.532900
 30
0.0
 10
39.755175
 20
53.286518
 30
0.0
 10
39.509400
 20
53.067442
 30
0.0
 10
39.245475
 20
52.878525
 30
0.0
 10
38.879775
 20
52.659517
 30
0.0
 10
38.531175
 20
52.480418
 30
0.0
 10
38.186925
 20
52.338000
 30
0.0
 10
37.834200
 20
52.228718
 30
0.0
 10
37.460175
 20
52.149525
 30
0.0
 10
37.052100
 20
52.096868
 30
0.0
 10
36.597225
 20
52.067543
 30
0.0
 10
36.082650
 20
52.058168
 30
0.0
 10
35.726550
 20
52.062218
 30
0.0
 10
35.421450
 20
52.077368
 30
0.0
 10
35.152350
 20
52.107292
 30
0.0
 10
34.904025
 20
52.155592
 30
0.0
 10
34.661250
 20
52.226100
 30
0.0
 10
34.408800
 20
52.322317
 30
0.0
 10
34.131675
 20
52.448017
 30
0.0
 10
33.814500
 20
52.606867
 30
0.0
 10
33.461850
 20
52.799700
 30
0.0
 10
33.156225
 20
52.994610
 30
0.0
 10
32.884275
 20
53.205975
 30
0.0
 10
32.632500
 20
53.448143
 30
0.0
 10
32.387400
 20
53.735467
 30
0.0
 10
32.135700
 20
54.082192
 30
0.0
 10
32.003100
 20
54.282375
 30
0.0
 10
31.863750
 20
54.502792
 30
0.0
 10
31.716000
 20
54.745193
 30
0.0
 10
31.558200
 20
55.011443
 30
0.0
 10
31.496925
 20
55.111567
 30
0.0
 10
31.440750
 20
55.183125
 30
0.0
 10
31.411575
 20
55.208092
 30
0.0
 10
31.380150
 20
55.225950
 30
0.0
 10
31.345200
 20
55.236593
 30
0.0
 10
31.305600
 20
55.240117
 30
0.0
 10
31.207425
 20
55.225567
 30
0.0
 10
31.076250
 20
55.182293
 30
0.0
 10
30.902325
 20
55.110292
 30
0.0
 10
30.676200
 20
55.009493
 30
0.0
 10
30.526050
 20
54.937800
 30
0.0
 10
30.394725
 20
54.865792
 30
0.0
 10
30.282075
 20
54.792592
 30
0.0
 10
30.187950
 20
54.716918
 30
0.0
 10
30.112125
 20
54.637725
 30
0.0
 10
30.054675
 20
54.553942
 30
0.0
 10
30.015225
 20
54.464467
 30
0.0
 10
29.993850
 20
54.368318
 30
0.0
 10
29.990250
 20
54.264218
 30
0.0
 10
30.004425
 20
54.151200
 30
0.0
 10
30.036075
 20
54.028200
 30
0.0
 10
30.085200
 20
53.894018
 30
0.0
 10
30.151650
 20
53.747625
 30
0.0
 10
30.235275
 20
53.587942
 30
0.0
 10
30.335850
 20
53.413868
 30
0.0
 10
30.453375
 20
53.224275
 30
0.0
 10
30.809325
 20
52.717267
 30
0.0
 10
31.205325
 20
52.250543
 30
0.0
 10
31.638900
 20
51.827017
 30
0.0
 10
32.107125
 20
51.449618
 30
0.0
 10
32.606850
 20
51.120668
 30
0.0
 10
33.134925
 20
50.842560
 30
0.0
 10
33.687825
 20
50.616968
 30
0.0
 10
34.261875
 20
50.444850
 30
0.0
 10
34.747425
 20
50.342917
 30
0.0
 10
35.241675
 20
50.274068
 30
0.0
 10
35.741625
 20
50.237468
 30
0.0
 10
36.244200
 20
50.232217
 30
0.0
  0
LWPOLYLINE
  5
109
100
AcDbEntity
  8
0
 62
7
100
AcDbPolyline
 90
248
 70
1
 10
51.407250
 20
50.258167
 30
0.0
 10
51.982575
 20
50.298443
 30
0.0
 10
52.543050
 20
50.377650
 30
0.0
 10
53.086350
 20
50.494867
 30
0.0
 10
53.610450
 20
50.649217
 30
0.0
 10
54.113100
 20
50.839793
 30
0.0
 10
54.592275
 20
51.065618
 30
0.0
 10
55.045650
 20
51.325868
 30
0.0
 10
55.471200
 20
51.619492
 30
0.0
 10
55.866750
 20
51.945743
 30
0.0
 10
56.230050
 20
52.303575
 30
0.0
 10
56.559075
 20
52.692150
 30
0.0
 10
56.851575
 20
53.110500
 30
0.0
 10
57.105375
 20
53.557718
 30
0.0
 10
57.291375
 20
53.979743
 30
0.0
 10
57.449625
 20
54.450293
 30
0.0
 10
57.578100
 20
54.955568
 30
0.0
 10
57.674625
 20
55.481543
 30
0.0
 10
57.737100
 20
56.014425
 30
0.0
 10
57.763575
 20
56.540175
 30
0.0
 10
57.751800
 20
57.044925
 30
0.0
 10
57.699825
 20
57.514800
 30
0.0
 10
57.611325
 20
57.954750
 30
0.0
 10
57.490725
 20
58.380825
 30
0.0
 10
57.336675
 20
58.794300
 30
0.0
 10
57.147750
 20
59.196675
 30
0.0
 10
56.922675
 20
59.589150
 30
0.0
 10
56.660100
 20
59.973225
 30
0.0
 10
56.358750
 20
60.350100
 30
0.0
 10
56.017200
 20
60.721350
 30
0.0
 10
55.634175
 20
61.088100
 30
0.0
 10
55.208325
 20
61.451850
 30
0.0
 10
54.738375
 20
61.813950
 30
0.0
 10
54.222975
 20
62.175675
 30
0.0
 10
53.660700
 20
62.538450
 30
0.0
 10
53.050275
 20
62.903625
 30
0.0
 10
52.390425
 20
63.272550
 30
0.0
 10
51.125025
 20
63.937275
 30
0.0
 10
50.618400
 20
64.217700
 30
0.0
 10
50.158200
 20
64.489575
 30
0.0
 10
49.742775
 20
64.754850
 30
0.0
 10
49.370325
 20
65.015325
 30
0.0
 10
49.039275
 20
65.272950
 30
0.0
 10
48.747750
 20
65.529525
 30
0.0
 10
48.494175
 20
65.787000
 30
0.0
 10
48.276825
 20
66.047175
 30
0.0
 10
48.093975
 20
66.312000
 30
0.0
 10
47.943900
 20
66.583275
 30
0.0
 10
47.824950
 20
66.862875
 30
0.0
 10
47.735400
 20
67.152750
 30
0.0
 10
47.673525
 20
67.454700
 30
0.0
 10
47.637675
 20
67.770600
 30
0.0
 10
47.626050
 20
68.102325
 30
0.0
 10
47.642850
 20
68.489775
 30
0.0
 10
47.692500
 20
68.858025
 30
0.0
 10
47.774250
 20
69.206325
 30
0.0
 10
47.887200
 20
69.533775
 30
0.0
 10
48.030375
 20
69.839550
 30
0.0
 10
48.202950
 20
70.122975
 30
0.0
 10
48.404025
 20
70.383075
 30
0.0
 10
48.632775
 20
70.619100
 30
0.0
 10
48.888225
 20
70.830225
 30
0.0
 10
49.169625
 20
71.015700
 30
0.0
 10
49.475925
 20
71.174625
 30
0.0
 10
49.806375
 20
71.306175
 30
0.0
 10
50.160075
 20
71.409600
 30
0.0
 10
50.536050
 20
71.484075
 30
0.0
 10
50.933475
 20
71.528775
 30
0.0
 10
51.351525
 20
71.542800
 30
0.0
 10
51.821400
 20
71.521575
 30
0.0
 10
52.266075
 20
71.460975
 30
0.0
 10
52.686225
 20
71.360925
 30
0.0
 10
53.082300
 20
71.221050
 30
0.0
 10
53.454900
 20
71.041200
 30
0.0
 10
53.804475
 20
70.821225
 30
0.0
 10
54.131625
 20
70.560750
 30
0.0
 10
54.436875
 20
70.259700
 30
0.0
 10
54.998550
 20
69.646500
 30
0.0
 10
55.591725
 20
70.050450
 30
0.0
 10
55.822125
 20
70.230075
 30
0.0
 10
56.010975
 20
70.420425
 30
0.0
 10
56.083725
 20
70.512525
 30
0.0
 10
56.138850
 20
70.598850
 30
0.0
 10
56.173725
 20
70.676475
 30
0.0
 10
56.182875
 20
70.711200
 30
0.0
 10
56.186100
 20
70.742625
 30
0.0
 10
56.174325
 20
70.842675
 30
0.0
 10
56.139375
 20
70.953000
 30
0.0
 10
56.082825
 20
71.072250
 30
0.0
 10
56.006175
 20
71.198850
 30
0.0
 10
55.798800
 20
71.468175
 30
0.0
 10
55.529925
 20
71.748975
 30
0.0
 10
55.212000
 20
72.029400
 30
0.0
 10
54.857475
 20
72.297450
 30
0.0
 10
54.478800
 20
72.541200
 30
0.0
 10
54.088650
 20
72.748725
 30
0.0
 10
53.781000
 20
72.889050
 30
0.0
 10
53.507100
 20
72.999375
 30
0.0
 10
53.248425
 20
73.083225
 30
0.0
 10
52.986225
 20
73.144050
 30
0.0
 10
52.701975
 20
73.185300
 30
0.0
 10
52.377150
 20
73.210500
 30
0.0
 10
51.993075
 20
73.223025
 30
0.0
 10
51.773025
 20
73.225725
 30
0.0
 10
51.531225
 20
73.226475
 30
0.0
 10
51.063225
 20
73.215975
 30
0.0
 10
50.614800
 20
73.184325
 30
0.0
 10
50.185800
 20
73.131375
 30
0.0
 10
49.776150
 20
73.057125
 30
0.0
 10
49.385700
 20
72.961500
 30
0.0
 10
49.014300
 20
72.844425
 30
0.0
 10
48.661875
 20
72.705825
 30
0.0
 10
48.328125
 20
72.545625
 30
0.0
 10
48.013125
 20
72.363750
 30
0.0
 10
47.716500
 20
72.160125
 30
0.0
 10
47.438325
 20
71.934675
 30
0.0
 10
47.178375
 20
71.687325
 30
0.0
 10
46.936500
 20
71.418075
 30
0.0
 10
46.712550
 20
71.126700
 30
0.0
 10
46.506375
 20
70.813275
 30
0.0
 10
46.317975
 20
70.477650
 30
0.0
 10
46.189950
 20
70.218975
 30
0.0
 10
46.087950
 20
69.981375
 30
0.0
 10
46.009125
 20
69.750300
 30
0.0
 10
45.950625
 20
69.511275
 30
0.0
 10
45.909525
 20
69.249825
 30
0.0
 10
45.883050
 20
68.951475
 30
0.0
 10
45.868425
 20
68.601825
 30
0.0
 10
45.864600
 20
68.403225
 30
0.0
 10
45.862650
 20
68.186325
 30
0.0
 10
45.865125
 20
67.828350
 30
0.0
 10
45.876825
 20
67.497975
 30
0.0
 10
45.898200
 20
67.192875
 30
0.0
 10
45.929400
 20
66.910875
 30
0.0
 10
45.970875
 20
66.649650
 30
0.0
 10
46.022775
 20
66.406950
 30
0.0
 10
46.085550
 20
66.180600
 30
0.0
 10
46.159425
 20
65.968275
 30
0.0
 10
46.256700
 20
65.745300
 30
0.0
 10
46.376775
 20
65.521350
 30
0.0
 10
46.519350
 20
65.296725
 30
0.0
 10
46.684275
 20
65.071500
 30
0.0
 10
46.871400
 20
64.845900
 30
0.0
 10
47.080500
 20
64.620000
 30
0.0
 10
47.311350
 20
64.394100
 30
0.0
 10
47.563725
 20
64.168275
 30
0.0
 10
47.837550
 20
63.942750
 30
0.0
 10
48.132450
 20
63.717600
 30
0.0
 10
48.448350
 20
63.493125
 30
0.0
 10
48.785100
 20
63.269475
 30
0.0
 10
49.142325
 20
63.046725
 30
0.0
 10
49.519950
 20
62.825100
 30
0.0
 10
49.917750
 20
62.604750
 30
0.0
 10
50.335575
 20
62.385900
 30
0.0
 10
50.735400
 20
62.180550
 30
0.0
 10
51.116325
 20
61.981800
 30
0.0
 10
51.478800
 20
61.789050
 30
0.0
 10
51.823425
 20
61.602000
 30
0.0
 10
52.150425
 20
61.420200
 30
0.0
 10
52.460400
 20
61.243125
 30
0.0
 10
53.030850
 20
60.901800
 30
0.0
 10
53.538375
 20
60.574425
 30
0.0
 10
53.986350
 20
60.257775
 30
0.0
 10
54.378450
 20
59.948175
 30
0.0
 10
54.718125
 20
59.642400
 30
0.0
 10
55.009050
 20
59.336925
 30
0.0
 10
55.254600
 20
59.028300
 30
0.0
 10
55.458450
 20
58.713150
 30
0.0
 10
55.624125
 20
58.388025
 30
0.0
 10
55.755075
 20
58.049400
 30
0.0
 10
55.854975
 20
57.693975
 30
0.0
 10
55.927200
 20
57.318225
 30
0.0
 10
55.975500
 20
56.918775
 30
0.0
 10
55.995750
 20
56.526075
 30
0.0
 10
55.985625
 20
56.140343
 30
0.0
 10
55.945800
 20
55.763018
 30
0.0
 10
55.877325
 20
55.395592
 30
0.0
 10
55.781025
 20
55.039567
 30
0.0
 10
55.657875
 20
54.696375
 30
0.0
 10
55.508775
 20
54.367575
 30
0.0
 10
55.334625
 20
54.054600
 30
0.0
 10
55.136250
 20
53.758943
 30
0.0
 10
54.914700
 20
53.482042
 30
0.0
 10
54.670800
 20
53.225468
 30
0.0
 10
54.405450
 20
52.990725
 30
0.0
 10
54.119550
 20
52.779142
 30
0.0
 10
53.814075
 20
52.592318
 30
0.0
 10
53.489850
 20
52.431750
 30
0.0
 10
53.147850
 20
52.298850
 30
0.0
 10
52.663050
 20
52.156793
 30
0.0
 10
52.176450
 20
52.056668
 30
0.0
 10
51.690900
 20
51.997343
 30
0.0
 10
51.209325
 20
51.977992
 30
0.0
 10
50.734500
 20
51.997568
 30
0.0
 10
50.269350
 20
52.055167
 30
0.0
 10
49.816725
 20
52.149592
 30
0.0
 10
49.379400
 20
52.280093
 30
0.0
 10
48.960225
 20
52.445550
 30
0.0
 10
48.562125
 20
52.645043
 30
0.0
 10
48.187950
 20
52.877542
 30
0.0
 10
47.840475
 20
53.142067
 30
0.0
 10
47.522625
 20
53.437650
 30
0.0
 10
47.237175
 20
53.763292
 30
0.0
 10
46.987050
 20
54.118043
 30
0.0
 10
46.775100
 20
54.500842
 30
0.0
 10
46.620525
 20
54.791542
 30
0.0
 10
46.467675
 20
55.029592
 30
0.0
 10
46.397400
 20
55.121167
 30
0.0
 10
46.334100
 20
55.190475
 30
0.0
 10
46.280025
 20
55.234200
 30
0.0
 10
46.257150
 20
55.245600
 30
0.0
 10
46.246875
 20
55.248517
 30
0.0
 10
46.237425
 20
55.249493
 30
0.0
 10
46.173000
 20
55.241692
 30
0.0
 10
46.094625
 20
55.219493
 30
0.0
 10
45.905925
 20
55.138492
 30
0.0
 10
45.691350
 20
55.020367
 30
0.0
 10
45.471000
 20
54.878850
 30
0.0
 10
45.264825
 20
54.727717
 30
0.0
 10
45.092925
 20
54.580568
 30
0.0
 10
44.975325
 20
54.451343
 30
0.0
 10
44.943150
 20
54.397800
 30
0.0
 10
44.934825
 20
54.374475
 30
0.0
 10
44.932125
 20
54.353768
 30
0.0
 10
44.942325
 20
54.297000
 30
0.0
 10
44.971125
 20
54.210592
 30
0.0
 10
45.016350
 20
54.098843
 30
0.0
 10
45.076125
 20
53.966025
 30
0.0
 10
45.231075
 20
53.654167
 30
0.0
 10
45.420075
 20
53.309475
 30
0.0
 10
45.594900
 20
53.023350
 30
0.0
 10
45.784275
 20
52.748992
 30
0.0
 10
45.987600
 20
52.486725
 30
0.0
 10
46.204200
 20
52.237050
 30
0.0
 10
46.433475
 20
52.000417
 30
0.0
 10
46.674750
 20
51.777217
 30
0.0
 10
46.927500
 20
51.567825
 30
0.0
 10
47.191050
 20
51.372817
 30
0.0
 10
47.464725
 20
51.192525
 30
0.0
 10
47.748000
 20
51.027442
 30
0.0
 10
48.040200
 20
50.877975
 30
0.0
 10
48.340650
 20
50.744543
 30
0.0
 10
48.648825
 20
50.627617
 30
0.0
 10
48.963975
 20
50.527642
 30
0.0
 10
49.285650
 20
50.444992
 30
0.0
 10
49.613100
 20
50.380117
 30
0.0
 10
50.220300
 20
50.298068
 30
0.0
 10
50.819100
 20
50.257725
 30
0.0
  0
LWPOLYLINE
  5
10a
100
AcDbEntity
  8
0
 62
7
100
AcDbPolyline
 90
201
 70
1
 10
110.212500
 20
50.284260
 30
0.0
 10
111.225750
 20
50.344268
 30
0.0
 10
112.242000
 20
50.471250
 30
0.0
 10
113.242500
 20
50.662425
 30
0.0
 10
113.731500
 20
50.781075
 30
0.0
 10
114.209250
 20
50.914650
 30
0.0
 10
114.674250
 20
51.062843
 30
0.0
 10
115.124250
 20
51.225217
 30
0.0
 10
115.555500
 20
51.401393
 30
0.0
 10
115.967250
 20
51.591068
 30
0.0
 10
117.090750
 20
52.141275
 30
0.0
 10
117.141000
 20
53.107350
 30
0.0
 10
117.150750
 20
53.482417
 30
0.0
 10
117.147750
 20
53.646518
 30
0.0
 10
117.140250
 20
53.789625
 30
0.0
 10
117.128250
 20
53.907818
 30
0.0
 10
117.111750
 20
53.997217
 30
0.0
 10
117.102000
 20
54.029767
 30
0.0
 10
117.091500
 20
54.053692
 30
0.0
 10
117.085500
 20
54.062242
 30
0.0
 10
117.076500
 20
54.070567
 30
0.0
 10
117.067500
 20
54.073417
 30
0.0
 10
117.046500
 20
54.069525
 30
0.0
 10
117.011250
 20
54.058192
 30
0.0
 10
116.898750
 20
54.014468
 30
0.0
 10
116.736750
 20
53.945318
 30
0.0
 10
116.532000
 20
53.853893
 30
0.0
 10
116.291250
 20
53.743117
 30
0.0
 10
116.021250
 20
53.616225
 30
0.0
 10
115.728750
 20
53.476125
 30
0.0
 10
115.420500
 20
53.326042
 30
0.0
 10
114.562500
 20
52.936950
 30
0.0
 10
113.706000
 20
52.613093
 30
0.0
 10
112.854000
 20
52.354343
 30
0.0
 10
112.009500
 20
52.160317
 30
0.0
 10
111.172500
 20
52.030875
 30
0.0
 10
110.347500
 20
51.965700
 30
0.0
 10
109.535250
 20
51.964500
 30
0.0
 10
108.738000
 20
52.027118
 30
0.0
 10
107.957250
 20
52.153200
 30
0.0
 10
107.196750
 20
52.342560
 30
0.0
 10
106.458000
 20
52.594943
 30
0.0
 10
105.742500
 20
52.910100
 30
0.0
 10
105.052500
 20
53.287642
 30
0.0
 10
104.390250
 20
53.727517
 30
0.0
 10
103.758750
 20
54.229343
 30
0.0
 10
103.158750
 20
54.792975
 30
0.0
 10
102.786750
 20
55.189192
 30
0.0
 10
102.443250
 20
55.591493
 30
0.0
 10
102.128250
 20
56.000842
 30
0.0
 10
101.840250
 20
56.418150
 30
0.0
 10
101.580000
 20
56.844300
 30
0.0
 10
101.346750
 20
57.280350
 30
0.0
 10
101.139750
 20
57.727200
 30
0.0
 10
100.959750
 20
58.185750
 30
0.0
 10
100.805250
 20
58.656975
 30
0.0
 10
100.677000
 20
59.141850
 30
0.0
 10
100.573500
 20
59.641275
 30
0.0
 10
100.494750
 20
60.156225
 30
0.0
 10
100.441500
 20
60.687600
 30
0.0
 10
100.412250
 20
61.236375
 30
0.0
 10
100.406250
 20
61.803525
 30
0.0
 10
100.425000
 20
62.389950
 30
0.0
 10
100.461000
 20
62.895525
 30
0.0
 10
100.518750
 20
63.390525
 30
0.0
 10
100.597500
 20
63.874650
 30
0.0
 10
100.697250
 20
64.347600
 30
0.0
 10
100.817250
 20
64.808925
 30
0.0
 10
100.956750
 20
65.258250
 30
0.0
 10
101.115750
 20
65.695200
 30
0.0
 10
101.294250
 20
66.119550
 30
0.0
 10
101.490750
 20
66.530775
 30
0.0
 10
101.706000
 20
66.928575
 30
0.0
 10
101.939250
 20
67.312575
 30
0.0
 10
102.190500
 20
67.682400
 30
0.0
 10
102.458250
 20
68.037750
 30
0.0
 10
102.742500
 20
68.378175
 30
0.0
 10
103.043250
 20
68.703375
 30
0.0
 10
103.360500
 20
69.012900
 30
0.0
 10
103.692750
 20
69.306525
 30
0.0
 10
104.040000
 20
69.583725
 30
0.0
 10
104.402250
 20
69.844275
 30
0.0
 10
104.779500
 20
70.087725
 30
0.0
 10
105.170250
 20
70.313775
 30
0.0
 10
105.574500
 20
70.521975
 30
0.0
 10
105.992250
 20
70.711950
 30
0.0
 10
106.422000
 20
70.883475
 30
0.0
 10
106.865250
 20
71.036100
 30
0.0
 10
107.319750
 20
71.169450
 30
0.0
 10
107.786250
 20
71.283150
 30
0.0
 10
108.264000
 20
71.376825
 30
0.0
 10
108.753000
 20
71.450250
 30
0.0
 10
109.251750
 20
71.502825
 30
0.0
 10
109.761000
 20
71.534400
 30
0.0
 10
110.280000
 20
71.544525
 30
0.0
 10
110.700000
 20
71.538300
 30
0.0
 10
111.105750
 20
71.520525
 30
0.0
 10
111.876750
 20
71.448300
 30
0.0
 10
112.606500
 20
71.324025
 30
0.0
 10
113.307000
 20
71.144025
 30
0.0
 10
113.989500
 20
70.904625
 30
0.0
 10
114.667500
 20
70.602075
 30
0.0
 10
115.352250
 20
70.232700
 30
0.0
 10
115.701000
 20
70.021800
 30
0.0
 10
116.415000
 20
69.560400
 30
0.0
 10
116.579250
 20
69.458775
 30
0.0
 10
116.727000
 20
69.370125
 30
0.0
 10
116.854500
 20
69.296925
 30
0.0
 10
116.958000
 20
69.241575
 30
0.0
 10
117.032250
 20
69.206550
 30
0.0
 10
117.067500
 20
69.195150
 30
0.0
 10
117.077250
 20
69.194700
 30
0.0
 10
117.086250
 20
69.199800
 30
0.0
 10
117.091500
 20
69.206400
 30
0.0
 10
117.096750
 20
69.215625
 30
0.0
 10
117.115500
 20
69.276375
 30
0.0
 10
117.131250
 20
69.372525
 30
0.0
 10
117.142500
 20
69.499800
 30
0.0
 10
117.149250
 20
69.653775
 30
0.0
 10
117.151500
 20
69.830325
 30
0.0
 10
117.141000
 20
70.234050
 30
0.0
 10
117.090750
 20
71.273700
 30
0.0
 10
115.893750
 20
71.917050
 30
0.0
 10
115.185000
 20
72.271500
 30
0.0
 10
114.488250
 20
72.563475
 30
0.0
 10
113.787000
 20
72.796275
 30
0.0
 10
113.064750
 20
72.973350
 30
0.0
 10
112.305000
 20
73.098000
 30
0.0
 10
111.905250
 20
73.141725
 30
0.0
 10
111.490500
 20
73.173675
 30
0.0
 10
111.057000
 20
73.194150
 30
0.0
 10
110.604750
 20
73.203750
 30
0.0
 10
110.130000
 20
73.202700
 30
0.0
 10
109.631250
 20
73.191525
 30
0.0
 10
109.168500
 20
73.173300
 30
0.0
 10
108.731250
 20
73.148025
 30
0.0
 10
108.318000
 20
73.115025
 30
0.0
 10
107.925750
 20
73.073700
 30
0.0
 10
107.551500
 20
73.023375
 30
0.0
 10
107.193750
 20
72.963375
 30
0.0
 10
106.515000
 20
72.811650
 30
0.0
 10
105.870000
 20
72.613200
 30
0.0
 10
105.237750
 20
72.362700
 30
0.0
 10
104.599500
 20
72.054900
 30
0.0
 10
104.271000
 20
71.877825
 30
0.0
 10
103.934250
 20
71.684400
 30
0.0
 10
103.654500
 20
71.510250
 30
0.0
 10
103.370250
 20
71.315100
 30
0.0
 10
102.796500
 20
70.869075
 30
0.0
 10
102.226500
 20
70.360875
 30
0.0
 10
101.673750
 20
69.804975
 30
0.0
 10
101.151000
 20
69.216000
 30
0.0
 10
100.673250
 20
68.608500
 30
0.0
 10
100.254000
 20
67.996875
 30
0.0
 10
100.070250
 20
67.694175
 30
0.0
 10
99.906000
 20
67.395825
 30
0.0
 10
99.576750
 20
66.724350
 30
0.0
 10
99.304500
 20
66.078825
 30
0.0
 10
99.085500
 20
65.440875
 30
0.0
 10
98.915250
 20
64.792050
 30
0.0
 10
98.790000
 20
64.113750
 30
0.0
 10
98.706000
 20
63.387675
 30
0.0
 10
98.677500
 20
63.000825
 30
0.0
 10
98.658000
 20
62.595150
 30
0.0
 10
98.646750
 20
62.168325
 30
0.0
 10
98.643000
 20
61.717950
 30
0.0
 10
98.652750
 20
61.085400
 30
0.0
 10
98.683500
 20
60.478725
 30
0.0
 10
98.736000
 20
59.896200
 30
0.0
 10
98.810250
 20
59.336100
 30
0.0
 10
98.907000
 20
58.796700
 30
0.0
 10
99.027000
 20
58.276275
 30
0.0
 10
99.171750
 20
57.773100
 30
0.0
 10
99.340500
 20
57.285450
 30
0.0
 10
99.534750
 20
56.811600
 30
0.0
 10
99.755250
 20
56.349825
 30
0.0
 10
100.002000
 20
55.898392
 30
0.0
 10
100.276500
 20
55.455600
 30
0.0
 10
100.578750
 20
55.019692
 30
0.0
 10
100.909500
 20
54.588968
 30
0.0
 10
101.269500
 20
54.161693
 30
0.0
 10
101.659500
 20
53.736142
 30
0.0
 10
102.011250
 20
53.379892
 30
0.0
 10
102.369000
 20
53.044500
 30
0.0
 10
102.732750
 20
52.729650
 30
0.0
 10
103.102500
 20
52.435043
 30
0.0
 10
103.480500
 20
52.160400
 30
0.0
 10
103.866000
 20
51.905468
 30
0.0
 10
104.259750
 20
51.669975
 30
0.0
 10
104.661750
 20
51.453518
 30
0.0
 10
105.074250
 20
51.256035
 30
0.0
 10
105.496500
 20
51.077017
 30
0.0
 10
105.929250
 20
50.916300
 30
0.0
 10
106.372500
 20
50.773650
 30
0.0
 10
106.828500
 20
50.648618
 30
0.0
 10
107.295750
 20
50.541150
 30
0.0
 10
107.776500
 20
50.450693
 30
0.0
 10
108.270750
 20
50.377192
 30
0.0
 10
108.739500
 20
50.326493
 30
0.0
 10
109.221000
 20
50.294325
 30
0.0
 10
109.713000
 20
50.280375
 30
0.0
  0
LWPOLYLINE
  5
10b
100
AcDbEntity
  8
0
 62
7
100
AcDbPolyline
 90
154
 70
1
 10
6.216593
 20
50.237167
 30
0.0
 10
6.482475
 20
50.241750
 30
0.0
 10
6.746317
 20
50.251042
 30
0.0
 10
7.006792
 20
50.264925
 30
0.0
 10
7.262842
 20
50.283367
 30
0.0
 10
7.513200
 20
50.306400
 30
0.0
 10
7.756725
 20
50.333768
 30
0.0
 10
7.992300
 20
50.365410
 30
0.0
 10
8.135175
 20
50.387318
 30
0.0
 10
8.693250
 20
50.494492
 30
0.0
 10
9.218400
 20
50.631743
 30
0.0
 10
9.711225
 20
50.799525
 30
0.0
 10
10.172325
 20
50.998568
 30
0.0
 10
10.602150
 20
51.229343
 30
0.0
 10
11.001375
 20
51.492443
 30
0.0
 10
11.370375
 20
51.788460
 30
0.0
 10
11.709900
 20
52.118100
 30
0.0
 10
12.020325
 20
52.481768
 30
0.0
 10
12.302250
 20
52.880175
 30
0.0
 10
12.556275
 20
53.313743
 30
0.0
 10
12.782925
 20
53.783250
 30
0.0
 10
12.982725
 20
54.289192
 30
0.0
 10
13.156200
 20
54.832125
 30
0.0
 10
13.303875
 20
55.412692
 30
0.0
 10
13.426425
 20
56.031442
 30
0.0
 10
13.497000
 20
56.517225
 30
0.0
 10
13.526700
 20
56.791725
 30
0.0
 10
13.552800
 20
57.095475
 30
0.0
 10
13.575525
 20
57.434550
 30
0.0
 10
13.594950
 20
57.815100
 30
0.0
 10
13.611300
 20
58.243275
 30
0.0
 10
13.624575
 20
58.725075
 30
0.0
 10
13.635000
 20
59.266725
 30
0.0
 10
13.642725
 20
59.874300
 30
0.0
 10
13.647825
 20
60.553875
 30
0.0
 10
13.650900
 20
61.721700
 30
0.0
 10
13.647225
 20
63.588000
 30
0.0
 10
13.639275
 20
65.246325
 30
0.0
 10
13.595625
 20
72.974625
 30
0.0
 10
11.915550
 20
72.974625
 30
0.0
 10
11.804100
 20
62.659950
 30
0.0
 10
11.776050
 20
60.572025
 30
0.0
 10
11.754000
 20
59.317200
 30
0.0
 10
11.738175
 20
58.612800
 30
0.0
 10
11.721000
 20
58.004325
 30
0.0
 10
11.702175
 20
57.483300
 30
0.0
 10
11.681325
 20
57.041175
 30
0.0
 10
11.658150
 20
56.669475
 30
0.0
 10
11.632200
 20
56.359725
 30
0.0
 10
11.603175
 20
56.103518
 30
0.0
 10
11.570775
 20
55.892243
 30
0.0
 10
11.534550
 20
55.717560
 30
0.0
 10
11.494275
 20
55.570875
 30
0.0
 10
11.449500
 20
55.443742
 30
0.0
 10
11.247525
 20
54.963068
 30
0.0
 10
11.033925
 20
54.524392
 30
0.0
 10
10.806450
 20
54.126368
 30
0.0
 10
10.563075
 20
53.767868
 30
0.0
 10
10.301400
 20
53.447617
 30
0.0
 10
10.019475
 20
53.164275
 30
0.0
 10
9.714900
 20
52.916692
 30
0.0
 10
9.385650
 20
52.703542
 30
0.0
 10
9.029400
 20
52.523618
 30
0.0
 10
8.644050
 20
52.375650
 30
0.0
 10
8.227425
 20
52.258350
 30
0.0
 10
7.777350
 20
52.170525
 30
0.0
 10
7.291485
 20
52.110818
 30
0.0
 10
6.767843
 20
52.078125
 30
0.0
 10
6.204142
 20
52.071067
 30
0.0
 10
5.598218
 20
52.088543
 30
0.0
 10
5.173118
 20
52.115550
 30
0.0
 10
4.773067
 20
52.156118
 30
0.0
 10
4.396867
 20
52.210943
 30
0.0
 10
4.043543
 20
52.280468
 30
0.0
 10
3.712117
 20
52.365375
 30
0.0
 10
3.401618
 20
52.466025
 30
0.0
 10
3.110850
 20
52.583168
 30
0.0
 10
2.838893
 20
52.717200
 30
0.0
 10
2.584718
 20
52.868842
 30
0.0
 10
2.347342
 20
53.038493
 30
0.0
 10
2.125650
 20
53.226743
 30
0.0
 10
1.918718
 20
53.434193
 30
0.0
 10
1.725450
 20
53.661450
 30
0.0
 10
1.544850
 20
53.908943
 30
0.0
 10
1.375868
 20
54.177293
 30
0.0
 10
1.217467
 20
54.467092
 30
0.0
 10
0.973718
 20
54.998243
 30
0.0
 10
0.872692
 20
55.277318
 30
0.0
 10
0.784425
 20
55.580475
 30
0.0
 10
0.708069
 20
55.919018
 30
0.0
 10
0.642746
 20
56.304225
 30
0.0
 10
0.587620
 20
56.747475
 30
0.0
 10
0.563621
 20
56.994450
 30
0.0
 10
0.541866
 20
57.260100
 30
0.0
 10
0.522217
 20
57.545850
 30
0.0
 10
0.504593
 20
57.853275
 30
0.0
 10
0.488845
 20
58.183650
 30
0.0
 10
0.474965
 20
58.538400
 30
0.0
 10
0.462742
 20
58.918950
 30
0.0
 10
0.452098
 20
59.326725
 30
0.0
 10
0.442943
 20
59.763150
 30
0.0
 10
0.435139
 20
60.229650
 30
0.0
 10
0.423374
 20
61.258425
 30
0.0
 10
0.415718
 20
62.424375
 30
0.0
 10
0.411518
 20
63.738750
 30
0.0
 10
0.409790
 20
65.212950
 30
0.0
 10
0.407764
 20
73.076175
 30
0.0
 10
-1.356367
 20
72.974625
 30
0.0
 10
-1.355768
 20
63.072600
 30
0.0
 10
-1.353300
 20
61.674900
 30
0.0
 10
-1.347600
 20
60.450000
 30
0.0
 10
-1.343093
 20
59.897625
 30
0.0
 10
-1.337392
 20
59.382750
 30
0.0
 10
-1.330192
 20
58.903650
 30
0.0
 10
-1.321350
 20
58.458300
 30
0.0
 10
-1.310775
 20
58.044825
 30
0.0
 10
-1.298242
 20
57.661500
 30
0.0
 10
-1.283692
 20
57.306300
 30
0.0
 10
-1.266817
 20
56.977425
 30
0.0
 10
-1.247625
 20
56.672925
 30
0.0
 10
-1.225800
 20
56.391000
 30
0.0
 10
-1.201275
 20
56.129700
 30
0.0
 10
-1.173818
 20
55.887225
 30
0.0
 10
-1.109617
 20
55.451100
 30
0.0
 10
-1.031993
 20
55.067700
 30
0.0
 10
-0.939593
 20
54.721792
 30
0.0
 10
-0.831217
 20
54.398542
 30
0.0
 10
-0.705449
 20
54.082950
 30
0.0
 10
-0.561070
 20
53.759842
 30
0.0
 10
-0.396824
 20
53.414317
 30
0.0
 10
-0.249515
 20
53.134417
 30
0.0
 10
-0.081298
 20
52.862093
 30
0.0
 10
0.107323
 20
52.598467
 30
0.0
 10
0.315365
 20
52.344592
 30
0.0
 10
0.542015
 20
52.101743
 30
0.0
 10
0.786292
 20
51.870668
 30
0.0
 10
1.047217
 20
51.652568
 30
0.0
 10
1.323667
 20
51.448268
 30
0.0
 10
1.614518
 20
51.258668
 30
0.0
 10
1.918500
 20
51.084517
 30
0.0
 10
2.234325
 20
50.926493
 30
0.0
 10
2.560650
 20
50.785425
 30
0.0
 10
2.896125
 20
50.661817
 30
0.0
 10
3.239318
 20
50.556142
 30
0.0
 10
3.588825
 20
50.468918
 30
0.0
 10
3.942068
 20
50.401200
 30
0.0
 10
4.158667
 20
50.367600
 30
0.0
 10
4.430618
 20
50.331742
 30
0.0
 10
4.644893
 20
50.307968
 30
0.0
 10
4.950225
 20
50.280525
 30
0.0
 10
5.156167
 20
50.265968
 30
0.0
 10
5.490818
 20
50.248650
 30
0.0
 10
5.683275
 20
50.242193
 30
0.0
 10
5.949750
 20
50.237318
 30
0.0
  0
LWPOLYLINE
  5
10c
100
AcDbEntity
  8
0
 62
7
100
AcDbPolyline
 90
57
 70
1
 10
19.897050
 20
60.963600
 30
0.0
 10
21.283125
 20
60.965625
 30
0.0
 10
21.931950
 20
60.980100
 30
0.0
 10
22.553550
 20
61.020750
 30
0.0
 10
23.147400
 20
61.087275
 30
0.0
 10
23.713200
 20
61.179525
 30
0.0
 10
24.250500
 20
61.297275
 30
0.0
 10
24.758925
 20
61.440375
 30
0.0
 10
25.237950
 20
61.608600
 30
0.0
 10
25.687275
 20
61.801725
 30
0.0
 10
26.106450
 20
62.019600
 30
0.0
 10
26.494950
 20
62.262075
 30
0.0
 10
26.852550
 20
62.528775
 30
0.0
 10
27.178725
 20
62.819700
 30
0.0
 10
27.473100
 20
63.134550
 30
0.0
 10
27.735225
 20
63.473175
 30
0.0
 10
27.964725
 20
63.835350
 30
0.0
 10
28.161150
 20
64.220850
 30
0.0
 10
28.273650
 20
64.484325
 30
0.0
 10
28.362600
 20
64.734375
 30
0.0
 10
28.430700
 20
64.990050
 30
0.0
 10
28.480500
 20
65.270025
 30
0.0
 10
28.514700
 20
65.593275
 30
0.0
 10
28.526700
 20
65.777025
 30
0.0
 10
28.535850
 20
65.978625
 30
0.0
 10
28.542375
 20
66.200475
 30
0.0
 10
28.546575
 20
66.444975
 30
0.0
 10
28.548900
 20
66.714375
 30
0.0
 10
28.548900
 20
67.299750
 30
0.0
 10
28.546500
 20
67.563150
 30
0.0
 10
28.542225
 20
67.803300
 30
0.0
 10
28.535775
 20
68.022225
 30
0.0
 10
28.515375
 20
68.403975
 30
0.0
 10
28.483275
 20
68.724375
 30
0.0
 10
28.437300
 20
68.999100
 30
0.0
 10
28.375500
 20
69.244050
 30
0.0
 10
28.295700
 20
69.474975
 30
0.0
 10
28.195800
 20
69.707775
 30
0.0
 10
27.978750
 20
70.135575
 30
0.0
 10
27.738075
 20
70.529100
 30
0.0
 10
27.471600
 20
70.889100
 30
0.0
 10
27.177150
 20
71.216775
 30
0.0
 10
26.852475
 20
71.512875
 30
0.0
 10
26.495400
 20
71.778450
 30
0.0
 10
26.103600
 20
72.014550
 30
0.0
 10
25.674975
 20
72.221925
 30
0.0
 10
25.207275
 20
72.401700
 30
0.0
 10
24.698325
 20
72.554850
 30
0.0
 10
24.145800
 20
72.682200
 30
0.0
 10
23.547600
 20
72.784800
 30
0.0
 10
22.901400
 20
72.863550
 30
0.0
 10
22.205100
 20
72.919500
 30
0.0
 10
21.456375
 20
72.953550
 30
0.0
 10
20.653125
 20
72.966675
 30
0.0
 10
18.132900
 20
72.974625
 30
0.0
 10
18.046575
 20
50.547000
 30
0.0
 10
19.897050
 20
50.547000
 30
0.0
  0
LWPOLYLINE
  5
10d
100
AcDbEntity
  8
0
 62
7
100
AcDbPolyline
 90
53
 70
1
 10
19.896825
 20
62.642025
 30
0.0
 10
19.896825
 20
71.210550
 30
0.0
 10
21.289650
 20
71.210550
 30
0.0
 10
21.760200
 20
71.202150
 30
0.0
 10
22.211550
 20
71.177025
 30
0.0
 10
22.643325
 20
71.135400
 30
0.0
 10
23.055225
 20
71.077350
 30
0.0
 10
23.446800
 20
71.003025
 30
0.0
 10
23.817825
 20
70.912575
 30
0.0
 10
24.167925
 20
70.806150
 30
0.0
 10
24.496725
 20
70.683825
 30
0.0
 10
24.803850
 20
70.545825
 30
0.0
 10
25.089000
 20
70.392300
 30
0.0
 10
25.351800
 20
70.223325
 30
0.0
 10
25.591950
 20
70.039125
 30
0.0
 10
25.809075
 20
69.839700
 30
0.0
 10
26.002800
 20
69.625350
 30
0.0
 10
26.172825
 20
69.396150
 30
0.0
 10
26.318700
 20
69.152250
 30
0.0
 10
26.425050
 20
68.938725
 30
0.0
 10
26.510400
 20
68.731425
 30
0.0
 10
26.576925
 20
68.517975
 30
0.0
 10
26.626575
 20
68.286075
 30
0.0
 10
26.661675
 20
68.023275
 30
0.0
 10
26.684175
 20
67.717275
 30
0.0
 10
26.696250
 20
67.355700
 30
0.0
 10
26.699100
 20
67.150275
 30
0.0
 10
26.699625
 20
66.686025
 30
0.0
 10
26.697525
 20
66.469200
 30
0.0
 10
26.693250
 20
66.273675
 30
0.0
 10
26.686500
 20
66.097050
 30
0.0
 10
26.663400
 20
65.791500
 30
0.0
 10
26.624550
 20
65.534550
 30
0.0
 10
26.566425
 20
65.307900
 30
0.0
 10
26.485275
 20
65.093475
 30
0.0
 10
26.377500
 20
64.873050
 30
0.0
 10
26.239500
 20
64.628550
 30
0.0
 10
25.995300
 20
64.275750
 30
0.0
 10
25.699125
 20
63.961500
 30
0.0
 10
25.348650
 20
63.684600
 30
0.0
 10
24.941400
 20
63.443850
 30
0.0
 10
24.475200
 20
63.238050
 30
0.0
 10
24.219225
 20
63.147900
 30
0.0
 10
23.947650
 20
63.066075
 30
0.0
 10
23.660025
 20
62.992350
 30
0.0
 10
23.356275
 20
62.926575
 30
0.0
 10
23.036025
 20
62.868675
 30
0.0
 10
22.698900
 20
62.818500
 30
0.0
 10
21.552150
 20
62.693850
 30
0.0
 10
21.281175
 20
62.672250
 30
0.0
 10
21.033300
 20
62.655975
 30
0.0
 10
20.817000
 20
62.645625
 30
0.0
 10
20.640750
 20
62.642025
 30
0.0
  0
LWPOLYLINE
  5
10e
100
AcDbEntity
  8
0
 62
7
100
AcDbPolyline
 90
12
 70
1
 10
96.258000
 20
50.628968
 30
0.0
 10
96.258000
 20
52.141042
 30
0.0
 10
87.264000
 20
52.230517
 30
0.0
 10
87.353250
 20
62.221650
 30
0.0
 10
96.360000
 20
62.311350
 30
0.0
 10
96.258000
 20
63.901950
 30
0.0
 10
87.262500
 20
63.991425
 30
0.0
 10
87.353250
 20
71.294400
 30
0.0
 10
96.360000
 20
71.384025
 30
0.0
 10
96.258000
 20
72.974625
 30
0.0
 10
85.673250
 20
72.974625
 30
0.0
 10
85.587000
 20
50.540017
 30
0.0
  0
LWPOLYLINE
  5
10f
100
AcDbEntity
  8
0
 62
7
100
AcDbPolyline
 90
8
 70
1
 10
77.521500
 20
50.545268
 30
0.0
 10
77.608500
 20
71.294550
 30
0.0
 10
82.918500
 20
71.387025
 30
0.0
 10
82.816500
 20
72.974475
 30
0.0
 10
70.551975
 20
72.974475
 30
0.0
 10
70.449975
 20
71.387025
 30
0.0
 10
75.760500
 20
71.294550
 30
0.0
 10
75.846750
 20
50.545268
 30
0.0
  0
LWPOLYLINE
  5
110
100
AcDbEntity
  8
0
 62
7
100
AcDbPolyline
 90
207
 70
1
 10
64.863225
 20
48.412651
 30
0.0
 10
64.963125
 20
48.438011
 30
0.0
 10
65.003325
 20
48.454433
 30
0.0
 10
65.037450
 20
48.474003
 30
0.0
 10
65.065875
 20
48.497177
 30
0.0
 10
65.088825
 20
48.524482
 30
0.0
 10
65.106750
 20
48.556354
 30
0.0
 10
65.120025
 20
48.593330
 30
0.0
 10
65.133675
 20
48.684460
 30
0.0
 10
65.132550
 20
48.801739
 30
0.0
 10
65.113500
 20
49.012195
 30
0.0
 10
65.101425
 20
49.200966
 30
0.0
 10
65.095275
 20
49.323749
 30
0.0
 10
65.083200
 20
49.619168
 30
0.0
 10
65.071575
 20
49.971367
 30
0.0
 10
65.060700
 20
50.369017
 30
0.0
 10
65.051025
 20
50.800793
 30
0.0
 10
65.036625
 20
51.721267
 30
0.0
 10
65.033475
 20
52.046917
 30
0.0
 10
65.032275
 20
52.345193
 30
0.0
 10
65.033025
 20
52.617750
 30
0.0
 10
65.035875
 20
52.866293
 30
0.0
 10
65.041050
 20
53.092343
 30
0.0
 10
65.048625
 20
53.297767
 30
0.0
 10
65.058825
 20
53.484068
 30
0.0
 10
65.071725
 20
53.652968
 30
0.0
 10
65.106300
 20
53.945175
 30
0.0
 10
65.153550
 20
54.187868
 30
0.0
 10
65.214750
 20
54.394125
 30
0.0
 10
65.290950
 20
54.577492
 30
0.0
 10
65.358450
 20
54.722993
 30
0.0
 10
65.442975
 20
54.911842
 30
0.0
 10
65.541000
 20
55.136018
 30
0.0
 10
65.649225
 20
55.387575
 30
0.0
 10
65.882700
 20
55.941293
 30
0.0
 10
66.116250
 20
56.509575
 30
0.0
 10
66.212100
 20
56.746950
 30
0.0
 10
66.296100
 20
56.960475
 30
0.0
 10
66.432450
 20
57.346125
 30
0.0
 10
66.532800
 20
57.726675
 30
0.0
 10
66.571875
 20
57.933900
 30
0.0
 10
66.604800
 20
58.162425
 30
0.0
 10
66.632475
 20
58.419825
 30
0.0
 10
66.655800
 20
58.713600
 30
0.0
 10
66.675825
 20
59.051325
 30
0.0
 10
66.693450
 20
59.440500
 30
0.0
 10
66.709575
 20
59.888625
 30
0.0
 10
66.780150
 20
62.429550
 30
0.0
 10
66.804675
 20
63.149550
 30
0.0
 10
66.831150
 20
63.806250
 30
0.0
 10
66.858750
 20
64.383600
 30
0.0
 10
66.886575
 20
64.865400
 30
0.0
 10
66.900300
 20
65.065575
 30
0.0
 10
66.913800
 20
65.235825
 30
0.0
 10
66.926925
 20
65.374125
 30
0.0
 10
66.939600
 20
65.478600
 30
0.0
 10
66.951675
 20
65.547150
 30
0.0
 10
66.963150
 20
65.577825
 30
0.0
 10
66.968925
 20
65.581575
 30
0.0
 10
66.975000
 20
65.581875
 30
0.0
 10
66.988125
 20
65.572125
 30
0.0
 10
67.002375
 20
65.549325
 30
0.0
 10
67.017750
 20
65.514000
 30
0.0
 10
67.051200
 20
65.408475
 30
0.0
 10
67.087800
 20
65.260725
 30
0.0
 10
67.126800
 20
65.075850
 30
0.0
 10
67.167300
 20
64.858950
 30
0.0
 10
67.208700
 20
64.615125
 30
0.0
 10
67.250025
 20
64.349550
 30
0.0
 10
67.329900
 20
63.773550
 30
0.0
 10
67.400700
 20
63.171900
 30
0.0
 10
67.456350
 20
62.585550
 30
0.0
 10
67.476600
 20
62.310900
 30
0.0
 10
67.490700
 20
62.055450
 30
0.0
 10
67.513875
 20
61.751625
 30
0.0
 10
67.556925
 20
61.512825
 30
0.0
 10
67.625400
 20
61.334775
 30
0.0
 10
67.670775
 20
61.267125
 30
0.0
 10
67.724625
 20
61.212975
 30
0.0
 10
67.787475
 20
61.171800
 30
0.0
 10
67.860075
 20
61.143000
 30
0.0
 10
67.943025
 20
61.126050
 30
0.0
 10
68.037150
 20
61.120350
 30
0.0
 10
68.261400
 20
61.140675
 30
0.0
 10
68.538075
 20
61.199400
 30
0.0
 10
68.670000
 20
61.238400
 30
0.0
 10
68.783400
 20
61.290000
 30
0.0
 10
68.877750
 20
61.362000
 30
0.0
 10
68.917725
 20
61.408125
 30
0.0
 10
68.952750
 20
61.462425
 30
0.0
 10
69.007875
 20
61.599150
 30
0.0
 10
69.042675
 20
61.780050
 30
0.0
 10
69.056775
 20
62.013150
 30
0.0
 10
69.049800
 20
62.306400
 30
0.0
 10
69.038175
 20
62.478000
 30
0.0
 10
69.021150
 20
62.667600
 30
0.0
 10
68.998650
 20
62.876175
 30
0.0
 10
68.970525
 20
63.104775
 30
0.0
 10
68.936850
 20
63.354300
 30
0.0
 10
68.897475
 20
63.625725
 30
0.0
 10
68.852400
 20
63.920175
 30
0.0
 10
68.801550
 20
64.238550
 30
0.0
 10
68.744925
 20
64.581900
 30
0.0
 10
68.613900
 20
65.347275
 30
0.0
 10
68.458875
 20
66.224250
 30
0.0
 10
68.180550
 20
67.766325
 30
0.0
 10
68.060325
 20
68.419050
 30
0.0
 10
67.941075
 20
69.050100
 30
0.0
 10
67.825875
 20
69.644250
 30
0.0
 10
67.717875
 20
70.185975
 30
0.0
 10
67.620075
 20
70.659900
 30
0.0
 10
67.535775
 20
71.050575
 30
0.0
 10
67.499625
 20
71.209950
 30
0.0
 10
67.467975
 20
71.342700
 30
0.0
 10
67.441275
 20
71.446950
 30
0.0
 10
67.419825
 20
71.520825
 30
0.0
 10
67.303500
 20
71.790000
 30
0.0
 10
67.227225
 20
71.907000
 30
0.0
 10
67.137300
 20
72.012675
 30
0.0
 10
67.032675
 20
72.107550
 30
0.0
 10
66.912150
 20
72.192000
 30
0.0
 10
66.774600
 20
72.266475
 30
0.0
 10
66.618900
 20
72.331350
 30
0.0
 10
66.444000
 20
72.387000
 30
0.0
 10
66.248625
 20
72.433950
 30
0.0
 10
66.031800
 20
72.472575
 30
0.0
 10
65.792325
 20
72.503175
 30
0.0
 10
65.529000
 20
72.526275
 30
0.0
 10
65.240850
 20
72.542325
 30
0.0
 10
64.926525
 20
72.551625
 30
0.0
 10
64.585125
 20
72.554625
 30
0.0
 10
64.110900
 20
72.552525
 30
0.0
 10
63.913275
 20
72.549225
 30
0.0
 10
63.738975
 20
72.543675
 30
0.0
 10
63.585900
 20
72.535500
 30
0.0
 10
63.451650
 20
72.524175
 30
0.0
 10
63.231300
 20
72.490050
 30
0.0
 10
63.060150
 20
72.437400
 30
0.0
 10
62.920500
 20
72.362325
 30
0.0
 10
62.794800
 20
72.260850
 30
0.0
 10
62.665275
 20
72.129150
 30
0.0
 10
62.480400
 20
71.900175
 30
0.0
 10
62.335650
 20
71.634375
 30
0.0
 10
62.276925
 20
71.476050
 30
0.0
 10
62.226450
 20
71.294700
 30
0.0
 10
62.183700
 20
71.085600
 30
0.0
 10
62.148225
 20
70.844175
 30
0.0
 10
62.119275
 20
70.565775
 30
0.0
 10
62.096325
 20
70.245825
 30
0.0
 10
62.078850
 20
69.879600
 30
0.0
 10
62.066175
 20
69.462600
 30
0.0
 10
62.057850
 20
68.990175
 30
0.0
 10
62.053275
 20
68.457675
 30
0.0
 10
62.052150
 20
67.536225
 30
0.0
 10
62.055225
 20
66.757275
 30
0.0
 10
62.059125
 20
66.348000
 30
0.0
 10
62.064675
 20
65.964900
 30
0.0
 10
62.072100
 20
65.606775
 30
0.0
 10
62.081400
 20
65.272425
 30
0.0
 10
62.092650
 20
64.960575
 30
0.0
 10
62.105925
 20
64.669950
 30
0.0
 10
62.121375
 20
64.399425
 30
0.0
 10
62.138925
 20
64.147800
 30
0.0
 10
62.158800
 20
63.913650
 30
0.0
 10
62.205675
 20
63.493350
 30
0.0
 10
62.262525
 20
63.128775
 30
0.0
 10
62.329950
 20
62.810025
 30
0.0
 10
62.360625
 20
62.671125
 30
0.0
 10
62.391075
 20
62.507475
 30
0.0
 10
62.421150
 20
62.320050
 30
0.0
 10
62.450775
 20
62.109900
 30
0.0
 10
62.479800
 20
61.878075
 30
0.0
 10
62.508300
 20
61.625475
 30
0.0
 10
62.536050
 20
61.353300
 30
0.0
 10
62.562975
 20
61.062525
 30
0.0
 10
62.614050
 20
60.429225
 30
0.0
 10
62.660850
 20
59.733825
 30
0.0
 10
62.702550
 20
58.984575
 30
0.0
 10
62.738550
 20
58.189725
 30
0.0
 10
62.765175
 20
57.557550
 30
0.0
 10
62.792550
 20
56.970600
 30
0.0
 10
62.821200
 20
56.424900
 30
0.0
 10
62.851425
 20
55.916325
 30
0.0
 10
62.883750
 20
55.440892
 30
0.0
 10
62.918550
 20
54.994642
 30
0.0
 10
62.956425
 20
54.573442
 30
0.0
 10
62.997675
 20
54.173392
 30
0.0
 10
63.092175
 20
53.420392
 30
0.0
 10
63.205650
 20
52.703392
 30
0.0
 10
63.341625
 20
51.990293
 30
0.0
 10
63.503700
 20
51.248843
 30
0.0
 10
63.598500
 20
50.785792
 30
0.0
 10
63.676050
 20
50.309100
 30
0.0
 10
63.705900
 20
50.083042
 30
0.0
 10
63.728475
 20
49.874625
 30
0.0
 10
63.742725
 20
49.690868
 30
0.0
 10
63.747675
 20
49.538775
 30
0.0
 10
63.768150
 20
49.258267
 30
0.0
 10
63.825000
 20
48.995693
 30
0.0
 10
63.911550
 20
48.773998
 30
0.0
 10
63.963750
 20
48.685581
 30
0.0
 10
64.020825
 20
48.615978
 30
0.0
 10
64.084875
 20
48.561905
 30
0.0
 10
64.161825
 20
48.513531
 30
0.0
 10
64.343025
 20
48.437633
 30
0.0
 10
64.541625
 20
48.395404
 30
0.0
 10
64.734825
 20
48.393985
 30
0.0
  0
LWPOLYLINE
  5
111
100
AcDbEntity
  8
0
 62
7
100
AcDbPolyline
 90
38
 70
1
 10
48.610950
 20
47.219707
 30
0.0
 10
48.791925
 20
47.285032
 30
0.0
 10
48.987525
 20
47.389650
 30
0.0
 10
49.192200
 20
47.533208
 30
0.0
 10
49.359900
 20
47.677208
 30
0.0
 10
49.485825
 20
47.813108
 30
0.0
 10
49.570200
 20
47.942250
 30
0.0
 10
49.596825
 20
48.004726
 30
0.0
 10
49.613175
 20
48.066010
 30
0.0
 10
49.619250
 20
48.126308
 30
0.0
 10
49.615050
 20
48.185703
 30
0.0
 10
49.600725
 20
48.244503
 30
0.0
 10
49.576125
 20
48.302777
 30
0.0
 10
49.496625
 20
48.418430
 30
0.0
 10
49.376700
 20
48.534153
 30
0.0
 10
49.299300
 20
48.590710
 30
0.0
 10
49.226100
 20
48.624836
 30
0.0
 10
49.189650
 20
48.633007
 30
0.0
 10
49.152450
 20
48.634952
 30
0.0
 10
49.114125
 20
48.630604
 30
0.0
 10
49.074000
 20
48.619583
 30
0.0
 10
48.986100
 20
48.577126
 30
0.0
 10
48.884250
 20
48.505955
 30
0.0
 10
48.763950
 20
48.404480
 30
0.0
 10
48.620700
 20
48.271282
 30
0.0
 10
48.427350
 20
48.062027
 30
0.0
 10
48.269025
 20
47.844833
 30
0.0
 10
48.162000
 20
47.645482
 30
0.0
 10
48.132900
 20
47.560500
 30
0.0
 10
48.122700
 20
47.489625
 30
0.0
 10
48.128625
 20
47.417408
 30
0.0
 10
48.146025
 20
47.355308
 30
0.0
 10
48.174075
 20
47.303333
 30
0.0
 10
48.212100
 20
47.261407
 30
0.0
 10
48.259500
 20
47.229525
 30
0.0
 10
48.315375
 20
47.207633
 30
0.0
 10
48.379200
 20
47.195775
 30
0.0
 10
48.450225
 20
47.193832
 30
0.0
  0
LWPOLYLINE
  5
112
100
AcDbEntity
  8
0
 62
7
100
AcDbPolyline
 90
38
 70
1
 10
0.559948
 20
47.219707
 30
0.0
 10
0.740993
 20
47.285032
 30
0.0
 10
0.936593
 20
47.389650
 30
0.0
 10
1.141193
 20
47.533208
 30
0.0
 10
1.308968
 20
47.677208
 30
0.0
 10
1.434892
 20
47.813108
 30
0.0
 10
1.519192
 20
47.942250
 30
0.0
 10
1.545825
 20
48.004726
 30
0.0
 10
1.562167
 20
48.066010
 30
0.0
 10
1.568243
 20
48.126308
 30
0.0
 10
1.564118
 20
48.185703
 30
0.0
 10
1.549725
 20
48.244503
 30
0.0
 10
1.525200
 20
48.302777
 30
0.0
 10
1.445617
 20
48.418430
 30
0.0
 10
1.325760
 20
48.534153
 30
0.0
 10
1.248368
 20
48.590710
 30
0.0
 10
1.175092
 20
48.624836
 30
0.0
 10
1.138643
 20
48.633007
 30
0.0
 10
1.101517
 20
48.634952
 30
0.0
 10
1.063125
 20
48.630604
 30
0.0
 10
1.023000
 20
48.619583
 30
0.0
 10
0.935100
 20
48.577126
 30
0.0
 10
0.833242
 20
48.505955
 30
0.0
 10
0.712944
 20
48.404480
 30
0.0
 10
0.569698
 20
48.271282
 30
0.0
 10
0.376339
 20
48.062027
 30
0.0
 10
0.218021
 20
47.844833
 30
0.0
 10
0.110996
 20
47.645482
 30
0.0
 10
0.081894
 20
47.560500
 30
0.0
 10
0.071766
 20
47.489625
 30
0.0
 10
0.077694
 20
47.417408
 30
0.0
 10
0.095021
 20
47.355308
 30
0.0
 10
0.123070
 20
47.303333
 30
0.0
 10
0.161167
 20
47.261407
 30
0.0
 10
0.208500
 20
47.229525
 30
0.0
 10
0.264439
 20
47.207633
 30
0.0
 10
0.328273
 20
47.195775
 30
0.0
 10
0.399296
 20
47.193832
 30
0.0
  0
LWPOLYLINE
  5
113
100
AcDbEntity
  8
0
 62
7
100
AcDbPolyline
 90
47
 70
1
 10
30.536625
 20
44.836200
 30
0.0
 10
30.580200
 20
44.846115
 30
0.0
 10
30.668325
 20
44.886450
 30
0.0
 10
30.758625
 20
44.955308
 30
0.0
 10
30.852300
 20
45.053933
 30
0.0
 10
30.950325
 20
45.183532
 30
0.0
 10
31.053750
 20
45.345300
 30
0.0
 10
31.163700
 20
45.540608
 30
0.0
 10
31.281150
 20
45.770700
 30
0.0
 10
31.429425
 20
46.075508
 30
0.0
 10
31.488225
 20
46.200450
 30
0.0
 10
31.537125
 20
46.309283
 30
0.0
 10
31.605825
 20
46.485075
 30
0.0
 10
31.636950
 20
46.615800
 30
0.0
 10
31.638900
 20
46.668225
 30
0.0
 10
31.632000
 20
46.714357
 30
0.0
 10
31.616475
 20
46.755607
 30
0.0
 10
31.592400
 20
46.793700
 30
0.0
 10
31.519650
 20
46.866907
 30
0.0
 10
31.415250
 20
46.946775
 30
0.0
 10
31.125075
 20
47.115082
 30
0.0
 10
30.990075
 20
47.166232
 30
0.0
 10
30.932700
 20
47.180183
 30
0.0
 10
30.884925
 20
47.185057
 30
0.0
 10
30.873900
 20
47.183633
 30
0.0
 10
30.862200
 20
47.179358
 30
0.0
 10
30.836850
 20
47.162782
 30
0.0
 10
30.779025
 20
47.099708
 30
0.0
 10
30.713550
 20
47.001225
 30
0.0
 10
30.642450
 20
46.872757
 30
0.0
 10
30.567675
 20
46.719833
 30
0.0
 10
30.491175
 20
46.547857
 30
0.0
 10
30.341250
 20
46.168582
 30
0.0
 10
30.208725
 20
45.778425
 30
0.0
 10
30.109500
 20
45.421050
 30
0.0
 10
30.077400
 20
45.268282
 30
0.0
 10
30.059625
 20
45.140032
 30
0.0
 10
30.058200
 20
45.041782
 30
0.0
 10
30.064275
 20
45.005632
 30
0.0
 10
30.069075
 20
44.991082
 30
0.0
 10
30.075150
 20
44.979000
 30
0.0
 10
30.086025
 20
44.964075
 30
0.0
 10
30.099900
 20
44.949600
 30
0.0
 10
30.136050
 20
44.922225
 30
0.0
 10
30.235125
 20
44.875808
 30
0.0
 10
30.358800
 20
44.844383
 30
0.0
 10
30.493275
 20
44.832907
 30
0.0
  0
LWPOLYLINE
  5
114
100
AcDbEntity
  8
0
 62
7
100
AcDbPolyline
 90
61
 70
1
 10
11.014425
 20
41.682232
 30
0.0
 10
11.408250
 20
41.710282
 30
0.0
 10
11.822550
 20
41.769000
 30
0.0
 10
12.269100
 20
41.859390
 30
0.0
 10
12.504225
 20
41.923425
 30
0.0
 10
12.723975
 20
42.027682
 30
0.0
 10
12.927075
 20
42.168375
 30
0.0
 10
13.112325
 20
42.341925
 30
0.0
 10
13.278375
 20
42.544725
 30
0.0
 10
13.424100
 20
42.773257
 30
0.0
 10
13.548075
 20
43.023758
 30
0.0
 10
13.649250
 20
43.292632
 30
0.0
 10
13.726200
 20
43.576358
 30
0.0
 10
13.777725
 20
43.871257
 30
0.0
 10
13.802550
 20
44.173657
 30
0.0
 10
13.799475
 20
44.480108
 30
0.0
 10
13.767150
 20
44.786783
 30
0.0
 10
13.704375
 20
45.090225
 30
0.0
 10
13.609950
 20
45.386775
 30
0.0
 10
13.482450
 20
45.672832
 30
0.0
 10
13.266900
 20
46.025925
 30
0.0
 10
13.012725
 20
46.332000
 30
0.0
 10
12.725625
 20
46.591057
 30
0.0
 10
12.411000
 20
46.803157
 30
0.0
 10
12.074550
 20
46.968232
 30
0.0
 10
11.721675
 20
47.086283
 30
0.0
 10
11.358000
 20
47.157300
 30
0.0
 10
10.989150
 20
47.181300
 30
0.0
 10
10.620525
 20
47.158208
 30
0.0
 10
10.257675
 20
47.088075
 30
0.0
 10
9.906300
 20
46.970933
 30
0.0
 10
9.571800
 20
46.806683
 30
0.0
 10
9.259875
 20
46.595332
 30
0.0
 10
8.975850
 20
46.336875
 30
0.0
 10
8.725500
 20
46.031408
 30
0.0
 10
8.514225
 20
45.678758
 30
0.0
 10
8.320425
 20
45.224032
 30
0.0
 10
8.249400
 20
44.994975
 30
0.0
 10
8.196075
 20
44.765858
 30
0.0
 10
8.160450
 20
44.537258
 30
0.0
 10
8.142750
 20
44.310083
 30
0.0
 10
8.143050
 20
44.085008
 30
0.0
 10
8.161275
 20
43.862775
 30
0.0
 10
8.197425
 20
43.644082
 30
0.0
 10
8.251275
 20
43.429650
 30
0.0
 10
8.322825
 20
43.220258
 30
0.0
 10
8.411700
 20
43.016475
 30
0.0
 10
8.517675
 20
42.819007
 30
0.0
 10
8.640375
 20
42.628507
 30
0.0
 10
8.779425
 20
42.445575
 30
0.0
 10
8.934300
 20
42.271133
 30
0.0
 10
9.061575
 20
42.148725
 30
0.0
 10
9.191850
 20
42.045158
 30
0.0
 10
9.325200
 20
41.960400
 30
0.0
 10
9.461475
 20
41.894483
 30
0.0
 10
9.533775
 20
41.850082
 30
0.0
 10
9.630375
 20
41.810558
 30
0.0
 10
9.751050
 20
41.775982
 30
0.0
 10
9.894750
 20
41.746432
 30
0.0
 10
10.238925
 20
41.703083
 30
0.0
 10
10.623750
 20
41.681107
 30
0.0
  0
LWPOLYLINE
  5
115
100
AcDbEntity
  8
0
 62
7
100
AcDbPolyline
 90
41
 70
1
 10
10.638750
 20
42.512625
 30
0.0
 10
10.316325
 20
42.605108
 30
0.0
 10
10.030050
 20
42.753158
 30
0.0
 10
9.784800
 20
42.951907
 30
0.0
 10
9.585450
 20
43.196483
 30
0.0
 10
9.436950
 20
43.482075
 30
0.0
 10
9.344325
 20
43.803600
 30
0.0
 10
9.312300
 20
44.156250
 30
0.0
 10
9.329250
 20
44.484682
 30
0.0
 10
9.379200
 20
44.789783
 30
0.0
 10
9.460875
 20
45.069383
 30
0.0
 10
9.573075
 20
45.321075
 30
0.0
 10
9.714525
 20
45.542408
 30
0.0
 10
9.883875
 20
45.731108
 30
0.0
 10
10.079925
 20
45.884775
 30
0.0
 10
10.301325
 20
46.001108
 30
0.0
 10
10.463100
 20
46.059382
 30
0.0
 10
10.623000
 20
46.100175
 30
0.0
 10
10.935150
 20
46.132275
 30
0.0
 10
11.234025
 20
46.103482
 30
0.0
 10
11.515800
 20
46.019933
 30
0.0
 10
11.776650
 20
45.887625
 30
0.0
 10
12.012900
 20
45.712875
 30
0.0
 10
12.220575
 20
45.501683
 30
0.0
 10
12.396000
 20
45.260182
 30
0.0
 10
12.535350
 20
44.994458
 30
0.0
 10
12.634800
 20
44.710725
 30
0.0
 10
12.690600
 20
44.415082
 30
0.0
 10
12.698925
 20
44.113590
 30
0.0
 10
12.655950
 20
43.812375
 30
0.0
 10
12.557925
 20
43.517632
 30
0.0
 10
12.401025
 20
43.235400
 30
0.0
 10
12.181425
 20
42.971857
 30
0.0
 10
12.042150
 20
42.840158
 30
0.0
 10
11.910075
 20
42.732608
 30
0.0
 10
11.780250
 20
42.647190
 30
0.0
 10
11.647725
 20
42.581850
 30
0.0
 10
11.507550
 20
42.534607
 30
0.0
 10
11.354925
 20
42.503332
 30
0.0
 10
11.184825
 20
42.486075
 30
0.0
 10
10.992375
 20
42.480757
 30
0.0
  0
LWPOLYLINE
  5
116
100
AcDbEntity
  8
0
 62
7
100
AcDbPolyline
 90
142
 70
1
 10
44.064750
 20
41.698657
 30
0.0
 10
44.433750
 20
41.762475
 30
0.0
 10
44.829150
 20
41.859608
 30
0.0
 10
45.255000
 20
41.988833
 30
0.0
 10
45.465450
 20
42.136950
 30
0.0
 10
45.647100
 20
42.336757
 30
0.0
 10
45.708375
 20
42.429300
 30
0.0
 10
45.769350
 20
42.540233
 30
0.0
 10
45.887250
 20
42.805208
 30
0.0
 10
45.994650
 20
43.108283
 30
0.0
 10
46.085700
 20
43.425832
 30
0.0
 10
46.154250
 20
43.734307
 30
0.0
 10
46.194450
 20
44.010083
 30
0.0
 10
46.201950
 20
44.128433
 30
0.0
 10
46.200150
 20
44.229675
 30
0.0
 10
46.188225
 20
44.311132
 30
0.0
 10
46.178250
 20
44.343382
 30
0.0
 10
46.163025
 20
44.372850
 30
0.0
 10
46.150875
 20
44.382600
 30
0.0
 10
46.123875
 20
44.395200
 30
0.0
 10
46.035300
 20
44.419050
 30
0.0
 10
45.905325
 20
44.440658
 30
0.0
 10
45.739275
 20
44.459550
 30
0.0
 10
45.542775
 20
44.475150
 30
0.0
 10
45.321300
 20
44.486925
 30
0.0
 10
44.825325
 20
44.496990
 30
0.0
 10
43.564050
 20
44.496990
 30
0.0
 10
43.617225
 20
44.034975
 30
0.0
 10
43.637400
 20
43.899532
 30
0.0
 10
43.666500
 20
43.791758
 30
0.0
 10
43.709400
 20
43.707982
 30
0.0
 10
43.737600
 20
43.673857
 30
0.0
 10
43.770975
 20
43.644458
 30
0.0
 10
43.856025
 20
43.597583
 30
0.0
 10
43.969350
 20
43.563833
 30
0.0
 10
44.115900
 20
43.539383
 30
0.0
 10
44.542050
 20
43.496932
 30
0.0
 10
44.719800
 20
43.467382
 30
0.0
 10
44.785350
 20
43.448707
 30
0.0
 10
44.835750
 20
43.426657
 30
0.0
 10
44.855325
 20
43.414133
 30
0.0
 10
44.871225
 20
43.400483
 30
0.0
 10
44.883450
 20
43.385625
 30
0.0
 10
44.892150
 20
43.369500
 30
0.0
 10
44.897175
 20
43.352025
 30
0.0
 10
44.898600
 20
43.333050
 30
0.0
 10
44.896575
 20
43.312582
 30
0.0
 10
44.891100
 20
43.290525
 30
0.0
 10
44.869725
 20
43.241258
 30
0.0
 10
44.834775
 20
43.184490
 30
0.0
 10
44.725425
 20
43.045958
 30
0.0
 10
44.565150
 20
42.869707
 30
0.0
 10
44.412375
 20
42.731333
 30
0.0
 10
44.244900
 20
42.623025
 30
0.0
 10
44.065575
 20
42.543833
 30
0.0
 10
43.877400
 20
42.492825
 30
0.0
 10
43.683150
 20
42.468983
 30
0.0
 10
43.485825
 20
42.471450
 30
0.0
 10
43.288275
 20
42.499133
 30
0.0
 10
43.093350
 20
42.551182
 30
0.0
 10
42.904050
 20
42.626550
 30
0.0
 10
42.723225
 20
42.724357
 30
0.0
 10
42.553800
 20
42.843600
 30
0.0
 10
42.398625
 20
42.983250
 30
0.0
 10
42.260625
 20
43.142475
 30
0.0
 10
42.142650
 20
43.320233
 30
0.0
 10
42.047700
 20
43.515608
 30
0.0
 10
41.978550
 20
43.727558
 30
0.0
 10
41.923200
 20
44.049075
 30
0.0
 10
41.917875
 20
44.358982
 30
0.0
 10
41.958300
 20
44.654032
 30
0.0
 10
42.040050
 20
44.931083
 30
0.0
 10
42.158850
 20
45.186982
 30
0.0
 10
42.310200
 20
45.418433
 30
0.0
 10
42.489900
 20
45.622350
 30
0.0
 10
42.693525
 20
45.795457
 30
0.0
 10
42.916725
 20
45.934650
 30
0.0
 10
43.155075
 20
46.036650
 30
0.0
 10
43.404300
 20
46.098382
 30
0.0
 10
43.659975
 20
46.116532
 30
0.0
 10
43.917825
 20
46.087958
 30
0.0
 10
44.173425
 20
46.009425
 30
0.0
 10
44.422350
 20
45.877875
 30
0.0
 10
44.660400
 20
45.690008
 30
0.0
 10
44.791350
 20
45.582307
 30
0.0
 10
44.922000
 20
45.502875
 30
0.0
 10
45.050175
 20
45.449933
 30
0.0
 10
45.173700
 20
45.421807
 30
0.0
 10
45.290400
 20
45.416632
 30
0.0
 10
45.398100
 20
45.432675
 30
0.0
 10
45.494550
 20
45.468083
 30
0.0
 10
45.577650
 20
45.521175
 30
0.0
 10
45.645150
 20
45.590182
 30
0.0
 10
45.694800
 20
45.673282
 30
0.0
 10
45.724575
 20
45.768675
 30
0.0
 10
45.732150
 20
45.874657
 30
0.0
 10
45.715425
 20
45.989407
 30
0.0
 10
45.672075
 20
46.111132
 30
0.0
 10
45.600075
 20
46.238100
 30
0.0
 10
45.497175
 20
46.368533
 30
0.0
 10
45.282525
 20
46.582133
 30
0.0
 10
45.055275
 20
46.761300
 30
0.0
 10
44.813775
 20
46.906883
 30
0.0
 10
44.556375
 20
47.019233
 30
0.0
 10
44.281350
 20
47.099175
 30
0.0
 10
43.986900
 20
47.147190
 30
0.0
 10
43.671525
 20
47.163983
 30
0.0
 10
43.333425
 20
47.150033
 30
0.0
 10
43.043700
 20
47.115082
 30
0.0
 10
42.771675
 20
47.059883
 30
0.0
 10
42.517425
 20
46.984575
 30
0.0
 10
42.281175
 20
46.889325
 30
0.0
 10
42.063075
 20
46.774282
 30
0.0
 10
41.863200
 20
46.639650
 30
0.0
 10
41.681700
 20
46.485532
 30
0.0
 10
41.518725
 20
46.312200
 30
0.0
 10
41.374425
 20
46.119675
 30
0.0
 10
41.248875
 20
45.908183
 30
0.0
 10
41.142300
 20
45.677925
 30
0.0
 10
41.054775
 20
45.429082
 30
0.0
 10
40.986450
 20
45.161707
 30
0.0
 10
40.937475
 20
44.876108
 30
0.0
 10
40.908000
 20
44.572275
 30
0.0
 10
40.898175
 20
44.250525
 30
0.0
 10
40.905900
 20
43.900433
 30
0.0
 10
40.931100
 20
43.594057
 30
0.0
 10
40.976850
 20
43.322707
 30
0.0
 10
41.046225
 20
43.077757
 30
0.0
 10
41.142150
 20
42.850432
 30
0.0
 10
41.267850
 20
42.631957
 30
0.0
 10
41.426250
 20
42.413632
 30
0.0
 10
41.620500
 20
42.186833
 30
0.0
 10
41.733225
 20
42.078907
 30
0.0
 10
41.857800
 20
41.988833
 30
0.0
 10
41.877225
 20
41.973458
 30
0.0
 10
41.903550
 20
41.957558
 30
0.0
 10
41.976750
 20
41.924557
 30
0.0
 10
42.134850
 20
41.865232
 30
0.0
 10
42.621450
 20
41.763908
 30
0.0
 10
42.983325
 20
41.707957
 30
0.0
 10
43.351725
 20
41.673600
 30
0.0
 10
43.709850
 20
41.669258
 30
0.0
  0
LWPOLYLINE
  5
117
100
AcDbEntity
  8
0
 62
7
100
AcDbPolyline
 90
114
 70
1
 10
6.456975
 20
41.656883
 30
0.0
 10
6.700050
 20
41.676907
 30
0.0
 10
6.915892
 20
41.709758
 30
0.0
 10
7.100167
 20
41.755958
 30
0.0
 10
7.251000
 20
41.815507
 30
0.0
 10
7.367992
 20
41.888325
 30
0.0
 10
7.413742
 20
41.929583
 30
0.0
 10
7.451167
 20
41.974058
 30
0.0
 10
7.489050
 20
41.999482
 30
0.0
 10
7.518975
 20
42.030983
 30
0.0
 10
7.542225
 20
42.069158
 30
0.0
 10
7.560075
 20
42.114533
 30
0.0
 10
7.584750
 20
42.228525
 30
0.0
 10
7.603425
 20
42.377025
 30
0.0
 10
7.618650
 20
42.528075
 30
0.0
 10
7.622625
 20
42.641932
 30
0.0
 10
7.619100
 20
42.686025
 30
0.0
 10
7.611300
 20
42.722107
 30
0.0
 10
7.598625
 20
42.750675
 30
0.0
 10
7.590300
 20
42.762232
 30
0.0
 10
7.580625
 20
42.772132
 30
0.0
 10
7.569450
 20
42.780307
 30
0.0
 10
7.556700
 20
42.786907
 30
0.0
 10
7.526475
 20
42.795375
 30
0.0
 10
7.489418
 20
42.798158
 30
0.0
 10
7.444942
 20
42.795533
 30
0.0
 10
7.331918
 20
42.775957
 30
0.0
 10
7.074143
 20
42.714157
 30
0.0
 10
6.945667
 20
42.686633
 30
0.0
 10
6.649717
 20
42.630390
 30
0.0
 10
6.333300
 20
42.578032
 30
0.0
 10
6.034117
 20
42.536325
 30
0.0
 10
5.723693
 20
42.523575
 30
0.0
 10
5.434343
 20
42.563108
 30
0.0
 10
5.168093
 20
42.653557
 30
0.0
 10
4.927050
 20
42.793350
 30
0.0
 10
4.713068
 20
42.981158
 30
0.0
 10
4.528268
 20
43.215383
 30
0.0
 10
4.374668
 20
43.494675
 30
0.0
 10
4.254293
 20
43.817550
 30
0.0
 10
4.182667
 20
44.169007
 30
0.0
 10
4.177943
 20
44.510483
 30
0.0
 10
4.236817
 20
44.835608
 30
0.0
 10
4.356067
 20
45.137858
 30
0.0
 10
4.532318
 20
45.411082
 30
0.0
 10
4.762425
 20
45.648682
 30
0.0
 10
5.042917
 20
45.844358
 30
0.0
 10
5.370667
 20
45.991800
 30
0.0
 10
5.578275
 20
46.060282
 30
0.0
 10
5.752350
 20
46.107982
 30
0.0
 10
5.903317
 20
46.134233
 30
0.0
 10
6.041918
 20
46.138508
 30
0.0
 10
6.178575
 20
46.120350
 30
0.0
 10
6.323842
 20
46.079257
 30
0.0
 10
6.488317
 20
46.014607
 30
0.0
 10
6.682575
 20
45.925883
 30
0.0
 10
6.939000
 20
45.819075
 30
0.0
 10
7.155225
 20
45.760582
 30
0.0
 10
7.330493
 20
45.750015
 30
0.0
 10
7.402642
 20
45.762615
 30
0.0
 10
7.464218
 20
45.787058
 30
0.0
 10
7.515300
 20
45.823358
 30
0.0
 10
7.555725
 20
45.871350
 30
0.0
 10
7.585350
 20
45.931058
 30
0.0
 10
7.604175
 20
46.002457
 30
0.0
 10
7.609050
 20
46.180058
 30
0.0
 10
7.569525
 20
46.403708
 30
0.0
 10
7.544625
 20
46.479458
 30
0.0
 10
7.509150
 20
46.551533
 30
0.0
 10
7.408725
 20
46.684432
 30
0.0
 10
7.272742
 20
46.802033
 30
0.0
 10
7.105800
 20
46.903807
 30
0.0
 10
6.912218
 20
46.989382
 30
0.0
 10
6.696442
 20
47.058300
 30
0.0
 10
6.463118
 20
47.110050
 30
0.0
 10
6.216525
 20
47.144258
 30
0.0
 10
5.961218
 20
47.160382
 30
0.0
 10
5.701717
 20
47.158057
 30
0.0
 10
5.442360
 20
47.136832
 30
0.0
 10
5.187667
 20
47.096258
 30
0.0
 10
4.942200
 20
47.035800
 30
0.0
 10
4.710217
 20
46.955175
 30
0.0
 10
4.496392
 20
46.853783
 30
0.0
 10
4.305143
 20
46.731158
 30
0.0
 10
3.997568
 20
46.485157
 30
0.0
 10
3.748417
 20
46.244782
 30
0.0
 10
3.552293
 20
45.998258
 30
0.0
 10
3.403943
 20
45.733875
 30
0.0
 10
3.297818
 20
45.439808
 30
0.0
 10
3.228743
 20
45.104258
 30
0.0
 10
3.191175
 20
44.715383
 30
0.0
 10
3.182625
 20
44.497350
 30
0.0
 10
3.179843
 20
44.261558
 30
0.0
 10
3.180600
 20
44.069558
 30
0.0
 10
3.183067
 20
43.896015
 30
0.0
 10
3.194993
 20
43.597282
 30
0.0
 10
3.219225
 20
43.351433
 30
0.0
 10
3.259342
 20
43.144350
 30
0.0
 10
3.318968
 20
42.962250
 30
0.0
 10
3.401618
 20
42.791108
 30
0.0
 10
3.510900
 20
42.616883
 30
0.0
 10
3.650467
 20
42.425775
 30
0.0
 10
3.753150
 20
42.295507
 30
0.0
 10
3.849292
 20
42.183608
 30
0.0
 10
4.029525
 20
42.010357
 30
0.0
 10
4.206450
 20
41.896583
 30
0.0
 10
4.395368
 20
41.832907
 30
0.0
 10
4.476600
 20
41.803508
 30
0.0
 10
4.591943
 20
41.775008
 30
0.0
 10
4.741493
 20
41.747633
 30
0.0
 10
4.924725
 20
41.721683
 30
0.0
 10
5.139817
 20
41.697750
 30
0.0
 10
5.382442
 20
41.676907
 30
0.0
 10
5.919510
 20
41.650433
 30
0.0
  0
LWPOLYLINE
  5
118
100
AcDbEntity
  8
0
 62
7
100
AcDbPolyline
 90
135
 70
1
 10
75.128250
 20
41.701583
 30
0.0
 10
75.467250
 20
41.735565
 30
0.0
 10
75.793500
 20
41.793982
 30
0.0
 10
76.105500
 20
41.876108
 30
0.0
 10
76.206750
 20
41.934908
 30
0.0
 10
76.292250
 20
42.013357
 30
0.0
 10
76.363500
 20
42.112358
 30
0.0
 10
76.419750
 20
42.232725
 30
0.0
 10
76.463250
 20
42.375375
 30
0.0
 10
76.493250
 20
42.541133
 30
0.0
 10
76.510500
 20
42.730875
 30
0.0
 10
76.516500
 20
42.945450
 30
0.0
 10
76.506750
 20
43.278382
 30
0.0
 10
76.472250
 20
43.560983
 30
0.0
 10
76.408500
 20
43.803007
 30
0.0
 10
76.309500
 20
44.014500
 30
0.0
 10
76.167750
 20
44.205150
 30
0.0
 10
75.979500
 20
44.384925
 30
0.0
 10
75.737250
 20
44.563657
 30
0.0
 10
75.435750
 20
44.751225
 30
0.0
 10
75.249000
 20
44.862308
 30
0.0
 10
75.082500
 20
44.965508
 30
0.0
 10
74.935275
 20
45.061658
 30
0.0
 10
74.806875
 20
45.151358
 30
0.0
 10
74.696850
 20
45.235357
 30
0.0
 10
74.604675
 20
45.314183
 30
0.0
 10
74.472000
 20
45.459375
 30
0.0
 10
74.430525
 20
45.527100
 30
0.0
 10
74.405025
 20
45.592425
 30
0.0
 10
74.394975
 20
45.656033
 30
0.0
 10
74.399850
 20
45.718582
 30
0.0
 10
74.419275
 20
45.780833
 30
0.0
 10
74.452650
 20
45.843382
 30
0.0
 10
74.559525
 20
45.972150
 30
0.0
 10
74.641500
 20
46.049250
 30
0.0
 10
74.715225
 20
46.106183
 30
0.0
 10
74.783925
 20
46.143383
 30
0.0
 10
74.817450
 20
46.154708
 30
0.0
 10
74.851125
 20
46.161232
 30
0.0
 10
74.885175
 20
46.163025
 30
0.0
 10
74.920200
 20
46.160182
 30
0.0
 10
74.994525
 20
46.140608
 30
0.0
 10
75.077250
 20
46.102958
 30
0.0
 10
75.172500
 20
46.047750
 30
0.0
 10
75.329250
 20
45.959700
 30
0.0
 10
75.476250
 20
45.897683
 30
0.0
 10
75.613500
 20
45.861600
 30
0.0
 10
75.741000
 20
45.851557
 30
0.0
 10
75.858750
 20
45.867533
 30
0.0
 10
75.969000
 20
45.909607
 30
0.0
 10
76.069500
 20
45.977632
 30
0.0
 10
76.162500
 20
46.071750
 30
0.0
 10
76.254750
 20
46.213358
 30
0.0
 10
76.281750
 20
46.282882
 30
0.0
 10
76.296750
 20
46.351282
 30
0.0
 10
76.300500
 20
46.418332
 30
0.0
 10
76.293750
 20
46.483725
 30
0.0
 10
76.275750
 20
46.547483
 30
0.0
 10
76.248750
 20
46.609207
 30
0.0
 10
76.166250
 20
46.725758
 30
0.0
 10
76.050750
 20
46.831875
 30
0.0
 10
75.906000
 20
46.925708
 30
0.0
 10
75.737250
 20
47.005657
 30
0.0
 10
75.548250
 20
47.070008
 30
0.0
 10
75.342750
 20
47.116950
 30
0.0
 10
75.125250
 20
47.144850
 30
0.0
 10
74.900250
 20
47.152050
 30
0.0
 10
74.671875
 20
47.136832
 30
0.0
 10
74.444250
 20
47.097450
 30
0.0
 10
74.221650
 20
47.032125
 30
0.0
 10
74.008350
 20
46.939350
 30
0.0
 10
73.823850
 20
46.833525
 30
0.0
 10
73.673475
 20
46.722008
 30
0.0
 10
73.554450
 20
46.598858
 30
0.0
 10
73.463700
 20
46.458375
 30
0.0
 10
73.398225
 20
46.294807
 30
0.0
 10
73.355175
 20
46.102283
 30
0.0
 10
73.331550
 20
45.875025
 30
0.0
 10
73.324275
 20
45.607433
 30
0.0
 10
73.335825
 20
45.365775
 30
0.0
 10
73.375050
 20
45.152400
 30
0.0
 10
73.449000
 20
44.958083
 30
0.0
 10
73.564650
 20
44.773432
 30
0.0
 10
73.728975
 20
44.589382
 30
0.0
 10
73.949100
 20
44.396633
 30
0.0
 10
74.231850
 20
44.186025
 30
0.0
 10
74.398950
 20
44.071132
 30
0.0
 10
74.584350
 20
43.948358
 30
0.0
 10
74.802975
 20
43.800683
 30
0.0
 10
74.983800
 20
43.666807
 30
0.0
 10
75.129750
 20
43.543725
 30
0.0
 10
75.243000
 20
43.428300
 30
0.0
 10
75.326250
 20
43.317608
 30
0.0
 10
75.382500
 20
43.208407
 30
0.0
 10
75.414000
 20
43.097707
 30
0.0
 10
75.424500
 20
42.982507
 30
0.0
 10
75.419250
 20
42.868125
 30
0.0
 10
75.403500
 20
42.773933
 30
0.0
 10
75.374250
 20
42.697800
 30
0.0
 10
75.353250
 20
42.665850
 30
0.0
 10
75.329250
 20
42.637507
 30
0.0
 10
75.300000
 20
42.612600
 30
0.0
 10
75.266250
 20
42.590775
 30
0.0
 10
75.183000
 20
42.555450
 30
0.0
 10
75.077250
 20
42.529358
 30
0.0
 10
74.947500
 20
42.510233
 30
0.0
 10
74.731950
 20
42.509250
 30
0.0
 10
74.516025
 20
42.550883
 30
0.0
 10
74.317950
 20
42.629708
 30
0.0
 10
74.155725
 20
42.740625
 30
0.0
 10
74.052300
 20
42.819600
 30
0.0
 10
73.946100
 20
42.874432
 30
0.0
 10
73.839075
 20
42.906757
 30
0.0
 10
73.733400
 20
42.918307
 30
0.0
 10
73.631175
 20
42.910800
 30
0.0
 10
73.534350
 20
42.885975
 30
0.0
 10
73.445175
 20
42.845475
 30
0.0
 10
73.365600
 20
42.790957
 30
0.0
 10
73.297800
 20
42.724283
 30
0.0
 10
73.243800
 20
42.647107
 30
0.0
 10
73.205625
 20
42.561082
 30
0.0
 10
73.185525
 20
42.467925
 30
0.0
 10
73.185375
 20
42.369458
 30
0.0
 10
73.207350
 20
42.267232
 30
0.0
 10
73.253550
 20
42.163058
 30
0.0
 10
73.326075
 20
42.058650
 30
0.0
 10
73.426650
 20
41.950800
 30
0.0
 10
73.477950
 20
41.909325
 30
0.0
 10
73.532850
 20
41.876108
 30
0.0
 10
73.586775
 20
41.853307
 30
0.0
 10
73.646775
 20
41.836875
 30
0.0
 10
73.874850
 20
41.778900
 30
0.0
 10
74.144325
 20
41.733832
 30
0.0
 10
74.451450
 20
41.703675
 30
0.0
 10
74.784825
 20
41.691750
 30
0.0
  0
LWPOLYLINE
  5
119
100
AcDbEntity
  8
0
 62
7
100
AcDbPolyline
 90
64
 70
1
 10
36.193875
 20
44.742007
 30
0.0
 10
37.667250
 20
43.275375
 30
0.0
 10
38.014800
 20
42.935407
 30
0.0
 10
38.330250
 20
42.639300
 30
0.0
 10
38.612925
 20
42.387450
 30
0.0
 10
38.862300
 20
42.180383
 30
0.0
 10
39.077850
 20
42.018525
 30
0.0
 10
39.258900
 20
41.902358
 30
0.0
 10
39.404925
 20
41.832233
 30
0.0
 10
39.464625
 20
41.814683
 30
0.0
 10
39.515400
 20
41.808825
 30
0.0
 10
39.637950
 20
41.814833
 30
0.0
 10
39.687600
 20
41.827883
 30
0.0
 10
39.709800
 20
41.838608
 30
0.0
 10
39.730350
 20
41.852632
 30
0.0
 10
39.749250
 20
41.870558
 30
0.0
 10
39.766575
 20
41.892825
 30
0.0
 10
39.796875
 20
41.952083
 30
0.0
 10
39.821775
 20
42.034125
 30
0.0
 10
39.841725
 20
42.142733
 30
0.0
 10
39.857400
 20
42.281625
 30
0.0
 10
39.869250
 20
42.454432
 30
0.0
 10
39.877875
 20
42.664957
 30
0.0
 10
39.883650
 20
42.916875
 30
0.0
 10
39.887250
 20
43.213957
 30
0.0
 10
39.889950
 20
43.958258
 30
0.0
 10
39.890100
 20
47.017133
 30
0.0
 10
38.882025
 20
47.017133
 30
0.0
 10
38.878575
 20
43.572907
 30
0.0
 10
37.150350
 20
45.410108
 30
0.0
 10
36.755775
 20
45.823800
 30
0.0
 10
36.401250
 20
46.183883
 30
0.0
 10
36.239550
 20
46.343250
 30
0.0
 10
36.088575
 20
46.488532
 30
0.0
 10
35.948550
 20
46.619557
 30
0.0
 10
35.819700
 20
46.736100
 30
0.0
 10
35.702250
 20
46.837958
 30
0.0
 10
35.596500
 20
46.924950
 30
0.0
 10
35.502600
 20
46.996808
 30
0.0
 10
35.420850
 20
47.053440
 30
0.0
 10
35.351475
 20
47.094450
 30
0.0
 10
35.294700
 20
47.119732
 30
0.0
 10
35.271150
 20
47.126407
 30
0.0
 10
35.250825
 20
47.129108
 30
0.0
 10
35.233725
 20
47.127682
 30
0.0
 10
35.220000
 20
47.122282
 30
0.0
 10
35.206800
 20
47.111857
 30
0.0
 10
35.194050
 20
47.097300
 30
0.0
 10
35.170125
 20
47.055450
 30
0.0
 10
35.148075
 20
46.996133
 30
0.0
 10
35.127900
 20
46.918807
 30
0.0
 10
35.109525
 20
46.823032
 30
0.0
 10
35.092950
 20
46.708200
 30
0.0
 10
35.078175
 20
46.573950
 30
0.0
 10
35.065125
 20
46.419607
 30
0.0
 10
35.053725
 20
46.244782
 30
0.0
 10
35.043975
 20
46.048882
 30
0.0
 10
35.035800
 20
45.831457
 30
0.0
 10
35.029200
 20
45.591983
 30
0.0
 10
35.024175
 20
45.329850
 30
0.0
 10
35.020575
 20
45.044700
 30
0.0
 10
35.018475
 20
44.735925
 30
0.0
 10
35.017800
 20
41.808825
 30
0.0
 10
36.193875
 20
41.808825
 30
0.0
  0
LWPOLYLINE
  5
11a
100
AcDbEntity
  8
0
 62
7
100
AcDbPolyline
 90
50
 70
1
 10
52.323900
 20
44.955757
 30
0.0
 10
53.866950
 20
43.382250
 30
0.0
 10
54.061650
 20
43.185150
 30
0.0
 10
54.245475
 20
43.002083
 30
0.0
 10
54.581400
 20
42.677100
 30
0.0
 10
54.876525
 20
42.405983
 30
0.0
 10
55.132425
 20
42.187283
 30
0.0
 10
55.350975
 20
42.019582
 30
0.0
 10
55.533750
 20
41.901533
 30
0.0
 10
55.682550
 20
41.831783
 30
0.0
 10
55.744725
 20
41.814525
 30
0.0
 10
55.799025
 20
41.808825
 30
0.0
 10
56.188125
 20
41.808825
 30
0.0
 10
56.188125
 20
47.017133
 30
0.0
 10
55.180125
 20
47.017133
 30
0.0
 10
55.168125
 20
43.572907
 30
0.0
 10
53.440800
 20
45.408300
 30
0.0
 10
53.051250
 20
45.816533
 30
0.0
 10
52.699050
 20
46.173750
 30
0.0
 10
52.386825
 20
46.477807
 30
0.0
 10
52.246500
 20
46.609133
 30
0.0
 10
52.117050
 20
46.726350
 30
0.0
 10
51.998925
 20
46.829107
 30
0.0
 10
51.892425
 20
46.917158
 30
0.0
 10
51.797775
 20
46.990207
 30
0.0
 10
51.715350
 20
47.047958
 30
0.0
 10
51.645450
 20
47.090182
 30
0.0
 10
51.588375
 20
47.116507
 30
0.0
 10
51.564825
 20
47.123632
 30
0.0
 10
51.544500
 20
47.126700
 30
0.0
 10
51.527625
 20
47.125658
 30
0.0
 10
51.514125
 20
47.120475
 30
0.0
 10
51.501300
 20
47.110282
 30
0.0
 10
51.488850
 20
47.095732
 30
0.0
 10
51.465450
 20
47.053582
 30
0.0
 10
51.443850
 20
46.993583
 30
0.0
 10
51.424050
 20
46.915350
 30
0.0
 10
51.405975
 20
46.818533
 30
0.0
 10
51.389625
 20
46.702582
 30
0.0
 10
51.375000
 20
46.567208
 30
0.0
 10
51.362025
 20
46.411882
 30
0.0
 10
51.350700
 20
46.236308
 30
0.0
 10
51.341025
 20
46.039957
 30
0.0
 10
51.332850
 20
45.822450
 30
0.0
 10
51.326325
 20
45.583350
 30
0.0
 10
51.321225
 20
45.322275
 30
0.0
 10
51.317625
 20
45.038850
 30
0.0
 10
51.314775
 20
44.403075
 30
0.0
 10
51.315825
 20
41.808825
 30
0.0
 10
52.323900
 20
41.808825
 30
0.0
  0
LWPOLYLINE
  5
11b
100
AcDbEntity
  8
0
 62
7
100
AcDbPolyline
 90
82
 70
1
 10
66.200775
 20
41.693858
 30
0.0
 10
66.573150
 20
41.745675
 30
0.0
 10
66.993075
 20
41.827283
 30
0.0
 10
67.186125
 20
41.870933
 30
0.0
 10
67.278675
 20
41.913000
 30
0.0
 10
67.362900
 20
41.969183
 30
0.0
 10
67.438950
 20
42.040582
 30
0.0
 10
67.507350
 20
42.128183
 30
0.0
 10
67.568400
 20
42.233033
 30
0.0
 10
67.622400
 20
42.356025
 30
0.0
 10
67.669725
 20
42.498308
 30
0.0
 10
67.710750
 20
42.660825
 30
0.0
 10
67.745775
 20
42.844583
 30
0.0
 10
67.775250
 20
43.050600
 30
0.0
 10
67.799475
 20
43.279950
 30
0.0
 10
67.818750
 20
43.533615
 30
0.0
 10
67.833525
 20
43.812525
 30
0.0
 10
67.844025
 20
44.117708
 30
0.0
 10
67.850700
 20
44.450257
 30
0.0
 10
67.853850
 20
44.811158
 30
0.0
 10
67.863825
 20
46.933208
 30
0.0
 10
66.771675
 20
47.038350
 30
0.0
 10
66.771675
 20
45.084525
 30
0.0
 10
66.770250
 20
44.679608
 30
0.0
 10
66.765225
 20
44.318107
 30
0.0
 10
66.755775
 20
43.997700
 30
0.0
 10
66.741075
 20
43.715925
 30
0.0
 10
66.720375
 20
43.470450
 30
0.0
 10
66.692700
 20
43.258808
 30
0.0
 10
66.657225
 20
43.078733
 30
0.0
 10
66.613125
 20
42.927757
 30
0.0
 10
66.559500
 20
42.803475
 30
0.0
 10
66.495600
 20
42.703500
 30
0.0
 10
66.420525
 20
42.625507
 30
0.0
 10
66.333375
 20
42.567008
 30
0.0
 10
66.233400
 20
42.525750
 30
0.0
 10
66.119700
 20
42.499200
 30
0.0
 10
65.991375
 20
42.484958
 30
0.0
 10
65.847675
 20
42.480832
 30
0.0
 10
65.704050
 20
42.484958
 30
0.0
 10
65.575800
 20
42.499133
 30
0.0
 10
65.462175
 20
42.525683
 30
0.0
 10
65.362200
 20
42.566933
 30
0.0
 10
65.275050
 20
42.625200
 30
0.0
 10
65.199975
 20
42.702975
 30
0.0
 10
65.136075
 20
42.802658
 30
0.0
 10
65.082450
 20
42.926482
 30
0.0
 10
65.038275
 20
43.076932
 30
0.0
 10
65.002800
 20
43.256332
 30
0.0
 10
64.975050
 20
43.467075
 30
0.0
 10
64.954275
 20
43.711507
 30
0.0
 10
64.939575
 20
43.992083
 30
0.0
 10
64.930125
 20
44.311058
 30
0.0
 10
64.925100
 20
44.670900
 30
0.0
 10
64.923600
 20
45.073882
 30
0.0
 10
64.923600
 20
47.017057
 30
0.0
 10
63.915600
 20
47.017057
 30
0.0
 10
63.916275
 20
44.472383
 30
0.0
 10
63.918375
 20
44.184825
 30
0.0
 10
63.922125
 20
43.922332
 30
0.0
 10
63.927600
 20
43.683458
 30
0.0
 10
63.934950
 20
43.467075
 30
0.0
 10
63.944325
 20
43.271700
 30
0.0
 10
63.955800
 20
43.096058
 30
0.0
 10
63.969525
 20
42.938783
 30
0.0
 10
64.004325
 20
42.673958
 30
0.0
 10
64.049850
 20
42.466732
 30
0.0
 10
64.107075
 20
42.306382
 30
0.0
 10
64.176900
 20
42.182558
 30
0.0
 10
64.226325
 20
42.119932
 30
0.0
 10
64.275150
 20
42.068925
 30
0.0
 10
64.323975
 20
42.025050
 30
0.0
 10
64.380000
 20
41.981400
 30
0.0
 10
64.439550
 20
41.941282
 30
0.0
 10
64.501425
 20
41.905507
 30
0.0
 10
64.564575
 20
41.874675
 30
0.0
 10
64.627950
 20
41.849258
 30
0.0
 10
64.690950
 20
41.829675
 30
0.0
 10
65.110350
 20
41.734425
 30
0.0
 10
65.340450
 20
41.698358
 30
0.0
 10
65.592075
 20
41.675182
 30
0.0
 10
65.875500
 20
41.671508
 30
0.0
  0
LWPOLYLINE
  5
11c
100
AcDbEntity
  8
0
 62
7
100
AcDbPolyline
 90
98
 70
1
 10
48.723075
 20
41.809058
 30
0.0
 10
49.205625
 20
41.810850
 30
0.0
 10
49.405800
 20
41.813632
 30
0.0
 10
49.580700
 20
41.817982
 30
0.0
 10
49.731825
 20
41.824207
 30
0.0
 10
49.860825
 20
41.832608
 30
0.0
 10
49.969200
 20
41.843558
 30
0.0
 10
50.058525
 20
41.857282
 30
0.0
 10
50.186325
 20
41.894258
 30
0.0
 10
50.227950
 20
41.918183
 30
0.0
 10
50.243850
 20
41.931533
 30
0.0
 10
50.256750
 20
41.946008
 30
0.0
 10
50.266875
 20
41.961540
 30
0.0
 10
50.274375
 20
41.978108
 30
0.0
 10
50.282325
 20
42.014783
 30
0.0
 10
50.282175
 20
42.056325
 30
0.0
 10
50.275500
 20
42.103057
 30
0.0
 10
50.264925
 20
42.145432
 30
0.0
 10
50.249550
 20
42.183975
 30
0.0
 10
50.228850
 20
42.219082
 30
0.0
 10
50.202000
 20
42.250808
 30
0.0
 10
50.168400
 20
42.279450
 30
0.0
 10
50.127450
 20
42.305183
 30
0.0
 10
50.020425
 20
42.348675
 30
0.0
 10
49.875750
 20
42.382950
 30
0.0
 10
49.688025
 20
42.409800
 30
0.0
 10
49.451850
 20
42.430650
 30
0.0
 10
49.161900
 20
42.447383
 30
0.0
 10
48.104250
 20
42.497557
 30
0.0
 10
48.206625
 20
43.909125
 30
0.0
 10
49.381050
 20
44.007307
 30
0.0
 10
49.528125
 20
44.021107
 30
0.0
 10
49.769100
 20
44.049750
 30
0.0
 10
49.947075
 20
44.083582
 30
0.0
 10
50.071500
 20
44.127457
 30
0.0
 10
50.116575
 20
44.154600
 30
0.0
 10
50.151825
 20
44.185958
 30
0.0
 10
50.178450
 20
44.222257
 30
0.0
 10
50.197575
 20
44.263950
 30
0.0
 10
50.218050
 20
44.366100
 30
0.0
 10
50.222775
 20
44.497057
 30
0.0
 10
50.218425
 20
44.629508
 30
0.0
 10
50.198550
 20
44.731657
 30
0.0
 10
50.179575
 20
44.772832
 30
0.0
 10
50.152800
 20
44.808082
 30
0.0
 10
50.116950
 20
44.838158
 30
0.0
 10
50.070750
 20
44.863507
 30
0.0
 10
49.942050
 20
44.902425
 30
0.0
 10
49.756425
 20
44.929583
 30
0.0
 10
49.638975
 20
44.940225
 30
0.0
 10
49.503375
 20
44.949600
 30
0.0
 10
48.830025
 20
44.984633
 30
0.0
 10
48.690975
 20
44.993857
 30
0.0
 10
48.571425
 20
45.004283
 30
0.0
 10
48.385050
 20
45.032100
 30
0.0
 10
48.259050
 20
45.074182
 30
0.0
 10
48.215025
 20
45.102382
 30
0.0
 10
48.181650
 20
45.136425
 30
0.0
 10
48.157425
 20
45.177008
 30
0.0
 10
48.140925
 20
45.225000
 30
0.0
 10
48.125250
 20
45.345908
 30
0.0
 10
48.122625
 20
45.505133
 30
0.0
 10
48.125250
 20
45.664433
 30
0.0
 10
48.141075
 20
45.785258
 30
0.0
 10
48.157575
 20
45.833175
 30
0.0
 10
48.181800
 20
45.873825
 30
0.0
 10
48.215175
 20
45.907882
 30
0.0
 10
48.259275
 20
45.936082
 30
0.0
 10
48.385350
 20
45.978082
 30
0.0
 10
48.571725
 20
46.005900
 30
0.0
 10
48.691200
 20
46.016407
 30
0.0
 10
48.830250
 20
46.025550
 30
0.0
 10
49.503375
 20
46.060665
 30
0.0
 10
49.638975
 20
46.070032
 30
0.0
 10
49.756425
 20
46.080607
 30
0.0
 10
49.942050
 20
46.107757
 30
0.0
 10
50.070750
 20
46.146757
 30
0.0
 10
50.116950
 20
46.172108
 30
0.0
 10
50.152800
 20
46.202107
 30
0.0
 10
50.179575
 20
46.237425
 30
0.0
 10
50.198550
 20
46.278532
 30
0.0
 10
50.218425
 20
46.380682
 30
0.0
 10
50.222775
 20
46.513208
 30
0.0
 10
50.218875
 20
46.650307
 30
0.0
 10
50.210700
 20
46.706175
 30
0.0
 10
50.195475
 20
46.754483
 30
0.0
 10
50.171025
 20
46.795808
 30
0.0
 10
50.135175
 20
46.830908
 30
0.0
 10
50.085750
 20
46.860383
 30
0.0
 10
50.020500
 20
46.884907
 30
0.0
 10
49.937325
 20
46.905075
 30
0.0
 10
49.833975
 20
46.921658
 30
0.0
 10
49.708350
 20
46.935232
 30
0.0
 10
49.558125
 20
46.946557
 30
0.0
 10
49.381275
 20
46.956150
 30
0.0
 10
48.938700
 20
46.972965
 30
0.0
 10
47.114550
 20
47.029733
 30
0.0
 10
47.114625
 20
41.809058
 30
0.0
  0
LWPOLYLINE
  5
11d
100
AcDbEntity
  8
0
 62
7
100
AcDbPolyline
 90
99
 70
1
 10
61.323825
 20
41.809058
 30
0.0
 10
61.806375
 20
41.810850
 30
0.0
 10
62.006550
 20
41.813632
 30
0.0
 10
62.181450
 20
41.817900
 30
0.0
 10
62.332575
 20
41.824207
 30
0.0
 10
62.461575
 20
41.832608
 30
0.0
 10
62.569950
 20
41.843558
 30
0.0
 10
62.659275
 20
41.857282
 30
0.0
 10
62.787075
 20
41.894258
 30
0.0
 10
62.828700
 20
41.918107
 30
0.0
 10
62.844600
 20
41.931533
 30
0.0
 10
62.857500
 20
41.946008
 30
0.0
 10
62.867625
 20
41.961458
 30
0.0
 10
62.875125
 20
41.978108
 30
0.0
 10
62.883075
 20
42.014783
 30
0.0
 10
62.882925
 20
42.056325
 30
0.0
 10
62.876250
 20
42.103057
 30
0.0
 10
62.865675
 20
42.145432
 30
0.0
 10
62.850375
 20
42.183975
 30
0.0
 10
62.829600
 20
42.219082
 30
0.0
 10
62.802750
 20
42.250808
 30
0.0
 10
62.769150
 20
42.279450
 30
0.0
 10
62.728200
 20
42.305107
 30
0.0
 10
62.621250
 20
42.348675
 30
0.0
 10
62.476575
 20
42.382950
 30
0.0
 10
62.288775
 20
42.409733
 30
0.0
 10
62.052600
 20
42.430650
 30
0.0
 10
61.762650
 20
42.447308
 30
0.0
 10
60.705000
 20
42.497557
 30
0.0
 10
60.807375
 20
43.909125
 30
0.0
 10
61.981800
 20
44.007307
 30
0.0
 10
62.128875
 20
44.021107
 30
0.0
 10
62.369850
 20
44.049750
 30
0.0
 10
62.547825
 20
44.083582
 30
0.0
 10
62.672250
 20
44.127457
 30
0.0
 10
62.717400
 20
44.154533
 30
0.0
 10
62.752650
 20
44.185958
 30
0.0
 10
62.779200
 20
44.222257
 30
0.0
 10
62.798325
 20
44.263950
 30
0.0
 10
62.818800
 20
44.366033
 30
0.0
 10
62.823525
 20
44.497057
 30
0.0
 10
62.819175
 20
44.629508
 30
0.0
 10
62.799300
 20
44.731657
 30
0.0
 10
62.780325
 20
44.772832
 30
0.0
 10
62.753550
 20
44.808082
 30
0.0
 10
62.717700
 20
44.838158
 30
0.0
 10
62.671500
 20
44.863425
 30
0.0
 10
62.542800
 20
44.902425
 30
0.0
 10
62.357175
 20
44.929583
 30
0.0
 10
62.239725
 20
44.940225
 30
0.0
 10
62.104125
 20
44.949600
 30
0.0
 10
61.430850
 20
44.984633
 30
0.0
 10
61.291725
 20
44.993857
 30
0.0
 10
61.172250
 20
45.004283
 30
0.0
 10
60.985800
 20
45.032100
 30
0.0
 10
60.859800
 20
45.074100
 30
0.0
 10
60.815775
 20
45.102382
 30
0.0
 10
60.782400
 20
45.136425
 30
0.0
 10
60.758175
 20
45.177008
 30
0.0
 10
60.741750
 20
45.224933
 30
0.0
 10
60.726000
 20
45.345833
 30
0.0
 10
60.723375
 20
45.505133
 30
0.0
 10
60.726000
 20
45.664350
 30
0.0
 10
60.741825
 20
45.785258
 30
0.0
 10
60.758325
 20
45.833175
 30
0.0
 10
60.782550
 20
45.873825
 30
0.0
 10
60.816000
 20
45.907800
 30
0.0
 10
60.860025
 20
45.936082
 30
0.0
 10
60.986100
 20
45.978082
 30
0.0
 10
61.172475
 20
46.005900
 30
0.0
 10
61.291950
 20
46.016325
 30
0.0
 10
61.431000
 20
46.025550
 30
0.0
 10
62.104125
 20
46.060583
 30
0.0
 10
62.239725
 20
46.070032
 30
0.0
 10
62.357175
 20
46.080607
 30
0.0
 10
62.542800
 20
46.107757
 30
0.0
 10
62.671500
 20
46.146675
 30
0.0
 10
62.717700
 20
46.172033
 30
0.0
 10
62.753550
 20
46.202107
 30
0.0
 10
62.780325
 20
46.237425
 30
0.0
 10
62.799300
 20
46.278532
 30
0.0
 10
62.819175
 20
46.380682
 30
0.0
 10
62.823525
 20
46.513208
 30
0.0
 10
62.819625
 20
46.650307
 30
0.0
 10
62.811450
 20
46.706175
 30
0.0
 10
62.796225
 20
46.754483
 30
0.0
 10
62.771775
 20
46.795808
 30
0.0
 10
62.735925
 20
46.830908
 30
0.0
 10
62.686500
 20
46.860383
 30
0.0
 10
62.621250
 20
46.884833
 30
0.0
 10
62.538075
 20
46.905075
 30
0.0
 10
62.434725
 20
46.921658
 30
0.0
 10
62.309100
 20
46.935232
 30
0.0
 10
62.158875
 20
46.946483
 30
0.0
 10
61.982025
 20
46.956083
 30
0.0
 10
61.776300
 20
46.964708
 30
0.0
 10
61.269375
 20
46.981507
 30
0.0
 10
59.715300
 20
47.029733
 30
0.0
 10
59.715450
 20
41.809058
 30
0.0
  0
LWPOLYLINE
  5
11e
100
AcDbEntity
  8
0
 62
7
100
AcDbPolyline
 90
99
 70
1
 10
0.672146
 20
41.809058
 30
0.0
 10
1.154700
 20
41.810850
 30
0.0
 10
1.354867
 20
41.813632
 30
0.0
 10
1.529767
 20
41.817900
 30
0.0
 10
1.680900
 20
41.824207
 30
0.0
 10
1.809893
 20
41.832608
 30
0.0
 10
1.918268
 20
41.843558
 30
0.0
 10
2.007592
 20
41.857282
 30
0.0
 10
2.135400
 20
41.894258
 30
0.0
 10
2.177018
 20
41.918107
 30
0.0
 10
2.192918
 20
41.931533
 30
0.0
 10
2.205818
 20
41.946008
 30
0.0
 10
2.215943
 20
41.961458
 30
0.0
 10
2.223450
 20
41.978108
 30
0.0
 10
2.231393
 20
42.014783
 30
0.0
 10
2.231243
 20
42.056325
 30
0.0
 10
2.224568
 20
42.103057
 30
0.0
 10
2.214000
 20
42.145432
 30
0.0
 10
2.198618
 20
42.183975
 30
0.0
 10
2.177910
 20
42.219082
 30
0.0
 10
2.151067
 20
42.250808
 30
0.0
 10
2.117468
 20
42.279450
 30
0.0
 10
2.076443
 20
42.305107
 30
0.0
 10
1.969492
 20
42.348675
 30
0.0
 10
1.824817
 20
42.382950
 30
0.0
 10
1.637092
 20
42.409733
 30
0.0
 10
1.400918
 20
42.430650
 30
0.0
 10
1.110893
 20
42.447308
 30
0.0
 10
0.053318
 20
42.497557
 30
0.0
 10
0.155697
 20
43.909125
 30
0.0
 10
1.330125
 20
44.007307
 30
0.0
 10
1.477192
 20
44.021107
 30
0.0
 10
1.718168
 20
44.049750
 30
0.0
 10
1.896150
 20
44.083582
 30
0.0
 10
2.020568
 20
44.127457
 30
0.0
 10
2.065650
 20
44.154533
 30
0.0
 10
2.100893
 20
44.185958
 30
0.0
 10
2.127517
 20
44.222257
 30
0.0
 10
2.146567
 20
44.263950
 30
0.0
 10
2.167125
 20
44.366033
 30
0.0
 10
2.171850
 20
44.497057
 30
0.0
 10
2.167500
 20
44.629508
 30
0.0
 10
2.147617
 20
44.731657
 30
0.0
 10
2.128650
 20
44.772832
 30
0.0
 10
2.101867
 20
44.808082
 30
0.0
 10
2.066025
 20
44.838158
 30
0.0
 10
2.019825
 20
44.863425
 30
0.0
 10
1.891125
 20
44.902425
 30
0.0
 10
1.705493
 20
44.929583
 30
0.0
 10
1.588042
 20
44.940225
 30
0.0
 10
1.452450
 20
44.949600
 30
0.0
 10
0.779093
 20
44.984633
 30
0.0
 10
0.640046
 20
44.993857
 30
0.0
 10
0.520569
 20
45.004283
 30
0.0
 10
0.334122
 20
45.032100
 30
0.0
 10
0.208122
 20
45.074100
 30
0.0
 10
0.164097
 20
45.102382
 30
0.0
 10
0.130715
 20
45.136425
 30
0.0
 10
0.106499
 20
45.177008
 30
0.0
 10
0.090065
 20
45.224933
 30
0.0
 10
0.074318
 20
45.345833
 30
0.0
 10
0.071697
 20
45.505133
 30
0.0
 10
0.074318
 20
45.664350
 30
0.0
 10
0.090145
 20
45.785258
 30
0.0
 10
0.106648
 20
45.833175
 30
0.0
 10
0.130875
 20
45.873825
 30
0.0
 10
0.164315
 20
45.907800
 30
0.0
 10
0.208339
 20
45.936082
 30
0.0
 10
0.334419
 20
45.978082
 30
0.0
 10
0.520798
 20
46.005900
 30
0.0
 10
0.640274
 20
46.016325
 30
0.0
 10
0.779318
 20
46.025550
 30
0.0
 10
1.452450
 20
46.060583
 30
0.0
 10
1.588042
 20
46.070032
 30
0.0
 10
1.705493
 20
46.080607
 30
0.0
 10
1.891125
 20
46.107757
 30
0.0
 10
2.019825
 20
46.146675
 30
0.0
 10
2.066025
 20
46.172033
 30
0.0
 10
2.101867
 20
46.202107
 30
0.0
 10
2.128650
 20
46.237425
 30
0.0
 10
2.147617
 20
46.278532
 30
0.0
 10
2.167500
 20
46.380682
 30
0.0
 10
2.171850
 20
46.513208
 30
0.0
 10
2.167867
 20
46.650307
 30
0.0
 10
2.159775
 20
46.706175
 30
0.0
 10
2.144543
 20
46.754483
 30
0.0
 10
2.120100
 20
46.795808
 30
0.0
 10
2.084242
 20
46.830908
 30
0.0
 10
2.034817
 20
46.860383
 30
0.0
 10
1.969575
 20
46.884833
 30
0.0
 10
1.886400
 20
46.905075
 30
0.0
 10
1.783050
 20
46.921658
 30
0.0
 10
1.657342
 20
46.935232
 30
0.0
 10
1.507200
 20
46.946483
 30
0.0
 10
1.330342
 20
46.956083
 30
0.0
 10
1.124543
 20
46.964708
 30
0.0
 10
0.617695
 20
46.981507
 30
0.0
 10
-0.936368
 20
47.029733
 30
0.0
 10
-0.936217
 20
41.809058
 30
0.0
  0
LWPOLYLINE
  5
11f
100
AcDbEntity
  8
0
 62
7
100
AcDbPolyline
 90
98
 70
1
 10
19.657275
 20
41.809058
 30
0.0
 10
20.139825
 20
41.810932
 30
0.0
 10
20.340000
 20
41.813632
 30
0.0
 10
20.514900
 20
41.817982
 30
0.0
 10
20.666025
 20
41.824207
 30
0.0
 10
20.795025
 20
41.832608
 30
0.0
 10
20.903400
 20
41.843558
 30
0.0
 10
20.992725
 20
41.857282
 30
0.0
 10
21.120525
 20
41.894258
 30
0.0
 10
21.162150
 20
41.918183
 30
0.0
 10
21.178050
 20
41.931607
 30
0.0
 10
21.190950
 20
41.946008
 30
0.0
 10
21.201075
 20
41.961540
 30
0.0
 10
21.208575
 20
41.978108
 30
0.0
 10
21.216525
 20
42.014857
 30
0.0
 10
21.216375
 20
42.056407
 30
0.0
 10
21.209700
 20
42.103133
 30
0.0
 10
21.199125
 20
42.145432
 30
0.0
 10
21.183825
 20
42.184058
 30
0.0
 10
21.163050
 20
42.219082
 30
0.0
 10
21.136200
 20
42.250808
 30
0.0
 10
21.102675
 20
42.279450
 30
0.0
 10
21.061650
 20
42.305183
 30
0.0
 10
20.954700
 20
42.348675
 30
0.0
 10
20.810025
 20
42.383032
 30
0.0
 10
20.622225
 20
42.409800
 30
0.0
 10
20.386050
 20
42.430732
 30
0.0
 10
20.096100
 20
42.447383
 30
0.0
 10
19.038450
 20
42.497557
 30
0.0
 10
19.140900
 20
43.909125
 30
0.0
 10
20.315250
 20
44.007307
 30
0.0
 10
20.462325
 20
44.021175
 30
0.0
 10
20.703300
 20
44.049750
 30
0.0
 10
20.881275
 20
44.083582
 30
0.0
 10
21.005700
 20
44.127457
 30
0.0
 10
21.050850
 20
44.154600
 30
0.0
 10
21.086100
 20
44.186025
 30
0.0
 10
21.112650
 20
44.222257
 30
0.0
 10
21.131775
 20
44.263950
 30
0.0
 10
21.152250
 20
44.366100
 30
0.0
 10
21.156975
 20
44.497057
 30
0.0
 10
21.152625
 20
44.629575
 30
0.0
 10
21.132750
 20
44.731657
 30
0.0
 10
21.113775
 20
44.772832
 30
0.0
 10
21.087000
 20
44.808150
 30
0.0
 10
21.051150
 20
44.838158
 30
0.0
 10
21.004950
 20
44.863507
 30
0.0
 10
20.876325
 20
44.902425
 30
0.0
 10
20.690625
 20
44.929583
 30
0.0
 10
20.573175
 20
44.940225
 30
0.0
 10
20.437650
 20
44.949600
 30
0.0
 10
19.764300
 20
44.984707
 30
0.0
 10
19.625250
 20
44.993857
 30
0.0
 10
19.505700
 20
45.004357
 30
0.0
 10
19.319325
 20
45.032182
 30
0.0
 10
19.193325
 20
45.074182
 30
0.0
 10
19.149300
 20
45.102382
 30
0.0
 10
19.115850
 20
45.136425
 30
0.0
 10
19.091700
 20
45.177082
 30
0.0
 10
19.075200
 20
45.225000
 30
0.0
 10
19.059450
 20
45.345908
 30
0.0
 10
19.056825
 20
45.505133
 30
0.0
 10
19.059450
 20
45.664433
 30
0.0
 10
19.075275
 20
45.785325
 30
0.0
 10
19.091775
 20
45.833258
 30
0.0
 10
19.116075
 20
45.873825
 30
0.0
 10
19.149450
 20
45.907882
 30
0.0
 10
19.193550
 20
45.936082
 30
0.0
 10
19.319550
 20
45.978082
 30
0.0
 10
19.505925
 20
46.005900
 30
0.0
 10
19.625475
 20
46.016407
 30
0.0
 10
19.764450
 20
46.025550
 30
0.0
 10
20.437650
 20
46.060665
 30
0.0
 10
20.573175
 20
46.070032
 30
0.0
 10
20.690625
 20
46.080607
 30
0.0
 10
20.876325
 20
46.107833
 30
0.0
 10
21.004950
 20
46.146757
 30
0.0
 10
21.051150
 20
46.172108
 30
0.0
 10
21.087000
 20
46.202107
 30
0.0
 10
21.113775
 20
46.237425
 30
0.0
 10
21.132750
 20
46.278600
 30
0.0
 10
21.152625
 20
46.380750
 30
0.0
 10
21.156975
 20
46.513208
 30
0.0
 10
21.153075
 20
46.650375
 30
0.0
 10
21.144900
 20
46.706175
 30
0.0
 10
21.129675
 20
46.754483
 30
0.0
 10
21.105300
 20
46.795875
 30
0.0
 10
21.069450
 20
46.830908
 30
0.0
 10
21.019950
 20
46.860383
 30
0.0
 10
20.954775
 20
46.884907
 30
0.0
 10
20.871525
 20
46.905075
 30
0.0
 10
20.768250
 20
46.921658
 30
0.0
 10
20.642550
 20
46.935308
 30
0.0
 10
20.492400
 20
46.946557
 30
0.0
 10
20.315475
 20
46.956150
 30
0.0
 10
19.872975
 20
46.972965
 30
0.0
 10
18.048750
 20
47.029733
 30
0.0
 10
18.048900
 20
41.809058
 30
0.0
  0
LWPOLYLINE
  5
120
100
AcDbEntity
  8
0
 62
7
100
AcDbPolyline
 90
4
 70
1
 10
33.841725
 20
47.017133
 30
0.0
 10
32.833725
 20
47.017133
 30
0.0
 10
32.833725
 20
41.808825
 30
0.0
 10
33.841725
 20
41.808825
 30
0.0
  0
LWPOLYLINE
  5
121
100
AcDbEntity
  8
0
 62
7
100
AcDbPolyline
 90
27
 70
1
 10
16.032675
 20
41.808825
 30
0.0
 10
16.388625
 20
41.810783
 30
0.0
 10
16.536300
 20
41.813783
 30
0.0
 10
16.665300
 20
41.818575
 30
0.0
 10
16.872300
 20
41.835008
 30
0.0
 10
17.019675
 20
41.862832
 30
0.0
 10
17.074050
 20
41.881957
 30
0.0
 10
17.117175
 20
41.904908
 30
0.0
 10
17.150250
 20
41.932208
 30
0.0
 10
17.174550
 20
41.964075
 30
0.0
 10
17.191350
 20
42.000907
 30
0.0
 10
17.201850
 20
42.043132
 30
0.0
 10
17.208750
 20
42.144840
 30
0.0
 10
17.202825
 20
42.239708
 30
0.0
 10
17.182500
 20
42.315525
 30
0.0
 10
17.165625
 20
42.346882
 30
0.0
 10
17.143725
 20
42.374257
 30
0.0
 10
17.116275
 20
42.397807
 30
0.0
 10
17.082750
 20
42.417907
 30
0.0
 10
16.995450
 20
42.448425
 30
0.0
 10
16.877925
 20
42.467775
 30
0.0
 10
16.726350
 20
42.477908
 30
0.0
 10
16.536675
 20
42.480900
 30
0.0
 10
15.864600
 20
42.480900
 30
0.0
 10
15.864600
 20
47.017133
 30
0.0
 10
14.856600
 20
47.017133
 30
0.0
 10
14.856600
 20
41.808825
 30
0.0
  0
LWPOLYLINE
  5
122
100
AcDbEntity
  8
0
 62
7
100
AcDbPolyline
 90
34
 70
1
 10
28.009650
 20
41.904750
 30
0.0
 10
28.163250
 20
41.976150
 30
0.0
 10
28.308000
 20
42.066308
 30
0.0
 10
28.442775
 20
42.176857
 30
0.0
 10
28.567200
 20
42.308032
 30
0.0
 10
28.681800
 20
42.458332
 30
0.0
 10
28.787400
 20
42.626258
 30
0.0
 10
28.930800
 20
42.879832
 30
0.0
 10
29.051100
 20
43.156275
 30
0.0
 10
29.146950
 20
43.449233
 30
0.0
 10
29.216775
 20
43.752375
 30
0.0
 10
29.259075
 20
44.059500
 30
0.0
 10
29.272425
 20
44.364232
 30
0.0
 10
29.255325
 20
44.660258
 30
0.0
 10
29.206275
 20
44.941358
 30
0.0
 10
29.134275
 20
45.204907
 30
0.0
 10
29.048400
 20
45.449100
 30
0.0
 10
28.948200
 20
45.674250
 30
0.0
 10
28.833150
 20
45.880725
 30
0.0
 10
28.702800
 20
46.068832
 30
0.0
 10
28.556700
 20
46.238858
 30
0.0
 10
28.394250
 20
46.391107
 30
0.0
 10
28.215075
 20
46.525957
 30
0.0
 10
28.018650
 20
46.643783
 30
0.0
 10
27.804450
 20
46.744732
 30
0.0
 10
27.572100
 20
46.829325
 30
0.0
 10
27.321000
 20
46.897807
 30
0.0
 10
27.050700
 20
46.950533
 30
0.0
 10
26.760825
 20
46.987732
 30
0.0
 10
26.450700
 20
47.009858
 30
0.0
 10
26.119950
 20
47.017133
 30
0.0
 10
24.937200
 20
47.017133
 30
0.0
 10
24.937200
 20
41.808825
 30
0.0
 10
27.682425
 20
41.808825
 30
0.0
  0
LWPOLYLINE
  5
123
100
AcDbEntity
  8
0
 62
7
100
AcDbPolyline
 90
35
 70
1
 10
26.188800
 20
42.520283
 30
0.0
 10
26.152650
 20
42.535650
 30
0.0
 10
26.120325
 20
42.556650
 30
0.0
 10
26.091450
 20
42.583582
 30
0.0
 10
26.066025
 20
42.616650
 30
0.0
 10
26.024250
 20
42.702675
 30
0.0
 10
25.993425
 20
42.817282
 30
0.0
 10
25.971825
 20
42.962933
 30
0.0
 10
25.957875
 20
43.142175
 30
0.0
 10
25.949850
 20
43.357507
 30
0.0
 10
25.946250
 20
43.611382
 30
0.0
 10
25.945275
 20
46.009057
 30
0.0
 10
26.546250
 20
46.009057
 30
0.0
 10
26.711625
 20
46.000507
 30
0.0
 10
26.871450
 20
45.975232
 30
0.0
 10
27.171525
 20
45.877657
 30
0.0
 10
27.440850
 20
45.722475
 30
0.0
 10
27.673725
 20
45.515858
 30
0.0
 10
27.864675
 20
45.263708
 30
0.0
 10
28.008000
 20
44.972183
 30
0.0
 10
28.098150
 20
44.647350
 30
0.0
 10
28.129425
 20
44.295307
 30
0.0
 10
28.113075
 20
43.968682
 30
0.0
 10
28.063350
 20
43.680532
 30
0.0
 10
27.978825
 20
43.428975
 30
0.0
 10
27.858225
 20
43.212225
 30
0.0
 10
27.700425
 20
43.028400
 30
0.0
 10
27.504000
 20
42.875700
 30
0.0
 10
27.267750
 20
42.752333
 30
0.0
 10
26.990400
 20
42.656332
 30
0.0
 10
26.802075
 20
42.603983
 30
0.0
 10
26.637825
 20
42.560108
 30
0.0
 10
26.496000
 20
42.527332
 30
0.0
 10
26.375025
 20
42.508133
 30
0.0
 10
26.273175
 20
42.504900
 30
0.0
  0
LWPOLYLINE
  5
124
100
AcDbEntity
  8
0
 62
7
100
AcDbPolyline
 90
61
 70
1
 10
69.777750
 20
41.811757
 30
0.0
 10
69.899100
 20
41.826683
 30
0.0
 10
69.947625
 20
41.841450
 30
0.0
 10
69.988950
 20
41.862682
 30
0.0
 10
70.023825
 20
41.891475
 30
0.0
 10
70.052925
 20
41.928908
 30
0.0
 10
70.077000
 20
41.976233
 30
0.0
 10
70.096800
 20
42.034508
 30
0.0
 10
70.126275
 20
42.188550
 30
0.0
 10
70.147125
 20
42.400215
 30
0.0
 10
70.165125
 20
42.678600
 30
0.0
 10
70.215900
 20
43.548383
 30
0.0
 10
70.755000
 20
42.678600
 30
0.0
 10
70.920975
 20
42.416550
 30
0.0
 10
71.061525
 20
42.212632
 30
0.0
 10
71.185800
 20
42.059557
 30
0.0
 10
71.303175
 20
41.950275
 30
0.0
 10
71.422875
 20
41.877682
 30
0.0
 10
71.554275
 20
41.834700
 30
0.0
 10
71.706525
 20
41.814082
 30
0.0
 10
71.889075
 20
41.808825
 30
0.0
 10
72.120075
 20
41.818957
 30
0.0
 10
72.309300
 20
41.846407
 30
0.0
 10
72.382050
 20
41.865383
 30
0.0
 10
72.437100
 20
41.887208
 30
0.0
 10
72.457200
 20
41.898983
 30
0.0
 10
72.471900
 20
41.911208
 30
0.0
 10
72.480975
 20
41.923958
 30
0.0
 10
72.483300
 20
41.930408
 30
0.0
 10
72.483300
 20
41.944725
 30
0.0
 10
72.480975
 20
41.954633
 30
0.0
 10
72.471900
 20
41.980807
 30
0.0
 10
72.437025
 20
42.056557
 30
0.0
 10
72.381975
 20
42.160125
 30
0.0
 10
72.309075
 20
42.287325
 30
0.0
 10
72.220875
 20
42.434025
 30
0.0
 10
72.119775
 20
42.596115
 30
0.0
 10
71.888475
 20
42.949582
 30
0.0
 10
71.292900
 20
43.833908
 30
0.0
 10
71.804475
 20
44.264325
 30
0.0
 10
71.925300
 20
44.378550
 30
0.0
 10
72.031200
 20
44.504250
 30
0.0
 10
72.197700
 20
44.783932
 30
0.0
 10
72.303450
 20
45.090983
 30
0.0
 10
72.348075
 20
45.413025
 30
0.0
 10
72.330900
 20
45.737857
 30
0.0
 10
72.251475
 20
46.052925
 30
0.0
 10
72.109275
 20
46.346032
 30
0.0
 10
72.014400
 20
46.480432
 30
0.0
 10
71.903700
 20
46.604700
 30
0.0
 10
71.774175
 20
46.725758
 30
0.0
 10
71.647800
 20
46.820925
 30
0.0
 10
71.512875
 20
46.893307
 30
0.0
 10
71.358000
 20
46.945808
 30
0.0
 10
71.171625
 20
46.981507
 30
0.0
 10
70.942125
 20
47.003257
 30
0.0
 10
70.657950
 20
47.014125
 30
0.0
 10
70.491750
 20
47.016382
 30
0.0
 10
69.123900
 20
47.017057
 30
0.0
 10
69.123825
 20
41.808825
 30
0.0
 10
69.619050
 20
41.808825
 30
0.0
  0
LWPOLYLINE
  5
125
100
AcDbEntity
  8
0
 62
7
100
AcDbPolyline
 90
22
 70
1
 10
69.779250
 20
44.495933
 30
0.0
 10
69.880050
 20
46.429057
 30
0.0
 10
70.507050
 20
46.409183
 30
0.0
 10
70.789650
 20
46.387433
 30
0.0
 10
71.028150
 20
46.339575
 30
0.0
 10
71.224575
 20
46.263757
 30
0.0
 10
71.380875
 20
46.158300
 30
0.0
 10
71.444625
 20
46.093950
 30
0.0
 10
71.499000
 20
46.021507
 30
0.0
 10
71.580975
 20
45.851557
 30
0.0
 10
71.628750
 20
45.646725
 30
0.0
 10
71.644200
 20
45.405383
 30
0.0
 10
71.627475
 20
45.177383
 30
0.0
 10
71.575725
 20
44.985600
 30
0.0
 10
71.535825
 20
44.902808
 30
0.0
 10
71.486250
 20
44.828407
 30
0.0
 10
71.426700
 20
44.762183
 30
0.0
 10
71.356725
 20
44.703907
 30
0.0
 10
71.184525
 20
44.610157
 30
0.0
 10
70.967175
 20
44.545507
 30
0.0
 10
70.702050
 20
44.508075
 30
0.0
 10
70.386750
 20
44.495933
 30
0.0
  0
LWPOLYLINE
  5
126
100
AcDbEntity
  8
0
 62
7
100
AcDbPolyline
 90
4
 70
1
 10
58.548225
 20
41.808825
 30
0.0
 10
58.455300
 20
46.933132
 30
0.0
 10
57.447225
 20
46.933132
 30
0.0
 10
57.354600
 20
41.808825
 30
0.0
  0
ENDSEC
  0
SECTION
  2
OBJECTS
  0
DICTIONARY
  5
C
330
0
100
AcDbDictionary
  3
ACAD_GROUP
350
D
  3
ACAD_MLINESTYLE
350
17
  0
DICTIONARY
  5
D
330
C
100
AcDbDictionary
  0
DICTIONARY
  5
1A
330
C
100
AcDbDictionary
  0
DICTIONARY
  5
17
330
C
100
AcDbDictionary
  3
STANDARD
350
18
  0
DICTIONARY
  5
19
330
C
100
AcDbDictionary
  0
ENDSEC
  0
EOF
