<?xml version="1.0" encoding="UTF-8" standalone="no"?>
<svg
   xmlns:dc="http://purl.org/dc/elements/1.1/"
   xmlns:cc="http://creativecommons.org/ns#"
   xmlns:rdf="http://www.w3.org/1999/02/22-rdf-syntax-ns#"
   xmlns:svg="http://www.w3.org/2000/svg"
   xmlns="http://www.w3.org/2000/svg"
   xmlns:sodipodi="http://sodipodi.sourceforge.net/DTD/sodipodi-0.dtd"
   xmlns:inkscape="http://www.inkscape.org/namespaces/inkscape"
   viewBox="-9 -55 222 65"
   width="222"
   height="65"
   version="1.1"
   id="svg4"
   sodipodi:docname="logoUpssitech3.svg"
   inkscape:version="0.92.4 (5da689c313, 2019-01-14)">
  <metadata
     id="metadata10">
    <rdf:RDF>
      <cc:Work
         rdf:about="">
        <dc:format>image/svg+xml</dc:format>
        <dc:type
           rdf:resource="http://purl.org/dc/dcmitype/StillImage" />
        <dc:title></dc:title>
      </cc:Work>
    </rdf:RDF>
  </metadata>
  <defs
     id="defs8" />
  <sodipodi:namedview
     pagecolor="#ffffff"
     bordercolor="#666666"
     borderopacity="1"
     objecttolerance="10"
     gridtolerance="10"
     guidetolerance="10"
     inkscape:pageopacity="0"
     inkscape:pageshadow="2"
     inkscape:window-width="716"
     inkscape:window-height="480"
     id="namedview6"
     showgrid="false"
     inkscape:zoom="1.6036036"
     inkscape:cx="111"
     inkscape:cy="32.5"
     inkscape:window-x="0"
     inkscape:window-y="0"
     inkscape:window-maximized="0"
     inkscape:current-layer="svg4" />
  <path
     d=" M 106.964,-52.3776 L 107.01,-52.387 L 107.113,-52.4255 L 107.243,-52.4901 L 107.413,-52.5806 L 107.504,-52.6387 L 107.585,-52.7081 L 107.714,-52.8727 L 107.798,-53.0575 L 107.836,-53.2468 L 107.842,-53.4987 L 107.817,-53.716 L 107.762,-53.8983 L 107.723,-53.9761 L 107.676,-54.0449 L 107.621,-54.1049 L 107.559,-54.156 L 107.489,-54.1984 L 107.411,-54.2323 L 107.237,-54.2751 L 107.041,-54.2857 L 106.832,-54.265 L 106.623,-54.2132 L 106.429,-54.1299 L 106.265,-54.0149 L 106.198,-53.9454 L 106.142,-53.8679 L 106.097,-53.7825 L 106.066,-53.6892 L 106.04,-53.4794 L 106.064,-53.2391 L 106.098,-53.0561 L 106.173,-52.8766 L 106.289,-52.7162 L 106.363,-52.6481 L 106.446,-52.5907 L 106.608,-52.4967 L 106.732,-52.4295 L 106.832,-52.3889 L 106.877,-52.3785 L 106.92,-52.3747 z M -7.14389,-32.4761 L -6.92059,-32.5296 L -6.6861,-32.6233 L -6.4303,-32.7594 L -6.14369,-32.9402 L -5.81889,-33.1673 L -5.4509,-33.4416 L -5.03699,-33.7634 L -4.5759,-34.1328 L -4.06709,-34.5497 L -3.79279,-34.7544 L -3.5004,-34.9784 L -2.87259,-35.4764 L -1.60529,-36.4774 L -0.347092,-37.417 L 0.916489,-38.3042 L 2.2,-39.1484 L 3.51799,-39.9588 L 4.88499,-40.7446 L 6.31549,-41.5151 L 7.8241,-42.2795 L 8.82649,-42.7616 L 9.825,-43.2184 L 10.8195,-43.6501 L 11.8103,-44.0567 L 12.7974,-44.4381 L 13.7809,-44.7943 L 14.7609,-45.1255 L 15.7375,-45.4315 L 16.7108,-45.7124 L 17.6809,-45.9682 L 18.6478,-46.1989 L 19.6118,-46.4045 L 20.5728,-46.5851 L 21.5309,-46.7406 L 22.4864,-46.871 L 23.4392,-46.9764 L 24.3894,-47.0568 L 25.3372,-47.1122 L 26.2826,-47.1425 L 27.2258,-47.1478 L 28.1668,-47.1281 L 29.1057,-47.0835 L 30.0427,-47.0138 L 30.9777,-46.9192 L 31.911,-46.7996 L 32.8426,-46.6551 L 33.7726,-46.4857 L 34.7011,-46.2913 L 35.6282,-46.0719 L 36.554,-45.8277 L 37.4785,-45.5586 L 38.402,-45.2645 L 39.3968,-44.9164 L 40.4283,-44.5221 L 41.4773,-44.0904 L 42.5245,-43.6298 L 43.551,-43.1493 L 44.5374,-42.6573 L 45.4646,-42.1627 L 46.3135,-41.6741 L 47.7086,-40.8424 L 48.2586,-40.5204 L 48.8186,-40.1988 L 49.1806,-39.8982 L 49.55,-39.6344 L 49.9261,-39.4082 L 50.307,-39.2213 L 50.6892,-39.0767 L 51.0665,-38.9791 L 51.4303,-38.9351 L 51.7692,-38.9523 L 52.0713,-39.0365 L 52.2048,-39.1046 L 52.325,-39.1898 L 52.4307,-39.2913 L 52.5211,-39.4076 L 52.6538,-39.677 L 52.7216,-39.977 L 52.7259,-40.2836 L 52.6707,-40.5737 L 52.5614,-40.8304 L 52.4043,-41.0471 L 52.2054,-41.2285 L 51.9705,-41.3868 L 51.7046,-41.5375 L 51.4112,-41.6961 L 51.0927,-41.8732 L 50.7496,-42.0738 L 50.3814,-42.2983 L 49.5635,-42.8053 L 49.1108,-43.0788 L 48.6273,-43.3602 L 48.1127,-43.6473 L 47.5665,-43.9386 L 46.9889,-44.2331 L 46.3799,-44.5307 L 45.4309,-45.0902 L 44.4349,-45.6525 L 43.4529,-46.1807 L 42.9863,-46.4205 L 42.5462,-46.638 L 41.5295,-47.1107 L 40.5071,-47.5503 L 39.479,-47.957 L 38.4454,-48.3307 L 37.4063,-48.6714 L 36.3617,-48.9792 L 35.3119,-49.254 L 34.2568,-49.4958 L 33.1966,-49.7046 L 32.1313,-49.8805 L 31.0611,-50.0234 L 29.9859,-50.1333 L 28.906,-50.2103 L 27.8213,-50.2544 L 26.732,-50.2654 L 25.6382,-50.2436 L 24.5398,-50.1888 L 23.4371,-50.101 L 22.3302,-49.9804 L 21.219,-49.8268 L 20.1036,-49.6402 L 18.9843,-49.4207 L 17.8609,-49.1683 L 16.7337,-48.883 L 15.6028,-48.5648 L 14.4681,-48.2136 L 13.3298,-47.8295 L 12.188,-47.4126 L 11.0427,-46.9627 L 9.89409,-46.4799 L 8.74219,-45.9642 L 7.58719,-45.4156 L 6.88109,-45.0618 L 6.15239,-44.6802 L 5.40639,-44.2742 L 4.64809,-43.8474 L 3.11539,-42.9455 L 1.5954,-42.0028 L 0.129395,-41.0475 L -0.570496,-40.5741 L -1.24159,-40.1082 L -1.87849,-39.6533 L -2.47629,-39.213 L -3.02969,-38.7908 L -3.53349,-38.3902 L -4.02919,-38.0083 L -4.47409,-37.6718 L -4.88039,-37.3702 L -5.26349,-37.0894 L -6.01849,-36.5304 L -6.79659,-35.9062 L -7.1787,-35.5627 L -7.53659,-35.2033 L -7.85329,-34.8355 L -8.1133,-34.4684 L -8.30539,-34.112 L -8.42329,-33.7757 L -8.4659,-33.4685 L -8.45969,-33.3282 L -8.43639,-33.1977 L -8.39679,-33.0776 L -8.3425,-32.9683 L -8.27499,-32.8701 L -8.196,-32.783 L -8.0112,-32.6415 L -7.80299,-32.5422 L -7.5844,-32.4825 L -7.36389,-32.4607 z M 104.461,-47.7022 L 104.63,-47.7708 L 104.8,-47.875 L 104.972,-48.0152 L 105.128,-48.198 L 105.247,-48.4214 L 105.327,-48.6716 L 105.368,-48.9347 L 105.368,-49.1969 L 105.326,-49.4444 L 105.241,-49.6633 L 105.183,-49.7577 L 105.113,-49.8398 L 105.041,-49.9007 L 104.955,-49.9535 L 104.75,-50.0347 L 104.513,-50.0834 L 104.262,-50.0997 L 104.01,-50.0834 L 103.774,-50.0347 L 103.569,-49.9535 L 103.483,-49.9007 L 103.411,-49.8398 L 103.339,-49.7526 L 103.278,-49.6481 L 103.191,-49.3975 L 103.148,-49.1101 L 103.146,-48.8077 L 103.185,-48.5122 L 103.264,-48.2456 L 103.381,-48.0297 L 103.453,-47.9476 L 103.534,-47.8864 L 103.739,-47.7801 L 103.932,-47.7083 L 104.115,-47.6712 L 104.29,-47.6691 z M 101.177,-43.6716 L 101.371,-43.744 L 101.566,-43.8548 L 101.763,-44.0042 L 102.002,-44.2405 L 102.183,-44.4936 L 102.305,-44.7593 L 102.368,-45.0339 L 102.371,-45.3133 L 102.314,-45.5938 L 102.197,-45.8713 L 102.018,-46.142 L 101.839,-46.3385 L 101.642,-46.4962 L 101.433,-46.6164 L 101.215,-46.7003 L 100.993,-46.7491 L 100.769,-46.764 L 100.548,-46.7462 L 100.335,-46.6969 L 100.131,-46.6173 L 99.9428,-46.5087 L 99.7727,-46.3721 L 99.6251,-46.2089 L 99.5039,-46.0203 L 99.4128,-45.8074 L 99.3559,-45.5714 L 99.3371,-45.3136 L 99.3462,-45.0369 L 99.373,-44.802 L 99.4213,-44.6019 L 99.4949,-44.4296 L 99.5975,-44.2782 L 99.733,-44.1407 L 99.9052,-44.0103 L 100.118,-43.8799 L 100.35,-43.7629 L 100.569,-43.6833 L 100.778,-43.6415 L 100.98,-43.6375 z M 133.085,9.16499 L 133.923,9.15089 L 135.673,9.1017 L 137.438,9.02779 L 138.293,8.98279 L 139.113,8.93289 L 139.884,8.87859 L 140.593,8.82039 L 141.228,8.75879 L 141.514,8.7269 L 141.776,8.6942 L 144.112,8.34189 L 146.442,7.90289 L 148.766,7.3772 L 151.084,6.76459 L 153.396,6.06509 L 155.703,5.27859 L 158.004,4.40489 L 160.301,3.44389 L 162.593,2.3956 L 164.88,1.2598 L 167.163,0.036499 L 169.442,-1.27449 L 171.718,-2.67319 L 173.989,-4.15979 L 176.258,-5.73439 L 178.523,-7.39699 L 180.763,-9.08578 L 180.987,-2.50569 L 183.227,-2.50569 L 183.451,-11.2935 L 185.691,-13.2612 L 185.996,-13.5322 L 186.324,-13.8278 L 186.672,-14.1465 L 187.039,-14.4868 L 187.423,-14.8473 L 187.824,-15.2264 L 188.667,-16.0344 L 189.557,-16.8989 L 190.481,-17.8079 L 192.385,-19.7112 L 194.285,-21.6482 L 195.203,-22.5992 L 196.084,-23.5225 L 196.916,-24.4062 L 197.688,-25.2383 L 198.047,-25.6311 L 198.387,-26.0066 L 198.706,-26.3631 L 199.002,-26.6992 L 199.791,-27.6092 L 200.591,-28.5429 L 202.202,-30.4563 L 203.798,-32.3895 L 205.338,-34.2928 L 206.076,-35.2177 L 206.785,-36.1165 L 207.461,-36.9829 L 208.099,-37.8106 L 208.694,-38.5936 L 209.242,-39.3256 L 209.737,-40.0002 L 210.174,-40.6114 L 210.5,-41.0302 L 210.805,-41.4345 L 211.089,-41.8243 L 211.352,-42.1995 L 211.595,-42.5598 L 211.816,-42.9048 L 212.016,-43.2342 L 212.195,-43.5475 L 212.351,-43.8441 L 212.487,-44.1233 L 212.6,-44.3844 L 212.693,-44.6267 L 212.765,-44.8493 L 212.817,-45.0515 L 212.849,-45.2328 L 212.863,-45.3929 L 212.859,-45.5317 L 212.839,-45.6496 L 212.804,-45.7475 L 212.754,-45.8268 L 212.693,-45.8894 L 212.621,-45.9372 L 212.54,-45.9725 L 212.451,-45.9972 L 212.257,-46.0206 L 212.048,-46.0125 L 211.828,-45.966 L 211.599,-45.8656 L 211.154,-45.5832 L 210.955,-45.3779 L 210.511,-44.8676 L 209.593,-43.7279 L 208.222,-41.9367 L 207.397,-40.8333 L 206.783,-40.0165 L 205.589,-38.4461 L 204.436,-36.9515 L 203.316,-35.5229 L 202.218,-34.1507 L 201.136,-32.8251 L 200.061,-31.5362 L 198.984,-30.2743 L 196.791,-27.7925 L 195.659,-26.553 L 194.491,-25.3014 L 193.279,-24.0279 L 192.015,-22.7229 L 190.69,-21.3764 L 189.296,-19.9788 L 183.45,-14.1545 L 183.227,-32.2996 L 180.987,-32.2996 L 180.867,-20.0908 L 163.857,-20.0908 L 163.738,-32.2996 L 161.609,-32.4361 L 161.609,-2.36919 L 163.738,-2.50569 L 163.856,-17.8507 L 180.875,-17.8507 L 180.875,-12.1293 L 178.691,-10.4235 L 177.544,-9.5385 L 176.4,-8.67799 L 175.26,-7.84189 L 174.123,-7.03009 L 172.989,-6.24229 L 171.856,-5.47839 L 170.726,-4.7383 L 169.597,-4.02179 L 167.343,-2.65909 L 165.092,-1.38879 L 162.84,-0.209991 L 160.586,0.878799 L 158.325,1.8788 L 156.057,2.79109 L 153.777,3.6171 L 151.484,4.35789 L 149.174,5.01489 L 146.845,5.58919 L 144.495,6.08209 L 142.12,6.4948 L 141.762,6.54659 L 141.371,6.59499 L 140.95,6.6402 L 140.501,6.68188 L 140.027,6.7204 L 139.529,6.75549 L 138.471,6.81569 L 137.344,6.86259 L 136.167,6.89619 L 133.725,6.92319 L 131.283,6.89679 L 130.104,6.86359 L 128.977,6.81699 L 127.917,6.7571 L 127.419,6.72209 L 126.943,6.68369 L 126.494,6.64209 L 126.072,6.59709 L 125.68,6.54869 L 125.319,6.49699 L 124.153,6.30521 L 122.927,6.08342 L 121.657,5.83485 L 120.365,5.56415 L 117.732,4.96019 L 116.412,4.63087 L 115.153,4.2995 L 112.621,3.73329 L 112.473,3.71799 L 112.36,3.71078 L 112.268,3.70799 L 112.116,3.7101 L 112.076,3.71219 L 111.894,3.73129 L 111.739,3.76299 L 111.7,3.77379 L 111.599,3.8089 L 111.536,3.83699 L 111.48,3.86789 L 111.406,3.91949 L 111.383,3.939 L 111.354,3.96759 L 111.311,4.0215 L 111.279,4.07599 L 111.263,4.11429 L 111.256,4.13599 L 111.242,4.1993 L 111.241,4.21619 L 111.239,4.26569 L 111.244,4.32599 L 111.262,4.40659 L 111.273,4.4422 L 111.327,4.56349 L 111.406,4.68819 L 111.423,4.71049 L 111.509,4.8149 L 111.558,4.8678 L 111.634,4.94189 L 111.727,5.02449 L 111.779,5.0676 L 111.944,5.19049 L 112.15,5.32439 L 114.874,6.2652 L 118.229,7.22969 L 120.503,7.80069 L 121.942,8.07089 L 123.951,8.40039 L 125.236,8.5896 L 127.148,8.8418 L 128.726,9.01839 L 129.8,9.11339 L 130.034,9.12869 L 130.294,9.14159 L 130.882,9.16039 L 131.552,9.1702 L 132.291,9.17159 z M 97.0518,-40.4956 L 97.3259,-40.5522 L 97.5783,-40.6427 L 97.8075,-40.764 L 98.012,-40.9129 L 98.1903,-41.0862 L 98.3409,-41.2809 L 98.4622,-41.4936 L 98.5527,-41.7213 L 98.6109,-41.9609 L 98.6354,-42.2091 L 98.6245,-42.4629 L 98.5768,-42.719 L 98.4907,-42.9743 L 98.3647,-43.2257 L 98.1974,-43.47 L 98.0625,-43.619 L 97.9096,-43.7481 L 97.7412,-43.8573 L 97.56,-43.9467 L 97.1691,-44.0659 L 96.7576,-44.1056 L 96.3461,-44.0659 L 95.9552,-43.9467 L 95.7739,-43.8573 L 95.6056,-43.7481 L 95.4526,-43.619 L 95.3178,-43.47 L 95.1131,-43.1635 L 94.9703,-42.8467 L 94.8892,-42.5249 L 94.8697,-42.2034 L 94.9115,-41.8875 L 95.0145,-41.5824 L 95.1785,-41.2934 L 95.4032,-41.0258 L 95.6969,-40.7798 L 96.0145,-40.6086 L 96.365,-40.5085 L 96.7576,-40.476 z M 92.5018,-37.1524 L 92.9334,-37.2607 L 93.305,-37.4383 L 93.6143,-37.6829 L 93.8589,-37.9921 L 94.0365,-38.3638 L 94.1448,-38.7954 L 94.1814,-39.2846 L 94.1478,-39.7716 L 94.0472,-40.1945 L 93.8799,-40.5531 L 93.6462,-40.8472 L 93.3464,-41.0764 L 92.9808,-41.2405 L 92.5496,-41.3391 L 92.0532,-41.3721 L 91.7941,-41.3638 L 91.552,-41.3391 L 91.3269,-41.298 L 91.1186,-41.2402 L 90.9272,-41.1659 L 90.7527,-41.075 L 90.595,-40.9674 L 90.454,-40.8432 L 90.3297,-40.7022 L 90.2221,-40.5444 L 90.1312,-40.3699 L 90.0569,-40.1785 L 89.9992,-39.9703 L 89.958,-39.7451 L 89.9333,-39.503 L 89.9251,-39.2439 L 89.9313,-38.9658 L 89.9514,-38.7223 L 89.9872,-38.5078 L 90.041,-38.3164 L 90.1146,-38.1422 L 90.2101,-37.9796 L 90.3296,-37.8227 L 90.475,-37.6656 L 90.6301,-37.5221 L 90.7859,-37.4036 L 90.9472,-37.3082 L 91.119,-37.2342 L 91.3065,-37.1797 L 91.5146,-37.143 L 91.7482,-37.1223 L 92.0125,-37.1158 z M 86.9329,-33.3352 L 87.2136,-33.3751 L 87.4723,-33.4428 L 87.6973,-33.5382 L 87.9198,-33.6851 L 88.1173,-33.8709 L 88.2894,-34.0907 L 88.4356,-34.3393 L 88.5557,-34.6117 L 88.6491,-34.9028 L 88.7155,-35.2075 L 88.7545,-35.5207 L 88.7656,-35.8373 L 88.7485,-36.1524 L 88.7028,-36.4608 L 88.628,-36.7573 L 88.5238,-37.0371 L 88.3898,-37.2949 L 88.2255,-37.5257 L 88.0305,-37.7244 L 87.7618,-37.9233 L 87.4809,-38.0719 L 87.1919,-38.1722 L 86.8987,-38.2263 L 86.6056,-38.2361 L 86.3166,-38.2037 L 86.0358,-38.1311 L 85.7672,-38.0204 L 85.5149,-37.8735 L 85.2831,-37.6924 L 85.0757,-37.4792 L 84.8969,-37.2359 L 84.7507,-36.9644 L 84.6412,-36.667 L 84.5726,-36.3454 L 84.5488,-36.0018 L 84.57,-35.6154 L 84.631,-35.2336 L 84.7279,-34.8656 L 84.8568,-34.5204 L 85.0136,-34.2071 L 85.1946,-33.9348 L 85.3956,-33.7126 L 85.6128,-33.5488 L 85.8266,-33.4512 L 86.0773,-33.381 L 86.353,-33.3382 L 86.6422,-33.3229 z M 48.9952,-2.01019 L 49.6604,-2.084 L 50.317,-2.1964 L 50.9612,-2.3465 L 51.5889,-2.53329 L 52.196,-2.7556 L 52.7787,-3.0123 L 53.3328,-3.30249 L 53.8544,-3.62509 L 54.3394,-3.97899 L 54.7839,-4.3631 L 55.1838,-4.7764 L 55.6514,-5.35439 L 56.0472,-5.94809 L 56.3743,-6.56659 L 56.6356,-7.21889 L 56.8343,-7.91399 L 56.9734,-8.66069 L 57.0558,-9.46819 L 57.0846,-10.3454 L 57.0792,-10.8223 L 57.0585,-11.2708 L 57.021,-11.6942 L 56.9653,-12.0954 L 56.8901,-12.4777 L 56.7938,-12.8441 L 56.6751,-13.1978 L 56.5326,-13.5417 L 56.3648,-13.879 L 56.1704,-14.2129 L 55.9479,-14.5464 L 55.696,-14.8825 L 55.4131,-15.2245 L 55.098,-15.5755 L 54.7491,-15.9384 L 54.3651,-16.3164 L 53.7968,-16.8403 L 53.2084,-17.3325 L 52.5742,-17.8098 L 51.8683,-18.289 L 51.4804,-18.5345 L 51.0648,-18.7867 L 50.6184,-19.0478 L 50.138,-19.3198 L 49.6202,-19.6048 L 49.0618,-19.9049 L 48.4597,-20.2222 L 47.8107,-20.5588 L 47.2689,-20.8484 L 46.7673,-21.139 L 46.3051,-21.4314 L 45.8815,-21.7267 L 45.4959,-22.0255 L 45.1476,-22.3289 L 44.8357,-22.6376 L 44.5598,-22.9526 L 44.3189,-23.2747 L 44.1125,-23.6048 L 43.9398,-23.9438 L 43.8,-24.2925 L 43.6926,-24.6519 L 43.6167,-25.0227 L 43.5717,-25.4059 L 43.5569,-25.8024 L 43.5804,-26.3148 L 43.6502,-26.8026 L 43.7649,-27.2646 L 43.9233,-27.6996 L 44.1239,-28.1066 L 44.3654,-28.4842 L 44.6467,-28.8315 L 44.9662,-29.1471 L 45.3228,-29.43 L 45.7151,-29.679 L 46.1417,-29.8928 L 46.6015,-30.0704 L 47.0929,-30.2105 L 47.6149,-30.3121 L 48.1659,-30.3739 L 48.7447,-30.3947 L 49.3101,-30.357 L 49.8927,-30.2494 L 50.4746,-30.0797 L 51.0382,-29.8561 L 51.5655,-29.5867 L 52.0389,-29.2794 L 52.4405,-28.9422 L 52.6089,-28.765 L 52.7542,-28.5811 L 52.862,-28.4377 L 52.9761,-28.3007 L 53.0906,-28.1773 L 53.1996,-28.0739 L 53.2743,-28.0127 L 53.3405,-27.9677 L 53.3963,-27.94 L 53.4268,-27.9316 L 53.4412,-27.9305 L 53.4735,-27.9338 L 53.5121,-27.9433 L 53.6059,-27.9795 L 53.8473,-28.1107 L 54.1349,-28.3005 L 54.4384,-28.5252 L 54.7274,-28.7612 L 54.9714,-28.9848 L 55.0671,-29.0846 L 55.1401,-29.1725 L 55.1867,-29.2455 L 55.1989,-29.2754 L 55.2031,-29.3006 L 55.1983,-29.3395 L 55.1843,-29.3855 L 55.1305,-29.4965 L 55.0449,-29.6303 L 54.9312,-29.7832 L 54.7929,-29.9519 L 54.6334,-30.1327 L 54.2651,-30.5172 L 53.8541,-30.9087 L 53.4285,-31.2794 L 53.0164,-31.6014 L 52.8241,-31.7354 L 52.6457,-31.8469 L 52.2445,-32.0561 L 51.8115,-32.2376 L 51.3509,-32.3912 L 50.8666,-32.5171 L 50.3628,-32.6151 L 49.8434,-32.6854 L 49.3125,-32.7278 L 48.7742,-32.7424 L 48.2325,-32.7292 L 47.6915,-32.6882 L 47.1552,-32.6193 L 46.6277,-32.5226 L 46.113,-32.3981 L 45.6151,-32.2457 L 45.1382,-32.0655 L 44.6863,-31.8574 L 44.2903,-31.639 L 43.9168,-31.3975 L 43.5659,-31.1341 L 43.2377,-30.8504 L 42.9324,-30.5476 L 42.65,-30.2272 L 42.3908,-29.8904 L 42.1547,-29.5388 L 41.9418,-29.1736 L 41.7524,-28.7962 L 41.5865,-28.4081 L 41.4443,-28.0105 L 41.3258,-27.6049 L 41.2311,-27.1927 L 41.1604,-26.7751 L 41.1138,-26.3536 L 41.0914,-25.9295 L 41.0933,-25.5043 L 41.1196,-25.0793 L 41.1704,-24.6558 L 41.2459,-24.2353 L 41.3461,-23.8191 L 41.4712,-23.4086 L 41.6212,-23.0052 L 41.7964,-22.6102 L 41.9967,-22.225 L 42.2224,-21.851 L 42.4735,-21.4896 L 42.7501,-21.1421 L 43.0524,-20.8099 L 43.3804,-20.4944 L 43.7669,-20.1716 L 44.1331,-19.9102 L 44.643,-19.578 L 45.5378,-19.0323 L 46.9774,-18.2095 L 48.2303,-17.5367 L 49.0549,-17.1042 L 49.7169,-16.7434 L 50.3244,-16.3975 L 50.8801,-16.0643 L 51.3863,-15.7416 L 51.8456,-15.4274 L 52.2606,-15.1194 L 52.6336,-14.8155 L 52.9673,-14.5135 L 53.2641,-14.2114 L 53.5266,-13.9069 L 53.7572,-13.598 L 53.9584,-13.2824 L 54.1328,-12.958 L 54.2828,-12.6227 L 54.411,-12.2743 L 54.5425,-11.8098 L 54.6337,-11.3335 L 54.6858,-10.8492 L 54.7,-10.3604 L 54.6774,-9.87099 L 54.6192,-9.38469 L 54.5265,-8.90509 L 54.4004,-8.43599 L 54.242,-7.98109 L 54.0526,-7.54399 L 53.8333,-7.12859 L 53.5851,-6.73839 L 53.3093,-6.3772 L 53.0069,-6.04869 L 52.6792,-5.75659 L 52.3273,-5.5047 L 51.8397,-5.21269 L 51.3749,-4.97389 L 50.9159,-4.784 L 50.4456,-4.63829 L 49.9469,-4.5327 L 49.4028,-4.46249 L 48.7963,-4.42339 L 48.1102,-4.41089 L 47.6354,-4.41629 L 47.2286,-4.43649 L 46.8698,-4.47639 L 46.5387,-4.54079 L 46.215,-4.6348 L 45.8784,-4.76309 L 45.5089,-4.93069 L 45.086,-5.14249 L 44.6158,-5.3996 L 44.2083,-5.65948 L 43.8457,-5.9413 L 43.51,-6.26419 L 43.1832,-6.64729 L 42.8476,-7.10959 L 42.6708,-7.3765 L 42.485,-7.67039 L 42.288,-7.99359 L 42.0776,-8.34859 L 41.9959,-8.48209 L 41.921,-8.5775 L 41.8821,-8.61079 L 41.8402,-8.6346 L 41.7936,-8.64879 L 41.7408,-8.65349 L 41.6099,-8.63409 L 41.435,-8.57639 L 41.2031,-8.48039 L 40.9016,-8.34599 L 40.7014,-8.2504 L 40.5263,-8.15439 L 40.3761,-8.05679 L 40.2506,-7.95589 L 40.1495,-7.8503 L 40.0729,-7.73859 L 40.0203,-7.61929 L 39.9918,-7.49109 L 39.987,-7.35229 L 40.0059,-7.2016 L 40.0481,-7.0376 L 40.1136,-6.85869 L 40.2022,-6.6635 L 40.3137,-6.45059 L 40.4478,-6.21849 L 40.6045,-5.9657 L 41.0791,-5.28969 L 41.6071,-4.66739 L 42.1852,-4.10269 L 42.8095,-3.59949 L 43.4758,-3.16089 L 44.1799,-2.79008 L 44.9171,-2.48929 L 45.6825,-2.2598 L 46.3299,-2.12389 L 46.9889,-2.03209 L 47.6555,-1.98329 L 48.3256,-1.97629 z M 68.543,-2.01089 L 69.3101,-2.06459 L 70.0574,-2.1702 L 70.7818,-2.32649 L 71.4806,-2.53229 L 72.1508,-2.78639 L 72.7897,-3.08749 L 73.3942,-3.43449 L 73.9616,-3.82599 L 74.489,-4.26099 L 74.9734,-4.7381 L 75.4121,-5.2562 L 75.8021,-5.814 L 76.1405,-6.41029 L 76.3885,-6.97299 L 76.5995,-7.60039 L 76.7708,-8.27409 L 76.8995,-8.97539 L 76.9828,-9.6859 L 77.0181,-10.3869 L 77.0024,-11.0599 L 76.9331,-11.6864 L 76.8151,-12.273 L 76.6543,-12.8411 L 76.4489,-13.3924 L 76.197,-13.9289 L 75.8969,-14.4522 L 75.5468,-14.9643 L 75.145,-15.4668 L 74.6896,-15.9618 L 74.1789,-16.4508 L 73.6111,-16.9358 L 72.9845,-17.4186 L 72.2973,-17.9009 L 71.5476,-18.3846 L 70.7337,-18.8715 L 69.8539,-19.3634 L 68.1667,-20.2497 L 67.4912,-20.6236 L 66.8776,-20.9861 L 66.3237,-21.3398 L 65.8271,-21.6871 L 65.3857,-22.0306 L 64.997,-22.3727 L 64.6589,-22.716 L 64.3691,-23.0629 L 64.1253,-23.416 L 63.9252,-23.7777 L 63.7666,-24.1505 L 63.6472,-24.537 L 63.5647,-24.9396 L 63.5169,-25.3608 L 63.5014,-25.8031 L 63.5238,-26.3197 L 63.59,-26.8107 L 63.699,-27.2751 L 63.8496,-27.7117 L 64.0405,-28.1194 L 64.2706,-28.4973 L 64.5387,-28.8441 L 64.8437,-29.1588 L 65.1843,-29.4403 L 65.5595,-29.6876 L 65.9679,-29.8995 L 66.4085,-30.0749 L 66.8801,-30.2128 L 67.3814,-30.3121 L 67.9113,-30.3717 L 68.4687,-30.3904 L 69.0952,-30.3621 L 69.6881,-30.2813 L 70.2483,-30.1479 L 70.7764,-29.9614 L 71.2732,-29.7216 L 71.7393,-29.4283 L 72.1755,-29.081 L 72.5825,-28.6796 L 73.3314,-27.862 L 74.1223,-28.4006 L 74.4295,-28.6401 L 74.6813,-28.8939 L 74.7783,-29.0167 L 74.8518,-29.1318 L 74.8983,-29.2353 L 74.9105,-29.2816 L 74.9148,-29.3235 L 74.8991,-29.4569 L 74.8525,-29.604 L 74.7771,-29.763 L 74.6749,-29.9318 L 74.3984,-30.2909 L 74.0399,-30.6653 L 73.616,-31.0392 L 73.1433,-31.3966 L 72.6384,-31.7216 L 72.1182,-31.9983 L 71.708,-32.1854 L 71.3428,-32.3325 L 70.9979,-32.4443 L 70.6483,-32.5254 L 70.2693,-32.5804 L 69.8362,-32.614 L 69.3241,-32.6307 L 69.0307,-32.6343 L 68.7083,-32.6353 L 68.0843,-32.6213 L 67.4864,-32.5791 L 66.9144,-32.5085 L 66.3682,-32.4095 L 65.8476,-32.282 L 65.3524,-32.1259 L 64.8825,-31.9411 L 64.4375,-31.7275 L 64.0175,-31.485 L 63.622,-31.2135 L 63.2511,-30.9129 L 62.9045,-30.5831 L 62.582,-30.2241 L 62.2834,-29.8356 L 62.0085,-29.4177 L 61.7573,-28.9702 L 61.5866,-28.6253 L 61.4506,-28.3085 L 61.3455,-28.0004 L 61.2675,-27.6817 L 61.2127,-27.3331 L 61.1774,-26.9353 L 61.1579,-26.4691 L 61.1528,-26.2043 L 61.1502,-25.9151 L 61.1535,-25.4378 L 61.1691,-24.9973 L 61.1976,-24.5905 L 61.2392,-24.2145 L 61.2945,-23.8662 L 61.3637,-23.5426 L 61.4474,-23.2408 L 61.5459,-22.9577 L 61.6756,-22.6604 L 61.8357,-22.3618 L 62.0258,-22.0623 L 62.2457,-21.762 L 62.4952,-21.4612 L 62.774,-21.16 L 63.0818,-20.8588 L 63.4183,-20.5577 L 63.7834,-20.257 L 64.1766,-19.9568 L 64.5978,-19.6575 L 65.0468,-19.3593 L 65.5231,-19.0623 L 66.0266,-18.7668 L 66.557,-18.473 L 67.1141,-18.1812 L 67.6472,-17.9074 L 68.1551,-17.6424 L 68.6384,-17.3854 L 69.0979,-17.136 L 69.5339,-16.8936 L 69.9472,-16.6575 L 70.7078,-16.2024 L 71.3845,-15.7659 L 71.9818,-15.3437 L 72.5046,-14.9309 L 72.9575,-14.5232 L 73.3454,-14.1159 L 73.6728,-13.7044 L 73.9446,-13.2842 L 74.1655,-12.8507 L 74.3401,-12.3992 L 74.4733,-11.9253 L 74.5696,-11.4243 L 74.634,-10.8917 L 74.661,-10.3681 L 74.6475,-9.85379 L 74.5944,-9.35069 L 74.5031,-8.86079 L 74.3747,-8.38609 L 74.2105,-7.9285 L 74.0117,-7.4901 L 73.7795,-7.0728 L 73.515,-6.67859 L 73.2196,-6.30939 L 72.8944,-5.96729 L 72.5406,-5.6543 L 72.1594,-5.37219 L 71.7521,-5.12309 L 71.3198,-4.909 L 70.8638,-4.7318 L 70.2174,-4.54239 L 69.5686,-4.40889 L 68.9212,-4.32979 L 68.2791,-4.30399 L 67.646,-4.33009 L 67.0258,-4.40689 L 66.4223,-4.53279 L 65.8392,-4.70679 L 65.2803,-4.9274 L 64.7495,-5.19339 L 64.2506,-5.50339 L 63.7873,-5.85609 L 63.3635,-6.2502 L 62.9829,-6.68439 L 62.6494,-7.15739 L 62.3668,-7.66779 L 62.1607,-8.05539 L 61.9569,-8.37279 L 61.8632,-8.49489 L 61.7788,-8.5873 L 61.7067,-8.6456 L 61.6762,-8.6608 L 61.6625,-8.66469 L 61.6499,-8.66599 L 61.564,-8.65559 L 61.4595,-8.62599 L 61.2079,-8.51799 L 60.9218,-8.36049 L 60.628,-8.1718 L 60.3531,-7.97029 L 60.1239,-7.77409 L 59.9671,-7.60179 L 59.9242,-7.5304 L 59.9131,-7.4993 L 59.9095,-7.47169 L 59.9231,-7.396 L 59.9615,-7.28079 L 60.0218,-7.13179 L 60.1015,-6.9547 L 60.3081,-6.53889 L 60.5601,-6.0793 L 60.7932,-5.6978 L 61.0457,-5.33199 L 61.3168,-4.9823 L 61.6056,-4.6494 L 61.9113,-4.33389 L 62.233,-4.03629 L 62.57,-3.7571 L 62.9214,-3.49709 L 63.2863,-3.2567 L 63.664,-3.03659 L 64.0536,-2.8373 L 64.4542,-2.65939 L 64.8651,-2.50349 L 65.2853,-2.37019 L 65.7142,-2.25999 L 66.1508,-2.17349 L 66.9604,-2.06409 L 67.7588,-2.0103 z M 146.95,-2.04568 L 148.301,-2.12569 L 149.656,-2.295 L 150.99,-2.5499 L 151.642,-2.7081 L 152.279,-2.8862 L 152.899,-3.08379 L 153.499,-3.30029 L 154.074,-3.53519 L 154.623,-3.78809 L 156.121,-4.5217 L 156.188,-5.8098 L 156.201,-6.30989 L 156.197,-6.52869 L 156.187,-6.7195 L 156.171,-6.87709 L 156.149,-6.99629 L 156.136,-7.03969 L 156.122,-7.07159 L 156.114,-7.08299 L 156.102,-7.09409 L 156.09,-7.09789 L 156.062,-7.0927 L 156.015,-7.07759 L 155.865,-7.01929 L 155.649,-6.92709 L 155.376,-6.80519 L 155.055,-6.65749 L 154.695,-6.4883 L 154.305,-6.3015 L 153.894,-6.10139 L 152.75,-5.5826 L 151.608,-5.15079 L 150.472,-4.80579 L 149.346,-4.54709 L 148.23,-4.3745 L 147.13,-4.2876 L 146.047,-4.286 L 144.984,-4.36949 L 143.943,-4.5376 L 142.929,-4.79008 L 141.944,-5.12659 L 140.99,-5.5468 L 140.07,-6.05019 L 139.187,-6.63669 L 138.345,-7.30579 L 137.545,-8.0573 L 137.049,-8.58559 L 136.591,-9.12199 L 136.171,-9.66779 L 135.787,-10.2242 L 135.44,-10.7924 L 135.129,-11.3738 L 134.853,-11.9696 L 134.613,-12.581 L 134.407,-13.2093 L 134.236,-13.8558 L 134.098,-14.5217 L 133.993,-15.2083 L 133.922,-15.9168 L 133.883,-16.6485 L 133.875,-17.4047 L 133.9,-18.1866 L 133.948,-18.8607 L 134.025,-19.5207 L 134.13,-20.1662 L 134.263,-20.7968 L 134.423,-21.4119 L 134.609,-22.011 L 134.821,-22.5936 L 135.059,-23.1594 L 135.321,-23.7077 L 135.608,-24.2381 L 135.919,-24.7501 L 136.254,-25.2432 L 136.611,-25.717 L 136.99,-26.1709 L 137.391,-26.6045 L 137.814,-27.0172 L 138.257,-27.4087 L 138.72,-27.7783 L 139.203,-28.1257 L 139.706,-28.4503 L 140.227,-28.7517 L 140.766,-29.0293 L 141.323,-29.2826 L 141.896,-29.5113 L 142.487,-29.7148 L 143.093,-29.8926 L 143.715,-30.0442 L 144.352,-30.1691 L 145.004,-30.267 L 145.669,-30.3371 L 146.348,-30.3792 L 147.04,-30.3927 L 147.6,-30.3844 L 148.141,-30.3607 L 149.169,-30.2644 L 150.142,-30.0987 L 151.076,-29.8587 L 151.986,-29.5395 L 152.89,-29.1361 L 153.803,-28.6436 L 154.268,-28.3624 L 155.22,-27.7472 L 155.439,-27.6117 L 155.636,-27.4935 L 155.806,-27.3959 L 155.944,-27.3221 L 156.043,-27.2754 L 156.09,-27.2602 L 156.103,-27.2596 L 156.115,-27.2664 L 156.122,-27.2752 L 156.129,-27.2875 L 156.154,-27.3685 L 156.175,-27.4967 L 156.19,-27.6664 L 156.199,-27.8717 L 156.202,-28.1071 L 156.188,-28.6454 L 156.121,-30.0316 L 154.525,-30.8894 L 153.58,-31.362 L 152.651,-31.7513 L 151.716,-32.0617 L 150.753,-32.2978 L 149.74,-32.464 L 149.207,-32.5223 L 148.654,-32.5649 L 148.076,-32.5922 L 147.473,-32.605 L 146.84,-32.6036 L 146.175,-32.5887 L 145.558,-32.5644 L 144.975,-32.5307 L 144.424,-32.4867 L 143.901,-32.4316 L 143.402,-32.3645 L 142.925,-32.2845 L 142.02,-32.0822 L 141.16,-31.8176 L 140.317,-31.4836 L 139.466,-31.0732 L 139.028,-30.8371 L 138.579,-30.5792 L 138.206,-30.347 L 137.827,-30.0868 L 137.062,-29.4921 L 136.302,-28.8145 L 135.565,-28.0733 L 134.868,-27.288 L 134.231,-26.478 L 133.672,-25.6625 L 133.427,-25.2589 L 133.208,-24.8611 L 132.769,-23.9658 L 132.406,-23.1051 L 132.114,-22.2545 L 131.887,-21.3894 L 131.72,-20.485 L 131.608,-19.5169 L 131.57,-19.0011 L 131.544,-18.4602 L 131.529,-17.8911 L 131.524,-17.2906 L 131.537,-16.4472 L 131.578,-15.6383 L 131.648,-14.8616 L 131.747,-14.1148 L 131.876,-13.3956 L 132.036,-12.7017 L 132.229,-12.0308 L 132.454,-11.3806 L 132.713,-10.7488 L 133.007,-10.1331 L 133.336,-9.53119 L 133.702,-8.9408 L 134.105,-8.35959 L 134.546,-7.78529 L 135.026,-7.21559 L 135.546,-6.64819 L 136.015,-6.17319 L 136.492,-5.726 L 136.977,-5.3062 L 137.47,-4.91339 L 137.974,-4.5472 L 138.488,-4.20729 L 139.013,-3.8933 L 139.549,-3.60469 L 140.099,-3.34138 L 140.662,-3.10269 L 141.239,-2.8884 L 141.83,-2.6982 L 142.438,-2.53149 L 143.061,-2.3882 L 143.702,-2.26759 L 144.361,-2.16959 L 144.986,-2.10199 L 145.628,-2.0591 L 146.284,-2.0405 z M 8.28879,-1.98289 L 8.6433,-1.989 L 8.99509,-2.00139 L 9.34239,-2.0199 L 9.68379,-2.04449 L 10.0176,-2.0752 L 10.3423,-2.11169 L 10.6564,-2.15388 L 10.8469,-2.18309 L 11.591,-2.32599 L 12.2912,-2.50899 L 12.9483,-2.7327 L 13.5631,-2.99809 L 14.1362,-3.30579 L 14.6685,-3.65659 L 15.1605,-4.05128 L 15.6132,-4.4908 L 16.0271,-4.97569 L 16.403,-5.5069 L 16.7417,-6.08499 L 17.0439,-6.711 L 17.3103,-7.38559 L 17.5416,-8.1095 L 17.7385,-8.88359 L 17.9019,-9.70859 L 17.996,-10.3563 L 18.0356,-10.7223 L 18.0704,-11.1273 L 18.1007,-11.5794 L 18.1266,-12.0868 L 18.1484,-12.6577 L 18.1661,-13.3001 L 18.18,-14.0223 L 18.1903,-14.8324 L 18.1971,-15.7385 L 18.2012,-17.2956 L 18.1963,-19.784 L 18.1857,-21.9951 L 18.1275,-32.2995 L 15.8874,-32.2995 L 15.7388,-18.5466 L 15.7014,-15.7627 L 15.672,-14.0896 L 15.6509,-13.1504 L 15.628,-12.3391 L 15.6029,-11.6444 L 15.5751,-11.0549 L 15.5442,-10.5593 L 15.5096,-10.1463 L 15.4709,-9.80469 L 15.4277,-9.52299 L 15.3794,-9.29008 L 15.3257,-9.0945 L 15.266,-8.92499 L 14.9967,-8.28409 L 14.7119,-7.69919 L 14.4086,-7.16849 L 14.0841,-6.69049 L 13.7352,-6.26349 L 13.3593,-5.8857 L 12.9532,-5.55559 L 12.5142,-5.27139 L 12.0392,-5.03149 L 11.5254,-4.8342 L 10.9699,-4.6778 L 10.3698,-4.5607 L 9.72198,-4.48109 L 9.02379,-4.4375 L 8.27219,-4.42809 L 7.46429,-4.45139 L 6.89749,-4.4874 L 6.36409,-4.54149 L 5.86249,-4.61459 L 5.39139,-4.70729 L 4.94949,-4.8205 L 4.53549,-4.9547 L 4.1478,-5.11089 L 3.78519,-5.2896 L 3.44629,-5.49179 L 3.12979,-5.71799 L 2.8342,-5.96899 L 2.55829,-6.24559 L 2.3006,-6.5486 L 2.0598,-6.87859 L 1.83449,-7.23639 L 1.62329,-7.62279 L 1.29829,-8.33099 L 1.16359,-8.70309 L 1.0459,-9.1073 L 0.944092,-9.55869 L 0.856995,-10.0723 L 0.783493,-10.6633 L 0.751495,-10.9926 L 0.722488,-11.3468 L 0.696289,-11.7278 L 0.672791,-12.1377 L 0.651794,-12.5782 L 0.633286,-13.0512 L 0.616989,-13.5586 L 0.602798,-14.1023 L 0.590591,-14.6842 L 0.580185,-15.3062 L 0.564499,-16.6779 L 0.554291,-18.2325 L 0.548691,-19.985 L 0.546387,-21.9506 L 0.543686,-32.4349 L -1.80849,-32.2995 L -1.80769,-19.0968 L -1.8044,-17.2332 L -1.7968,-15.6 L -1.79079,-14.8635 L -1.78319,-14.177 L -1.77359,-13.5382 L -1.7618,-12.9444 L -1.7477,-12.3931 L -1.73099,-11.882 L -1.71159,-11.4084 L -1.68909,-10.9699 L -1.6635,-10.5639 L -1.6344,-10.188 L -1.6017,-9.8396 L -1.56509,-9.5163 L -1.47949,-8.9348 L -1.37599,-8.4236 L -1.25279,-7.96239 L -1.10829,-7.53139 L -0.940598,-7.1106 L -0.748093,-6.67979 L -0.529099,-6.21909 L -0.332687,-5.84589 L -0.108398,-5.48279 L 0.143097,-5.13129 L 0.420486,-4.79279 L 0.722687,-4.46899 L 1.04839,-4.16089 L 1.39629,-3.87009 L 1.76489,-3.59769 L 2.15269,-3.34489 L 2.558,-3.11269 L 2.9791,-2.90199 L 3.4142,-2.7139 L 3.8615,-2.54909 L 4.31909,-2.40819 L 4.7851,-2.29189 L 5.25609,-2.2016 L 5.54489,-2.1568 L 5.90749,-2.10899 L 6.19319,-2.07729 L 6.6003,-2.0407 L 6.87489,-2.02129 L 7.32109,-1.9982 L 7.5777,-1.98959 L 7.933,-1.98309 z M 26.5294,-16.2848 L 28.3775,-16.2875 L 29.2426,-16.3068 L 30.0714,-16.361 L 30.8632,-16.4497 L 31.6176,-16.5727 L 32.334,-16.7297 L 33.0119,-16.9205 L 33.6506,-17.1448 L 34.2497,-17.4023 L 34.8086,-17.6928 L 35.3266,-18.0161 L 35.8034,-18.3717 L 36.2383,-18.7596 L 36.6308,-19.1794 L 36.9803,-19.6309 L 37.2863,-20.1138 L 37.5482,-20.6278 L 37.6982,-20.9791 L 37.8168,-21.3125 L 37.9076,-21.6534 L 37.974,-22.0267 L 38.0196,-22.4577 L 38.0356,-22.7027 L 38.0478,-22.9715 L 38.0565,-23.2673 L 38.0621,-23.5933 L 38.0652,-23.9525 L 38.0652,-24.733 L 38.062,-25.0842 L 38.0563,-25.4044 L 38.0477,-25.6963 L 38.0205,-26.2053 L 37.9777,-26.6325 L 37.9164,-26.9988 L 37.834,-27.3254 L 37.7276,-27.6333 L 37.5944,-27.9437 L 37.305,-28.5141 L 36.9841,-29.0388 L 36.6288,-29.5188 L 36.2362,-29.9557 L 35.8033,-30.3505 L 35.3272,-30.7046 L 34.8048,-31.0194 L 34.2333,-31.2959 L 33.6097,-31.5356 L 32.9311,-31.7398 L 32.1944,-31.9096 L 31.3968,-32.0464 L 30.5352,-32.1514 L 29.6068,-32.226 L 28.6085,-32.2714 L 27.5375,-32.2889 L 24.1772,-32.2995 L 24.0621,-2.396 L 26.5294,-2.396 z M 26.5291,-18.5227 L 26.5291,-29.9474 L 28.3862,-29.9474 L 29.0136,-29.9362 L 29.6154,-29.9027 L 30.1911,-29.8472 L 30.7403,-29.7698 L 31.2624,-29.6707 L 31.7571,-29.5501 L 32.2239,-29.4082 L 32.6623,-29.2451 L 33.0718,-29.0611 L 33.452,-28.8564 L 33.8024,-28.6311 L 34.1226,-28.3855 L 34.4121,-28.1196 L 34.6704,-27.8338 L 34.8971,-27.5282 L 35.0916,-27.203 L 35.2334,-26.9183 L 35.3472,-26.6419 L 35.4359,-26.3573 L 35.5021,-26.0481 L 35.5489,-25.6977 L 35.5789,-25.2897 L 35.595,-24.8076 L 35.5988,-24.5337 L 35.5995,-23.9147 L 35.5967,-23.6256 L 35.591,-23.3649 L 35.582,-23.1294 L 35.5512,-22.722 L 35.4994,-22.3794 L 35.4219,-22.0772 L 35.3137,-21.7913 L 35.17,-21.4974 L 34.986,-21.1714 L 34.6604,-20.701 L 34.2655,-20.282 L 33.7982,-19.9128 L 33.2552,-19.5918 L 32.6336,-19.3174 L 32.2923,-19.1972 L 31.9302,-19.0881 L 31.5467,-18.9898 L 31.1417,-18.9021 L 30.7147,-18.8249 L 30.2652,-18.758 L 28.7362,-18.5918 L 28.3749,-18.563 L 28.0444,-18.5413 L 27.756,-18.5275 L 27.521,-18.5227 z M 128.344,-2.50529 L 128.344,-4.52139 L 116.352,-4.64069 L 116.471,-17.9622 L 128.48,-18.0818 L 128.344,-20.2026 L 116.35,-20.3219 L 116.471,-30.0592 L 128.48,-30.1787 L 128.344,-32.2995 L 114.231,-32.2995 L 114.116,-2.38669 z M 103.362,-2.39369 L 103.478,-30.0594 L 110.558,-30.1827 L 110.422,-32.2993 L 94.0693,-32.2993 L 93.9333,-30.1827 L 101.014,-30.0594 L 101.129,-2.39369 z M 86.4843,0.449799 L 86.6175,0.415985 L 86.6711,0.394089 L 86.7166,0.367996 L 86.7545,0.337097 L 86.7851,0.30069 L 86.809,0.258194 L 86.8267,0.208893 L 86.8449,0.0873871 L 86.8434,-0.068985 L 86.818,-0.349594 L 86.8019,-0.601288 L 86.7937,-0.764999 L 86.7776,-1.15889 L 86.7621,-1.62849 L 86.7476,-2.15869 L 86.7347,-2.73439 L 86.7155,-3.96169 L 86.7113,-4.39589 L 86.7097,-4.79359 L 86.7107,-5.157 L 86.7145,-5.48839 L 86.7214,-5.78979 L 86.7315,-6.06369 L 86.7451,-6.31209 L 86.7623,-6.53729 L 86.8084,-6.9269 L 86.8714,-7.25049 L 86.953,-7.5255 L 87.0546,-7.76999 L 87.1446,-7.96399 L 87.2573,-8.21579 L 87.388,-8.51469 L 87.5323,-8.8501 L 87.8436,-9.58839 L 88.155,-10.3461 L 88.2828,-10.6626 L 88.3948,-10.9473 L 88.5766,-11.4615 L 88.7104,-11.9689 L 88.7625,-12.2452 L 88.8064,-12.5499 L 88.8433,-12.8931 L 88.8744,-13.2848 L 88.9011,-13.7351 L 88.9246,-14.254 L 88.9461,-14.8515 L 89.0402,-18.2394 L 89.0729,-19.1994 L 89.1082,-20.075 L 89.145,-20.8448 L 89.1821,-21.4872 L 89.2004,-21.7541 L 89.2184,-21.9811 L 89.2359,-22.1655 L 89.2528,-22.3048 L 89.2689,-22.3962 L 89.2842,-22.4371 L 89.2919,-22.4421 L 89.3,-22.4425 L 89.3175,-22.4295 L 89.3365,-22.3991 L 89.357,-22.352 L 89.4016,-22.2113 L 89.4504,-22.0143 L 89.5024,-21.7678 L 89.5564,-21.4786 L 89.6116,-21.1535 L 89.6667,-20.7994 L 89.7732,-20.0314 L 89.8676,-19.2292 L 89.9418,-18.4474 L 89.9688,-18.0812 L 89.9876,-17.7406 L 90.0185,-17.3355 L 90.0759,-17.0171 L 90.1672,-16.7797 L 90.2277,-16.6895 L 90.2995,-16.6173 L 90.3833,-16.5624 L 90.4801,-16.524 L 90.5907,-16.5014 L 90.7162,-16.4938 L 91.0152,-16.5209 L 91.3841,-16.5992 L 91.56,-16.6512 L 91.7112,-16.72 L 91.837,-16.816 L 91.8903,-16.8775 L 91.937,-16.9499 L 92.0105,-17.1322 L 92.0569,-17.3734 L 92.0757,-17.6842 L 92.0664,-18.0752 L 92.0509,-18.304 L 92.0282,-18.5568 L 91.9982,-18.8349 L 91.9607,-19.1397 L 91.9158,-19.4724 L 91.8633,-19.8343 L 91.8032,-20.2269 L 91.7354,-20.6514 L 91.6599,-21.1092 L 91.4852,-22.1297 L 91.2785,-23.299 L 90.9074,-25.3551 L 90.7471,-26.2254 L 90.5881,-27.0668 L 90.4345,-27.859 L 90.2905,-28.5813 L 90.1601,-29.2132 L 90.0477,-29.7341 L 89.9995,-29.9466 L 89.9573,-30.1236 L 89.9217,-30.2626 L 89.8931,-30.3611 L 89.738,-30.72 L 89.6363,-30.876 L 89.5164,-31.0169 L 89.3769,-31.1434 L 89.2162,-31.256 L 89.0328,-31.3553 L 88.8252,-31.4418 L 88.592,-31.516 L 88.3315,-31.5786 L 88.0424,-31.6301 L 87.7231,-31.6709 L 87.372,-31.7017 L 86.9878,-31.7231 L 86.5687,-31.7355 L 86.1135,-31.7395 L 85.4812,-31.7367 L 85.2177,-31.7323 L 84.9853,-31.7249 L 84.7812,-31.714 L 84.6022,-31.6989 L 84.3084,-31.6534 L 84.0802,-31.5832 L 83.894,-31.4831 L 83.7264,-31.3478 L 83.5537,-31.1722 L 83.3072,-30.8669 L 83.1142,-30.5125 L 83.0359,-30.3014 L 82.9686,-30.0596 L 82.9116,-29.7808 L 82.8643,-29.4589 L 82.8257,-29.0877 L 82.7951,-28.6611 L 82.7718,-28.1728 L 82.7549,-27.6168 L 82.7438,-26.9869 L 82.7377,-26.2769 L 82.7362,-25.0483 L 82.7403,-24.0097 L 82.7455,-23.464 L 82.7529,-22.9532 L 82.7628,-22.4757 L 82.7752,-22.0299 L 82.7902,-21.6141 L 82.8079,-21.2266 L 82.8285,-20.8659 L 82.8519,-20.5304 L 82.8784,-20.2182 L 82.9409,-19.6578 L 83.0167,-19.1717 L 83.1066,-18.7467 L 83.1475,-18.5615 L 83.1881,-18.3433 L 83.2282,-18.0934 L 83.2677,-17.8132 L 83.3064,-17.5041 L 83.3444,-17.1673 L 83.3814,-16.8044 L 83.4173,-16.4167 L 83.4854,-15.5723 L 83.5478,-14.6451 L 83.6034,-13.6461 L 83.6514,-12.5863 L 83.6869,-11.7434 L 83.7234,-10.9608 L 83.7616,-10.2332 L 83.8019,-9.5551 L 83.845,-8.92119 L 83.8914,-8.32619 L 83.9419,-7.76459 L 83.9969,-7.23119 L 84.1229,-6.22719 L 84.2742,-5.27119 L 84.4555,-4.32039 L 84.6716,-3.33179 L 84.798,-2.71439 L 84.9014,-2.0788 L 84.9412,-1.77739 L 84.9713,-1.4995 L 84.9903,-1.25449 L 84.9969,-1.0517 L 85.0242,-0.677689 L 85.1,-0.327591 L 85.2154,-0.0319977 L 85.285,0.0858917 L 85.3611,0.178696 L 85.4465,0.250793 L 85.5491,0.315292 L 85.7907,0.416489 L 86.0555,0.472794 L 86.3131,0.474686 z M 64.8146,2.04039 L 65.0559,1.95329 L 65.3167,1.8138 L 65.5896,1.62239 L 65.8132,1.43039 L 65.9811,1.24919 L 66.0936,1.077 L 66.1291,0.993698 L 66.1509,0.911987 L 66.159,0.831589 L 66.1534,0.752396 L 66.1343,0.673996 L 66.1015,0.596298 L 65.9955,0.442093 L 65.8356,0.287796 L 65.7324,0.212387 L 65.6348,0.166885 L 65.5862,0.155991 L 65.5366,0.153397 L 65.4855,0.159195 L 65.432,0.173889 L 65.3148,0.230499 L 65.179,0.325394 L 65.0186,0.460693 L 64.8276,0.63829 L 64.5698,0.917297 L 64.3587,1.20689 L 64.216,1.47269 L 64.1772,1.586 L 64.1636,1.6805 L 64.1715,1.77679 L 64.1947,1.85959 L 64.2321,1.92889 L 64.2828,1.98479 L 64.346,2.0273 L 64.4205,2.05649 L 64.5056,2.0723 L 64.6003,2.07489 z M 0.746597,2.04039 L 0.987991,1.95329 L 1.24879,1.8138 L 1.52159,1.62239 L 1.74529,1.43039 L 1.91319,1.24919 L 2.02559,1.077 L 2.0611,0.993698 L 2.08289,0.911987 L 2.09099,0.831589 L 2.08549,0.752396 L 2.0663,0.673996 L 2.0336,0.596298 L 1.92749,0.442093 L 1.76768,0.287796 L 1.66449,0.212387 L 1.56679,0.166885 L 1.51819,0.155991 L 1.46869,0.153397 L 1.4175,0.159195 L 1.364,0.173889 L 1.2468,0.230499 L 1.11099,0.325394 L 0.950592,0.460693 L 0.759598,0.63829 L 0.501785,0.917297 L 0.290695,1.20689 L 0.147995,1.47269 L 0.109192,1.586 L 0.0956879,1.6805 L 0.103592,1.77679 L 0.126694,1.85959 L 0.164093,1.92889 L 0.21489,1.98479 L 0.278,2.0273 L 0.352585,2.05649 L 0.437698,2.0723 L 0.532394,2.07489 z M 40.7155,5.2184 L 40.7736,5.20518 L 40.8911,5.1514 L 41.0115,5.05959 L 41.1364,4.92809 L 41.2671,4.75529 L 41.405,4.5396 L 41.5516,4.27919 L 41.7082,3.9724 L 41.9059,3.56599 L 41.9843,3.3994 L 42.0495,3.25429 L 42.1411,3.0199 L 42.1826,2.8456 L 42.1852,2.7757 L 42.176,2.71419 L 42.1553,2.65919 L 42.1232,2.6084 L 42.0262,2.51079 L 41.887,2.4043 L 41.5001,2.17989 L 41.3201,2.11169 L 41.2436,2.09309 L 41.1799,2.08659 L 41.1652,2.08849 L 41.1496,2.09419 L 41.1158,2.11629 L 41.0387,2.20039 L 40.9514,2.3317 L 40.8566,2.50299 L 40.7569,2.70689 L 40.6549,2.93619 L 40.455,3.44189 L 40.2783,3.9621 L 40.146,4.4386 L 40.1032,4.64229 L 40.0795,4.81329 L 40.0776,4.94429 L 40.0857,4.99249 L 40.0921,5.01189 L 40.1002,5.028 L 40.1147,5.0479 L 40.1332,5.0672 L 40.1814,5.1037 L 40.3135,5.16559 L 40.4784,5.20749 L 40.6577,5.22279 z M 14.6859,9.42369 L 15.211,9.38629 L 15.7634,9.308 L 16.3588,9.18748 L 16.6723,9.1021 L 16.9653,8.96309 L 17.2361,8.7755 L 17.4831,8.5441 L 17.7045,8.2737 L 17.8988,7.96899 L 18.0641,7.63499 L 18.199,7.27649 L 18.3016,6.89819 L 18.3703,6.50499 L 18.4034,6.10179 L 18.3993,5.69319 L 18.3562,5.28429 L 18.2725,4.8797 L 18.1466,4.4843 L 17.9766,4.10289 L 17.6892,3.6321 L 17.3503,3.224 L 16.9675,2.87859 L 16.548,2.59579 L 16.0994,2.37569 L 15.6289,2.21829 L 15.144,2.1236 L 14.6522,2.0916 L 14.1607,2.12239 L 13.6769,2.2159 L 13.2084,2.37209 L 12.7624,2.59109 L 12.3465,2.87289 L 11.9678,3.2175 L 11.634,3.62479 L 11.3523,4.09499 L 11.0939,4.70129 L 10.9992,5.0067 L 10.9281,5.31219 L 10.8806,5.61699 L 10.857,5.91989 L 10.8574,6.21999 L 10.8817,6.5163 L 10.9299,6.80789 L 11.0017,7.0938 L 11.0971,7.37299 L 11.2156,7.6447 L 11.3569,7.90799 L 11.5205,8.16199 L 11.7059,8.4059 L 11.9124,8.63849 L 12.0821,8.8017 L 12.2558,8.93979 L 12.4336,9.0528 L 12.6153,9.14069 L 12.7117,9.19989 L 12.8405,9.25259 L 13.0014,9.29869 L 13.193,9.33809 L 13.6519,9.39589 L 14.165,9.42519 z M 14.185,8.3165 L 13.7551,8.19319 L 13.3734,7.99579 L 13.0464,7.73079 L 12.7806,7.40469 L 12.5826,7.0239 L 12.4591,6.5952 L 12.4164,6.125 L 12.439,5.68709 L 12.5056,5.28029 L 12.6145,4.90749 L 12.7641,4.5719 L 12.9527,4.27679 L 13.1785,4.02519 L 13.4399,3.8203 L 13.7351,3.66519 L 13.9508,3.58749 L 14.164,3.5331 L 14.5802,3.4903 L 14.9787,3.52869 L 15.3544,3.64009 L 15.7022,3.8165 L 16.0172,4.0495 L 16.2941,4.33109 L 16.528,4.65309 L 16.7138,5.00739 L 16.8464,5.3857 L 16.9208,5.77989 L 16.9319,6.18188 L 16.8746,6.5835 L 16.7439,6.97649 L 16.5347,7.3528 L 16.2419,7.70419 L 16.0562,7.87979 L 15.8801,8.02319 L 15.707,8.13708 L 15.5303,8.2242 L 15.3434,8.28719 L 15.1399,8.32889 L 14.9131,8.3519 L 14.6565,8.35899 z M 58.753,9.40179 L 59.245,9.3167 L 59.7722,9.18719 L 60.34,9.01489 L 60.6206,8.8174 L 60.8628,8.55099 L 60.9445,8.4276 L 61.0258,8.27969 L 61.183,7.92639 L 61.3262,7.52229 L 61.4476,7.09889 L 61.539,6.68759 L 61.5926,6.31989 L 61.6026,6.16209 L 61.6002,6.0271 L 61.5843,5.91849 L 61.571,5.87549 L 61.5507,5.8362 L 61.5345,5.8232 L 61.4985,5.8064 L 61.3804,5.7746 L 61.2071,5.74579 L 60.9857,5.7206 L 60.7237,5.6998 L 60.4284,5.6841 L 59.7671,5.67068 L 58.0854,5.67068 L 58.1563,6.2867 L 58.1832,6.46729 L 58.222,6.61099 L 58.2792,6.72269 L 58.3168,6.76819 L 58.3613,6.80739 L 58.4747,6.86989 L 58.6258,6.91489 L 58.8212,6.94749 L 59.3894,7.00409 L 59.6264,7.04349 L 59.7138,7.06839 L 59.781,7.09779 L 59.8071,7.11449 L 59.8283,7.13269 L 59.8446,7.1525 L 59.8562,7.174 L 59.8629,7.1973 L 59.8648,7.2226 L 59.8621,7.24989 L 59.8548,7.2793 L 59.8263,7.34499 L 59.7797,7.42068 L 59.6339,7.60539 L 59.4202,7.84039 L 59.2165,8.02489 L 58.9932,8.1693 L 58.7541,8.27489 L 58.5032,8.3429 L 58.2442,8.37469 L 57.9811,8.3714 L 57.7177,8.33449 L 57.4578,8.26509 L 57.2054,8.1646 L 56.9643,8.03419 L 56.7384,7.8752 L 56.5315,7.689 L 56.3475,7.4767 L 56.1902,7.23969 L 56.0636,6.97919 L 55.9714,6.69659 L 55.8976,6.2679 L 55.8905,5.85469 L 55.9444,5.46129 L 56.0534,5.09189 L 56.2118,4.75069 L 56.4136,4.44209 L 56.6532,4.1702 L 56.9247,3.93939 L 57.2223,3.7538 L 57.5401,3.6178 L 57.8724,3.53549 L 58.2133,3.51129 L 58.5571,3.54939 L 58.8979,3.6541 L 59.2298,3.8295 L 59.5472,4.07999 L 59.7218,4.22359 L 59.896,4.3295 L 60.0669,4.40009 L 60.2316,4.43759 L 60.3872,4.44449 L 60.5308,4.4231 L 60.6594,4.37589 L 60.7702,4.3051 L 60.8602,4.21309 L 60.9264,4.10229 L 60.9661,3.9751 L 60.9762,3.83379 L 60.9539,3.68079 L 60.8961,3.51849 L 60.8001,3.3492 L 60.6629,3.17529 L 60.3767,2.89049 L 60.0737,2.6516 L 59.7517,2.45749 L 59.4085,2.30769 L 59.0418,2.2011 L 58.6492,2.13708 L 58.2287,2.11469 L 57.7779,2.13329 L 57.3916,2.17989 L 57.0289,2.25349 L 56.6899,2.3539 L 56.3749,2.4809 L 56.0841,2.63429 L 55.8176,2.8138 L 55.5756,3.01929 L 55.3583,3.2504 L 55.1659,3.5071 L 54.9985,3.78909 L 54.8564,4.0961 L 54.7397,4.42789 L 54.6486,4.78439 L 54.5833,5.16519 L 54.544,5.5703 L 54.5309,5.9993 L 54.5412,6.46609 L 54.5748,6.87459 L 54.6358,7.23639 L 54.7283,7.56299 L 54.8562,7.86609 L 55.0238,8.15739 L 55.235,8.44849 L 55.494,8.75089 L 55.6443,8.89479 L 55.8104,9.01489 L 55.8363,9.03539 L 55.8714,9.05659 L 55.969,9.10059 L 56.1798,9.17969 L 56.8286,9.31479 L 57.3111,9.38939 L 57.8023,9.4352 L 58.2798,9.44099 z M 8.6093,9.45749 L 8.9334,9.43079 L 9.22119,9.38699 L 9.46689,9.32539 L 9.668,9.24599 L 9.82399,9.1489 L 9.88499,9.09389 L 9.93489,9.03459 L 9.9854,9.00069 L 10.0253,8.95869 L 10.0563,8.90779 L 10.0801,8.84729 L 10.113,8.6953 L 10.1379,8.4973 L 10.1582,8.2959 L 10.1635,8.14409 L 10.1588,8.0853 L 10.1484,8.03719 L 10.1315,7.9991 L 10.1204,7.98369 L 10.1075,7.97049 L 10.0926,7.95959 L 10.0756,7.95079 L 10.0353,7.9395 L 9.98589,7.93579 L 9.92659,7.93929 L 9.77589,7.96539 L 9.43219,8.04779 L 9.26089,8.08449 L 8.86629,8.15948 L 8.4444,8.22929 L 8.04549,8.2849 L 7.63159,8.3019 L 7.24579,8.24919 L 6.89079,8.12859 L 6.5694,7.9422 L 6.28409,7.69179 L 6.03769,7.37949 L 5.83289,7.0071 L 5.67239,6.5766 L 5.57689,6.10799 L 5.57059,5.65269 L 5.64909,5.21919 L 5.80809,4.81619 L 6.04309,4.45189 L 6.3499,4.13509 L 6.72389,3.87419 L 7.16089,3.6776 L 7.4377,3.58629 L 7.6698,3.52269 L 7.87109,3.48769 L 8.05589,3.48199 L 8.2381,3.5062 L 8.43179,3.56099 L 8.65109,3.64719 L 8.9101,3.76549 L 9.252,3.9079 L 9.5403,3.98589 L 9.77399,3.99998 L 9.87019,3.98318 L 9.95229,3.95059 L 10.0204,3.90219 L 10.0743,3.8382 L 10.1138,3.75859 L 10.1389,3.66339 L 10.1454,3.42659 L 10.0927,3.12839 L 10.0595,3.02739 L 10.0122,2.93129 L 9.8783,2.75409 L 9.69699,2.59729 L 9.4744,2.46159 L 9.21629,2.34749 L 8.92859,2.2556 L 8.61749,2.1866 L 8.2887,2.14099 L 7.94829,2.11949 L 7.60229,2.12259 L 7.25648,2.15089 L 6.91689,2.20499 L 6.5896,2.2856 L 6.28029,2.3931 L 5.99519,2.52829 L 5.74019,2.69179 L 5.33009,3.01979 L 4.99789,3.34029 L 4.73639,3.66899 L 4.53859,4.0215 L 4.39709,4.41359 L 4.30499,4.86099 L 4.2549,5.37949 L 4.2435,5.6702 L 4.23979,5.98459 L 4.2408,6.24059 L 4.24409,6.47198 L 4.25999,6.87029 L 4.2923,7.19809 L 4.34579,7.4742 L 4.42529,7.717 L 4.53549,7.94519 L 4.6812,8.17749 L 4.86729,8.4323 L 5.0042,8.60599 L 5.13239,8.75519 L 5.3727,8.98619 L 5.6086,9.13789 L 5.86049,9.22279 L 5.9688,9.26199 L 6.12259,9.29999 L 6.32199,9.33649 L 6.5663,9.37109 L 6.85309,9.403 L 7.17659,9.43079 L 7.89268,9.46609 z M 100.171,9.39789 L 100.623,9.35258 L 101.058,9.27469 L 101.474,9.16519 L 101.609,9.08679 L 101.723,8.98219 L 101.818,8.85019 L 101.893,8.6897 L 101.951,8.4995 L 101.991,8.27849 L 102.014,8.0255 L 102.022,7.7394 L 102.009,7.29549 L 101.963,6.91869 L 101.878,6.59599 L 101.746,6.314 L 101.557,6.0598 L 101.306,5.8201 L 100.983,5.58179 L 100.581,5.3317 L 100.332,5.18359 L 100.11,5.04599 L 99.9137,4.91779 L 99.7425,4.79819 L 99.5958,4.68619 L 99.4729,4.58109 L 99.296,4.3875 L 99.2407,4.2972 L 99.2067,4.2101 L 99.1933,4.12529 L 99.1998,4.04189 L 99.2257,3.95889 L 99.2702,3.87549 L 99.4127,3.7038 L 99.522,3.601 L 99.6203,3.52509 L 99.7119,3.47549 L 99.7566,3.46039 L 99.8015,3.45169 L 99.8469,3.4493 L 99.8936,3.45309 L 99.9927,3.47919 L 100.103,3.52939 L 100.23,3.603 L 100.439,3.7204 L 100.635,3.80309 L 100.818,3.8512 L 100.988,3.86459 L 101.145,3.84329 L 101.292,3.78719 L 101.426,3.69649 L 101.55,3.571 L 101.673,3.38219 L 101.709,3.28949 L 101.729,3.19829 L 101.734,3.10889 L 101.725,3.0217 L 101.701,2.93669 L 101.665,2.85439 L 101.555,2.69899 L 101.401,2.5575 L 101.208,2.43239 L 100.983,2.32579 L 100.731,2.23999 L 100.457,2.1774 L 100.167,2.1402 L 99.867,2.1306 L 99.5625,2.15089 L 99.259,2.2034 L 98.9622,2.2905 L 98.6778,2.4142 L 98.4318,2.5553 L 98.2313,2.70399 L 98.0726,2.86819 L 97.9516,3.0555 L 97.8643,3.27359 L 97.8069,3.53029 L 97.7754,3.8333 L 97.7657,4.19009 L 97.7811,4.5123 L 97.8334,4.7968 L 97.932,5.05589 L 98.0862,5.30209 L 98.3053,5.54749 L 98.5988,5.80449 L 98.9758,6.0853 L 99.1986,6.23849 L 99.4458,6.40219 L 99.7373,6.59909 L 99.9784,6.77759 L 100.173,6.9417 L 100.324,7.0956 L 100.435,7.24319 L 100.51,7.38879 L 100.552,7.53639 L 100.566,7.68999 L 100.559,7.8425 L 100.538,7.96809 L 100.499,8.0696 L 100.471,8.1122 L 100.439,8.14999 L 100.4,8.1832 L 100.355,8.2123 L 100.244,8.2594 L 100.103,8.29419 L 99.93,8.31969 L 99.6426,8.321 L 99.3547,8.26549 L 99.0906,8.16039 L 98.8743,8.0125 L 98.7364,7.9072 L 98.5948,7.83409 L 98.4521,7.79099 L 98.3112,7.77559 L 98.1749,7.7856 L 98.0458,7.8187 L 97.9269,7.8727 L 97.8208,7.94539 L 97.7304,8.03429 L 97.6584,8.13719 L 97.6075,8.25189 L 97.5807,8.3761 L 97.5805,8.50739 L 97.6098,8.64369 L 97.6714,8.78259 L 97.7681,8.9218 L 97.9022,9.0656 L 97.9706,9.1209 L 98.0438,9.16519 L 98.1157,9.19559 L 98.1957,9.2175 L 98.4998,9.2948 L 98.8591,9.35489 L 99.2686,9.3951 L 99.7131,9.411 z M 48.2585,5.34399 L 50.223,7.2995 L 50.6864,7.75279 L 51.107,8.1476 L 51.4839,8.4834 L 51.8164,8.75949 L 52.1038,8.9753 L 52.3452,9.13019 L 52.5399,9.22369 L 52.6195,9.24709 L 52.6872,9.2549 L 52.8506,9.24689 L 52.9168,9.22949 L 52.9464,9.21519 L 52.9738,9.19649 L 52.999,9.17259 L 53.0221,9.1429 L 53.0625,9.06389 L 53.0957,8.9545 L 53.1223,8.80969 L 53.1432,8.6245 L 53.159,8.39409 L 53.1705,8.11339 L 53.1782,7.7775 L 53.183,7.38139 L 53.1866,6.38899 L 53.1868,2.31049 L 51.8427,2.31049 L 51.8381,6.90279 L 49.5338,4.45319 L 49.0077,3.9016 L 48.535,3.42149 L 48.3194,3.209 L 48.1181,3.01529 L 47.9314,2.84059 L 47.7596,2.6852 L 47.603,2.54939 L 47.462,2.4334 L 47.3368,2.33759 L 47.2278,2.26208 L 47.1353,2.2074 L 47.0596,2.17369 L 47.0282,2.16479 L 47.0011,2.16119 L 46.9783,2.16309 L 46.96,2.17029 L 46.9424,2.18419 L 46.9254,2.2036 L 46.8935,2.2594 L 46.8641,2.33849 L 46.8372,2.44159 L 46.8127,2.56929 L 46.7906,2.7224 L 46.7709,2.9014 L 46.7535,3.10719 L 46.7383,3.34029 L 46.7253,3.60149 L 46.7144,3.89139 L 46.7056,4.21069 L 46.6989,4.5602 L 46.6941,4.9404 L 46.6913,5.3521 L 46.6904,9.2549 L 48.2585,9.2549 z M 69.7652,5.05899 L 71.8226,7.157 L 72.0822,7.4198 L 72.3273,7.66389 L 72.7752,8.0972 L 73.1687,8.45869 L 73.5099,8.75029 L 73.8013,8.97389 L 74.045,9.13129 L 74.2434,9.22429 L 74.3263,9.2473 L 74.3987,9.2549 L 74.9175,9.2549 L 74.9175,2.31049 L 73.5735,2.31049 L 73.5575,6.90279 L 71.2544,4.4556 L 70.735,3.91129 L 70.2654,3.435 L 69.8491,3.02959 L 69.662,2.85449 L 69.4894,2.6982 L 69.3319,2.56119 L 69.1899,2.44379 L 69.0637,2.34639 L 68.9538,2.26939 L 68.8606,2.21309 L 68.7845,2.17799 L 68.7531,2.16849 L 68.726,2.1644 L 68.7035,2.16579 L 68.6855,2.1727 L 68.6684,2.18629 L 68.6518,2.20569 L 68.6206,2.26189 L 68.5918,2.34189 L 68.5654,2.4462 L 68.5413,2.57529 L 68.5195,2.72989 L 68.5,2.91039 L 68.4827,3.11749 L 68.4676,3.35159 L 68.4547,3.61339 L 68.4438,3.9034 L 68.4351,4.2222 L 68.4283,4.5703 L 68.4235,4.9482 L 68.4197,5.7959 L 68.4211,9.2549 L 69.7652,9.2549 z M 88.2677,9.40819 L 88.7642,9.3391 L 89.3241,9.23029 L 89.5815,9.17209 L 89.7049,9.116 L 89.8172,9.04109 L 89.9186,8.94589 L 90.0098,8.82909 L 90.0912,8.68929 L 90.1632,8.5253 L 90.2263,8.33559 L 90.281,8.1189 L 90.3277,7.87389 L 90.367,7.5992 L 90.3993,7.2934 L 90.425,6.95518 L 90.4447,6.5833 L 90.4587,6.17639 L 90.4676,5.73299 L 90.4718,5.25179 L 90.4851,2.42239 L 89.0289,2.2822 L 89.0289,4.8873 L 89.027,5.42719 L 89.0203,5.90919 L 89.0077,6.3364 L 88.9881,6.7121 L 88.9605,7.0394 L 88.9236,7.32159 L 88.8763,7.56169 L 88.8175,7.76299 L 88.746,7.9287 L 88.6608,8.062 L 88.5607,8.16599 L 88.4445,8.24399 L 88.3112,8.299 L 88.1596,8.3344 L 87.9885,8.35339 L 87.7969,8.35889 L 87.6054,8.35339 L 87.4344,8.33449 L 87.2829,8.29909 L 87.1496,8.24409 L 87.0334,8.1664 L 86.9333,8.0627 L 86.8481,7.92979 L 86.7766,7.76469 L 86.7177,7.56409 L 86.6704,7.32489 L 86.6334,7.0439 L 86.6057,6.71799 L 86.5861,6.34389 L 86.5735,5.91859 L 86.5668,5.4388 L 86.5648,4.90149 L 86.5648,2.31059 L 85.2208,2.31059 L 85.2217,5.70349 L 85.2245,6.0869 L 85.2295,6.43689 L 85.2368,6.75539 L 85.2466,7.0439 L 85.2591,7.3044 L 85.2744,7.53859 L 85.2927,7.74829 L 85.3391,8.10139 L 85.3998,8.37769 L 85.4761,8.59149 L 85.5692,8.75659 L 85.6351,8.84009 L 85.7002,8.9081 L 85.7653,8.9666 L 85.84,9.0248 L 85.9194,9.07829 L 86.0019,9.12599 L 86.0861,9.1671 L 86.1706,9.20099 L 86.2546,9.2271 L 86.8138,9.3541 L 87.1206,9.40219 L 87.4561,9.43309 L 87.834,9.43799 z M 64.9641,9.25459 L 65.6075,9.2522 L 65.8744,9.24849 L 66.1076,9.24269 L 66.3091,9.23439 L 66.4811,9.22319 L 66.6256,9.20859 L 66.7447,9.19029 L 66.9151,9.14099 L 66.9706,9.10909 L 66.9918,9.09129 L 67.009,9.07199 L 67.0225,9.05128 L 67.0325,9.02919 L 67.0431,8.98029 L 67.0429,8.9249 L 67.034,8.86259 L 67.0199,8.80609 L 66.9994,8.7547 L 66.9718,8.70789 L 66.936,8.66559 L 66.8912,8.6274 L 66.8366,8.59309 L 66.6939,8.5351 L 66.501,8.4894 L 66.2507,8.4536 L 65.9358,8.4258 L 65.5492,8.40349 L 64.139,8.33659 L 64.2755,6.4545 L 65.8414,6.32359 L 66.0375,6.30519 L 66.3588,6.267 L 66.5961,6.22189 L 66.762,6.16339 L 66.8221,6.1272 L 66.8691,6.08539 L 66.9046,6.03699 L 66.9301,5.9814 L 66.9574,5.8452 L 66.9637,5.67059 L 66.9579,5.49399 L 66.9314,5.35779 L 66.9061,5.30289 L 66.8704,5.25589 L 66.8226,5.21579 L 66.761,5.18199 L 66.5894,5.1301 L 66.3419,5.09389 L 66.1853,5.0797 L 66.0045,5.0672 L 65.1067,5.02049 L 64.9213,5.00819 L 64.7619,4.99429 L 64.5134,4.9572 L 64.3454,4.90109 L 64.2867,4.86349 L 64.2422,4.8181 L 64.2099,4.76399 L 64.1879,4.7 L 64.167,4.53879 L 64.1635,4.32649 L 64.167,4.11409 L 64.1881,3.95299 L 64.2101,3.8891 L 64.2424,3.8349 L 64.2869,3.78949 L 64.3457,3.75189 L 64.5138,3.69589 L 64.7623,3.6588 L 64.9216,3.64479 L 65.107,3.6326 L 66.0045,3.58578 L 66.1853,3.57329 L 66.3419,3.55919 L 66.5894,3.52299 L 66.761,3.47099 L 66.8226,3.43719 L 66.8704,3.39719 L 66.9061,3.3501 L 66.9314,3.29529 L 66.9579,3.15909 L 66.9637,2.98239 L 66.9585,2.79959 L 66.9476,2.7251 L 66.9273,2.66069 L 66.8947,2.60559 L 66.8469,2.55879 L 66.781,2.51949 L 66.694,2.48679 L 66.5831,2.4599 L 66.4453,2.43779 L 66.2778,2.41969 L 66.0775,2.40459 L 65.8417,2.3918 L 65.2516,2.36938 L 62.8194,2.29369 L 62.8195,9.25459 z M 81.7651,9.25459 L 82.4085,9.2522 L 82.6754,9.24849 L 82.9086,9.2428 L 83.1101,9.23439 L 83.2821,9.22319 L 83.4266,9.20859 L 83.5457,9.19029 L 83.7161,9.14099 L 83.7716,9.10919 L 83.7928,9.09129 L 83.81,9.07199 L 83.8235,9.05139 L 83.8335,9.02919 L 83.8441,8.98029 L 83.8439,8.9249 L 83.835,8.86259 L 83.8209,8.80609 L 83.8005,8.7547 L 83.7728,8.70789 L 83.737,8.66559 L 83.6922,8.6274 L 83.6376,8.59319 L 83.495,8.5351 L 83.3021,8.4894 L 83.0517,8.45369 L 82.7368,8.4258 L 82.3502,8.40359 L 80.94,8.33659 L 81.0765,6.4545 L 82.6424,6.32359 L 82.8385,6.30519 L 83.1598,6.267 L 83.3971,6.22189 L 83.563,6.16339 L 83.6232,6.12729 L 83.6702,6.08539 L 83.7056,6.03699 L 83.7311,5.9814 L 83.7584,5.84529 L 83.7647,5.67059 L 83.7589,5.49399 L 83.7324,5.35779 L 83.7071,5.30289 L 83.6714,5.25589 L 83.6236,5.21579 L 83.562,5.1821 L 83.3904,5.1301 L 83.1429,5.09389 L 82.9863,5.0797 L 82.8055,5.0672 L 81.9078,5.02049 L 81.7223,5.00819 L 81.563,4.99429 L 81.3144,4.9572 L 81.1464,4.9012 L 81.0877,4.86349 L 81.0432,4.8181 L 81.0109,4.76399 L 80.989,4.70009 L 80.968,4.53889 L 80.9645,4.32649 L 80.968,4.1142 L 80.9891,3.95299 L 81.0111,3.8891 L 81.0434,3.8349 L 81.088,3.7896 L 81.1467,3.75189 L 81.3148,3.69589 L 81.5633,3.6588 L 81.7226,3.6449 L 81.908,3.6326 L 82.8055,3.58589 L 82.9863,3.57329 L 83.1429,3.55919 L 83.3904,3.52299 L 83.562,3.4711 L 83.6236,3.43729 L 83.6714,3.39719 L 83.7071,3.3501 L 83.7324,3.29529 L 83.7589,3.15909 L 83.7647,2.98239 L 83.7595,2.79959 L 83.7486,2.7251 L 83.7283,2.66069 L 83.6957,2.60559 L 83.6479,2.55879 L 83.582,2.51949 L 83.495,2.48689 L 83.3841,2.4599 L 83.2463,2.43779 L 83.0788,2.41969 L 82.8785,2.40469 L 82.6427,2.39189 L 82.3684,2.38039 L 81.6925,2.35799 L 79.6204,2.29369 L 79.6206,9.25459 z M 0.896194,9.25459 L 1.5396,9.2522 L 1.80649,9.24849 L 2.03969,9.2428 L 2.2412,9.23439 L 2.41319,9.22319 L 2.55769,9.20859 L 2.67679,9.19029 L 2.8472,9.14099 L 2.90269,9.10919 L 2.92389,9.09129 L 2.94109,9.07199 L 2.95459,9.05139 L 2.9646,9.02919 L 2.97519,8.98029 L 2.97499,8.9249 L 2.96609,8.86259 L 2.952,8.80609 L 2.93149,8.7547 L 2.90388,8.70789 L 2.86809,8.66559 L 2.82329,8.6274 L 2.76859,8.59319 L 2.62599,8.5351 L 2.43309,8.4894 L 2.18279,8.45369 L 1.86789,8.4258 L 1.48119,8.40359 L 0.0710907,8.33659 L 0.207596,6.4545 L 1.7735,6.32359 L 1.96959,6.30519 L 2.29089,6.267 L 2.5282,6.22189 L 2.69409,6.16339 L 2.7542,6.12729 L 2.80119,6.08539 L 2.83669,6.03699 L 2.86209,5.9814 L 2.8895,5.84529 L 2.8958,5.67059 L 2.89,5.49399 L 2.86349,5.35779 L 2.8382,5.30289 L 2.80249,5.25589 L 2.7547,5.21579 L 2.6931,5.1821 L 2.5215,5.1301 L 2.27399,5.09389 L 2.11739,5.0797 L 1.9366,5.0672 L 1.03879,5.02049 L 0.853394,5.00819 L 0.694092,4.99429 L 0.445496,4.9572 L 0.277496,4.9012 L 0.218796,4.86349 L 0.174286,4.8181 L 0.141998,4.76399 L 0.120087,4.70009 L 0.0990906,4.53889 L 0.0955963,4.32649 L 0.0990906,4.1142 L 0.120193,3.95299 L 0.142197,3.8891 L 0.1745,3.8349 L 0.219086,3.7896 L 0.277786,3.75189 L 0.445892,3.69589 L 0.694397,3.6588 L 0.853699,3.6449 L 1.03909,3.6326 L 1.9366,3.58589 L 2.11739,3.57329 L 2.27399,3.55919 L 2.5215,3.52299 L 2.6931,3.4711 L 2.7547,3.43729 L 2.80249,3.39719 L 2.8382,3.3501 L 2.86349,3.29529 L 2.89,3.15909 L 2.8958,2.98239 L 2.89049,2.79959 L 2.8797,2.7251 L 2.85939,2.66069 L 2.8268,2.60559 L 2.77899,2.55879 L 2.71309,2.51949 L 2.6261,2.48689 L 2.5152,2.4599 L 2.3774,2.43779 L 2.20979,2.41969 L 2.0096,2.40469 L 1.77379,2.39189 L 1.49939,2.38039 L 0.823593,2.35799 L -1.24849,2.29369 L -1.24829,9.25459 z M 26.2097,9.25459 L 26.8531,9.25209 L 27.12,9.24849 L 27.3532,9.24269 L 27.5547,9.23439 L 27.7267,9.22319 L 27.8712,9.20859 L 27.9903,9.19029 L 28.1607,9.14099 L 28.2162,9.10909 L 28.2374,9.09119 L 28.2546,9.07199 L 28.2681,9.05128 L 28.2781,9.02919 L 28.2887,8.98019 L 28.2885,8.92479 L 28.2796,8.86249 L 28.2655,8.80609 L 28.2451,8.75459 L 28.2174,8.70789 L 28.1816,8.66559 L 28.1369,8.6274 L 28.0822,8.59309 L 27.9396,8.5351 L 27.7467,8.48929 L 27.4963,8.4536 L 27.1814,8.42569 L 26.7948,8.40349 L 25.3846,8.33659 L 25.5212,6.4545 L 27.087,6.32359 L 27.2831,6.3051 L 27.6044,6.267 L 27.8417,6.22189 L 28.0076,6.16339 L 28.0678,6.1272 L 28.1148,6.0853 L 28.1502,6.03699 L 28.1757,5.9814 L 28.203,5.8452 L 28.2093,5.67059 L 28.2035,5.4939 L 28.177,5.35779 L 28.1517,5.30289 L 28.116,5.2558 L 28.0682,5.21579 L 28.0066,5.18199 L 27.8351,5.1301 L 27.5875,5.09389 L 27.4309,5.0797 L 27.2502,5.0672 L 26.3524,5.02039 L 26.167,5.00819 L 26.0076,4.99419 L 25.7591,4.95709 L 25.5911,4.90109 L 25.5324,4.86349 L 25.4878,4.8181 L 25.4556,4.76389 L 25.4336,4.7 L 25.4126,4.53879 L 25.4091,4.32649 L 25.4126,4.11409 L 25.4337,3.9529 L 25.4557,3.88899 L 25.4881,3.8349 L 25.5326,3.78949 L 25.5914,3.75189 L 25.7594,3.69589 L 26.0079,3.6588 L 26.1673,3.64479 L 26.3526,3.6326 L 27.2502,3.58578 L 27.4309,3.57329 L 27.5875,3.55919 L 27.8351,3.52289 L 28.0066,3.47099 L 28.0682,3.43719 L 28.116,3.39719 L 28.1517,3.3501 L 28.177,3.2952 L 28.2035,3.159 L 28.2093,2.98239 L 28.2041,2.7995 L 28.1932,2.7251 L 28.1729,2.66069 L 28.1404,2.6055 L 28.0926,2.55879 L 28.0266,2.51949 L 27.9397,2.48679 L 27.8287,2.4599 L 27.691,2.43779 L 27.5234,2.41959 L 27.3232,2.40459 L 27.0873,2.3918 L 26.4973,2.36938 L 24.065,2.29369 L 24.0652,9.25459 z M 45.1223,2.31049 L 43.7783,2.31049 L 43.7783,9.2549 L 45.1223,9.2549 z M 21.3769,9.2549 L 21.8515,9.25229 L 22.0484,9.24829 L 22.2204,9.2419 L 22.4964,9.21999 L 22.6929,9.18289 L 22.7654,9.15739 L 22.8229,9.12679 L 22.867,9.09039 L 22.8994,9.0479 L 22.9218,8.99879 L 22.9358,8.94249 L 22.945,8.80688 L 22.9371,8.68039 L 22.91,8.5793 L 22.8875,8.53749 L 22.8583,8.50099 L 22.8217,8.46959 L 22.777,8.44279 L 22.6606,8.4021 L 22.5039,8.3763 L 22.3018,8.36279 L 22.0489,8.3588 L 21.1528,8.3588 L 21.1528,2.31049 L 19.8088,2.31049 L 19.8088,9.2549 z M 37.3462,9.127 L 37.551,9.0318 L 37.744,8.91159 L 37.9237,8.76419 L 38.0896,8.58929 L 38.2424,8.38889 L 38.3832,8.16499 L 38.5744,7.82689 L 38.7348,7.4583 L 38.8626,7.06769 L 38.9557,6.6635 L 39.0121,6.254 L 39.0299,5.84769 L 39.0071,5.45299 L 38.9417,5.07819 L 38.8457,4.72679 L 38.7312,4.4012 L 38.5976,4.101 L 38.4442,3.8257 L 38.2704,3.57489 L 38.0756,3.34819 L 37.859,3.14519 L 37.6201,2.96539 L 37.3582,2.80829 L 37.0726,2.67369 L 36.7628,2.5609 L 36.428,2.46959 L 36.0676,2.39929 L 35.6811,2.34969 L 35.2676,2.32019 L 34.8266,2.31049 L 33.2496,2.31049 L 33.2496,9.2549 L 36.9099,9.2549 z M 34.9184,8.30629 L 34.8702,8.2858 L 34.8271,8.2578 L 34.7886,8.22189 L 34.7547,8.1778 L 34.699,8.0631 L 34.6579,7.91029 L 34.6291,7.71609 L 34.6105,7.4771 L 34.5998,7.18999 L 34.595,6.85149 L 34.5937,3.65459 L 35.395,3.65459 L 35.6155,3.66599 L 35.8286,3.69969 L 36.2287,3.82979 L 36.5878,4.0367 L 36.8983,4.31219 L 37.1529,4.64839 L 37.344,5.03709 L 37.4642,5.4702 L 37.5059,5.93959 L 37.4841,6.37509 L 37.4178,6.75929 L 37.3051,7.0947 L 37.1443,7.3837 L 36.9339,7.6288 L 36.672,7.8324 L 36.357,7.99689 L 35.9872,8.12489 L 35.7361,8.19469 L 35.5171,8.25319 L 35.328,8.29689 L 35.1667,8.32249 L 35.0309,8.3268 z M 93.037,9.25099 L 93.1988,9.23109 L 93.2635,9.2114 L 93.3186,9.18309 L 93.3651,9.1447 L 93.4039,9.09479 L 93.436,9.03169 L 93.4624,8.95399 L 93.5017,8.7486 L 93.5295,8.46638 L 93.5535,8.0952 L 93.6212,6.93549 L 94.34,8.0952 L 94.5613,8.4446 L 94.7487,8.71649 L 94.9144,8.92059 L 95.0709,9.0663 L 95.2305,9.16309 L 95.4057,9.2204 L 95.6087,9.24789 L 95.8521,9.2549 L 96.1601,9.24139 L 96.4124,9.20479 L 96.5094,9.17949 L 96.5828,9.15039 L 96.6096,9.13469 L 96.6292,9.11839 L 96.6413,9.10139 L 96.6444,9.09279 L 96.6444,9.0737 L 96.6413,9.06049 L 96.6292,9.02559 L 96.5827,8.92459 L 96.5093,8.7865 L 96.4121,8.6169 L 96.2945,8.4213 L 96.1597,8.20518 L 95.8513,7.73389 L 95.0572,6.55479 L 95.7393,5.9809 L 95.9004,5.8286 L 96.0416,5.661 L 96.2636,5.28809 L 96.4046,4.87869 L 96.4641,4.4493 L 96.4412,4.01619 L 96.3353,3.5961 L 96.1457,3.20529 L 96.0192,3.02609 L 95.8716,2.8604 L 95.6989,2.69899 L 95.5304,2.5721 L 95.3505,2.47559 L 95.144,2.40559 L 94.8955,2.35799 L 94.5895,2.32899 L 94.2106,2.3145 L 93.989,2.31149 L 92.1652,2.31059 L 92.1651,9.2549 L 92.8254,9.2549 z M 93.039,5.67209 L 93.1734,3.09459 L 94.0094,3.12109 L 94.3862,3.15009 L 94.7042,3.2139 L 94.9661,3.31499 L 95.1745,3.4556 L 95.2595,3.5414 L 95.332,3.63799 L 95.4413,3.86459 L 95.505,4.1377 L 95.5256,4.45949 L 95.5033,4.76349 L 95.4343,5.0192 L 95.3811,5.12959 L 95.315,5.22879 L 95.2356,5.31709 L 95.1423,5.39479 L 94.9127,5.51979 L 94.6229,5.60599 L 94.2694,5.6559 L 93.849,5.67209 z M 78.0643,9.2549 L 77.9404,2.42249 L 76.5963,2.42249 L 76.4728,9.2549 z "
     stroke="black"
     fill="lightgray"
     stroke-width="0.5"
     id="path2" />
</svg>
