<?xml version="1.0" encoding="UTF-8" standalone="no"?>
<!-- Created with Inkscape (http://www.inkscape.org/) -->

<svg
   width="412.22083mm"
   height="132.29167mm"
   viewBox="0 0 412.22083 132.29167"
   version="1.1"
   id="svg1"
   xml:space="preserve"
   xmlns="http://www.w3.org/2000/svg"
   xmlns:svg="http://www.w3.org/2000/svg"><defs
     id="defs1" /><g
     id="layer1"
     transform="translate(64.06633,-163.61986)"><g
       id="g1"
       transform="translate(30.737387,101.43338)"><path
         style="fill:#fdfdfd"
         d="M -94.803719,128.33231 V 62.186478 H 111.30669 317.41711 v 66.145832 66.14584 H 111.30669 -94.803719 Z m 67.601041,53.43459 c 4.182259,-0.60692 9.728123,-1.91761 10.638852,-2.51434 1.24298,-0.81443 0.773511,-1.04865 -2.576979,-1.28564 -5.275194,-0.37314 -11.282319,-3.22743 -15.347038,-7.29215 -5.22519,-5.22519 -8.030768,-12.4931 -8.729402,-22.61369 -0.131248,-1.90129 -0.242835,-18.60848 -0.24797,-37.12709 l -0.0093,-33.670208 -16.734895,0.06812 -16.734896,0.06812 v 33.998958 c 0,37.12896 -0.01677,36.66211 1.569,43.68009 3.257927,14.41826 12.158874,23.09012 26.727948,26.04003 4.399345,0.89076 6.844516,1.11225 12.713468,1.15162 3.806289,0.0255 5.926615,-0.0968 8.73125,-0.50382 z m 17.9097518,-4.91693 c 9.39787525,-3.37648 15.1448194,-9.25255 18.2035226,-18.61255 1.8544406,-5.67481 2.4477996,-10.66338 2.4870236,-20.90927 l 0.02887,-7.54063 -6.7595382,-0.0705 -6.759538,-0.0705 -0.3180716,10.91842 c -0.1749393,6.00514 -0.4952253,12.52577 -0.7117466,14.4903 -0.722569,6.55598 -2.0127655,11.7268 -3.8186208,15.30418 -0.7930757,1.57108 -3.3244388,4.92327 -4.6058628,6.09939 -0.697644,0.64031 -0.716327,1.08602 -0.04553,1.08602 0.20102,0 1.23579,-0.31269 2.2994888,-0.69485 z m 57.9689102,-9.51085 c 1.750855,-0.59984 3.938807,-2.66789 4.937954,-4.66736 0.444037,-0.8886 0.831649,-1.80497 0.861358,-2.03639 0.02971,-0.23142 0.119007,1.12705 0.198438,3.01882 l 0.144419,3.43958 3.108855,0.0745 3.108854,0.0745 V 149.2344 131.22594 l -3.108854,0.0745 -3.108855,0.0745 -0.07783,8.06979 -0.07783,8.0698 -0.892681,-1.90704 c -1.704727,-3.6418 -4.346539,-5.36901 -8.212073,-5.36901 -4.795272,0 -7.689811,2.5659 -9.158897,8.11902 -0.775671,2.93202 -0.775319,8.61249 7.15e-4,11.54601 1.186524,4.48524 3.536333,7.12235 7.000173,7.85605 1.432639,0.30346 3.687644,0.12373 5.276256,-0.42052 z m -2.03029,-5.1553 c -1.649949,-0.27557 -3.009161,-1.34473 -3.866082,-3.04106 -0.608229,-1.20403 -0.661458,-1.59684 -0.661458,-4.88128 0,-4.19954 0.377216,-5.52801 1.981107,-6.97703 2.985389,-2.69712 7.85294,-1.6715 9.882182,2.08224 0.508806,0.9412 0.572127,1.4683 0.572127,4.7625 0,3.30582 -0.06234,3.82067 -0.579725,4.78755 -1.388983,2.59572 -4.103057,3.80572 -7.328151,3.26708 z m 35.556834,5.03374 c 3.119892,-0.90464 5.132096,-2.64051 6.379628,-5.50353 0.837973,-1.92311 0.795146,-1.98134 -2.047984,-2.78443 -1.401138,-0.39578 -2.568365,-0.68528 -2.59384,-0.64334 -0.02547,0.042 -0.269035,0.58814 -0.541246,1.21378 -1.008465,2.31778 -3.32012,3.42743 -6.592869,3.16473 -2.932202,-0.23537 -5.063019,-1.89048 -5.85608,-4.54871 -0.743431,-2.49187 -1.636147,-2.26708 9.003433,-2.26708 h 9.392708 l -0.0031,-3.10885 c -0.0034,-3.3818 -0.321275,-4.98771 -1.412219,-7.13491 -1.818882,-3.57993 -5.267581,-5.36666 -10.358598,-5.36666 -6.754395,0 -11.329509,3.48321 -12.858386,9.78959 -0.522384,2.15475 -0.454271,6.92493 0.126563,8.86354 1.600487,5.34183 5.098364,8.23369 10.687063,8.83549 2.401012,0.25855 4.606428,0.0902 6.674968,-0.50962 z M 70.560862,151.43457 c 0,-0.84594 1.002328,-3.39098 1.640306,-4.16496 1.603873,-1.94577 4.612179,-2.71903 7.411866,-1.90513 2.240222,0.65125 3.445017,2.19586 3.895612,4.9944 l 0.202354,1.25677 h -6.575069 c -3.616288,0 -6.575069,-0.0815 -6.575069,-0.18108 z m 73.325278,15.80178 c 5.53398,-1.71028 8.53371,-6.36416 8.53371,-13.23945 0,-8.68627 -4.86609,-13.75834 -13.19961,-13.75834 -6.8099,0 -11.52184,3.47361 -12.95406,9.54963 -0.51044,2.16548 -0.5129,6.24158 -0.005,8.39573 1.20154,5.09673 4.71624,8.50182 9.77113,9.46642 2.34186,0.44688 5.62901,0.27362 7.85389,-0.41399 z m -7.62316,-5.19058 c -1.57432,-0.58003 -3.13111,-2.3737 -3.69585,-4.25821 -0.66971,-2.23478 -0.59777,-6.09956 0.15013,-8.06545 0.70182,-1.84475 2.39211,-3.49662 4.0316,-3.93996 1.64834,-0.44574 4.61182,-0.19442 5.98065,0.50719 2.23808,1.14715 3.50218,3.84631 3.50218,7.47797 0,4.02721 -1.03556,6.45288 -3.32853,7.79665 -1.04051,0.60978 -1.61593,0.74738 -3.39397,0.81163 -1.44397,0.0522 -2.50085,-0.0552 -3.24621,-0.32982 z m 31.58442,4.90977 c 2.00613,-0.98761 3.47654,-2.59525 4.47956,-4.89763 0.40997,-0.94105 0.83797,-1.71101 0.95111,-1.71101 0.11314,0 0.20571,1.55171 0.20571,3.44825 v 3.44825 l 2.97656,-0.0748 2.97656,-0.0748 v -13.0969 -13.09688 l -3.09524,-0.0744 -3.09523,-0.0744 -0.0798,8.54109 c -0.0769,8.23919 -0.10053,8.57994 -0.66739,9.63998 -2.00439,3.74824 -7.87382,4.48867 -9.88867,1.24746 -0.63562,-1.02249 -0.63627,-1.03182 -0.71514,-10.22598 l -0.079,-9.20256 -3.09605,0.0744 -3.09606,0.0744 0.009,10.18646 c 0.009,9.88353 0.0267,10.23016 0.59486,11.6558 0.32208,0.80814 0.87703,1.86434 1.23321,2.34712 2.11284,2.86379 6.68892,3.68604 10.38567,1.86614 z m 44.59599,0.25285 c 5.47308,-1.82882 8.39298,-6.42507 8.39298,-13.21149 0,-4.42635 -1.23698,-7.83419 -3.75915,-10.35636 -2.272,-2.27199 -5.48865,-3.40198 -9.68421,-3.40198 -6.4855,0 -10.8575,3.15717 -12.64051,9.12813 -0.58686,1.96526 -0.65786,6.75347 -0.13143,8.86354 0.43741,1.75328 1.57506,4.13697 2.59198,5.43094 1.49409,1.90112 4.54666,3.52903 7.69354,4.1029 1.90828,0.34799 5.66025,0.0714 7.5368,-0.55568 z m -7.53794,-5.12131 c -2.1662,-0.77312 -3.38357,-2.1822 -4.05068,-4.68857 -0.45008,-1.691 -0.49425,-4.71119 -0.0961,-6.5679 0.39057,-1.82117 1.69701,-3.69271 3.12685,-4.47938 1.55597,-0.85605 4.44958,-1.06375 6.29242,-0.45165 1.38323,0.45943 2.89952,1.81154 3.604,3.21376 0.65992,1.31353 1.04458,4.05342 0.84976,6.05269 -0.47269,4.85064 -2.88086,7.31628 -7.11613,7.28592 -0.8912,-0.006 -2.06578,-0.17058 -2.61016,-0.36487 z m 30.56636,5.25204 c 1.91324,-0.65547 3.95662,-2.67455 5.14756,-5.08636 l 0.99461,-2.01422 0.0738,3.49376 0.0738,3.49377 h 3.03503 3.03503 V 153.9885 140.75094 l -3.10885,0.0745 -3.10886,0.0745 -0.13229,8.59896 -0.13229,8.59896 -0.73464,1.24974 c -0.47638,0.81041 -1.17396,1.50799 -1.98437,1.98437 -1.0909,0.64127 -1.52459,0.73464 -3.41222,0.73464 -2.34191,0 -3.03738,-0.30365 -4.17117,-1.82118 -0.52035,-0.69646 -0.55162,-1.15961 -0.67781,-10.03782 l -0.13229,-9.30767 -3.12288,-0.0747 -3.12287,-0.0747 0.0802,10.52571 0.0802,10.52571 0.7429,1.58672 c 0.87197,1.86242 1.50427,2.59474 3.0001,3.47467 2.04407,1.20244 4.92754,1.38343 7.57733,0.47562 z m 30.53084,0.3967 c 6.12819,-0.84089 9.18563,-4.96466 7.61134,-10.2659 -0.79261,-2.66899 -3.19741,-4.29871 -8.06205,-5.46363 -4.90679,-1.17501 -6.25485,-1.66451 -6.98997,-2.53815 -1.2507,-1.48637 -0.68654,-3.55869 1.17116,-4.30199 1.22126,-0.48865 3.83994,-0.5671 4.94852,-0.14825 1.15983,0.43821 2.14718,1.53957 2.59859,2.89862 l 0.41269,1.2425 2.70324,-0.58387 c 2.69096,-0.58123 2.70297,-0.58732 2.64572,-1.34147 -0.0992,-1.30657 -1.6025,-3.99288 -2.73758,-4.89189 -1.77704,-1.40744 -3.44765,-1.9038 -6.8714,-2.04157 -4.51019,-0.1815 -7.53027,0.63935 -9.46293,2.57201 -1.52321,1.52321 -1.76968,2.24538 -1.77124,5.1899 -10e-4,2.46895 0.0523,2.74541 0.73128,3.77235 1.47153,2.22556 3.46653,3.21036 9.14327,4.51342 4.9014,1.12508 5.86673,1.7459 5.86673,3.77299 0,2.15563 -2.0113,3.296 -5.42395,3.07528 -3.00801,-0.19455 -4.55299,-1.23754 -5.59825,-3.7793 -0.27683,-0.67318 -0.65852,-1.18058 -0.88405,-1.17522 -0.54524,0.013 -5.02553,0.95717 -5.15469,1.08633 -0.22423,0.22423 1.11595,3.66759 1.82652,4.69295 2.12532,3.06684 7.36065,4.52947 13.29705,3.71489 z m 26.9405,-0.29454 c 3.0784,-0.65014 5.55317,-2.5959 6.88658,-5.41449 1.05075,-2.2211 1.0179,-2.27482 -1.89348,-3.09719 -1.40114,-0.39578 -2.56836,-0.68528 -2.59384,-0.64334 -0.0255,0.042 -0.26903,0.58814 -0.54124,1.21378 -1.00847,2.31778 -3.32013,3.42743 -6.59287,3.16473 -2.93221,-0.23537 -5.06302,-1.89048 -5.85608,-4.54871 -0.7435,-2.49209 -1.64005,-2.26708 9.03285,-2.26708 h 9.42213 l -0.11699,-3.77031 c -0.0963,-3.10336 -0.22053,-4.0229 -0.70232,-5.1982 -1.18683,-2.89521 -3.30726,-4.9761 -6.1187,-6.00461 -1.54194,-0.56409 -6.29936,-0.79528 -8.20702,-0.39883 -4.55117,0.94583 -7.67363,3.79379 -9.16633,8.36049 -0.5837,1.78576 -0.69447,2.61304 -0.70853,5.29167 -0.0226,4.3074 0.77766,6.95135 2.8943,9.56228 2.79573,3.4486 8.53837,4.95852 14.26154,3.74981 z m -10.84211,-16.68553 c 0.78817,-3.7623 2.87845,-5.57103 6.47648,-5.60414 2.53383,-0.0233 3.21682,0.17874 4.48882,1.32792 1.00889,0.91147 1.60082,2.2012 1.96261,4.27622 l 0.14993,0.8599 h -6.62899 -6.62899 z m -165.30186,2.64584 0.0685,-13.69219 h 5.0247 5.0247 v -3.04271 -3.04271 H 113.42336 99.929611 v 3.04271 3.04271 h 5.159379 5.15937 v 13.76647 13.76648 l 3.24115,-0.0743 3.24114,-0.0743 z m 73.88251,-4.17559 v -18.00006 l -3.10885,0.0745 -3.10886,0.0745 -0.0685,17.59479 c -0.0377,9.67714 -0.0117,17.74362 0.0578,17.92553 0.091,0.23815 0.98036,0.33073 3.17738,0.33073 h 3.05101 z M 56.305641,125.83508 c 2.00721,-0.42545 4.562354,-1.63715 5.866001,-2.78177 1.272269,-1.11707 2.256076,-2.62904 3.057856,-4.69949 l 0.695294,-1.79547 0.08361,-12.23697 0.08361,-12.236985 h -3.321826 -3.321825 v 11.335035 c 0,12.25069 -0.06565,12.92814 -1.425711,14.71127 -0.372113,0.48786 -1.245353,1.16711 -1.940533,1.50942 -1.083849,0.53371 -1.659849,0.6224 -4.042089,0.6224 -2.523732,0 -2.919848,-0.0696 -4.325821,-0.75995 -1.791839,-0.87983 -2.877959,-2.32717 -3.330754,-4.43848 -0.17228,-0.80331 -0.280925,-5.50022 -0.280925,-12.1448 V 92.084395 h -3.307292 -3.307292 l 0.0046,11.310935 c 0.0051,12.52757 0.117474,13.68083 1.605213,16.47212 1.574016,2.95316 4.652942,5.11029 8.478981,5.94047 2.211428,0.47985 6.529852,0.49328 8.728907,0.0272 z m 95.800009,0.0857 c 3.33386,-0.70122 5.88818,-2.59648 7.1802,-5.32758 1.04871,-2.21679 0.98106,-2.46315 -0.81718,-2.97564 -0.83674,-0.23847 -1.9686,-0.56365 -2.51525,-0.72262 -0.54664,-0.15898 -1.02289,-0.2402 -1.05833,-0.18051 -0.0354,0.0597 -0.36209,0.70137 -0.7259,1.42593 -0.3638,0.72457 -1.05575,1.58086 -1.53767,1.90286 -2.14777,1.43509 -6.24959,1.37992 -8.37322,-0.11262 -1.15431,-0.81129 -2.38428,-2.9385 -2.67649,-4.62899 l -0.17151,-0.99218 h 9.39133 9.39133 l 0.17828,-1.66469 c 0.33204,-3.10061 -0.41853,-6.91994 -1.83485,-9.33671 -1.99198,-3.399052 -7.05397,-5.337673 -12.1035,-4.635348 -5.70658,0.793712 -9.2471,3.959008 -10.68357,9.551328 -0.53827,2.09554 -0.59932,6.43914 -0.119,8.46667 1.13116,4.77487 4.28156,7.98085 8.9561,9.11411 1.8663,0.45246 5.64257,0.5107 7.51923,0.11599 z m -10.63646,-16.02577 c 0,-0.0996 0.20089,-0.89702 0.44641,-1.77205 0.57948,-2.06526 2.29815,-3.93241 4.05151,-4.40153 1.8969,-0.50753 4.80389,-0.21336 6.0517,0.6124 1.16837,0.77319 2.26266,2.77406 2.5255,4.61778 l 0.1603,1.12448 h -6.61771 c -3.63974,0 -6.61771,-0.0815 -6.61771,-0.18108 z m 55.1157,15.90245 c 2.01332,-0.5217 2.84818,-0.94981 4.15546,-2.13086 1.27499,-1.15188 2.11218,-3.25319 2.11218,-5.30151 0,-4.70351 -2.64015,-6.83896 -10.56184,-8.54278 -3.04966,-0.65592 -4.6722,-1.40839 -5.18809,-2.40601 -0.49897,-0.9649 -0.49245,-1.66562 0.0248,-2.66586 0.55541,-1.07405 1.82116,-1.55351 4.10113,-1.55351 2.92709,0 4.21433,0.84043 5.00117,3.26525 0.31994,0.98594 0.35856,1.01107 1.2935,0.8417 2.96887,-0.53783 4.53559,-1.00074 4.53559,-1.34011 0,-1.15109 -1.24264,-3.51482 -2.51852,-4.7907 -1.8943,-1.894308 -4.07671,-2.581651 -8.19711,-2.581651 -4.9537,0 -8.32542,1.483371 -9.6953,4.265411 -0.51491,1.0457 -0.62345,1.68071 -0.62345,3.64739 0,2.10772 0.0817,2.52015 0.71088,3.59044 1.27096,2.1619 3.50577,3.32196 8.6232,4.4762 4.07786,0.91975 4.74508,1.16098 5.68102,2.05386 0.98791,0.94245 1.01649,2.59246 0.0645,3.72383 -1.24674,1.48167 -5.16327,1.78745 -7.51664,0.58686 -1.27147,-0.64866 -2.58487,-2.19888 -2.98335,-3.52127 -0.21412,-0.71058 -0.42066,-0.96206 -0.72013,-0.87684 -0.23094,0.0657 -1.47264,0.33242 -2.75932,0.59266 l -2.33943,0.47318 0.16296,1.01908 c 0.0896,0.5605 0.50918,1.70497 0.93235,2.54326 1.21818,2.41319 3.2293,3.89419 6.2982,4.63802 2.142,0.51917 7.39241,0.5158 9.40625,-0.006 z m 36.00141,-0.0989 1.02648,-0.32044 -0.17741,-1.76404 c -0.36995,-3.67856 -0.4146,-3.81524 -1.18555,-3.62926 -1.58662,0.38276 -4.40171,0.43211 -5.05563,0.0886 -1.44569,-0.75936 -1.58664,-1.55911 -1.58709,-9.00518 l -4.1e-4,-6.81302 h 3.83646 3.83646 v -2.51354 -2.513544 h -3.83646 -3.83646 v -3.580272 -3.580272 l -3.10885,0.07454 -3.10886,0.07454 -0.0738,3.505729 -0.0738,3.50573 h -1.71211 -1.71211 v 2.513549 2.51354 h 1.69627 1.69627 l 0.10309,7.87135 c 0.0966,7.37769 0.13999,7.96463 0.69121,9.35853 0.86086,2.17693 2.56239,3.76853 4.80728,4.49671 0.93866,0.30448 6.54679,0.10014 7.77507,-0.28329 z m 19.26726,0.22222 c 3.31578,-0.69741 5.8989,-2.60453 7.14862,-5.27782 1.24216,-2.65712 1.35103,-2.44093 -1.65158,-3.27951 -1.46206,-0.40833 -2.68388,-0.69698 -2.71516,-0.64145 -0.0313,0.0555 -0.35453,0.6938 -0.71833,1.41836 -0.3638,0.72457 -1.05576,1.58086 -1.53768,1.90286 -2.14777,1.43509 -6.24959,1.37992 -8.37321,-0.11262 -1.15432,-0.81129 -2.38428,-2.9385 -2.6765,-4.62899 l -0.1715,-0.99218 h 9.40109 9.4011 l 0.18155,-1.69529 c 0.28915,-2.70006 -0.28378,-6.25527 -1.35163,-8.38731 -1.24759,-2.49089 -3.06546,-4.02361 -5.9535,-5.019631 -2.41806,-0.833937 -6.79672,-0.832572 -9.23847,0.0029 -4.32185,1.478731 -6.91607,4.367061 -8.09609,9.013931 -0.53084,2.09044 -0.59002,6.44008 -0.1152,8.46667 1.10024,4.69591 4.34138,7.9975 8.94726,9.11411 1.8663,0.45246 5.64258,0.5107 7.51923,0.11599 z M 241.39054,109.2162 c 0.50442,-2.70755 2.27696,-4.93766 4.37564,-5.50519 0.62671,-0.16948 1.99923,-0.25352 3.05004,-0.18676 1.50753,0.0958 2.14039,0.27348 3.00003,0.84236 1.20071,0.79459 2.18437,2.61917 2.47184,4.585 l 0.16444,1.12448 h -6.6111 -6.61109 z m -163.950512,7.71758 0.132292,-8.62044 0.797835,-1.28974 c 1.110369,-1.79496 2.983877,-2.76834 5.328335,-2.76834 2.233484,0 3.577053,0.66953 4.387456,2.18637 0.583397,1.09195 0.600991,1.3551 0.680828,10.1829 l 0.08196,9.06198 h 3.040887 3.040887 l -0.08013,-10.51719 -0.08013,-10.51719 -0.750329,-1.62376 c -1.3982,-3.02582 -3.606527,-4.411949 -7.054879,-4.428237 -3.988798,-0.01884 -6.77803,1.784697 -8.662675,5.601347 l -0.994617,2.01422 -0.07382,-3.49376 -0.07382,-3.493764 H 74.125079 71.09005 v 13.052774 c 0,7.17903 0.08306,13.13584 0.184566,13.23735 0.10151,0.10151 1.500495,0.15112 3.108854,0.11024 l 2.924288,-0.0743 z m 28.575002,-4.47644 V 99.228146 h -3.04271 -3.042709 v 13.229164 13.22917 h 3.042709 3.04271 z m 23.79569,1.85209 c 2.27592,-6.18464 4.4597,-12.11155 4.85286,-13.17091 l 0.71482,-1.926114 -3.32952,0.07403 -3.32951,0.07403 -2.45721,7.672914 c -1.35147,4.22011 -2.83365,8.89331 -3.29374,10.3849 -0.65952,2.13813 -0.9383,2.71198 -1.31747,2.71198 -0.35349,0 -0.58591,-0.3681 -0.87705,-1.38906 -0.21787,-0.76399 -1.6929,-5.46696 -3.27785,-10.45104 l -2.88174,-9.061985 h -3.40191 c -3.13199,0 -3.38764,0.03674 -3.22217,0.463021 0.0989,0.254661 2.18624,5.880364 4.63862,12.501564 2.45239,6.6212 4.58514,12.36907 4.73945,12.77306 l 0.28055,0.73452 4.01192,-0.0731 4.01191,-0.0731 z m 40.24316,3.43958 c 0.0781,-4.29286 0.24452,-8.04333 0.36985,-8.33438 0.98007,-2.27582 2.68234,-3.22991 6.20948,-3.48027 l 2.40682,-0.17084 v -3.42982 -3.429822 l -1.81752,0.102699 c -3.3191,0.187546 -5.08278,1.837343 -6.67348,6.242573 l -0.73981,2.04882 -0.0148,-4.0349 -0.0148,-4.034894 h -3.04271 -3.04271 v 13.052774 c 0,7.17903 0.0831,13.13584 0.18457,13.23735 0.10151,0.10151 1.50049,0.15112 3.10885,0.11024 l 2.92429,-0.0743 z m 42.58823,-5.29167 V 99.228146 h -3.175 -3.175 v 13.052774 c 0,7.17903 0.0794,13.13216 0.17639,13.22917 0.097,0.097 1.52576,0.17639 3.175,0.17639 h 2.99861 z M 0.99356984,115.2102 c 4.74897786,-1.3949 8.45395256,-5.23882 9.92144916,-10.29351 0.393749,-1.35624 0.477287,-3.11961 0.573453,-12.10469 l 0.112565,-10.517188 h 5.148175 5.148175 l -0.07607,-2.447396 -0.07607,-2.447396 -17.13177,-0.06808 -17.131771,-0.06808 v 2.515472 2.515472 h 5.1593754 5.1593749 v 16.66875 16.668746 h 0.8780194 c 0.48291072,0 1.52470757,-0.18995 2.31510414,-0.42211 z M 250.8744,93.679011 c 3.63802,-1.629382 6.68687,-3.04169 6.77522,-3.138461 0.0883,-0.09677 -0.3621,-1.148387 -1.001,-2.336926 l -1.16165,-2.16098 -4.81982,2.784115 c -2.65091,1.531263 -5.62278,3.252674 -6.60416,3.825357 l -1.78433,1.041242 0.80105,1.586877 c 0.44058,0.872782 0.88634,1.536119 0.99058,1.474083 0.10424,-0.06204 3.16609,-1.445924 6.80411,-3.075307 z M 106.27961,92.48127 v -2.513541 h -3.30729 -3.307292 v 2.513541 2.513542 h 3.307292 3.30729 z m 106.62708,0 v -2.513541 h -3.30729 -3.30729 v 2.513541 2.513542 h 3.30729 3.30729 z"
         id="path8" /><path
         style="fill:#d7c4c4"
         d="m -40.878329,182.12658 c 0.190996,-0.0764 0.419199,-0.067 0.507118,0.0209 0.08792,0.0879 -0.06835,0.15046 -0.347266,0.13897 -0.308224,-0.0127 -0.370919,-0.0754 -0.159852,-0.15985 z m 10.054166,0 c 0.190997,-0.0764 0.4192,-0.067 0.507119,0.0209 0.08792,0.0879 -0.06835,0.15046 -0.347266,0.13897 -0.308225,-0.0127 -0.370919,-0.0754 -0.159853,-0.15985 z m 13.349958,-3.97137 c 0.257431,-0.0671 0.614618,-0.0627 0.79375,0.01 0.179131,0.0725 -0.03149,0.12736 -0.468057,0.12197 -0.436562,-0.005 -0.583124,-0.0647 -0.325693,-0.13178 z m -49.176528,-5.96821 -0.504028,-0.59531 0.595313,0.50403 c 0.559447,0.47366 0.715761,0.6866 0.504028,0.6866 -0.05021,0 -0.318097,-0.2679 -0.595313,-0.59532 z m 111.480866,-4.35391 c 0.327422,-0.0631 0.863203,-0.0631 1.190625,0 0.327422,0.0631 0.05953,0.11466 -0.595313,0.11466 -0.654843,0 -0.922734,-0.0516 -0.595312,-0.11466 z m 32.560286,0.006 c 0.190996,-0.0764 0.419199,-0.067 0.507118,0.0209 0.08792,0.0879 -0.06835,0.15046 -0.347266,0.13897 -0.308224,-0.0127 -0.370919,-0.0754 -0.159852,-0.15986 z m 61.106951,-0.011 c 0.47555,-0.0589 1.18992,-0.0577 1.5875,0.003 0.39758,0.0604 0.008,0.10855 -0.86463,0.10707 -0.87313,-0.001 -1.19842,-0.0509 -0.72287,-0.10977 z m 24.73744,0.002 c 0.40218,-0.0608 0.9975,-0.0592 1.32292,0.004 0.32542,0.0628 -0.004,0.11256 -0.73125,0.11057 -0.7276,-0.002 -0.99385,-0.0534 -0.59167,-0.11418 z m 43.52032,-0.002 c 0.47294,-0.0587 1.24685,-0.0587 1.71979,0 0.47294,0.0587 0.086,0.10671 -0.85989,0.10671 -0.94589,0 -1.33284,-0.048 -0.8599,-0.10671 z m 24.87083,0.005 c 0.32742,-0.0631 0.86321,-0.0631 1.19063,0 0.32742,0.0631 0.0595,0.11466 -0.59532,0.11466 -0.65484,0 -0.92273,-0.0516 -0.59531,-0.11466 z m 30.42118,-0.004 c 0.4697,-0.0584 1.30314,-0.0594 1.85209,-0.002 0.54895,0.0573 0.16465,0.1051 -0.854,0.10627 -1.01864,0.001 -1.46778,-0.0457 -0.99809,-0.10413 z m 26.74536,0.0102 c 0.19099,-0.0764 0.4192,-0.067 0.50712,0.0209 0.0879,0.0879 -0.0684,0.15046 -0.34727,0.13897 -0.30822,-0.0127 -0.37092,-0.0754 -0.15985,-0.15986 z m -234.003837,-4.1851 c 4.63e-4,-1.89177 0.04261,-2.63096 0.09365,-1.64264 0.05105,0.98832 0.05067,2.53613 -8.41e-4,3.43958 -0.05151,0.90345 -0.09327,0.0948 -0.09281,-1.79694 z M 116.7214,153.33544 c 4e-5,-7.56708 0.0339,-10.62459 0.0752,-6.79447 0.0413,3.83013 0.0413,10.02138 -8e-5,13.75834 -0.0414,3.73695 -0.0752,0.60321 -0.0752,-6.96387 z m 62.70582,0.66146 c 0,-7.20328 0.034,-10.15008 0.0756,-6.54844 0.0416,3.60164 0.0416,9.49523 0,13.09688 -0.0416,3.60164 -0.0756,0.65484 -0.0756,-6.54844 z m 5.02949,-4.7625 c 0,-9.82266 0.033,-13.84102 0.0733,-8.92969 0.0403,4.91133 0.0403,12.94805 0,17.85938 -0.0403,4.91132 -0.0733,0.89296 -0.0733,-8.92969 z m 68.89748,15.67656 c -0.32911,-0.41964 -0.31975,-0.429 0.0999,-0.0999 0.44073,0.34564 0.58088,0.56291 0.36312,0.56291 -0.0549,0 -0.2633,-0.20836 -0.46302,-0.46302 z m -55.5625,-0.52917 c -0.3291,-0.41964 -0.31975,-0.429 0.0999,-0.0999 0.44073,0.34564 0.58089,0.56291 0.36312,0.56291 -0.0549,0 -0.2633,-0.20835 -0.46302,-0.46302 z M 47.227919,162.28282 c 0.190996,-0.0764 0.419199,-0.067 0.507118,0.0209 0.08792,0.0879 -0.06835,0.15046 -0.347265,0.13897 -0.308225,-0.0127 -0.37092,-0.0754 -0.159853,-0.15986 z m 1.5875,0 c 0.190996,-0.0764 0.419199,-0.067 0.507118,0.0209 0.08792,0.0879 -0.06835,0.15046 -0.347265,0.13897 -0.308225,-0.0127 -0.37092,-0.0754 -0.159853,-0.15986 z m 218.066271,0.0809 c 0,-0.0549 0.20836,-0.2633 0.46302,-0.46302 0.41965,-0.32911 0.429,-0.31975 0.0999,0.0999 -0.34565,0.44073 -0.56292,0.58089 -0.56292,0.36313 z m -132.85458,-1.68604 c -0.32911,-0.41965 -0.31975,-0.42901 0.0999,-0.0999 0.44073,0.34565 0.58088,0.56292 0.36312,0.56292 -0.0549,0 -0.2633,-0.20836 -0.46302,-0.46302 z m 21.58427,-10.3849 c 0,-5.16599 0.0354,-7.27935 0.0788,-4.69635 0.0433,2.58299 0.0433,6.80971 0,9.39271 -0.0433,2.58299 -0.0788,0.46963 -0.0788,-4.69636 z m 74.61146,-0.79375 c 0,-4.72943 0.0359,-6.66419 0.0797,-4.29948 0.0438,2.36472 0.0438,6.23425 0,8.59896 -0.0438,2.36471 -0.0797,0.42995 -0.0797,-4.29948 z m 11.37608,-0.66146 c -1.2e-4,-4.36562 0.0361,-6.18868 0.0806,-4.05125 0.0444,2.13744 0.0445,5.70932 2.1e-4,7.9375 -0.0443,2.22819 -0.0806,0.47938 -0.0808,-3.88625 z m -177.336478,6.61459 c 0.0054,-0.43657 0.06469,-0.58313 0.131773,-0.3257 0.06708,0.25743 0.06267,0.61462 -0.0098,0.79375 -0.07248,0.17913 -0.127362,-0.0315 -0.12197,-0.46805 z m 129.900608,-0.1323 c 0,-0.3638 0.0601,-0.51263 0.13345,-0.33072 0.0734,0.1819 0.0734,0.47955 0,0.66145 -0.0734,0.1819 -0.13345,0.0331 -0.13345,-0.33073 z m 81.53458,-1.05833 c 0,-0.94588 0.048,-1.33284 0.10671,-0.85989 0.0587,0.47294 0.0587,1.24684 0,1.71979 -0.0587,0.47294 -0.10671,0.086 -0.10671,-0.8599 z M 54.767848,154.12919 c 0.0015,-0.87313 0.05088,-1.19842 0.109766,-0.72287 0.05889,0.47555 0.05767,1.18993 -0.0027,1.5875 -0.06037,0.39758 -0.108551,0.008 -0.107066,-0.86463 z M 152.4018,153.9969 c 0,-0.94589 0.048,-1.33284 0.10671,-0.8599 0.0587,0.47294 0.0587,1.24685 0,1.71979 -0.0587,0.47295 -0.10671,0.086 -0.10671,-0.85989 z m -116.690263,0.13229 c 0.002,-0.7276 0.05337,-0.99386 0.114185,-0.59168 0.06082,0.40219 0.05919,0.9975 -0.0036,1.32292 -0.0628,0.32542 -0.112561,-0.004 -0.110574,-0.73124 z m 6.061322,0 c 0.0054,-0.43656 0.06469,-0.58313 0.131774,-0.32569 0.06708,0.25743 0.06267,0.61461 -0.0098,0.79375 -0.07248,0.17913 -0.127362,-0.0315 -0.12197,-0.46806 z m 22.479779,-0.92604 c 0,-0.3638 0.06005,-0.51263 0.133452,-0.33073 0.0734,0.1819 0.0734,0.47956 0,0.66146 -0.0734,0.1819 -0.133452,0.0331 -0.133452,-0.33073 z m -67.2250536,-0.68351 c 0.012696,-0.30822 0.075391,-0.37092 0.1598525,-0.15985 0.07643,0.19099 0.067031,0.4192 -0.020888,0.50712 -0.087919,0.0879 -0.1504527,-0.0683 -0.1389645,-0.34727 z m 134.9374956,0 c 0.0127,-0.30822 0.0754,-0.37092 0.15985,-0.15985 0.0764,0.19099 0.067,0.4192 -0.0209,0.50712 -0.0879,0.0879 -0.15046,-0.0683 -0.13897,-0.34727 z m 62.17708,0 c 0.0127,-0.30822 0.0754,-0.37092 0.15986,-0.15985 0.0764,0.19099 0.067,0.4192 -0.0209,0.50712 -0.0879,0.0879 -0.15045,-0.0683 -0.13897,-0.34727 z M -2.6869441,148.70523 c 0,-0.3638 0.060053,-0.51263 0.1334521,-0.33073 0.073399,0.1819 0.073399,0.47956 0,0.66146 -0.073399,0.1819 -0.1334521,0.0331 -0.1334521,-0.33073 z m 55.2223901,-1.25677 c -0.329107,-0.41964 -0.319749,-0.429 0.09989,-0.0999 0.254661,0.19971 0.463021,0.40807 0.463021,0.46302 0,0.21776 -0.217272,0.0776 -0.562916,-0.36313 z m -95.943275,-0.7276 c 0.0029,-0.58209 0.05712,-0.78906 0.120406,-0.45994 0.06329,0.32912 0.06088,0.80537 -0.0053,1.05833 -0.06622,0.25297 -0.118003,-0.0163 -0.115066,-0.59839 z m 98.028924,-4.4315 c 0.126178,-10.01226 0.216827,-10.93429 0.273158,-2.7784 0.03091,4.47477 -0.0331,8.13606 -0.142245,8.13621 -0.109141,1.5e-4 -0.168052,-2.41086 -0.130913,-5.35781 z m 79.175185,5.25764 c 0,-0.0549 0.20836,-0.2633 0.46302,-0.46302 0.41964,-0.32911 0.429,-0.31975 0.0999,0.0999 -0.34564,0.44073 -0.56291,0.58088 -0.56291,0.36312 z m 78.5475,-0.36312 c -0.32911,-0.41965 -0.31975,-0.42901 0.0999,-0.0999 0.25466,0.19972 0.46302,0.40808 0.46302,0.46302 0,0.21776 -0.21727,0.0776 -0.56291,-0.36312 z m -289.134944,-0.74966 c 0.0127,-0.30822 0.07539,-0.37092 0.159852,-0.15985 0.07643,0.191 0.06703,0.4192 -0.02089,0.50712 -0.08792,0.0879 -0.150453,-0.0683 -0.138964,-0.34727 z m 87.841665,-0.26458 c 0.0127,-0.30822 0.07539,-0.37092 0.159852,-0.15985 0.07643,0.19099 0.06703,0.4192 -0.02089,0.50712 -0.08792,0.0879 -0.150453,-0.0684 -0.138964,-0.34727 z m 118.380149,-2.49149 c 0.26339,-0.29104 0.53842,-0.52917 0.61118,-0.52917 0.0728,0 -0.0832,0.23813 -0.34659,0.52917 -0.26339,0.29104 -0.53843,0.52916 -0.61119,0.52916 -0.0728,0 0.0832,-0.23812 0.3466,-0.52916 z m 87.55194,-0.0661 -0.50402,-0.59531 0.59531,0.50403 c 0.55945,0.47366 0.71576,0.68659 0.50403,0.68659 -0.0502,0 -0.3181,-0.26789 -0.59532,-0.59531 z M 86.137529,143.21513 c -0.329108,-0.41965 -0.319749,-0.42901 0.0999,-0.0999 0.254661,0.19972 0.463021,0.40808 0.463021,0.46302 0,0.21776 -0.217272,0.0776 -0.562916,-0.36312 z m 211.402081,0 c -0.32911,-0.41965 -0.31975,-0.42901 0.0999,-0.0999 0.44073,0.34565 0.58089,0.56292 0.36313,0.56292 -0.0549,0 -0.2633,-0.20836 -0.46302,-0.46302 z m -26.8466,-0.39688 -0.50403,-0.59531 0.59532,0.50403 c 0.55944,0.47366 0.71576,0.68659 0.50402,0.68659 -0.0502,0 -0.31809,-0.26789 -0.59531,-0.59531 z m -219.074995,-0.26458 -0.504028,-0.59531 0.595312,0.50402 c 0.327422,0.27722 0.595313,0.54511 0.595313,0.59532 0,0.21173 -0.212935,0.0554 -0.686597,-0.50403 z m -53.9953316,-1.65365 c 0.00117,-1.01864 0.048996,-1.40294 0.1062719,-0.85399 0.057276,0.54895 0.056316,1.38238 -0.00213,1.85208 -0.05845,0.4697 -0.1053116,0.0206 -0.1041378,-0.99809 z M -76.948487,109.81148 c 0,-17.826303 0.03161,-25.118882 0.07025,-16.20573 0.03864,8.91315 0.03864,23.49831 0,32.41146 -0.03864,8.91315 -0.07025,1.62057 -0.07025,-16.20573 z m 88.356133,26.06146 c 1.86e-4,-3.34698 0.0381,-4.67972 0.08426,-2.96164 0.04616,1.71808 0.046,4.45652 -3.38e-4,6.08542 -0.04634,1.6289 -0.08411,0.2232 -0.08392,-3.12378 z m 62.919604,-10.38053 2.840347,-0.0878 0.07618,-7.86273 0.07618,-7.86272 -0.0061,7.9375 -0.0061,7.9375 -2.910416,0.013 -2.910417,0.013 z m 16.021584,-0.002 c 0.915208,-0.0518 2.343958,-0.0514 3.175,9.6e-4 0.831042,0.0523 0.08224,0.0947 -1.664015,0.0942 -1.74625,-5.2e-4 -2.426193,-0.0433 -1.510985,-0.0952 z m 11.112496,0 c 0.91521,-0.0518 2.34396,-0.0514 3.175,9.6e-4 0.83105,0.0523 0.0822,0.0947 -1.66401,0.0942 -1.74625,-5.2e-4 -2.42619,-0.0433 -1.51099,-0.0952 z m 18.11359,-5e-4 c 1.12779,-0.0496 2.97326,-0.0496 4.10104,0 1.12779,0.0496 0.20506,0.0902 -2.05052,0.0902 -2.25557,0 -3.1783,-0.0406 -2.05052,-0.0902 z m 44.24053,-0.13406 c -0.0697,-0.1819 -0.0946,-6.16479 -0.0553,-13.29531 l 0.0714,-12.964586 0.0636,13.154356 0.0636,13.15436 2.97656,0.0844 2.97656,0.0844 -2.98487,0.0566 c -2.1871,0.0414 -3.01873,-0.0318 -3.11158,-0.27417 z m 42.59792,0 c -0.0697,-0.1819 -0.0946,-6.16479 -0.0553,-13.29531 l 0.0714,-12.964586 0.0636,13.154626 0.0636,13.15462 3.10886,0.0838 3.10885,0.0838 -3.11716,0.0569 c -2.29313,0.0419 -3.15065,-0.0305 -3.24387,-0.27384 z m -49.06918,-2.18281 c 0.34178,-0.3638 0.68094,-0.66146 0.7537,-0.66146 0.0728,0 -0.14734,0.29766 -0.48911,0.66146 -0.34178,0.3638 -0.68094,0.66146 -0.7537,0.66146 -0.0728,0 0.14734,-0.29766 0.48911,-0.66146 z m 99.74792,0 c 0.34177,-0.3638 0.68094,-0.66146 0.7537,-0.66146 0.0728,0 -0.14734,0.29766 -0.48912,0.66146 -0.34177,0.3638 -0.68094,0.66146 -0.7537,0.66146 -0.0728,0 0.14734,-0.29766 0.48912,-0.66146 z m -135.51628,-2.95887 c 0.191,-0.0764 0.4192,-0.067 0.50712,0.0209 0.0879,0.0879 -0.0683,0.15045 -0.34726,0.13897 -0.30823,-0.0127 -0.37092,-0.0754 -0.15986,-0.15986 z m 97.79693,-8.81509 c 0,-4.00182 0.0368,-5.63893 0.0817,-3.63802 0.0449,2.00091 0.0449,5.27513 0,7.27604 -0.045,2.00091 -0.0817,0.3638 -0.0817,-3.63802 z m -84.1815,1.32292 c 0,-0.65485 0.0516,-0.92274 0.11466,-0.59532 0.0631,0.32743 0.0631,0.86321 0,1.19063 -0.0631,0.32742 -0.11466,0.0595 -0.11466,-0.59531 z m 99.73723,0 c 0,-0.50933 0.0545,-0.71769 0.121,-0.46302 0.0666,0.25466 0.0666,0.67138 0,0.92604 -0.0665,0.25466 -0.121,0.0463 -0.121,-0.46302 z M 59.569065,102.66773 c 0,-5.893595 0.03484,-8.30461 0.07742,-5.357813 0.04258,2.946793 0.04258,7.768823 0,10.715623 -0.04258,2.9468 -0.07742,0.53578 -0.07742,-5.35781 z m 200.518145,8.46667 c 0,-0.94589 0.048,-1.33284 0.10671,-0.8599 0.0587,0.47294 0.0587,1.24685 0,1.71979 -0.0587,0.47294 -0.10671,0.086 -0.10671,-0.85989 z m -99.75331,0 c 0,-0.80037 0.0496,-1.12779 0.11022,-0.72761 0.0606,0.40018 0.0606,1.05503 0,1.45521 -0.0606,0.40018 -0.11022,0.0728 -0.11022,-0.7276 z m 22.11196,0.0661 c -0.32911,-0.41964 -0.31975,-0.429 0.0999,-0.0999 0.44072,0.34564 0.58088,0.56291 0.36312,0.56291 -0.0549,0 -0.2633,-0.20836 -0.46302,-0.46302 z m -3.56677,-8.79739 c 0,-1.96454 0.0417,-2.768207 0.0926,-1.78594 0.0509,0.98226 0.0509,2.58961 0,3.57187 -0.0509,0.98227 -0.0926,0.1786 -0.0926,-1.78593 z m 11.73646,0.60702 c 0.32742,-0.0631 0.8632,-0.0631 1.19062,0 0.32742,0.0631 0.0595,0.11466 -0.59531,0.11466 -0.65484,0 -0.92274,-0.0516 -0.59531,-0.11466 z m -8.00365,-1.66536 c 0.26339,-0.29104 0.53842,-0.52916 0.61118,-0.52916 0.0728,0 -0.0832,0.23812 -0.3466,0.52916 -0.26338,0.29104 -0.53842,0.52917 -0.61118,0.52917 -0.0728,0 0.0832,-0.23813 0.3466,-0.52917 z M 11.413934,91.952104 c 8.2e-5,-5.384271 0.03536,-7.549375 0.0784,-4.811341 0.04304,2.738033 0.04297,7.143345 -1.49e-4,9.789583 -0.04312,2.646238 -0.07833,0.406029 -0.07825,-4.978242 z m 207.946396,3.836458 c 0,-1.964531 0.0417,-2.768203 0.0926,-1.785937 0.0509,0.982265 0.0509,2.589609 0,3.571875 -0.0509,0.982266 -0.0926,0.178594 -0.0926,-1.785938 z M 86.3728,98.51185 c 0.329119,-0.06329 0.805369,-0.06088 1.058333,0.0053 0.252965,0.06622 -0.01631,0.118003 -0.598397,0.115067 -0.582083,-0.0029 -0.789054,-0.05712 -0.459936,-0.120406 z m 61.51618,-0.0027 c 0.40218,-0.06082 0.99749,-0.05919 1.32291,0.0036 0.32542,0.0628 -0.004,0.11256 -0.73124,0.110573 -0.7276,-0.002 -0.99386,-0.05337 -0.59167,-0.114185 z m 42.73131,-0.0019 c 0.47554,-0.05889 1.18992,-0.05767 1.5875,0.0027 0.39757,0.06037 0.008,0.108551 -0.86464,0.107066 -0.87312,-0.0015 -1.19841,-0.05088 -0.72286,-0.109766 z m 57.0166,0.0019 c 0.40218,-0.06082 0.9975,-0.05919 1.32292,0.0036 0.32542,0.0628 -0.004,0.11256 -0.73124,0.110573 -0.72761,-0.002 -0.99386,-0.05337 -0.59168,-0.114185 z M 21.708327,79.913562 c 0,-1.382448 0.04459,-1.947995 0.0991,-1.256771 0.0545,0.691224 0.0545,1.822318 0,2.513542 -0.0545,0.691224 -0.0991,0.125677 -0.0991,-1.256771 z"
         id="path7" /><path
         style="fill:#d7a6a4"
         d="m -40.101115,182.13209 c 0.181901,-0.0734 0.479557,-0.0734 0.661458,0 0.181901,0.0734 0.03307,0.13345 -0.330729,0.13345 -0.363802,0 -0.512631,-0.06 -0.330729,-0.13345 z m 8.483202,-0.006 c 0.190997,-0.0764 0.4192,-0.067 0.507119,0.0209 0.08792,0.0879 -0.06835,0.15046 -0.347266,0.13897 -0.308225,-0.0127 -0.370919,-0.0754 -0.159853,-0.15985 z m -11.641666,-0.26459 c 0.190996,-0.0764 0.419199,-0.067 0.507118,0.0209 0.08792,0.0879 -0.06835,0.15045 -0.347266,0.13896 -0.308224,-0.0127 -0.370919,-0.0754 -0.159852,-0.15985 z m 14.2875,0 c 0.190996,-0.0764 0.419199,-0.067 0.507118,0.0209 0.08792,0.0879 -0.06835,0.15045 -0.347266,0.13896 -0.308224,-0.0127 -0.370919,-0.0754 -0.159852,-0.15985 z m 10.302213,-3.69865 c 0.181901,-0.0734 0.479557,-0.0734 0.661458,0 0.181901,0.0734 0.03307,0.13345 -0.330729,0.13345 -0.363802,0 -0.51263,-0.06 -0.330729,-0.13345 z m 7.606771,-2.20602 c 0.263389,-0.29105 0.53842,-0.52917 0.611181,-0.52917 0.07276,0 -0.08321,0.23812 -0.346598,0.52917 -0.263389,0.29104 -0.53842,0.52916 -0.611181,0.52916 -0.07276,0 0.08321,-0.23812 0.346598,-0.52916 z m 12.8212337,-5.88698 c 1.0964241,-1.16819 1.3339741,-1.37824 1.3339741,-1.17957 0,0.0425 -0.5655468,0.60801 -1.2567708,1.25677 l -1.25677078,1.17957 z M 169.9119,165.37398 c 0.26339,-0.29104 0.53842,-0.52917 0.61118,-0.52917 0.0728,0 -0.0832,0.23813 -0.3466,0.52917 -0.26338,0.29104 -0.53842,0.52917 -0.61118,0.52917 -0.0728,0 0.0832,-0.23813 0.3466,-0.52917 z m 127.79375,-0.52917 c 0.26339,-0.29104 0.53842,-0.52916 0.61118,-0.52916 0.0728,0 -0.0832,0.23812 -0.3466,0.52916 -0.26339,0.29105 -0.53842,0.52917 -0.61118,0.52917 -0.0728,0 0.0832,-0.23812 0.3466,-0.52917 z M 86.171278,165.0095 c 0,-0.0549 0.208359,-0.2633 0.463021,-0.46302 0.419644,-0.3291 0.429002,-0.31975 0.0999,0.0999 -0.345644,0.44073 -0.562916,0.58088 -0.562916,0.36312 z m 192.988402,-0.76 -0.50403,-0.59531 0.59531,0.50403 c 0.55945,0.47366 0.71576,0.68659 0.50403,0.68659 -0.0502,0 -0.3181,-0.26789 -0.59531,-0.59531 z M 72.379196,160.94221 c -0.329108,-0.41964 -0.319749,-0.429 0.0999,-0.0999 0.254661,0.19972 0.46302,0.40807 0.46302,0.46302 0,0.21776 -0.217272,0.0776 -0.562915,-0.36313 z m 159.014584,0 c -0.32911,-0.41964 -0.31975,-0.429 0.0999,-0.0999 0.44073,0.34564 0.58089,0.56291 0.36313,0.56291 -0.0549,0 -0.2633,-0.20836 -0.46302,-0.46302 z M 52.569195,160.77617 c 0,-0.0549 0.20836,-0.2633 0.463021,-0.46302 0.419644,-0.32911 0.429002,-0.31975 0.0999,0.0999 -0.345644,0.44073 -0.562916,0.58089 -0.562916,0.36313 z m -55.8061939,-4.81695 c 0.012696,-0.30822 0.075391,-0.37091 0.1598524,-0.15985 0.07643,0.191 0.067031,0.4192 -0.020888,0.50712 -0.087919,0.0879 -0.1504528,-0.0684 -0.1389644,-0.34727 z m 0.2645833,-2.64583 c 0.012696,-0.30822 0.075391,-0.37092 0.1598525,-0.15985 0.07643,0.19099 0.067031,0.4192 -0.020888,0.50712 -0.087919,0.0879 -0.1504527,-0.0684 -0.1389645,-0.34727 z m 0.2854715,-3.54983 c 0,-0.3638 0.060053,-0.51263 0.1334521,-0.33072 0.073399,0.1819 0.073399,0.47955 0,0.66145 -0.073399,0.1819 -0.1334521,0.0331 -0.1334521,-0.33073 z m -40.7458329,-1.5875 c 0,-0.3638 0.06005,-0.51263 0.133453,-0.33072 0.0734,0.1819 0.0734,0.47955 0,0.66145 -0.0734,0.1819 -0.133453,0.0331 -0.133453,-0.33073 z m 54.218695,0.11025 c 0.01269,-0.30823 0.07539,-0.37092 0.159852,-0.15986 0.07643,0.191 0.06703,0.4192 -0.02089,0.50712 -0.08792,0.0879 -0.150453,-0.0683 -0.138964,-0.34726 z m -87.556194,-2.75608 c 0,-0.3638 0.06005,-0.51263 0.133452,-0.33073 0.0734,0.1819 0.0734,0.47956 0,0.66146 -0.0734,0.1819 -0.133452,0.0331 -0.133452,-0.33073 z m 87.841665,-0.26458 c 0,-0.3638 0.06005,-0.51263 0.133452,-0.33073 0.0734,0.1819 0.0734,0.47956 0,0.66146 -0.0734,0.1819 -0.133452,0.0331 -0.133452,-0.33073 z m -13.4598515,-1.45521 c 0.00199,-0.72761 0.05337,-0.99386 0.1141855,-0.59168 0.060816,0.40219 0.05919,0.9975 -0.00361,1.32292 -0.062802,0.32542 -0.1125602,-0.004 -0.1105739,-0.73124 z m 70.3034905,0 c 0.341775,-0.3638 0.680939,-0.66146 0.7537,-0.66146 0.07276,0 -0.147342,0.29766 -0.489116,0.66146 -0.341775,0.3638 -0.68094,0.66146 -0.7537,0.66146 -0.07276,0 0.147342,-0.29766 0.489116,-0.66146 z M 279.4494,143.67815 c 0.26339,-0.29104 0.53842,-0.52917 0.61118,-0.52917 0.0728,0 -0.0832,0.23813 -0.3466,0.52917 -0.26339,0.29104 -0.53842,0.52916 -0.61118,0.52916 -0.0728,0 0.0832,-0.23812 0.3466,-0.52916 z M 1.0259746,129.72223 c 1.846801,-0.0454 4.9424259,-0.0455 6.8791665,-2.7e-4 1.9367406,0.0453 0.4257216,0.0824 -3.35782,0.0826 -3.78354155,1.6e-4 -5.36814749,-0.0369 -3.5213465,-0.0823 z M 186.94378,119.93179 c -0.32911,-0.41964 -0.31975,-0.429 0.0999,-0.0999 0.44073,0.34564 0.58089,0.56291 0.36313,0.56291 -0.0549,0 -0.2633,-0.20836 -0.46302,-0.46302 z m 55.86083,-14.45354 c 0,-0.0549 0.20836,-0.2633 0.46302,-0.46302 0.41964,-0.32911 0.429,-0.31975 0.0999,0.0999 -0.34564,0.44072 -0.56291,0.58088 -0.56291,0.36312 z M -68.543823,77.334009 c 4.620286,-0.04054 12.180755,-0.04054 16.801041,0 4.620286,0.04054 0.840052,0.07371 -8.400521,0.07371 -9.240572,0 -13.020807,-0.03317 -8.40052,-0.07371 z"
         id="path6" /><path
         style="fill:#b08a8a"
         d="m 57.927008,167.03195 2.84427,-0.0878 V 149.2344 131.52464 l -2.84427,-0.0878 -2.844271,-0.0878 2.910416,0.013 2.910417,0.013 v 17.85938 17.85937 l -2.910417,0.013 -2.910416,0.013 z m 53.842702,-0.002 c 0.90951,-0.0517 2.39779,-0.0517 3.3073,0 0.9095,0.0517 0.16536,0.0939 -1.65365,0.0939 -1.81901,0 -2.56315,-0.0423 -1.65365,-0.0939 z m 63.10313,3.7e-4 c 0.83674,-0.0525 2.20596,-0.0525 3.04271,0 0.83674,0.0525 0.15213,0.0955 -1.52136,0.0955 -1.67349,0 -2.3581,-0.043 -1.52135,-0.0955 z m 11.1125,0 c 0.83674,-0.0525 2.20596,-0.0525 3.04271,0 0.83674,0.0525 0.15213,0.0955 -1.52136,0.0955 -1.67349,0 -2.3581,-0.043 -1.52135,-0.0955 z m 55.89242,-0.1352 c -0.20871,-0.5926 -0.26948,-6.76744 -0.0653,-6.64055 0.10914,0.0678 0.19844,1.60056 0.19844,3.40606 v 3.28273 l 2.84427,0.085 2.84427,0.085 -2.85257,0.0562 c -2.08544,0.0411 -2.88391,-0.0327 -2.96907,-0.27453 z m 20.83674,-3.55583 c 0.25466,-0.0665 0.67138,-0.0665 0.92605,0 0.25466,0.0666 0.0463,0.121 -0.46303,0.121 -0.50932,0 -0.71768,-0.0545 -0.46302,-0.121 z M 138.7603,162.5408 c 0.32912,-0.0633 0.80537,-0.0609 1.05833,0.005 0.25297,0.0662 -0.0163,0.118 -0.59839,0.11506 -0.58209,-0.003 -0.78906,-0.0571 -0.45994,-0.1204 z m 68.2625,0 c 0.32912,-0.0633 0.80537,-0.0609 1.05833,0.005 0.25297,0.0662 -0.0163,0.118 -0.5984,0.11506 -0.58208,-0.003 -0.78905,-0.0571 -0.45993,-0.1204 z m -40.61159,-0.26081 c 0.25743,-0.0671 0.61462,-0.0627 0.79375,0.01 0.17913,0.0725 -0.0315,0.12737 -0.46806,0.12197 -0.43656,-0.005 -0.58312,-0.0647 -0.32569,-0.13177 z m 68.2625,0 c 0.25743,-0.0671 0.61461,-0.0627 0.79375,0.01 0.17913,0.0725 -0.0315,0.12737 -0.46806,0.12197 -0.43656,-0.005 -0.58312,-0.0647 -0.32569,-0.13177 z m 39.15921,-2.46248 c 0,-0.65484 0.0516,-0.92273 0.11466,-0.59531 0.0631,0.32742 0.0631,0.8632 0,1.19062 -0.0631,0.32743 -0.11466,0.0595 -0.11466,-0.59531 z M 220.6005,155.959 c 0.0127,-0.30822 0.0754,-0.37091 0.15985,-0.15985 0.0764,0.191 0.067,0.4192 -0.0209,0.50712 -0.0879,0.0879 -0.15045,-0.0684 -0.13896,-0.34727 z M 41.742167,155.43006 c 0.0127,-0.30823 0.07539,-0.37092 0.159852,-0.15985 0.07643,0.19099 0.06703,0.41919 -0.02089,0.50711 -0.08792,0.0879 -0.150453,-0.0684 -0.138964,-0.34726 z m 104.571513,-1.56545 c 0.001,-0.87313 0.0509,-1.19842 0.10977,-0.72287 0.0589,0.47555 0.0577,1.18992 -0.003,1.5875 -0.0604,0.39758 -0.10856,0.008 -0.10707,-0.86463 z m -82.08193,0.50711 c 0.0127,-0.30822 0.07539,-0.37091 0.159852,-0.15985 0.07643,0.191 0.06703,0.4192 -0.02089,0.50712 -0.08792,0.0879 -0.150453,-0.0683 -0.138964,-0.34727 z m 129.95091,-0.37482 c 0,-0.50933 0.0545,-0.71768 0.121,-0.46302 0.0665,0.25466 0.0665,0.67138 0,0.92604 -0.0666,0.25466 -0.121,0.0463 -0.121,-0.46302 z m 6.09076,-0.13229 c 0.003,-0.58209 0.0571,-0.78906 0.1204,-0.45994 0.0633,0.32912 0.0609,0.80537 -0.005,1.05833 -0.0662,0.25297 -0.118,-0.0163 -0.11506,-0.59839 z M 41.742167,152.78422 c 0.0127,-0.30822 0.07539,-0.37092 0.159852,-0.15985 0.07643,0.191 0.06703,0.4192 -0.02089,0.50712 -0.08792,0.0879 -0.150453,-0.0684 -0.138964,-0.34727 z m 12.964583,-0.52916 c 0.0127,-0.30823 0.07539,-0.37092 0.159852,-0.15985 0.07643,0.19099 0.06703,0.41919 -0.02089,0.50711 -0.08792,0.0879 -0.150453,-0.0683 -0.138964,-0.34726 z m 165.89375,-0.26459 c 0.0127,-0.30822 0.0754,-0.37092 0.15985,-0.15985 0.0764,0.191 0.067,0.4192 -0.0209,0.50712 -0.0879,0.0879 -0.15045,-0.0684 -0.13896,-0.34727 z m -81.8402,-6.64737 c 0.32912,-0.0633 0.80537,-0.0609 1.05833,0.005 0.25297,0.0662 -0.0163,0.118 -0.59839,0.11507 -0.58209,-0.003 -0.78906,-0.0571 -0.45994,-0.12041 z m 68.2625,0 c 0.32912,-0.0633 0.80537,-0.0609 1.05833,0.005 0.25297,0.0662 -0.0163,0.118 -0.5984,0.11507 -0.58208,-0.003 -0.78905,-0.0571 -0.45993,-0.12041 z m 54.89795,-0.789 c 0.25467,-0.0666 0.67138,-0.0666 0.92605,0 0.25466,0.0666 0.0463,0.121 -0.46303,0.121 -0.50932,0 -0.71768,-0.0544 -0.46302,-0.121 z m -104.77499,-3.71731 c 0.83674,-0.0525 2.20596,-0.0525 3.0427,0 0.83675,0.0525 0.15214,0.0955 -1.52135,0.0955 -1.67349,0 -2.3581,-0.043 -1.52135,-0.0955 z m 17.72708,0 c 0.83674,-0.0525 2.20596,-0.0525 3.04271,0 0.83674,0.0525 0.15213,0.0955 -1.52136,0.0955 -1.67349,0 -2.3581,-0.043 -1.52135,-0.0955 z m 50.8,0 c 0.83674,-0.0525 2.20596,-0.0525 3.04271,0 0.83674,0.0525 0.15213,0.0955 -1.52136,0.0955 -1.67349,0 -2.3581,-0.043 -1.52135,-0.0955 z m 17.4625,0 c 0.83674,-0.0525 2.20596,-0.0525 3.04271,0 0.83674,0.0525 0.15213,0.0955 -1.52136,0.0955 -1.67349,0 -2.3581,-0.043 -1.52135,-0.0955 z m -140.61197,-1.3249 c 1.49933,-0.0472 3.88058,-0.047 5.29167,4.3e-4 1.41109,0.0475 0.18436,0.0861 -2.72605,0.0859 -2.91042,-2.3e-4 -4.06495,-0.0391 -2.56562,-0.0863 z m 16.78697,2.6e-4 c 1.41883,-0.0476 3.74055,-0.0476 5.15937,0 1.41883,0.0476 0.25797,0.0865 -2.57968,0.0865 -2.83766,0 -3.99852,-0.0389 -2.57969,-0.0865 z m 66.675,-8.20036 c 0.83674,-0.0525 2.20596,-0.0525 3.04271,0 0.83674,0.0525 0.15213,0.0955 -1.52136,0.0955 -1.67349,0 -2.3581,-0.043 -1.52135,-0.0955 z M 49.873753,126.03491 c 0.190996,-0.0764 0.419199,-0.067 0.507118,0.0209 0.08792,0.0879 -0.06835,0.15046 -0.347266,0.13897 -0.308225,-0.0127 -0.370919,-0.0754 -0.159852,-0.15985 z m 3.968749,0 c 0.190997,-0.0764 0.4192,-0.067 0.507119,0.0209 0.08792,0.0879 -0.06835,0.15046 -0.347266,0.13897 -0.308225,-0.0127 -0.370919,-0.0754 -0.159853,-0.15985 z m 96.308328,0 c 0.191,-0.0764 0.4192,-0.067 0.50712,0.0209 0.0879,0.0879 -0.0684,0.15046 -0.34726,0.13897 -0.30823,-0.0127 -0.37092,-0.0754 -0.15986,-0.15985 z m 99.74792,0 c 0.19099,-0.0764 0.4192,-0.067 0.50712,0.0209 0.0879,0.0879 -0.0683,0.15046 -0.34727,0.13897 -0.30822,-0.0127 -0.37092,-0.0754 -0.15985,-0.15985 z M 71.212643,112.45731 c 0,-7.20328 0.03402,-10.15008 0.07561,-6.54843 0.04158,3.60164 0.04158,9.49523 0,13.09687 -0.04158,3.60164 -0.07561,0.65484 -0.07561,-6.54844 z m 98.681967,6.35 c 0,-3.71078 0.0372,-5.22883 0.0827,-3.37343 0.0455,1.85539 0.0455,4.89148 0,6.74687 -0.0455,1.85539 -0.0827,0.33734 -0.0827,-3.37344 z m 58.68864,1.6697 c 0.25467,-0.0666 0.67138,-0.0666 0.92605,0 0.25466,0.0665 0.0463,0.121 -0.46302,0.121 -0.50933,0 -0.71769,-0.0545 -0.46303,-0.121 z m -162.764,-6.05737 c 0.0127,-0.30823 0.07539,-0.37092 0.159852,-0.15985 0.07643,0.19099 0.06703,0.4192 -0.02089,0.50712 -0.08792,0.0879 -0.150453,-0.0684 -0.138964,-0.34727 z m -28.310416,-0.26458 c 0.0127,-0.30823 0.07539,-0.37092 0.159852,-0.15986 0.07643,0.191 0.06703,0.4192 -0.02089,0.50712 -0.08792,0.0879 -0.150453,-0.0683 -0.138964,-0.34726 z m 108.524426,-0.0437 c 2.58299,-0.0433 6.80971,-0.0433 9.3927,0 2.583,0.0433 0.46964,0.0788 -4.69635,0.0788 -5.16599,0 -7.27935,-0.0354 -4.69635,-0.0788 z m 99.74791,0 c 2.583,-0.0433 6.80971,-0.0433 9.39271,0 2.58299,0.0433 0.46963,0.0788 -4.69636,0.0788 -5.16598,0 -7.27934,-0.0354 -4.69635,-0.0788 z M 43.958519,102.53544 c 7.2e-5,-5.820836 0.03499,-8.164391 0.0776,-5.207902 0.04261,2.956492 0.04255,7.718992 -1.3e-4,10.583332 -0.04268,2.86435 -0.07755,0.4454 -0.07747,-5.37543 z m 125.662321,0.79375 c 3.7e-4,-2.18282 0.0414,-3.04058 0.0911,-1.90614 0.0497,1.13444 0.0494,2.92038 -6.7e-4,3.96875 -0.0501,1.04838 -0.0908,0.1202 -0.0904,-2.06261 z m -86.674171,0.7453 c 0.190996,-0.0764 0.419199,-0.067 0.507118,0.0209 0.08792,0.0879 -0.06835,0.15045 -0.347266,0.13896 -0.308225,-0.0127 -0.370919,-0.0754 -0.159852,-0.15985 z m 1.322916,0 c 0.190996,-0.0764 0.419199,-0.067 0.507118,0.0209 0.08792,0.0879 -0.06835,0.15045 -0.347265,0.13896 -0.308225,-0.0127 -0.37092,-0.0754 -0.159853,-0.15985 z m 63.483465,-0.79974 c 0.32742,-0.0631 0.8632,-0.0631 1.19062,0 0.32742,0.0631 0.0595,0.11467 -0.59531,0.11467 -0.65484,0 -0.92273,-0.0516 -0.59531,-0.11467 z m 99.74791,0 c 0.32742,-0.0631 0.86321,-0.0631 1.19063,0 0.32742,0.0631 0.0595,0.11467 -0.59532,0.11467 -0.65484,0 -0.92273,-0.0516 -0.59531,-0.11467 z M 220.91034,92.153455 c 0.83674,-0.05251 2.20596,-0.05251 3.04271,0 0.83674,0.05251 0.15213,0.09547 -1.52136,0.09547 -1.67349,0 -2.3581,-0.04296 -1.52135,-0.09547 z M -3.9662853,77.333977 c 4.7763705,-0.04044 12.5154328,-0.04042 17.1979163,5.3e-5 4.682484,0.04047 0.774544,0.07356 -8.6843099,0.07353 -9.4588539,-2.9e-5 -13.2899768,-0.03314 -8.5136064,-0.07358 z"
         id="path5" /><path
         style="fill:#e53228"
         d="m -40.03497,182.13161 c -5.20475,-0.36397 -10.287656,-1.31701 -14.13895,-2.65104 -13.400048,-4.64157 -20.434398,-14.69541 -22.249856,-31.8006 -0.312445,-2.94385 -0.38313,-9.70646 -0.385444,-36.8763 l -0.0028,-33.271358 h 16.668749 16.66875 l 0.0046,35.123438 c 0.0028,21.12886 0.108355,36.12493 0.265025,37.63698 1.086937,10.49019 5.062327,18.32118 11.768932,23.18322 3.400719,2.46539 8.723126,4.39257 13.16302,4.76616 2.740531,0.2306 2.702003,0.67667 -0.132292,1.53166 -6.40214,1.93126 -14.737044,2.83984 -21.629687,2.35784 z m 28.184457,-4.84113 c -0.07923,-0.12819 0.519032,-0.92708 1.329461,-1.77531 5.9634595,-6.24159 7.8884253,-14.59256 8.2382728,-35.73963 l 0.1630487,-9.85573 h 6.7380385 6.738038 l -0.134989,8.66511 c -0.14325,9.19529 -0.40545,11.85942 -1.6543992,16.80976 -2.3512032,9.31924 -6.9567748,15.51772 -14.3590205,19.32531 -2.7120982,1.39506 -6.8529283,2.90303 -7.0584503,2.57049 z"
         id="path4" /><path
         style="fill:#8d5757"
         d="m 190.54212,149.2344 c 0,-9.82266 0.033,-13.84102 0.0733,-8.92969 0.0403,4.91133 0.0403,12.94805 0,17.85938 -0.0403,4.91132 -0.0733,0.89296 -0.0733,-8.92969 z m 57.1476,4.7625 c 0,-7.20328 0.034,-10.15008 0.0756,-6.54844 0.0416,3.60164 0.0416,9.49523 0,13.09688 -0.0416,3.60164 -0.0756,0.65484 -0.0756,-6.54844 z m -170.828468,8.81509 c 0.190996,-0.0764 0.419199,-0.067 0.507118,0.0209 0.08792,0.0879 -0.06835,0.15045 -0.347266,0.13896 -0.308224,-0.0127 -0.370919,-0.0754 -0.159852,-0.15985 z m 1.322917,0 c 0.190996,-0.0764 0.419199,-0.067 0.507118,0.0209 0.08792,0.0879 -0.06835,0.15045 -0.347266,0.13896 -0.308224,-0.0127 -0.370919,-0.0754 -0.159852,-0.15985 z m 210.079161,0 c 0.191,-0.0764 0.4192,-0.067 0.50712,0.0209 0.0879,0.0879 -0.0684,0.15045 -0.34727,0.13896 -0.30822,-0.0127 -0.37092,-0.0754 -0.15985,-0.15985 z m 1.32292,0 c 0.19099,-0.0764 0.4192,-0.067 0.50712,0.0209 0.0879,0.0879 -0.0684,0.15045 -0.34727,0.13896 -0.30822,-0.0127 -0.37092,-0.0754 -0.15985,-0.15985 z m -87.29664,-2.13436 c -0.32911,-0.41965 -0.31975,-0.42901 0.0999,-0.0999 0.44073,0.34565 0.58089,0.56292 0.36313,0.56292 -0.0549,0 -0.2633,-0.20836 -0.46302,-0.46302 z m 21.84901,-10.25261 c -8e-5,-5.23875 0.0353,-7.41937 0.0785,-4.84583 0.0433,2.57354 0.0434,6.85979 1.5e-4,9.525 -0.0432,2.66521 -0.0786,0.55958 -0.0787,-4.67917 z m -62.44305,-1.05833 c 1e-4,-4.65667 0.0361,-6.5244 0.08,-4.15053 0.0439,2.37388 0.0438,6.18388 -1.9e-4,8.46667 -0.044,2.28279 -0.0799,0.34053 -0.0798,-4.31614 z m 11.64085,-0.52917 c -1.2e-4,-4.36562 0.0361,-6.18868 0.0805,-4.05125 0.0444,2.13744 0.0445,5.70932 2.2e-4,7.9375 -0.0443,2.22819 -0.0806,0.47938 -0.0808,-3.88625 z m -93.60004,6.81488 c 8.017178,-0.0644 9.325019,-0.13001 9.431922,-0.47343 0.08505,-0.27321 0.110652,-0.25133 0.08134,0.0695 -0.04003,0.43818 -0.644909,0.46854 -9.431922,0.47343 l -9.389153,0.005 z m 46.14329,-0.22234 c 0.0127,-0.30823 0.0754,-0.37092 0.15985,-0.15985 0.0764,0.19099 0.067,0.41919 -0.0209,0.50711 -0.0879,0.0879 -0.15045,-0.0684 -0.13896,-0.34726 z m 165.19794,0.22227 c 6.97238,-0.0565 9.30403,-0.1554 9.47899,-0.40215 0.16968,-0.23929 0.20295,-0.22058 0.12378,0.0696 -0.0936,0.34315 -1.37698,0.39759 -9.479,0.40215 l -9.37073,0.005 z m -90.85003,-0.48686 c 0.0127,-0.30822 0.0754,-0.37091 0.15985,-0.15985 0.0764,0.191 0.067,0.4192 -0.0209,0.50712 -0.0879,0.0879 -0.15045,-0.0684 -0.13896,-0.34727 z m 20.43671,-1.16857 c 0,-0.94589 0.048,-1.33284 0.10672,-0.8599 0.0587,0.47294 0.0587,1.24685 0,1.71979 -0.0587,0.47295 -0.10672,0.086 -0.10672,-0.85989 z m 32.95449,-1.25677 c -0.32911,-0.41965 -0.31975,-0.42901 0.0999,-0.0999 0.44073,0.34565 0.58089,0.56292 0.36313,0.56292 -0.0549,0 -0.26331,-0.20836 -0.46302,-0.46302 z m -127.73911,-0.22049 c 0.0127,-0.30822 0.0754,-0.37092 0.15985,-0.15985 0.0764,0.19099 0.067,0.4192 -0.0209,0.50712 -0.0879,0.0879 -0.15045,-0.0683 -0.13896,-0.34727 z m 74.34791,0 c 0.0127,-0.30822 0.0754,-0.37092 0.15985,-0.15985 0.0764,0.19099 0.067,0.4192 -0.0209,0.50712 -0.0879,0.0879 -0.15045,-0.0683 -0.13896,-0.34727 z M 70.46896,151.68179 c -0.06772,-0.10914 1.860017,-0.1678 4.283864,-0.13035 8.330984,0.12871 9.157256,0.21907 2.504381,0.27388 -3.665812,0.0302 -6.720523,-0.0344 -6.788245,-0.14353 z m 211.40208,0 c -0.0677,-0.10914 1.86002,-0.1678 4.28386,-0.13035 8.33099,0.12871 9.15726,0.21907 2.50438,0.27388 -3.66581,0.0302 -6.72052,-0.0344 -6.78824,-0.14353 z m -24.20799,-4.03489 c 0,-0.3638 0.06,-0.51263 0.13345,-0.33073 0.0734,0.1819 0.0734,0.47956 0,0.66146 -0.0734,0.1819 -0.13345,0.0331 -0.13345,-0.33073 z m -113.58177,-0.46302 c -0.32911,-0.41965 -0.31975,-0.42901 0.0999,-0.0999 0.44073,0.34565 0.58089,0.56292 0.36313,0.56292 -0.0549,0 -0.2633,-0.20836 -0.46302,-0.46302 z m 57.9775,0.36312 c 0,-0.0549 0.20835,-0.2633 0.46302,-0.46302 0.41964,-0.32911 0.429,-0.31975 0.0999,0.0999 -0.34564,0.44073 -0.56291,0.58088 -0.56291,0.36312 z M 47.608258,145.61243 c 0.254661,-0.0665 0.67138,-0.0665 0.926041,0 0.254662,0.0666 0.0463,0.121 -0.46302,0.121 -0.509323,0 -0.717683,-0.0545 -0.463021,-0.121 z m 29.368749,-0.79375 c 0.254662,-0.0666 0.67138,-0.0666 0.926042,0 0.254661,0.0666 0.0463,0.121 -0.463021,0.121 -0.509323,0 -0.717682,-0.0545 -0.463021,-0.121 z m 211.402083,0 c 0.25466,-0.0666 0.67138,-0.0666 0.92604,0 0.25466,0.0666 0.0463,0.121 -0.46302,0.121 -0.50933,0 -0.71769,-0.0545 -0.46302,-0.121 z m -139.7999,-1.07439 c -0.3291,-0.41964 -0.31974,-0.429 0.0999,-0.0999 0.25466,0.19972 0.46302,0.40808 0.46302,0.46302 0,0.21776 -0.21727,0.0776 -0.56292,-0.36313 z m 48.98167,0.36313 c 0,-0.0549 0.20836,-0.2633 0.46302,-0.46302 0.41964,-0.32911 0.429,-0.31975 0.0999,0.0999 -0.34564,0.44073 -0.56291,0.58089 -0.56291,0.36313 z M 76.067502,140.32241 c 0.190996,-0.0764 0.419199,-0.067 0.507118,0.0209 0.08792,0.0879 -0.06835,0.15046 -0.347266,0.13897 -0.308224,-0.0127 -0.370919,-0.0754 -0.159852,-0.15985 z m 2.629297,0.006 c 0.181901,-0.0734 0.479557,-0.0734 0.661458,0 0.181901,0.0734 0.03307,0.13345 -0.330729,0.13345 -0.363802,0 -0.51263,-0.06 -0.330729,-0.13345 z m 58.737501,0 c 0.1819,-0.0734 0.47955,-0.0734 0.66146,0 0.1819,0.0734 0.0331,0.13345 -0.33073,0.13345 -0.36381,0 -0.51263,-0.06 -0.33073,-0.13345 z m 2.92695,-0.006 c 0.191,-0.0764 0.4192,-0.067 0.50712,0.0209 0.0879,0.0879 -0.0684,0.15046 -0.34727,0.13897 -0.30822,-0.0127 -0.37092,-0.0754 -0.15985,-0.15985 z m 65.61667,0 c 0.19099,-0.0764 0.4192,-0.067 0.50711,0.0209 0.0879,0.0879 -0.0683,0.15046 -0.34726,0.13897 -0.30823,-0.0127 -0.37092,-0.0754 -0.15985,-0.15985 z m 2.91041,0 c 0.191,-0.0764 0.4192,-0.067 0.50712,0.0209 0.0879,0.0879 -0.0684,0.15046 -0.34726,0.13897 -0.30823,-0.0127 -0.37092,-0.0754 -0.15986,-0.15985 z m 51.85834,0 c 0.19099,-0.0764 0.41919,-0.067 0.50711,0.0209 0.0879,0.0879 -0.0684,0.15046 -0.34726,0.13897 -0.30823,-0.0127 -0.37092,-0.0754 -0.15985,-0.15985 z m 3.17499,0 c 0.191,-0.0764 0.4192,-0.067 0.50712,0.0209 0.0879,0.0879 -0.0684,0.15046 -0.34726,0.13897 -0.30823,-0.0127 -0.37092,-0.0754 -0.15986,-0.15985 z m 23.54792,0 c 0.191,-0.0764 0.4192,-0.067 0.50712,0.0209 0.0879,0.0879 -0.0684,0.15046 -0.34727,0.13897 -0.30822,-0.0127 -0.37092,-0.0754 -0.15985,-0.15985 z m 2.6293,0.006 c 0.1819,-0.0734 0.47956,-0.0734 0.66146,0 0.1819,0.0734 0.0331,0.13345 -0.33073,0.13345 -0.3638,0 -0.51263,-0.06 -0.33073,-0.13345 z m -183.48854,-6.63759 c 3.74716,-0.0414 9.87888,-0.0414 13.62604,0 3.74716,0.0414 0.6813,0.0753 -6.81302,0.0753 -7.49432,0 -10.56018,-0.0339 -6.81302,-0.0753 z m -55.430207,-7.66608 c 0.472942,-0.0587 1.246849,-0.0587 1.719791,0 0.472943,0.0587 0.08599,0.10671 -0.859895,0.10671 -0.945886,0 -1.332839,-0.048 -0.859896,-0.10671 z m 96.577657,-3.6e-4 c 0.47554,-0.0589 1.18992,-0.0577 1.5875,0.003 0.39757,0.0604 0.008,0.10855 -0.86464,0.10706 -0.87312,-0.001 -1.19841,-0.0509 -0.72286,-0.10977 z m 42.08054,0.011 c 0.191,-0.0764 0.4192,-0.067 0.50712,0.0209 0.0879,0.0879 -0.0684,0.15046 -0.34726,0.13897 -0.30823,-0.0127 -0.37092,-0.0754 -0.15986,-0.15985 z m 3.96875,0 c 0.191,-0.0764 0.4192,-0.067 0.50712,0.0209 0.0879,0.0879 -0.0684,0.15046 -0.34726,0.13897 -0.30823,-0.0127 -0.37092,-0.0754 -0.15986,-0.15985 z m 53.69862,-0.011 c 0.47555,-0.0589 1.18992,-0.0577 1.5875,0.003 0.39758,0.0604 0.008,0.10855 -0.86463,0.10706 -0.87313,-0.001 -1.19842,-0.0509 -0.72287,-0.10977 z m -152.748324,-9.9947 c -8.6e-5,-5.23875 0.03525,-7.41938 0.07853,-4.84584 0.04328,2.57354 0.04335,6.85979 1.56e-4,9.525 -0.04319,2.66521 -0.0786,0.55959 -0.07869,-4.67916 z m 11.056614,-3.49707 -0.0636,-13.02206 -2.97656,-0.0844 -2.976561,-0.0844 2.984871,-0.05656 c 2.18709,-0.04144 3.01873,0.03184 3.11159,0.274173 0.0697,0.181901 0.0946,6.105267 0.0552,13.163027 l -0.0715,12.83229 z m 106.62708,0 -0.0635,-13.02206 -2.97657,-0.0844 -2.97656,-0.0844 2.98487,-0.05656 c 2.18709,-0.04144 3.01873,0.03184 3.11159,0.274173 0.0697,0.181901 0.0946,6.105267 0.0552,13.163027 l -0.0715,12.83229 z m -11.96979,11.20238 c 0,-0.0549 0.20835,-0.2633 0.46302,-0.46302 0.41964,-0.32911 0.429,-0.31975 0.0999,0.0999 -0.34564,0.44073 -0.56291,0.58088 -0.56291,0.36312 z m -8.51628,-1.93293 c 0.191,-0.0764 0.4192,-0.067 0.50712,0.0209 0.0879,0.0879 -0.0684,0.15045 -0.34727,0.13897 -0.30822,-0.0127 -0.37092,-0.0754 -0.15985,-0.15986 z m -140.510284,-1.3289 c 0.327422,-0.0631 0.863203,-0.0631 1.190625,0 0.327422,0.0631 0.05953,0.11466 -0.595312,0.11466 -0.654844,0 -0.922735,-0.0516 -0.595313,-0.11466 z m 101.401564,-0.44233 c 0,-0.0549 0.20836,-0.26331 0.46302,-0.46303 0.41964,-0.3291 0.429,-0.31974 0.0999,0.0999 -0.34564,0.44073 -0.56291,0.58089 -0.56291,0.36313 z m 100.14479,-0.42928 c 0.26339,-0.29104 0.53842,-0.52916 0.61118,-0.52916 0.0728,0 -0.0832,0.23812 -0.3466,0.52916 -0.26339,0.29104 -0.53842,0.52917 -0.61118,0.52917 -0.0728,0 0.0832,-0.23813 0.3466,-0.52917 z m -50.3364,-1.45521 c 0.003,-0.58208 0.0571,-0.78905 0.1204,-0.45993 0.0633,0.32912 0.0609,0.80537 -0.005,1.05833 -0.0662,0.25297 -0.118,-0.0163 -0.11506,-0.5984 z m 22.81264,-7.27604 0.007,-6.74687 3.77031,-0.0734 3.77031,-0.0734 v -2.23443 -2.234432 l -3.77031,-0.07341 -3.77031,-0.07341 -0.0124,-3.571875 -0.0124,-3.571875 0.0862,3.498511 0.0862,3.498512 3.76268,0.07336 3.76269,0.07336 v 2.381249 2.38125 l -3.76579,0.0734 -3.76578,0.0734 -0.0778,6.6735 -0.0778,6.67349 z m -227.4684262,4.58727 c 0.181901,-0.0734 0.4795572,-0.0734 0.6614583,0 0.181901,0.0734 0.033073,0.13346 -0.3307292,0.13346 -0.363802,0 -0.5126302,-0.0601 -0.3307291,-0.13346 z M 141.2255,114.41964 c 0.0127,-0.30823 0.0754,-0.37092 0.15985,-0.15985 0.0764,0.19099 0.067,0.4192 -0.0209,0.50712 -0.0879,0.0879 -0.15045,-0.0684 -0.13896,-0.34727 z m 99.74791,0 c 0.0127,-0.30823 0.0754,-0.37092 0.15986,-0.15985 0.0764,0.19099 0.067,0.4192 -0.0209,0.50712 -0.0879,0.0879 -0.15046,-0.0684 -0.13897,-0.34727 z M 65.919433,103.0646 c 6.6e-5,-6.111871 0.03477,-8.574403 0.07713,-5.47229 0.04236,3.10211 0.0423,8.10274 -1.2e-4,11.1125 -0.04242,3.00976 -0.07707,0.47167 -0.07701,-5.64021 z m -28.310535,-0.13229 c 0,-6.039112 0.03473,-8.509659 0.07718,-5.490102 0.04245,3.019562 0.04245,7.960652 0,10.980212 -0.04245,3.01955 -0.07718,0.54901 -0.07718,-5.49011 z m 6.249936,10.429 c 0.0127,-0.30823 0.07539,-0.37092 0.159852,-0.15986 0.07643,0.191 0.06703,0.4192 -0.02089,0.50712 -0.08792,0.0879 -0.150453,-0.0683 -0.138964,-0.34726 z m 125.941666,-1.5875 c 0.0127,-0.30823 0.0754,-0.37092 0.15985,-0.15986 0.0764,0.191 0.067,0.4192 -0.0209,0.50712 -0.0879,0.0879 -0.15045,-0.0684 -0.13896,-0.34726 z m 11.1125,-4.49792 c 0.0127,-0.30823 0.0754,-0.37092 0.15985,-0.15985 0.0764,0.19099 0.067,0.4192 -0.0209,0.50711 -0.0879,0.0879 -0.15045,-0.0683 -0.13896,-0.34726 z M 77.08725,106.19551 c -0.09701,-0.097 -0.176389,-1.6408 -0.176389,-3.43064 v -3.254238 l -2.84427,-0.08986 -2.844271,-0.08986 2.910416,0.01476 2.910417,0.01476 0.132292,3.506268 c 0.07276,1.92845 0.122369,3.50603 0.110243,3.50573 -0.01213,-2.9e-4 -0.101424,-0.0799 -0.198438,-0.17693 z M 180.913,105.68839 c 0.0127,-0.30823 0.0754,-0.37092 0.15985,-0.15985 0.0764,0.19099 0.067,0.4192 -0.0209,0.50711 -0.0879,0.0879 -0.15045,-0.0684 -0.13896,-0.34726 z m 35.62581,-1.62412 c 0.4697,-0.0584 1.30314,-0.0594 1.85208,-0.002 0.54895,0.0573 0.16466,0.1051 -0.85399,0.10627 -1.01865,0.001 -1.46779,-0.0457 -0.99809,-0.10414 z m -77.58316,-1.92571 c 0.26339,-0.29104 0.53842,-0.52916 0.61118,-0.52916 0.0728,0 -0.0832,0.23812 -0.34659,0.52916 -0.26339,0.29104 -0.53843,0.52917 -0.61119,0.52917 -0.0728,0 0.0832,-0.23813 0.3466,-0.52917 z m 99.61562,0.16469 c 0,-0.0549 0.20836,-0.2633 0.46303,-0.46302 0.41964,-0.32911 0.429,-0.31975 0.0999,0.0999 -0.34564,0.44072 -0.56292,0.58088 -0.56292,0.36312 z m 18.22251,-0.62771 c -0.32911,-0.41964 -0.31975,-0.429 0.0999,-0.0999 0.44073,0.34564 0.58089,0.56291 0.36313,0.56291 -0.055,0 -0.26331,-0.20836 -0.46302,-0.46302 z M 92.222945,100.61721 c -0.329107,-0.41965 -0.319749,-0.429 0.0999,-0.0999 0.440729,0.34565 0.580887,0.56292 0.363126,0.56292 -0.05494,0 -0.263301,-0.20836 -0.463021,-0.46302 z m 19.083745,-1.124481 -3.30729,-0.157322 3.22553,-0.05363 c 1.92512,-0.03201 3.29146,0.05304 3.38906,0.210953 0.0899,0.145521 0.12672,0.24045 0.0818,0.210953 -0.045,-0.0295 -1.57005,-0.124426 -3.38906,-0.210953 z m 18.98386,-0.195897 c 0.9095,-0.05166 2.39778,-0.05166 3.30729,0 0.9095,0.05167 0.16536,0.09394 -1.65365,0.09394 -1.81901,0 -2.56315,-0.04227 -1.65364,-0.09394 z m 35.06695,8.5e-5 c 0.84206,-0.05266 2.15175,-0.05218 2.91042,0.0011 0.75867,0.05326 0.0697,0.09635 -1.53102,0.09575 -1.60073,-5.97e-4 -2.22146,-0.04417 -1.3794,-0.09684 z m 51.18131,0.0049 c 0.4697,-0.05845 1.30314,-0.05941 1.85208,-0.0021 0.54895,0.05727 0.16466,0.105098 -0.85399,0.106272 -1.01865,0.0012 -1.46779,-0.04569 -0.99809,-0.104138 z m -39.41701,-0.26035 c 0.32742,-0.06306 0.8632,-0.06306 1.19062,0 0.32742,0.06306 0.0595,0.114662 -0.59531,0.114662 -0.65484,0 -0.92273,-0.0516 -0.59531,-0.114662 z M 101.32968,94.79836 c 0.98831,-0.05105 2.53613,-0.05067 3.43958,8.41e-4 0.90345,0.05151 0.0948,0.09327 -1.79694,0.09281 -1.89177,-4.63e-4 -2.63096,-0.04261 -1.64264,-0.09365 z m 108.137,0.0026 3.17543,-0.08703 v -2.23266 -2.232671 l -3.24115,-0.08756 -3.24114,-0.08756 3.30729,0.01327 3.30729,0.01327 v 2.38125 2.381251 l -3.24157,0.01274 -3.24158,0.01275 z m -108.137,-4.765117 c 0.98831,-0.05105 2.53613,-0.05067 3.43958,8.42e-4 0.90345,0.05151 0.0948,0.09327 -1.79694,0.09281 -1.89177,-4.63e-4 -2.63096,-0.04261 -1.64264,-0.09365 z M -9.9245419,82.097309 c 1.4993293,-0.04725 3.8805793,-0.04706 5.2916666,4.25e-4 1.4110873,0.04748 0.1843633,0.08614 -2.7260533,0.0859 -2.9104164,-2.34e-4 -4.0649424,-0.03908 -2.5656133,-0.08633 z m 23.9307169,2.55e-4 c 1.418828,-0.04757 3.740547,-0.04757 5.159375,0 1.418828,0.04757 0.257969,0.0865 -2.579687,0.0865 -2.837657,0 -3.998516,-0.03892 -2.579688,-0.0865 z"
         id="path3" /><path
         style="fill:#7f4141"
         d="m 39.182598,165.30784 -0.504028,-0.59532 0.595313,0.50403 c 0.559447,0.47366 0.715762,0.6866 0.504028,0.6866 -0.05021,0 -0.318097,-0.26789 -0.595313,-0.59531 z m 199.124092,-0.0661 c 0.34178,-0.3638 0.68094,-0.66146 0.7537,-0.66146 0.0728,0 -0.14734,0.29766 -0.48912,0.66146 -0.34177,0.3638 -0.68093,0.66146 -0.75369,0.66146 -0.0728,0 0.14734,-0.29766 0.48911,-0.66146 z m -187.060411,0.29698 c 0,-0.0549 0.208359,-0.2633 0.46302,-0.46302 0.419644,-0.32911 0.429003,-0.31975 0.09989,0.0999 -0.345643,0.44073 -0.562915,0.58089 -0.562915,0.36313 z m 111.761321,-4.46417 -0.50403,-0.59531 0.59531,0.50403 c 0.32742,0.27721 0.59531,0.5451 0.59531,0.59531 0,0.21173 -0.21293,0.0554 -0.68659,-0.50403 z m 75.54365,-38.49687 -0.64143,-0.72761 0.7276,0.64143 c 0.40018,0.35279 0.7276,0.68021 0.7276,0.72761 0,0.2075 -0.21425,0.0386 -0.81377,-0.64143 z M 40.89378,122.31304 c -0.329108,-0.41964 -0.319749,-0.429 0.0999,-0.0999 0.254661,0.19972 0.46302,0.40808 0.46302,0.46302 0,0.21776 -0.217272,0.0776 -0.562915,-0.36313 z m 102.27007,-3.04271 -0.50403,-0.59531 0.59531,0.50403 c 0.55945,0.47366 0.71576,0.6866 0.50403,0.6866 -0.0502,0 -0.3181,-0.26789 -0.59531,-0.59532 z m 99.87159,0.1323 c -0.32911,-0.41965 -0.31975,-0.42901 0.0999,-0.0999 0.44073,0.34564 0.58088,0.56292 0.36312,0.56292 -0.0549,0 -0.2633,-0.20836 -0.46302,-0.46302 z m -197.238258,-0.92605 -0.504028,-0.59531 0.595312,0.50403 c 0.327422,0.27721 0.595313,0.54511 0.595313,0.59531 0,0.21174 -0.212935,0.0554 -0.686597,-0.50403 z m 11.534513,0.49542 c 0,-0.0549 0.208359,-0.2633 0.463021,-0.46302 0.419644,-0.32911 0.429002,-0.31975 0.09989,0.0999 -0.345644,0.44072 -0.562916,0.58088 -0.562916,0.36312 z m 95.480835,-14.12146 c -0.32911,-0.41964 -0.31975,-0.429 0.0999,-0.0999 0.44073,0.34564 0.58089,0.56291 0.36313,0.56291 -0.0549,0 -0.2633,-0.20836 -0.46302,-0.46302 z m 99.62423,-0.13229 -0.50403,-0.59531 0.59532,0.50403 c 0.55944,0.47366 0.71576,0.68659 0.50402,0.68659 -0.0502,0 -0.31809,-0.26789 -0.59531,-0.59531 z m -57.55548,-0.66146 c -0.32911,-0.41964 -0.31975,-0.429 0.0999,-0.0999 0.25466,0.19972 0.46302,0.40808 0.46302,0.46302 0,0.21776 -0.21727,0.0776 -0.56291,-0.36313 z M 80.218153,101.34481 c 0.263389,-0.29104 0.53842,-0.52916 0.611181,-0.52916 0.07276,0 -0.08321,0.23812 -0.346598,0.52916 -0.263389,0.29104 -0.53842,0.52917 -0.611181,0.52917 -0.07276,0 0.08321,-0.23813 0.346598,-0.52917 z"
         id="path2" /><path
         style="fill:#611515"
         d="m 43.176487,167.52457 c -1.542419,-0.40322 -2.763169,-1.15368 -3.96274,-2.43612 -2.28242,-2.44009 -3.150354,-5.49794 -3.148207,-11.09155 0.0012,-3.19031 0.104032,-4.20521 0.610405,-6.02584 1.421432,-5.11068 4.312844,-7.54729 8.956024,-7.54729 1.979483,0 2.376295,0.0901 3.963206,0.89959 2.056313,1.04896 3.461725,2.69097 4.336708,5.06677 0.308164,0.83674 0.663408,1.52135 0.78943,1.52135 0.126023,0 0.229132,-3.69094 0.229132,-8.20208 v -8.20209 h 2.910417 2.910416 v 17.72709 17.72708 h -2.910416 -2.910417 v -3.43958 c 0,-1.89177 -0.09257,-3.43959 -0.205707,-3.43959 -0.113139,0 -0.554067,0.80368 -0.97984,1.78594 -0.97947,2.25966 -2.869433,4.30685 -4.714186,5.10637 -1.474467,0.63904 -4.463108,0.91883 -5.874225,0.54995 z m 7.3615,-5.34483 c 1.560341,-0.43328 3.475321,-2.44726 3.989724,-4.19597 0.548908,-1.86601 0.554561,-5.82817 0.01093,-7.65878 -0.999182,-3.36461 -4.344629,-5.27295 -7.936591,-4.52726 -1.859533,0.38603 -3.245331,1.56509 -4.119608,3.50502 -0.553349,1.22783 -0.625239,1.78126 -0.626943,4.82644 -0.0017,3.032 0.07015,3.59596 0.606311,4.7592 0.769582,1.66968 1.496265,2.45892 2.831347,3.0751 1.198338,0.55307 3.665531,0.65479 5.244833,0.21625 z m 24.083352,5.30369 c -3.378203,-0.60863 -6.086095,-2.25108 -7.83237,-4.75065 -3.335124,-4.7738 -2.967997,-13.63395 0.753097,-18.17505 2.575481,-3.14304 7.290256,-4.70948 12.157715,-4.03928 5.878521,0.8094 8.91542,4.2016 9.516523,10.62989 0.105238,1.12544 0.110707,2.58395 0.01215,3.24115 l -0.179187,1.19491 h -9.410312 -9.410313 l 0.175436,1.09711 c 0.439683,2.74963 2.145798,5.06201 4.289384,5.81363 1.664964,0.58379 5.042833,0.45106 6.388129,-0.25101 1.097206,-0.5726 2.708433,-2.42387 2.708433,-3.11194 0,-0.58189 0.415522,-0.64225 1.753286,-0.2547 0.709182,0.20544 1.793416,0.50509 2.409408,0.66588 l 1.119985,0.29234 -0.512386,1.34849 c -1.141907,3.00525 -3.066344,4.83358 -6.091611,5.78739 -1.980194,0.62432 -5.829519,0.87539 -7.847371,0.51184 z m 9.096015,-17.02465 c -0.245835,-2.38191 -1.34839,-4.04388 -3.366909,-5.07522 -1.23535,-0.63118 -4.485529,-0.63822 -5.953125,-0.0129 -2.032662,0.86611 -3.481359,2.89039 -3.948561,5.51736 l -0.176459,0.99219 h 6.79588 6.79588 z m 52.327886,17.02604 c -4.94636,-0.99283 -8.30126,-4.1339 -9.47767,-8.87358 -1.63253,-6.57737 0.17535,-12.92394 4.53048,-15.90431 2.33495,-1.59788 4.58879,-2.24689 7.8576,-2.26264 4.39028,-0.0212 7.17502,0.98069 9.67503,3.4807 2.41682,2.41682 3.67724,5.8691 3.67724,10.07191 0,8.49046 -5.14053,13.82754 -13.21998,13.72543 -1.0914,-0.0138 -2.46062,-0.12067 -3.0427,-0.23751 z m 5.52612,-5.13124 c 1.86404,-0.561 2.93047,-1.52032 3.9168,-3.52343 0.83083,-1.68731 0.87583,-1.92854 0.87583,-4.69504 0,-3.65156 -0.50405,-5.28639 -2.13174,-6.91408 -2.71219,-2.71219 -7.88719,-2.5689 -10.39544,0.28784 -1.30431,1.48552 -1.67715,2.63691 -1.82718,5.64269 -0.10436,2.09085 -0.0297,3.11957 0.32023,4.41232 1.09851,4.05825 4.98277,6.07139 9.2415,4.7897 z m 19.32644,4.93819 c -2.2481,-0.80649 -3.47759,-2.01913 -4.44132,-4.38047 -0.53197,-1.30342 -0.56511,-1.89883 -0.64705,-11.62638 l -0.0864,-10.25261 h 2.91123 2.91124 l 0.0821,8.92969 0.0822,8.92969 0.66146,1.1771 c 0.79187,1.40917 1.87402,2.09505 3.63444,2.30355 2.80106,0.33174 5.67619,-1.19707 6.79458,-3.61294 0.51481,-1.11205 0.55667,-1.7363 0.63434,-9.45886 l 0.0832,-8.26823 h 2.89341 2.8934 v 12.96459 12.96458 h -2.91042 -2.91041 v -3.46163 c 0,-3.75538 -0.23118,-4.21009 -1.04732,-2.06004 -0.97311,2.56355 -2.83713,4.63009 -5.03611,5.58326 -1.73147,0.75052 -4.8054,0.87754 -6.50255,0.2687 z m 43.10883,0.0682 c -6.04506,-1.31463 -9.61158,-6.27321 -9.61158,-13.36308 0,-4.24723 1.23408,-7.62663 3.67803,-10.07191 2.45963,-2.46095 5.47219,-3.53295 9.80653,-3.48958 6.40545,0.0641 10.80648,3.35145 12.29708,9.18531 0.47393,1.85488 0.53337,6.37042 0.11053,8.39805 -0.72729,3.48759 -3.15451,6.81014 -6.04506,8.27489 -2.72178,1.37924 -6.8291,1.80713 -10.23553,1.06632 z m 6.98497,-5.39344 c 1.43093,-0.73 2.79879,-2.38614 3.33046,-4.03235 0.55928,-1.73172 0.58428,-5.99019 0.0458,-7.80343 -0.47597,-1.60277 -1.93408,-3.36776 -3.40004,-4.11564 -1.50868,-0.76967 -3.93865,-0.92437 -5.83954,-0.37177 -2.9218,0.84939 -4.4922,3.1925 -4.83458,7.21342 -0.40571,4.76459 1.41189,8.41182 4.73417,9.4997 1.55775,0.51008 4.58792,0.31196 5.96373,-0.38993 z m 18.98072,5.55803 c -2.62422,-0.68602 -4.34549,-2.35594 -5.16576,-5.01166 -0.48116,-1.55783 -0.52278,-2.48031 -0.52278,-11.58659 v -9.89401 h 2.91041 2.91042 l 0.006,8.7974 c 0.005,7.99146 0.0507,8.89626 0.49593,9.87653 0.88758,1.95425 2.78258,2.9293 5.20683,2.6791 1.6858,-0.17399 3.0534,-0.78695 4.10738,-1.84093 1.69752,-1.69753 1.68574,-1.62459 1.77314,-10.97928 l 0.0797,-8.53282 h 2.89684 2.89684 v 12.96459 12.96458 h -2.77813 -2.77812 v -3.43958 c 0,-3.97603 -0.29344,-4.39564 -1.28523,-1.83789 -0.82166,2.11902 -2.98575,4.47015 -4.86357,5.28393 -1.48991,0.64568 -4.47126,0.92744 -5.88974,0.55663 z m 29.26841,-0.0507 c -2.87826,-0.5123 -5.40324,-2.00713 -6.6151,-3.91623 -0.65423,-1.03065 -1.76522,-3.99368 -1.55189,-4.13894 0.0359,-0.0244 1.19634,-0.27208 2.57878,-0.55032 l 2.51355,-0.50589 0.79375,1.57685 c 1.0278,2.04183 2.33264,2.9792 4.71515,3.38731 4.38715,0.75149 7.56608,-1.54103 6.17678,-4.45443 -0.5386,-1.12944 -1.88387,-1.82086 -4.87114,-2.50358 -5.69805,-1.30225 -7.84793,-2.18161 -9.25686,-3.78628 -2.47112,-2.81445 -1.87719,-8.16545 1.13645,-10.23889 1.56504,-1.07677 3.00335,-1.55805 5.5392,-1.8535 4.74438,-0.55276 9.062,0.69858 10.85429,3.14583 0.8302,1.13358 1.71342,3.13754 1.71342,3.88764 0,0.17693 -0.94283,0.50816 -2.18281,0.76685 -1.20055,0.25047 -2.37567,0.50892 -2.61139,0.57434 -0.30035,0.0834 -0.47272,-0.10079 -0.57615,-0.61555 -0.21909,-1.0904 -1.25547,-2.48581 -2.30347,-3.10145 -1.38227,-0.81201 -4.78279,-0.77708 -6.13383,0.063 -1.63932,1.01935 -1.9756,3.29071 -0.66457,4.48871 1.01623,0.92861 2.19342,1.37122 5.79817,2.18005 7.321,1.64267 9.7196,3.82715 9.4098,8.56982 -0.21841,3.34366 -1.94187,5.50366 -5.2226,6.54544 -1.99855,0.63463 -6.92948,0.89037 -9.23953,0.4792 z m 26.84468,0.019 c -4.7705,-0.86424 -8.12077,-3.71167 -9.49109,-8.06658 -0.77283,-2.45608 -0.81816,-7.63891 -0.0879,-10.05169 1.61,-5.31951 4.87671,-8.10381 10.39424,-8.85926 3.70067,-0.5067 7.51344,0.34948 9.99905,2.24535 1.27196,0.97017 2.43846,2.82033 3.07257,4.87334 0.56962,1.84422 0.96628,6.09819 0.67633,7.25342 l -0.17491,0.6969 h -9.41092 -9.41093 l 0.18379,1.12448 c 0.45524,2.78533 2.10943,5.03222 4.25991,5.78626 0.56473,0.19801 1.97928,0.35499 3.14344,0.34884 3.05085,-0.0161 4.84871,-1.05569 5.81176,-3.36059 0.22718,-0.54372 0.44206,-0.98858 0.47751,-0.98858 0.19033,0 4.75766,1.30145 4.83351,1.3773 0.18534,0.18534 -1.17281,3.16613 -1.84289,4.04465 -0.97621,1.27988 -2.86011,2.50815 -4.74833,3.09583 -1.85459,0.57722 -5.79194,0.8233 -7.68513,0.48033 z m 9.03402,-17.03414 c -0.36368,-3.52378 -2.57861,-5.52626 -6.14936,-5.55953 -3.88576,-0.0362 -6.09931,1.74877 -6.96906,5.61974 -0.1323,0.58881 -0.17514,1.13597 -0.0952,1.21591 0.0799,0.0799 3.11871,0.14533 6.75284,0.14533 h 6.6075 z m -184.87107,2.74437 v -13.75834 h -5.15937 -5.159379 v -2.77812 -2.77813 h 13.493749 13.49375 v 2.77813 2.77812 h -5.15937 -5.15938 v 13.75834 13.75833 h -3.175 -3.175 z m 74.34792,-3.96875 v -17.72709 h 2.91041 2.91042 v 17.72709 17.72708 h -2.91042 -2.91041 z m 4.35614,-23.27899 c -3.32367,-0.46713 -5.68964,-1.65869 -7.18416,-3.61811 -0.61253,-0.80307 -2.03984,-4.30658 -1.83708,-4.50934 0.0356,-0.0356 0.95097,-0.24615 2.03417,-0.46791 1.08321,-0.22177 2.23349,-0.4644 2.55618,-0.53919 0.49689,-0.11516 0.67175,0.0617 1.14207,1.15496 0.66504,1.54593 1.85725,2.76169 3.29719,3.36235 1.26747,0.52871 4.34283,0.60353 5.74714,0.13983 2.19454,-0.72464 3.02626,-3.11813 1.65132,-4.75215 -0.81332,-0.96658 -2.51342,-1.62569 -6.20672,-2.40628 -6.64505,-1.40446 -9.04253,-3.51709 -9.04253,-7.96818 0,-4.61156 3.04961,-7.160001 9.05843,-7.569776 3.99356,-0.272342 7.39963,0.635802 9.28924,2.476746 1.0307,1.00415 2.43049,3.76876 2.28658,4.51603 -0.0613,0.31821 -0.65599,0.57928 -2.06856,0.90808 -2.55128,0.59387 -3.17316,0.60238 -3.17316,0.0434 0,-0.96741 -1.36534,-2.78003 -2.4728,-3.28289 -2.54127,-1.15389 -6.43111,-0.37021 -7.19113,1.44878 -1.05691,2.52955 0.64858,4.11274 5.56288,5.16396 7.79182,1.66676 10.17484,3.59251 10.17484,8.22243 0,3.91464 -1.88019,6.23529 -5.91729,7.30351 -1.73179,0.45822 -5.72698,0.65198 -7.70661,0.37375 z m 36.72497,-0.005 c -2.58214,-0.54241 -4.21773,-1.83839 -5.3404,-4.23154 -0.68137,-1.45244 -0.68368,-1.48126 -0.76975,-9.59276 l -0.0863,-8.13593 h -1.8319 -1.8319 v -2.24896 -2.248961 h 1.85208 1.85209 v -3.571875 -3.571875 h 2.90273 2.90274 l 0.0738,3.505729 0.0738,3.505729 3.77031,0.07341 3.77031,0.07341 v 2.234433 2.23443 l -3.77031,0.0734 -3.77031,0.0734 v 7.15602 c 0,6.4859 0.0453,7.22507 0.4836,7.89345 0.89426,1.36364 2.90702,1.80674 5.37929,1.18421 0.95222,-0.23977 1.24613,-0.23205 1.41247,0.0371 0.16505,0.26705 0.58358,3.23722 0.65018,4.61402 0.0327,0.67513 -5.67822,1.37259 -7.72255,0.94315 z M 46.840163,125.42579 c -2.528988,-0.66296 -3.873639,-1.38466 -5.571243,-2.99019 -1.557964,-1.47345 -2.747405,-3.67097 -3.224004,-5.95641 -0.187462,-0.89894 -0.292387,-5.52763 -0.292387,-12.89844 V 92.084395 h 3.029678 3.029678 l 0.08686,11.443235 c 0.09764,12.86364 0.128381,13.08761 2.061757,15.02099 1.379928,1.37993 3.237749,1.96605 6.223626,1.96351 2.089694,-0.002 2.587756,-0.0973 3.928945,-0.75349 1.779396,-0.87057 2.866898,-2.32212 3.31895,-4.42997 0.172592,-0.80476 0.280925,-5.53918 0.280925,-12.27709 V 92.084395 h 3.042708 3.042709 v 11.718375 c 0,12.90489 -0.04987,13.40252 -1.642619,16.39082 -1.421382,2.66679 -3.856061,4.40873 -7.474949,5.34813 -2.260076,0.58667 -7.391036,0.52623 -9.840631,-0.11593 z m 97.115657,0.0254 c -3.9512,-1.13117 -6.57125,-3.74582 -7.85067,-7.83449 -0.76698,-2.45103 -0.81464,-7.40132 -0.0941,-9.77828 1.12858,-3.72328 3.05685,-6.18207 6.00476,-7.65685 4.16915,-2.085737 10.17306,-1.892912 13.64134,0.43812 3.04598,2.0472 4.43233,5.23851 4.45279,10.25013 l 0.0124,3.04271 -9.47022,0.0695 -9.47021,0.0695 0.18226,0.98883 c 0.5343,2.89888 1.58612,4.47541 3.66419,5.49212 1.31742,0.64455 1.67076,0.69966 3.94886,0.61585 2.2776,-0.0838 2.60297,-0.16323 3.62823,-0.8858 0.61945,-0.43656 1.40455,-1.32086 1.74467,-1.96511 0.34013,-0.64425 0.67412,-1.22707 0.74221,-1.29516 0.13663,-0.13662 4.39031,0.99854 4.68582,1.25048 0.27188,0.2318 -0.89925,2.95808 -1.74964,4.073 -0.99451,1.30387 -2.82801,2.47237 -4.86813,3.1025 -2.21957,0.68555 -6.84973,0.6971 -9.20454,0.0229 z m 10.68346,-16.69063 c -0.19115,-1.98934 -1.18793,-3.6925 -2.71278,-4.63525 -1.17085,-0.72388 -1.49361,-0.7959 -3.55739,-0.79383 -2.44635,0.002 -3.42993,0.34188 -4.87302,1.68157 -0.96373,0.89468 -1.50798,1.9379 -1.91671,3.67396 l -0.32704,1.38906 h 6.75667 6.75668 z m 89.06446,16.69063 c -2.14348,-0.61365 -3.6981,-1.55678 -5.18316,-3.14443 -2.07306,-2.21626 -3.03584,-4.71633 -3.28359,-8.52652 -0.28621,-4.40183 1.03998,-8.75548 3.45281,-11.335 2.89182,-3.091584 7.94545,-4.411252 12.88415,-3.36447 5.66773,1.2013 8.60336,5.60075 8.37229,12.54701 l -0.076,2.28475 -9.47021,0.0695 -9.47021,0.0695 0.18225,0.98883 c 0.52445,2.84542 1.63304,4.49837 3.69282,5.50612 1.28497,0.62868 1.6534,0.68524 3.92023,0.60185 2.2776,-0.0838 2.60298,-0.16323 3.62824,-0.8858 0.61944,-0.43656 1.40454,-1.32086 1.74467,-1.96511 0.34013,-0.64425 0.67412,-1.22707 0.74221,-1.29516 0.13662,-0.13662 4.3903,0.99854 4.68581,1.25048 0.27188,0.2318 -0.89925,2.95808 -1.74964,4.073 -0.9945,1.30387 -2.828,2.47237 -4.86813,3.1025 -2.21957,0.68555 -6.84972,0.6971 -9.20453,0.0229 z m 10.71019,-16.75356 c -0.60529,-3.82902 -3.06818,-5.74419 -6.9869,-5.43309 -3.36298,0.26698 -5.36508,2.12419 -6.17478,5.72791 l -0.24348,1.08362 h 6.81153 6.81153 z M 71.354611,112.45731 V 99.492729 h 2.77022 2.77022 l 0.07405,3.351791 c 0.0429,1.94198 0.185841,3.38889 0.339827,3.43999 0.146177,0.0485 0.545328,-0.63276 0.887002,-1.51391 0.815461,-2.10301 2.981614,-4.4633 4.863724,-5.299622 1.985651,-0.882328 5.603067,-0.884697 7.407994,-0.0049 1.468471,0.715832 2.70124,2.032342 3.480882,3.717322 0.532246,1.15031 0.560584,1.67366 0.634664,11.72126 l 0.07754,10.51719 h -2.921813 -2.921813 v -8.95422 c 0,-8.83668 -0.008,-8.96935 -0.609266,-10.10636 -1.928904,-3.64761 -8.191268,-2.95914 -10.436669,1.14739 -0.409216,0.74839 -0.472767,1.84593 -0.543161,9.38037 l -0.07972,8.53282 h -2.896841 -2.896842 z m 28.575,0 V 99.492729 h 2.910419 2.91041 v 12.964581 12.96459 h -2.91041 -2.910419 z m 15.909639,7.87136 c -1.03764,-2.80128 -3.188,-8.60558 -4.7786,-12.89844 l -2.89199,-7.805209 3.06836,-0.07493 c 1.6876,-0.04121 3.14656,0.01832 3.24212,0.132292 0.12538,0.149515 5.21916,16.119217 6.50107,20.381697 0.0547,0.18191 0.38795,0.33073 0.74054,0.33073 0.48237,0 0.68254,-0.18013 0.80856,-0.7276 0.0921,-0.40018 1.55541,-5.10315 3.25175,-10.45104 l 3.08426,-9.723446 h 3.12307 3.12308 l -0.48939,1.256776 c -0.26917,0.69122 -2.42782,6.52529 -4.79701,12.96458 l -4.30761,11.70782 h -3.8958 -3.89581 z m 48.11953,-7.87136 V 99.492729 h 2.77812 2.77813 v 3.836461 c 0,4.46631 0.31871,4.95674 1.24498,1.91575 1.22264,-4.01402 3.07343,-5.797261 6.20025,-5.973942 l 1.81518,-0.102567 v 3.337149 3.33715 h -2.0834 c -3.43636,0 -5.13724,0.86815 -6.22048,3.175 -0.52095,1.1094 -0.56507,1.70957 -0.64676,8.7974 l -0.0877,7.60677 h -2.88918 -2.88918 z m 42.59791,0 V 99.492729 h 2.91042 2.91042 v 12.964581 12.96459 h -2.91042 -2.91042 z M -2.1995537,98.735727 V 82.030228 H -7.3589286 -12.518304 V 79.78127 77.532312 H 4.5473211 21.612946 v 2.248958 2.248958 h -5.159375 -5.159375 v 9.93303 c 0,10.687602 -0.166247,12.460522 -1.4346543,15.299802 -1.9137213,4.28377 -6.3032541,7.63007 -10.53774129,8.0333 l -1.52135411,0.14486 z M 243.2717,95.152026 l -0.70739,-1.442333 5.61025,-3.226491 c 3.08564,-1.774569 5.99247,-3.456731 6.45962,-3.738136 l 0.84937,-0.511646 1.05941,2.107059 c 0.73303,1.457938 0.96043,2.148493 0.73813,2.241555 -0.1767,0.07397 -3.11924,1.40488 -6.53898,2.95757 -3.41974,1.55269 -6.34041,2.875201 -6.49037,2.938914 -0.14996,0.06371 -0.59098,-0.533209 -0.98004,-1.326492 z M 99.665028,92.48127 v -2.248958 h 3.307292 3.30729 v 2.248958 2.248959 h -3.30729 -3.307292 z m 106.627082,0 v -2.248958 h 3.175 3.175 v 2.248958 2.248959 h -3.175 -3.175 z"
         id="path1" /></g></g></svg>
